<svg width="27" height="33" viewBox="0 0 27 33" fill="none" xmlns="http://www.w3.org/2000/svg">
<path fill-rule="evenodd" clip-rule="evenodd" d="M13.5 32.4998C13.5 32.4998 26.625 23.7498 26.625 13.5415C26.625 10.0605 25.2422 6.72214 22.7808 4.26073C20.3194 1.79931 16.981 0.416504 13.5 0.416504C10.019 0.416504 6.68064 1.79931 4.21922 4.26073C1.75781 6.72214 0.375 10.0605 0.375 13.5415C0.375 23.7498 13.5 32.4998 13.5 32.4998ZM17.875 12.0832C17.875 14.4994 15.9162 16.4582 13.5 16.4582C11.0838 16.4582 9.125 14.4994 9.125 12.0832C9.125 9.66693 11.0838 7.70817 13.5 7.70817C15.9162 7.70817 17.875 9.66693 17.875 12.0832Z" fill="#D92E10"/>
</svg>
