<svg width="13" height="14" viewBox="0 0 13 14" fill="none" xmlns="http://www.w3.org/2000/svg">
<path d="M12.9996 10.4817V12.5893C13.0003 12.7849 12.963 12.9786 12.8901 13.1578C12.8172 13.3371 12.7102 13.498 12.5761 13.6303C12.442 13.7626 12.2836 13.8633 12.1111 13.9259C11.9387 13.9886 11.756 14.0119 11.5747 13.9943C9.56332 13.7594 7.63128 13.0207 5.93379 11.8376C4.35449 10.7589 3.01552 9.31984 2.01197 7.62243C0.907309 5.78969 0.219857 3.70306 0.00530538 1.53156C-0.0110287 1.33729 0.0104527 1.1415 0.0683815 0.956639C0.12631 0.77178 0.219418 0.601911 0.341775 0.457846C0.464133 0.313781 0.61306 0.198678 0.779074 0.119863C0.945089 0.0410494 1.12455 0.000251806 1.30604 6.81111e-05H3.26695C3.58417 -0.00328744 3.89169 0.117444 4.13221 0.33976C4.37273 0.562076 4.52983 0.870806 4.57422 1.20841C4.65699 1.88287 4.81048 2.54511 5.03177 3.18249C5.11971 3.43394 5.13874 3.70721 5.08661 3.96993C5.03448 4.23265 4.91337 4.4738 4.73763 4.66481L3.90751 5.55701C4.838 7.31581 6.19292 8.77206 7.82933 9.77214L8.65945 8.87994C8.83717 8.69106 9.06154 8.56089 9.30598 8.50486C9.55041 8.44883 9.80467 8.46929 10.0386 8.56381C10.6316 8.80164 11.2478 8.96662 11.8753 9.05557C12.1929 9.10371 12.4828 9.2756 12.6901 9.53855C12.8974 9.8015 13.0076 10.1372 12.9996 10.4817Z" fill="#24262D"/>
</svg>
