<svg width="30" height="31" viewBox="0 0 30 31" fill="none" xmlns="http://www.w3.org/2000/svg">
<path fill-rule="evenodd" clip-rule="evenodd" d="M3.75 15.5003C3.75 14.023 4.04099 12.5602 4.60636 11.1953C5.17172 9.83048 6.00039 8.59035 7.04505 7.54574C8.08971 6.50114 9.3299 5.67251 10.6948 5.10717C12.0597 4.54183 13.5226 4.25086 15 4.25086C16.4774 4.25086 17.9403 4.54183 19.3052 5.10717C20.6701 5.67251 21.9103 6.50114 22.955 7.54574C23.9996 8.59035 24.8283 9.83048 25.3936 11.1953C25.959 12.5602 26.25 14.023 26.25 15.5003C26.25 18.4839 25.0647 21.3452 22.955 23.4549C20.8452 25.5646 17.9837 26.7498 15 26.7498C12.0163 26.7498 9.15483 25.5646 7.04505 23.4549C4.93526 21.3452 3.75 18.4839 3.75 15.5003V15.5003ZM15 1.75098C7.40625 1.75098 1.25 7.90693 1.25 15.5003C1.25 23.0937 7.40625 29.2496 15 29.2496C22.5937 29.2496 28.75 23.0937 28.75 15.5003C28.75 7.90693 22.5937 1.75098 15 1.75098ZM21 11.2505C21.0985 11.1192 21.1702 10.9698 21.2109 10.8108C21.2516 10.6518 21.2607 10.4863 21.2374 10.3238C21.2142 10.1613 21.1592 10.005 21.0756 9.86372C20.992 9.72248 20.8813 9.59909 20.75 9.5006C20.6187 9.40211 20.4692 9.33046 20.3102 9.28972C20.1512 9.24898 19.9857 9.23996 19.8232 9.26318C19.6607 9.28639 19.5044 9.34138 19.3631 9.42501C19.2219 9.50864 19.0985 9.61927 19 9.75059L12.365 18.5977L9.63375 15.8665C9.398 15.6389 9.08224 15.5129 8.7545 15.5157C8.42675 15.5186 8.11324 15.65 7.88148 15.8818C7.64972 16.1135 7.51826 16.427 7.51541 16.7547C7.51256 17.0825 7.63855 17.3982 7.86625 17.634L11.6163 21.3838C11.7429 21.5104 11.8952 21.6083 12.063 21.6709C12.2308 21.7336 12.41 21.7594 12.5886 21.7467C12.7673 21.734 12.9411 21.6831 13.0983 21.5974C13.2555 21.5117 13.3925 21.3933 13.5 21.25L21 11.2505V11.2505Z" fill="#D92E10"/>
</svg>
