<svg width="18" height="23" viewBox="0 0 18 23" fill="none" xmlns="http://www.w3.org/2000/svg">
<path fill-rule="evenodd" clip-rule="evenodd" d="M9 22.5C9 22.5 18 16.5 18 9.5C18 7.11305 17.0518 4.82387 15.364 3.13604C13.6761 1.44821 11.3869 0.5 9 0.5C6.61305 0.5 4.32387 1.44821 2.63604 3.13604C0.948211 4.82387 0 7.11305 0 9.5C0 16.5 9 22.5 9 22.5ZM12 8.5C12 10.1569 10.6569 11.5 9 11.5C7.34315 11.5 6 10.1569 6 8.5C6 6.84315 7.34315 5.5 9 5.5C10.6569 5.5 12 6.84315 12 8.5Z" fill="#BBBBBB"/>
</svg>
