<svg width="22" height="22" viewBox="0 0 22 22" fill="none" xmlns="http://www.w3.org/2000/svg">
<path fill-rule="evenodd" clip-rule="evenodd" d="M2.36658 11.1274C2.36658 8.87319 3.26211 6.71129 4.85617 5.11731C6.45023 3.52332 8.61224 2.62783 10.8666 2.62783C13.1209 2.62783 15.2829 3.52332 16.877 5.11731C18.471 6.71129 19.3666 8.87319 19.3666 11.1274C19.3666 13.3817 18.471 15.5436 16.877 17.1375C15.2829 18.7315 13.1209 19.627 10.8666 19.627C8.61224 19.627 6.45023 18.7315 4.85617 17.1375C3.26211 15.5436 2.36658 13.3817 2.36658 11.1274ZM10.8666 0.62793C5.06758 0.62793 0.366577 5.3287 0.366577 11.1274C0.366577 16.9261 5.06758 21.6269 10.8666 21.6269C16.6656 21.6269 21.3666 16.9261 21.3666 11.1274C21.3666 5.3287 16.6656 0.62793 10.8666 0.62793ZM9.86658 5.12771C9.86658 4.86251 9.76122 4.60817 9.57368 4.42064C9.38615 4.23311 9.13179 4.12776 8.86658 4.12776C8.60136 4.12776 8.34701 4.23311 8.15947 4.42064C7.97193 4.60817 7.86658 4.86251 7.86658 5.12771V6.12766H6.86658C6.60136 6.12766 6.34701 6.23302 6.15947 6.42054C5.97193 6.60807 5.86658 6.86241 5.86658 7.12762C5.86658 7.39282 5.97193 7.64716 6.15947 7.83469C6.34701 8.02222 6.60136 8.12757 6.86658 8.12757V14.1273C6.60136 14.1273 6.34701 14.2326 6.15947 14.4202C5.97193 14.6077 5.86658 14.862 5.86658 15.1272C5.86658 15.3924 5.97193 15.6468 6.15947 15.8343C6.34701 16.0218 6.60136 16.1272 6.86658 16.1272H7.86658V17.1271C7.86658 17.3923 7.97193 17.6467 8.15947 17.8342C8.34701 18.0217 8.60136 18.1271 8.86658 18.1271C9.13179 18.1271 9.38615 18.0217 9.57368 17.8342C9.76122 17.6467 9.86658 17.3923 9.86658 17.1271V16.1272H10.8666V17.1271C10.8666 17.3923 10.9719 17.6467 11.1595 17.8342C11.347 18.0217 11.6014 18.1271 11.8666 18.1271C12.1318 18.1271 12.3861 18.0217 12.5737 17.8342C12.7612 17.6467 12.8666 17.3923 12.8666 17.1271V16.1272H13.3666C13.9791 16.1271 14.577 15.9394 15.0798 15.5895C15.5825 15.2396 15.9661 14.7442 16.179 14.1698C16.3919 13.5955 16.4238 12.9697 16.2705 12.3767C16.1173 11.7836 15.7861 11.2517 15.3216 10.8524C15.6374 10.403 15.8238 9.87555 15.8604 9.32749C15.8971 8.77943 15.7825 8.23183 15.5292 7.74441C15.276 7.257 14.8937 6.84847 14.4242 6.56337C13.9547 6.27828 13.4159 6.12756 12.8666 6.12766V5.12771C12.8666 4.86251 12.7612 4.60817 12.5737 4.42064C12.3861 4.23311 12.1318 4.12776 11.8666 4.12776C11.6014 4.12776 11.347 4.23311 11.1595 4.42064C10.9719 4.60817 10.8666 4.86251 10.8666 5.12771V6.12766H9.86658V5.12771ZM11.8666 14.1273H8.86658V12.1274H13.3666C13.6318 12.1274 13.8861 12.2327 14.0737 12.4203C14.2612 12.6078 14.3666 12.8621 14.3666 13.1273C14.3666 13.3925 14.2612 13.6469 14.0737 13.8344C13.8861 14.0219 13.6318 14.1273 13.3666 14.1273H11.8666ZM11.8666 8.12757H8.86658V10.1275H12.8666C13.1318 10.1275 13.3861 10.0221 13.5737 9.83459C13.7612 9.64706 13.8666 9.39272 13.8666 9.12752C13.8666 8.86232 13.7612 8.60797 13.5737 8.42045C13.3861 8.23292 13.1318 8.12757 12.8666 8.12757H11.8666Z" fill="#D92E10"/>
</svg>
