<svg width="40" height="30" viewBox="0 0 40 30" fill="none" xmlns="http://www.w3.org/2000/svg">
<path d="M20.0091 29.5044C14.8152 29.5044 9.62205 29.505 4.42822 29.5044C1.7585 29.5037 0.000500949 27.7404 0.000500949 25.0633C-0.000166983 18.1883 -0.000166983 11.3133 0.000500949 4.43824C0.000500949 1.76317 1.75983 0.000500949 4.43022 0.000500949C14.8039 -0.000166983 25.1775 -0.000166983 35.5505 0.000500949C38.2489 0.000500949 39.9989 1.75583 39.9989 4.46162C39.9996 11.3787 40.0016 18.2951 39.9976 25.2122C39.9962 27.2468 38.7793 28.8678 36.8663 29.3621C36.4562 29.4683 36.016 29.499 35.5899 29.4997C30.3967 29.5077 25.2029 29.5044 20.0091 29.5044ZM20.0004 27.8379C25.1942 27.8379 30.388 27.8386 35.5819 27.8379C37.3031 27.8379 38.3318 26.8126 38.3324 25.096C38.3331 18.207 38.3331 11.3173 38.3324 4.42822C38.3324 2.68225 37.3125 1.66833 35.5592 1.66766C25.1849 1.66766 14.8112 1.66766 4.4369 1.66766C2.68692 1.66766 1.66632 2.68492 1.66632 4.42955C1.66565 11.3052 1.66565 18.1803 1.66632 25.0559C1.66632 26.8293 2.67891 27.8379 4.45961 27.8379C9.64075 27.8379 14.8206 27.8379 20.0004 27.8379Z" fill="#D92E10"/>
<path d="M11.933 23.6891C10.1002 23.6891 8.2674 23.6904 6.43393 23.6884C5.58632 23.6877 5.3118 23.4019 5.33318 22.5576C5.42268 19.0296 8.20194 16.1374 11.6251 16.0099C15.2092 15.8763 18.1401 18.4445 18.5101 22.0446C18.5288 22.2243 18.5535 22.4033 18.5609 22.5836C18.5936 23.3645 18.2917 23.6864 17.5142 23.6877C15.6547 23.6911 13.7939 23.6884 11.933 23.6891ZM16.8016 21.9985C16.6352 19.5379 14.2093 17.5181 11.6438 17.6837C9.29334 17.8353 6.9823 20.0335 7.12123 21.9985C10.3473 21.9985 13.5741 21.9985 16.8016 21.9985Z" fill="#D92E10"/>
<path d="M7.65044 10.1275C7.63975 7.73028 9.55538 5.80531 11.9499 5.80664C14.3277 5.80798 16.2427 7.71292 16.2521 10.0861C16.2614 12.4726 14.3318 14.4143 11.9506 14.4149C9.58677 14.4156 7.66112 12.4953 7.65044 10.1275ZM9.31692 10.1021C9.31158 11.5736 10.4805 12.7511 11.9459 12.7518C13.3953 12.7525 14.5729 11.5909 14.5849 10.1495C14.5969 8.67407 13.4387 7.4925 11.9726 7.48382C10.4938 7.47513 9.32227 8.63066 9.31692 10.1021Z" fill="#D92E10"/>
<path d="M28.8738 10.2484C27.3349 10.2484 25.7953 10.2497 24.2564 10.2477C23.6138 10.247 23.2411 9.92978 23.2492 9.40144C23.2565 8.89248 23.6252 8.58323 24.2417 8.58256C27.3756 8.58055 30.5089 8.58055 33.6428 8.58256C34.2527 8.58323 34.6113 8.90584 34.604 9.42816C34.5966 9.93178 34.2433 10.2457 33.6575 10.247C32.0632 10.2511 30.4688 10.2484 28.8738 10.2484Z" fill="#D92E10"/>
<path d="M28.928 15.5882C27.347 15.5882 25.7666 15.5922 24.1856 15.5862C23.5037 15.5836 23.0769 15.0419 23.298 14.4715C23.4382 14.1094 23.7161 13.9244 24.1015 13.9238C27.3182 13.9211 30.535 13.9184 33.7518 13.9251C34.2654 13.9264 34.602 14.2771 34.602 14.754C34.602 15.2469 34.2574 15.5829 33.711 15.5856C32.1167 15.5929 30.5223 15.5882 28.928 15.5882Z" fill="#D92E10"/>
<path d="M28.9175 19.2509C30.4985 19.2509 32.0788 19.2489 33.6598 19.2522C34.1394 19.2529 34.46 19.4606 34.5729 19.8253C34.7432 20.3757 34.3698 20.896 33.7667 20.9134C33.1568 20.9308 32.5463 20.9181 31.9365 20.9181C29.4405 20.9181 26.9451 20.9181 24.449 20.9181C24.3241 20.9181 24.1992 20.9234 24.075 20.9154C23.5921 20.8847 23.2561 20.5494 23.2501 20.0965C23.2441 19.6263 23.5874 19.2623 24.0923 19.2563C25.2151 19.2436 26.3386 19.2516 27.4614 19.2509C27.947 19.2509 28.4326 19.2509 28.9175 19.2509Z" fill="#D92E10"/>
</svg>
