<svg width="25" height="25" viewBox="0 0 25 25" fill="none" xmlns="http://www.w3.org/2000/svg">
<path fill-rule="evenodd" clip-rule="evenodd" d="M9.707 14.8493C12.025 17.1673 14.178 18.4593 15.78 19.1773C17.179 19.8043 18.83 19.3123 20.117 18.0253L20.411 17.7303L16.875 15.4803C16.203 16.4603 14.932 17.0353 13.663 16.5003C12.702 16.0943 11.43 15.4003 10.293 14.2633C9.156 13.1263 8.463 11.8543 8.057 10.8933C7.521 9.62429 8.095 8.35329 9.076 7.68129L6.826 4.14529L6.531 4.43929C5.244 5.72629 4.753 7.37729 5.379 8.77629C6.097 10.3783 7.389 12.5313 9.707 14.8493ZM14.963 21.0023C13.148 20.1893 10.791 18.7613 8.293 16.2633C5.795 13.7663 4.367 11.4083 3.553 9.59329C2.478 7.19329 3.46 4.68329 5.117 3.02529L5.411 2.73029C5.62275 2.51841 5.87938 2.3568 6.16195 2.25739C6.44453 2.15798 6.74582 2.12331 7.04359 2.15595C7.34135 2.18859 7.62799 2.28769 7.88232 2.44595C8.13665 2.60421 8.35218 2.81757 8.513 3.07029L11.343 7.52029C11.418 7.63833 11.4673 7.77078 11.4879 7.90908C11.5085 8.04739 11.4999 8.18847 11.4626 8.32323C11.4252 8.45799 11.3601 8.58342 11.2713 8.69143C11.1825 8.79944 11.072 8.88762 10.947 8.95029L10.314 9.26729C9.882 9.48329 9.794 9.86429 9.899 10.1153C10.238 10.9183 10.805 11.9463 11.707 12.8493C12.61 13.7513 13.638 14.3183 14.441 14.6573C14.692 14.7633 15.073 14.6743 15.289 14.2423L15.606 13.6093C15.6686 13.4842 15.7567 13.3736 15.8647 13.2847C15.9726 13.1958 16.0981 13.1306 16.2328 13.0932C16.3676 13.0557 16.5087 13.047 16.647 13.0675C16.7854 13.0881 16.9179 13.1374 17.036 13.2123L21.486 16.0433C21.7387 16.2041 21.9521 16.4196 22.1103 16.674C22.2686 16.9283 22.3677 17.2149 22.4003 17.5127C22.433 17.8105 22.3983 18.1118 22.2989 18.3943C22.1995 18.6769 22.0379 18.9335 21.826 19.1453L21.531 19.4393C19.874 21.0973 17.364 22.0783 14.963 21.0023Z" fill="#BBBBBB"/>
</svg>
