<svg width="40" height="28" viewBox="0 0 40 28" fill="none" xmlns="http://www.w3.org/2000/svg">
<g clip-path="url(#clip0_517_5247)">
<path d="M12.5491 27.3242C12.5147 27.3242 12.4803 27.3242 12.4491 27.3211C11.4828 27.2867 10.5915 26.7832 10.0724 25.967C6.81698 20.8634 1.11923 16.1101 1.06294 16.0632C-0.184815 15.0281 -0.359938 13.1768 0.675164 11.9259C1.71027 10.6781 3.56157 10.503 4.80932 11.535C5.02197 11.7101 9.14987 15.1469 12.7024 19.5875C16.3018 15.519 23.7883 7.97309 35.4715 0.461559C36.835 -0.417184 38.655 -0.0200301 39.5306 1.34343C40.4094 2.70689 40.0122 4.52692 38.6487 5.40253C22.7938 15.6035 14.9884 26.0264 14.9133 26.1296C14.3567 26.8801 13.4779 27.3242 12.5491 27.3242Z" fill="#2FA124"/>
</g>
<defs>
<clipPath id="clip0_517_5247">
<rect width="40" height="27.3255" fill="white"/>
</clipPath>
</defs>
</svg>
