<svg width="21" height="20" viewBox="0 0 21 20" fill="none" xmlns="http://www.w3.org/2000/svg">
<path d="M15.7399 3.46C15.5026 3.46 15.2706 3.53038 15.0732 3.66224C14.8759 3.79409 14.7221 3.98151 14.6312 4.20078C14.5404 4.42005 14.5167 4.66133 14.563 4.89411C14.6093 5.12689 14.7236 5.34071 14.8914 5.50853C15.0592 5.67635 15.273 5.79064 15.5058 5.83694C15.7386 5.88324 15.9799 5.85948 16.1991 5.76866C16.4184 5.67783 16.6058 5.52402 16.7377 5.32668C16.8695 5.12935 16.9399 4.89734 16.9399 4.66C16.9399 4.34174 16.8135 4.03652 16.5884 3.81147C16.3634 3.58643 16.0582 3.46 15.7399 3.46V3.46ZM20.3399 5.88C20.3205 5.0503 20.1651 4.2294 19.8799 3.45C19.6256 2.78313 19.2299 2.17928 18.7199 1.68C18.2247 1.16743 17.6195 0.774176 16.9499 0.53C16.1726 0.236161 15.3508 0.07721 14.5199 0.0599999C13.4599 -5.58794e-08 13.1199 0 10.3999 0C7.6799 0 7.3399 -5.58794e-08 6.2799 0.0599999C5.44905 0.07721 4.62725 0.236161 3.8499 0.53C3.18158 0.776649 2.57684 1.16956 2.0799 1.68C1.56733 2.17518 1.17408 2.78044 0.929902 3.45C0.636063 4.22734 0.477112 5.04915 0.459902 5.88C0.399902 6.94 0.399902 7.28 0.399902 10C0.399902 12.72 0.399902 13.06 0.459902 14.12C0.477112 14.9508 0.636063 15.7727 0.929902 16.55C1.17408 17.2196 1.56733 17.8248 2.0799 18.32C2.57684 18.8304 3.18158 19.2234 3.8499 19.47C4.62725 19.7638 5.44905 19.9228 6.2799 19.94C7.3399 20 7.6799 20 10.3999 20C13.1199 20 13.4599 20 14.5199 19.94C15.3508 19.9228 16.1726 19.7638 16.9499 19.47C17.6195 19.2258 18.2247 18.8326 18.7199 18.32C19.2321 17.8226 19.6282 17.2182 19.8799 16.55C20.1651 15.7706 20.3205 14.9497 20.3399 14.12C20.3399 13.06 20.3999 12.72 20.3999 10C20.3999 7.28 20.3999 6.94 20.3399 5.88V5.88ZM18.5399 14C18.5326 14.6348 18.4177 15.2637 18.1999 15.86C18.0402 16.2952 17.7838 16.6884 17.4499 17.01C17.1255 17.3405 16.7331 17.5964 16.2999 17.76C15.7036 17.9778 15.0747 18.0927 14.4399 18.1C13.4399 18.15 13.0699 18.16 10.4399 18.16C7.8099 18.16 7.4399 18.16 6.4399 18.1C5.78079 18.1123 5.1245 18.0109 4.4999 17.8C4.08568 17.6281 3.71126 17.3728 3.3999 17.05C3.06799 16.7287 2.81475 16.3352 2.6599 15.9C2.41576 15.2952 2.28035 14.6519 2.2599 14C2.2599 13 2.1999 12.63 2.1999 10C2.1999 7.37 2.1999 7 2.2599 6C2.26438 5.35106 2.38285 4.70795 2.6099 4.1C2.78595 3.67791 3.05617 3.30166 3.3999 3C3.70372 2.65617 4.07919 2.3831 4.4999 2.2C5.10945 1.98004 5.7519 1.86508 6.3999 1.86C7.3999 1.86 7.7699 1.8 10.3999 1.8C13.0299 1.8 13.3999 1.8 14.3999 1.86C15.0347 1.86728 15.6636 1.98225 16.2599 2.2C16.7143 2.36865 17.1222 2.64285 17.4499 3C17.7776 3.30718 18.0337 3.68273 18.1999 4.1C18.4222 4.70893 18.5372 5.35178 18.5399 6C18.5899 7 18.5999 7.37 18.5999 10C18.5999 12.63 18.5899 13 18.5399 14ZM10.3999 4.87C9.38571 4.87198 8.39486 5.17453 7.55256 5.73942C6.71025 6.30431 6.05428 7.1062 5.66754 8.04375C5.28079 8.98131 5.18063 10.0125 5.3797 11.0069C5.57877 12.0014 6.06814 12.9145 6.78598 13.631C7.50382 14.3474 8.41791 14.835 9.41276 15.0321C10.4076 15.2293 11.4386 15.1271 12.3754 14.7385C13.3122 14.35 14.1128 13.6924 14.676 12.849C15.2393 12.0056 15.5399 11.0142 15.5399 10C15.5412 9.3251 15.4091 8.65661 15.1511 8.03296C14.8932 7.40931 14.5145 6.84281 14.0368 6.36605C13.5591 5.88929 12.9919 5.51168 12.3677 5.25493C11.7435 4.99818 11.0748 4.86736 10.3999 4.87V4.87ZM10.3999 13.33C9.74129 13.33 9.09747 13.1347 8.54985 12.7688C8.00224 12.4029 7.57542 11.8828 7.32338 11.2743C7.07134 10.6659 7.0054 9.99631 7.13389 9.35035C7.26238 8.70439 7.57953 8.11104 8.04524 7.64533C8.51095 7.17963 9.1043 6.86247 9.75025 6.73398C10.3962 6.6055 11.0658 6.67144 11.6742 6.92348C12.2827 7.17552 12.8028 7.60234 13.1687 8.14995C13.5346 8.69757 13.7299 9.34139 13.7299 10C13.7299 10.4373 13.6438 10.8703 13.4764 11.2743C13.3091 11.6784 13.0638 12.0454 12.7546 12.3547C12.4453 12.6639 12.0783 12.9092 11.6742 13.0765C11.2702 13.2439 10.8372 13.33 10.3999 13.33V13.33Z" fill="#D92E10"/>
</svg>
