<svg width="15" height="14" viewBox="0 0 15 14" fill="none" xmlns="http://www.w3.org/2000/svg">
<path d="M14.5737 0.292893C14.9642 0.683417 14.9642 1.31658 14.5737 1.70711L2.57368 13.7071C2.18316 14.0976 1.54999 14.0976 1.15947 13.7071C0.768946 13.3166 0.768946 12.6834 1.15947 12.2929L13.1595 0.292893C13.55 -0.0976311 14.1832 -0.0976311 14.5737 0.292893Z" fill="#D92E10"/>
<path d="M12.8666 14C13.9711 14 14.8666 13.1046 14.8666 12C14.8666 10.8954 13.9711 10 12.8666 10C11.762 10 10.8666 10.8954 10.8666 12C10.8666 13.1046 11.762 14 12.8666 14Z" fill="#D92E10"/>
<path d="M2.86658 4C3.97115 4 4.86658 3.10457 4.86658 2C4.86658 0.89543 3.97115 2.98023e-08 2.86658 2.98023e-08C1.76201 2.98023e-08 0.866577 0.89543 0.866577 2C0.866577 3.10457 1.76201 4 2.86658 4Z" fill="#D92E10"/>
</svg>
