<svg width="30" height="24" viewBox="0 0 30 24" fill="none" xmlns="http://www.w3.org/2000/svg">
<path d="M23.3969 20C13.1589 20.0121 5.38896 13.4595 5.39991 5.00251C5.39991 4.45023 5.93717 4 6.59991 4H9.76714C10.3618 4 10.867 4.36413 10.9543 4.85433C11.1636 6.0292 11.5741 7.17297 12.1733 8.2507L12.2966 8.4725C12.4681 8.78091 12.3518 9.14734 12.0199 9.34487C11.0391 9.92859 10.6642 11.1036 11.4283 12.0204C12.3872 13.1708 13.596 14.1779 14.9762 14.9766C16.0763 15.6132 17.4861 15.3009 18.1865 14.4836C18.4237 14.2069 18.8637 14.11 19.234 14.2529L19.4989 14.3552C20.7923 14.8545 22.1649 15.1966 23.5749 15.371C24.1632 15.4437 24.5999 15.8647 24.5999 16.3603V19C24.5999 19.5523 24.0613 20 23.3986 20L23.3969 20Z" fill="#D92E10"/>
</svg>
