<svg width="25" height="27" viewBox="0 0 25 27" fill="none" xmlns="http://www.w3.org/2000/svg">
<path d="M21.2971 20.657C20.5222 21.0807 19.7785 21.4875 19.0343 21.8949C18.9822 21.9235 18.9337 21.9592 18.8801 21.9847C18.5871 22.1246 18.408 22.2716 18.434 22.681C18.4764 23.3456 17.898 23.8254 17.2197 23.8039C17.1354 23.8014 17.0517 23.7932 16.9629 23.7871C16.9435 23.8233 16.9226 23.8509 16.9139 23.8815C16.7189 24.5502 16.2692 24.8769 15.5735 24.8356C15.4193 24.8264 15.3428 24.8595 15.2616 25.003C14.9793 25.5012 14.501 25.6232 13.9727 25.5966C13.8094 25.5885 13.7001 25.6043 13.5812 25.7411C13.2367 26.1367 12.6956 26.2383 12.154 26.0019C11.8778 25.8815 11.6298 25.6967 11.3633 25.5374C10.6706 26.1346 9.97746 26.08 9.35778 25.3521C9.25671 25.2337 9.16177 25.173 8.99843 25.1679C8.31902 25.1469 7.88106 24.8233 7.67484 24.175C7.61155 23.9765 7.51915 23.905 7.31753 23.8637C6.61107 23.7187 6.13074 23.3359 6.05928 22.562C6.05418 22.5074 5.98067 22.4237 5.9281 22.414C5.09148 22.2619 4.70303 21.557 4.90261 20.5856C4.79389 20.5437 4.67955 20.4998 4.53458 20.4437C4.4182 20.6958 4.30692 20.9393 4.1936 21.1813C4.00933 21.5743 3.78627 21.6636 3.3968 21.4881C2.67605 21.1639 1.95734 20.8367 1.23915 20.507C0.87826 20.3411 0.780254 20.0996 0.942066 19.7428C1.92467 17.5765 2.90983 15.4117 3.89806 13.2479C4.05425 12.9064 4.30386 12.8181 4.65198 12.9748C5.38754 13.3051 6.12207 13.6389 6.85251 13.9809C6.96226 14.0325 7.10825 14.1213 7.13173 14.2188C7.19247 14.4684 7.36755 14.4847 7.55336 14.4868C8.64826 14.4975 9.74368 14.4853 10.8381 14.5149C11.3909 14.5297 11.8125 14.2014 12.299 14.0478C12.6792 13.9278 13.0488 13.7737 13.4286 13.6527C13.8665 13.5134 14.28 13.6267 14.6889 13.8002C15.258 14.0422 15.8231 14.3015 16.4096 14.4929C17.0527 14.7027 17.7184 14.6578 18.3712 14.4944C18.435 14.4786 18.4881 14.4056 18.5381 14.3515C18.6499 14.2326 18.7342 14.0606 18.8699 13.9947C19.6193 13.6328 20.3778 13.2908 21.1394 12.9544C21.4558 12.8146 21.6927 12.9299 21.852 13.2786C22.5012 14.7002 23.147 16.1238 23.7942 17.5464C24.1178 18.258 24.4435 18.9685 24.7656 19.6811C24.9626 20.116 24.8799 20.3299 24.442 20.531C23.7544 20.8464 23.0668 21.1609 22.3787 21.4738C21.9459 21.6708 21.7325 21.5886 21.5273 21.1506C21.4589 21.0062 21.3915 20.8602 21.2971 20.657ZM10.7972 22.9969C11.2694 23.0628 11.5001 23.3731 11.6293 23.7754C11.7543 24.1653 11.7436 24.562 11.6395 24.9581C11.6216 25.0254 11.5991 25.1331 11.6333 25.1658C11.9575 25.4777 12.3153 25.7498 12.7951 25.7038C12.9202 25.6916 13.0881 25.5691 13.1356 25.4547C13.1825 25.3419 13.1417 25.151 13.0702 25.0392C12.9391 24.8335 12.7563 24.661 12.5955 24.4742C12.3623 24.2036 12.1203 23.9402 11.9034 23.6574C11.8559 23.5957 11.8993 23.4645 11.9008 23.3655C11.9998 23.3752 12.103 23.3726 12.1964 23.4007C12.2443 23.415 12.2755 23.4854 12.3143 23.5303C12.6874 23.9607 13.056 24.395 13.4357 24.8197C13.7486 25.1694 14.1937 25.2756 14.5664 25.1081C14.9487 24.9361 15.0002 24.6865 14.7139 24.3772C14.1248 23.7406 13.5348 23.1051 12.9447 22.4696C12.8426 22.3594 12.7313 22.2389 12.8824 22.1011C13.034 21.9628 13.1422 22.0878 13.2433 22.1971C13.7925 22.7892 14.3413 23.3823 14.8936 23.9714C14.9977 24.0826 15.1059 24.1949 15.231 24.2797C15.5806 24.5165 16.0747 24.4645 16.3294 24.1791C16.5729 23.9065 16.5326 23.5783 16.2018 23.2047C15.5822 22.5043 14.9594 21.8066 14.3382 21.1073C14.2872 21.0501 14.2106 20.9996 14.1927 20.9332C14.1662 20.8347 14.1815 20.7249 14.1794 20.6198C14.2841 20.6366 14.3913 20.6453 14.4923 20.6749C14.5342 20.6872 14.5623 20.7459 14.596 20.7842C15.2509 21.5217 15.9048 22.2598 16.5612 22.9964C16.6342 23.0786 16.7118 23.1598 16.7985 23.2266C17.0553 23.4262 17.4095 23.4461 17.6852 23.2858C17.9516 23.1307 18.1094 22.8259 18.0308 22.5013C17.9761 22.2757 17.8756 22.0485 17.7454 21.8561C16.5847 20.1364 15.1784 18.649 13.5179 17.4009C12.9728 16.9915 12.3914 16.8721 11.7421 17.0783C10.9493 17.3305 10.1607 17.5974 9.36084 17.8246C9.0316 17.918 8.67736 17.9655 8.33485 17.9614C7.97243 17.9573 7.7366 17.6005 7.8489 17.2524C7.92241 17.0242 8.0347 16.7802 8.20111 16.6164C8.5865 16.2366 9.00506 15.8874 9.43077 15.5521C9.7059 15.3357 10.0178 15.1667 10.371 14.939C10.2128 14.939 10.1219 14.9416 10.0311 14.9385C9.09745 14.9105 8.16385 14.8875 7.23126 14.8466C7.06333 14.8395 7.03525 14.9319 6.98625 15.0396C6.28286 16.5862 5.57895 18.1324 4.87556 19.679C4.81737 19.8066 4.76428 19.9373 4.70966 20.0654C5.09811 20.2303 5.09811 20.2303 5.23951 20.1333C5.90155 19.6795 6.82699 19.8791 7.243 20.5662C7.28537 20.6361 7.32314 20.7086 7.36143 20.777C8.33332 20.3891 9.01425 20.7081 9.27202 21.6488C10.2796 21.438 10.882 21.9602 10.7972 22.9969ZM18.2421 21.8653C19.2063 21.3375 20.1639 20.8132 21.1322 20.2829C20.3084 18.4729 19.4835 16.6608 18.6571 14.8451C17.3907 15.1897 16.2171 15.0151 15.0926 14.4317C14.4561 14.1019 13.8446 13.8865 13.0856 14.178C11.5991 14.7481 10.1694 15.3995 8.94636 16.4346C8.69165 16.6501 8.47267 16.9231 8.29044 17.2039C8.13271 17.4469 8.26594 17.623 8.55791 17.5857C8.80956 17.5535 9.0607 17.4969 9.30367 17.4229C10.1245 17.1743 10.9371 16.8981 11.7615 16.6628C12.3454 16.4964 12.9355 16.5081 13.4459 16.8895C14.0304 17.3259 14.6225 17.7598 15.159 18.2523C16.3315 19.3294 17.3942 20.51 18.2421 21.8653ZM18.9148 14.4046C19.0629 14.7389 19.2002 15.0549 19.3426 15.3683C20.1894 17.232 21.0409 19.0936 21.8816 20.9603C21.9683 21.1527 22.0423 21.1879 22.2373 21.0955C22.9121 20.7739 23.5951 20.4692 24.2781 20.165C24.4282 20.0981 24.4848 20.0343 24.4057 19.8613C23.4297 17.7296 22.4599 15.5955 21.4921 13.4608C21.4293 13.3225 21.3645 13.2913 21.2195 13.3582C20.4722 13.7038 19.7208 14.0396 18.9148 14.4046ZM3.72757 21.1935C3.78116 21.0904 3.8271 21.0108 3.86488 20.9281C4.8189 18.8327 5.76935 16.7358 6.73001 14.644C6.81831 14.4516 6.76931 14.376 6.59729 14.2995C5.90666 13.9937 5.21756 13.6854 4.53407 13.3643C4.3595 13.2821 4.29569 13.3383 4.22984 13.4909C4.07518 13.8497 3.90826 14.2035 3.74645 14.5588C2.94761 16.3137 2.1508 18.0696 1.34583 19.822C1.2565 20.0164 1.29427 20.0996 1.48824 20.1803C1.91191 20.3559 2.32537 20.556 2.74292 20.7459C3.06501 20.8924 3.38761 21.0389 3.72757 21.1935ZM8.96321 24.7615C9.0556 24.7074 9.2511 24.6554 9.34502 24.5283C9.69161 24.0576 10.0219 23.5727 10.323 23.072C10.515 22.7529 10.3833 22.3089 10.0903 22.0919C9.83147 21.9 9.51755 21.9393 9.2123 22.2073C9.13625 22.2741 9.0658 22.3497 9.00404 22.4298C8.73606 22.78 8.47369 23.1353 8.20621 23.4859C8.02245 23.7269 7.99795 23.9795 8.1373 24.247C8.29452 24.5482 8.53852 24.7217 8.96321 24.7615ZM8.84631 21.7923C8.82947 21.4411 8.71411 21.2558 8.49768 21.1318C8.11893 20.9153 7.62533 21.0036 7.29303 21.363C7.07405 21.5998 6.86936 21.85 6.66314 22.0985C6.42578 22.3854 6.40945 22.6759 6.60444 22.9903C6.95817 23.56 7.61155 23.5952 8.0148 23.0653C8.22051 22.7948 8.43489 22.5304 8.62376 22.2481C8.73299 22.0848 8.79884 21.8918 8.84631 21.7923ZM11.3745 24.441C11.2898 24.151 11.2531 23.9025 11.1469 23.6886C10.9708 23.3333 10.664 23.3297 10.4389 23.6569C10.2424 23.9433 10.0479 24.2307 9.86108 24.5232C9.80799 24.6064 9.76563 24.7049 9.7498 24.8014C9.7008 25.1 9.84372 25.3337 10.1388 25.4685C10.4782 25.6232 10.8263 25.5726 11.0213 25.2679C11.1842 25.0122 11.2653 24.7054 11.3745 24.441ZM5.23797 21.0925C5.26758 21.2328 5.27881 21.3798 5.33036 21.5115C5.5325 22.0291 6.10012 22.1256 6.46049 21.7096C6.57738 21.5748 6.72541 21.4528 6.79636 21.2966C6.86681 21.141 6.91734 20.9322 6.87191 20.7775C6.77135 20.4376 6.23028 20.2247 5.81069 20.313C5.45798 20.3875 5.25125 20.6764 5.23797 21.0925Z" fill="#D92E10"/>
<path d="M9.38735 0.496982C9.38735 1.02325 9.38735 1.51532 9.38735 2.00688C9.38735 2.86136 8.84015 3.40754 7.98158 3.40856C7.49002 3.40907 6.99846 3.40856 6.47219 3.40856C6.47219 3.5617 6.47219 3.69492 6.47219 3.82764C6.47219 6.51513 6.47168 9.20263 6.47168 11.8901C6.47168 11.9498 6.47066 12.0091 6.47168 12.0688C6.47577 12.2459 6.44208 12.4098 6.22361 12.4077C6.00769 12.4057 5.97961 12.2454 5.97961 12.0657C5.98115 9.13167 5.97859 6.19764 5.98523 3.2636C5.98574 3.15079 6.04189 3.0099 6.12101 2.93027C7.03981 1.99718 7.96576 1.07072 8.89885 0.152431C8.9841 0.0682077 9.13468 0.00746435 9.25463 0.0069539C12.3076 -0.000702777 15.3611 -0.00172348 18.4141 0.00236008C19.2042 0.00338097 19.754 0.567423 19.754 1.36372C19.755 4.91846 19.754 8.47371 19.7535 12.0285C19.7535 12.0877 19.7749 12.1678 19.7448 12.203C19.6759 12.2842 19.585 12.3904 19.4957 12.398C19.4263 12.4041 19.3242 12.2883 19.2767 12.204C19.24 12.1387 19.2645 12.0382 19.2645 11.9529C19.2634 8.46605 19.2537 4.9792 19.2711 1.49235C19.2742 0.859398 18.9 0.48371 18.2517 0.488304C15.4029 0.510253 12.5536 0.498003 9.70485 0.498003C9.61297 0.496982 9.52006 0.496982 9.38735 0.496982ZM8.88354 0.947705C8.22404 1.59903 7.56302 2.2524 6.9025 2.90526C7.32923 2.90526 7.76924 2.92466 8.2072 2.89914C8.55175 2.87923 8.85648 2.57654 8.87741 2.23199C8.90344 1.79402 8.88354 1.35351 8.88354 0.947705Z" fill="#D92E10"/>
<path d="M12.8957 11.5342C14.0003 11.5342 15.1054 11.5337 16.21 11.5352C16.2856 11.5352 16.381 11.5199 16.4326 11.5587C16.5046 11.6123 16.5868 11.7113 16.5842 11.7884C16.5817 11.8644 16.4933 11.967 16.4168 12.0028C16.3315 12.0426 16.2172 12.0247 16.1156 12.0247C13.9401 12.0257 11.7646 12.0268 9.58906 12.0242C9.40224 12.0242 9.14906 12.0773 9.1465 11.7838C9.14395 11.4928 9.38999 11.5367 9.58191 11.5362C10.6865 11.5352 11.7916 11.5357 12.8962 11.5357C12.8957 11.5347 12.8957 11.5342 12.8957 11.5342Z" fill="#D92E10"/>
<path d="M12.8717 6.83218C13.9676 6.83218 15.0636 6.83218 16.1595 6.83218C16.2274 6.83218 16.3111 6.80921 16.3601 6.83983C16.4499 6.89598 16.5755 6.98072 16.5806 7.06086C16.5862 7.13947 16.4709 7.24002 16.3887 7.30536C16.3448 7.33956 16.2575 7.32221 16.1901 7.32221C13.9728 7.32272 11.7559 7.32272 9.53852 7.3217C9.47114 7.3217 9.38589 7.33701 9.33944 7.30332C9.26032 7.24564 9.14547 7.1461 9.15415 7.07923C9.1664 6.99042 9.27155 6.89854 9.35884 6.84188C9.41295 6.80666 9.50738 6.83218 9.58395 6.83218C10.6799 6.83218 11.7758 6.83218 12.8717 6.83218Z" fill="#D92E10"/>
<path d="M12.8784 9.18345C13.9748 9.18345 15.0712 9.18345 16.1677 9.18345C16.2442 9.18345 16.3376 9.15997 16.3928 9.19519C16.4749 9.24725 16.5801 9.34015 16.5827 9.41927C16.5852 9.49839 16.4882 9.60252 16.4086 9.6551C16.3468 9.69542 16.2442 9.67705 16.1595 9.67705C13.9753 9.67807 11.7911 9.67858 9.6064 9.67603C9.41141 9.67603 9.14342 9.73065 9.14751 9.42336C9.15159 9.11301 9.42417 9.18651 9.61456 9.18549C10.7023 9.1809 11.7906 9.18345 12.8784 9.18345Z" fill="#D92E10"/>
<path d="M12.8533 4.96654C11.7829 4.96654 10.713 4.96654 9.6426 4.96603C9.54102 4.96603 9.42566 4.98747 9.34093 4.94714C9.25772 4.90784 9.1541 4.80371 9.15308 4.72714C9.15206 4.64853 9.25211 4.55002 9.33225 4.4954C9.38534 4.45916 9.48028 4.48111 9.55685 4.48111C11.7655 4.48059 13.9737 4.48059 16.1824 4.48059C16.2416 4.48059 16.3192 4.45865 16.357 4.48774C16.4468 4.55563 16.5627 4.63985 16.5801 4.73378C16.5913 4.79401 16.4576 4.91549 16.3662 4.9502C16.2615 4.99002 16.1319 4.96603 16.013 4.96603C14.9599 4.96705 13.9064 4.96654 12.8533 4.96654Z" fill="#D92E10"/>
<path d="M8.88353 0.947266C8.88353 1.35307 8.90343 1.79409 8.87689 2.23155C8.85596 2.5761 8.55123 2.87879 8.20668 2.8987C7.76871 2.92422 7.32871 2.90482 6.90198 2.90482C7.563 2.25196 8.22403 1.59859 8.88353 0.947266Z" fill="white"/>
</svg>
