<svg width="13" height="20" viewBox="0 0 13 20" fill="none" xmlns="http://www.w3.org/2000/svg">
<path d="M8.86658 9H7.86658V5H9.86658C10.1318 5 10.3861 5.10536 10.5737 5.29289C10.7612 5.48043 10.8666 5.73478 10.8666 6C10.8666 6.26522 10.9719 6.51957 11.1595 6.70711C11.347 6.89464 11.6014 7 11.8666 7C12.1318 7 12.3861 6.89464 12.5737 6.70711C12.7612 6.51957 12.8666 6.26522 12.8666 6C12.8666 5.20435 12.5505 4.44129 11.9879 3.87868C11.4253 3.31607 10.6622 3 9.86658 3H7.86658V1C7.86658 0.734784 7.76122 0.48043 7.57368 0.292893C7.38615 0.105357 7.13179 0 6.86658 0C6.60136 0 6.34701 0.105357 6.15947 0.292893C5.97193 0.48043 5.86658 0.734784 5.86658 1V3H4.86658C3.80571 3 2.7883 3.42143 2.03815 4.17157C1.288 4.92172 0.866577 5.93913 0.866577 7C0.866577 8.06087 1.288 9.07828 2.03815 9.82843C2.7883 10.5786 3.80571 11 4.86658 11H5.86658V15H3.86658C3.60136 15 3.34701 14.8946 3.15947 14.7071C2.97193 14.5196 2.86658 14.2652 2.86658 14C2.86658 13.7348 2.76122 13.4804 2.57368 13.2929C2.38615 13.1054 2.13179 13 1.86658 13C1.60136 13 1.34701 13.1054 1.15947 13.2929C0.971934 13.4804 0.866577 13.7348 0.866577 14C0.866577 14.7956 1.18265 15.5587 1.74526 16.1213C2.30787 16.6839 3.07093 17 3.86658 17H5.86658V19C5.86658 19.2652 5.97193 19.5196 6.15947 19.7071C6.34701 19.8946 6.60136 20 6.86658 20C7.13179 20 7.38615 19.8946 7.57368 19.7071C7.76122 19.5196 7.86658 19.2652 7.86658 19V17H8.86658C9.92744 17 10.9449 16.5786 11.695 15.8284C12.4451 15.0783 12.8666 14.0609 12.8666 13C12.8666 11.9391 12.4451 10.9217 11.695 10.1716C10.9449 9.42143 9.92744 9 8.86658 9ZM5.86658 9H4.86658C4.33614 9 3.82744 8.78929 3.45236 8.41421C3.07729 8.03914 2.86658 7.53043 2.86658 7C2.86658 6.46957 3.07729 5.96086 3.45236 5.58579C3.82744 5.21071 4.33614 5 4.86658 5H5.86658V9ZM8.86658 15H7.86658V11H8.86658C9.39701 11 9.90572 11.2107 10.2808 11.5858C10.6559 11.9609 10.8666 12.4696 10.8666 13C10.8666 13.5304 10.6559 14.0391 10.2808 14.4142C9.90572 14.7893 9.39701 15 8.86658 15Z" fill="#D92E10"/>
</svg>
