<svg width="35" height="36" viewBox="0 0 35 36" fill="none" xmlns="http://www.w3.org/2000/svg">
<path d="M3.32373 27.8045C3.16794 28.5342 3.03632 29.1851 2.88859 29.8316C2.73101 30.5228 2.24932 30.9669 1.60109 31.0412C1.01374 31.1083 0.382527 30.7806 0.146157 30.2174C0.036925 29.956 -0.0355978 29.6265 0.0181228 29.357C0.412969 27.3855 0.83378 25.4193 1.27071 23.4567C1.45694 22.6214 2.17948 22.171 3.02916 22.3474C4.95146 22.7449 6.87197 23.1568 8.7889 23.5794C9.6153 23.7611 10.1122 24.5043 9.9609 25.2743C9.80422 26.072 9.1148 26.5734 8.26602 26.4355C7.42171 26.2985 6.58725 26.0935 5.74921 25.9189C5.70444 25.91 5.65878 25.9028 5.50389 25.8768C5.93723 26.4051 6.28283 26.8859 6.68753 27.3112C9.95105 30.7475 13.9425 32.3931 18.686 32.0234C22.801 31.7028 26.1773 29.8763 28.7962 26.7041C30.5466 24.584 31.6076 22.137 31.9451 19.3937C32.4644 15.1721 31.3829 11.392 28.661 8.14457C26.0833 5.06907 22.7428 3.27838 18.7254 2.98739C13.1868 2.58538 8.77278 4.71809 5.49135 9.1948C5.41435 9.30045 5.34272 9.41058 5.26214 9.51355C4.75359 10.1618 3.90928 10.3041 3.25747 9.85288C2.60029 9.39805 2.40869 8.51076 2.89575 7.83299C3.47862 7.02181 4.07492 6.20973 4.75717 5.4845C7.45036 2.62388 10.7497 0.808129 14.6319 0.232424C21.15 -0.733651 26.634 1.31579 30.9271 6.30822C33.8442 9.70157 35.1433 13.7315 34.9875 18.1939C34.7234 25.773 29.534 32.3117 22.219 34.3665C15.4126 36.278 8.04666 33.8534 3.69261 28.2683C3.59054 28.1376 3.48668 28.0095 3.32373 27.8045Z" fill="#919191"/>
<path d="M17.1562 14.0654C17.1562 12.9937 17.1508 11.9211 17.1579 10.8494C17.1642 9.97998 17.6119 9.39711 18.3532 9.26281C19.2199 9.10612 20.0078 9.71764 20.0696 10.5978C20.0795 10.7401 20.0795 10.8834 20.0795 11.0266C20.0803 12.8728 20.0732 14.719 20.0902 16.5652C20.092 16.7515 20.1896 16.9833 20.3212 17.1159C22.316 19.1304 24.3207 21.1351 26.3307 23.1352C26.6665 23.4692 26.9073 23.8417 26.8939 24.3243C26.8769 24.9241 26.6002 25.3754 26.0308 25.6037C25.4766 25.8258 24.9394 25.8374 24.4684 25.396C24.3905 25.3226 24.3117 25.25 24.2356 25.1739C22.0788 23.018 19.9272 20.8566 17.7614 18.7096C17.3442 18.2959 17.1445 17.8294 17.1526 17.2457C17.166 16.1856 17.1562 15.1255 17.1562 14.0654Z" fill="#919191"/>
</svg>
