<svg width="164" height="240" viewBox="0 0 164 240" fill="none" xmlns="http://www.w3.org/2000/svg">
<path d="M144.593 159.079C121.69 165.222 116.277 163.506 112.198 169.522C111.73 170.215 109.333 173.744 109.82 178.269C110.198 181.877 112.258 184.666 113.541 185.894C121.381 193.334 142.972 184.227 155.339 174.271C158.035 172.096 165.268 166.275 163.806 162.141C163.209 160.444 161.358 159.605 160.025 159.02C154.145 156.436 148.046 158.143 144.593 159.079Z" fill="url(#paint0_linear_552_5104)"/>
<path d="M73.8836 8.21045H78.7588V39.5601H73.8836V8.21045Z" fill="url(#paint1_linear_552_5104)"/>
<path d="M59.4875 56.8781H93.1464C95.6238 56.8781 97.6436 54.9084 97.6436 52.4707V40.6816C97.6436 38.2536 95.6338 36.2742 93.1464 36.2742H59.4875C57.0101 36.2742 54.9903 38.2439 54.9903 40.6816V52.4707C55.0003 54.9084 57.0101 56.8781 59.4875 56.8781Z" fill="url(#paint2_linear_552_5104)"/>
<path d="M0.0097564 125.398C0.0097564 144.442 15.7597 159.878 35.1909 159.878H117.443C136.794 159.878 152.624 144.364 152.624 125.398V107.485C152.624 73.7368 124.457 46.1316 90.0222 46.1316H62.6016C28.1666 46.1316 -0.000202746 73.7368 -0.000202746 107.485V125.398H0.0097564Z" fill="url(#paint3_linear_552_5104)"/>
<path d="M24.0156 122.131C26.0154 123.096 28.254 123.603 30.5225 123.603H122.107C124.385 123.603 126.624 123.096 128.614 122.131C133.519 119.752 136.285 114.954 135.598 110.03L135.549 109.669C133.201 92.9949 117.789 80.1723 98.9049 79.2167C90.9155 78.8071 82.5282 78.6024 73.7727 78.6511C66.9175 78.6901 60.2912 78.8851 53.9136 79.2069C34.95 80.1625 19.4289 92.9364 17.0709 109.669C17.051 109.786 17.0411 109.913 17.0212 110.03C16.3446 114.954 19.1105 119.752 24.0156 122.131Z" fill="url(#paint4_linear_552_5104)"/>
<path d="M100.459 119.929C90.9201 119.929 83.187 112.35 83.187 103.001C83.187 93.6518 90.9201 86.073 100.459 86.073C109.998 86.073 117.731 93.6518 117.731 103.001C117.731 112.35 109.998 119.929 100.459 119.929Z" fill="url(#paint5_radial_552_5104)"/>
<path d="M100.457 115.151C93.6108 115.151 88.0605 109.712 88.0605 103.002C88.0605 96.2915 93.6108 90.8518 100.457 90.8518C107.304 90.8518 112.854 96.2915 112.854 103.002C112.854 109.712 107.304 115.151 100.457 115.151Z" fill="#EEFDFF"/>
<path d="M100.459 113.201C94.7114 113.201 90.052 108.634 90.052 103.001C90.052 97.368 94.7114 92.8015 100.459 92.8015C106.207 92.8015 110.866 97.368 110.866 103.001C110.866 108.634 106.207 113.201 100.459 113.201Z" fill="url(#paint6_linear_552_5104)"/>
<path d="M93.79 100.358C93.79 102.445 95.5212 104.142 97.6504 104.142C99.7795 104.142 101.511 102.445 101.511 100.358C101.511 98.2714 99.7795 96.5747 97.6504 96.5747C95.5112 96.5845 93.79 98.2714 93.79 100.358Z" fill="#EEFDFF"/>
<path d="M102 112.343C101.148 112.343 100.458 111.666 100.458 110.831C100.458 109.996 101.148 109.319 102 109.319C102.852 109.319 103.542 109.996 103.542 110.831C103.542 111.666 102.852 112.343 102 112.343Z" fill="#EEFDFF"/>
<path d="M105.813 108.568C105.813 108.988 106.161 109.319 106.579 109.319C107.006 109.319 107.345 108.978 107.345 108.568C107.345 108.149 106.996 107.817 106.579 107.817C106.161 107.807 105.813 108.149 105.813 108.568Z" fill="#EEFDFF"/>
<path d="M53.8049 119.929C44.2657 119.929 36.5327 112.35 36.5327 103.001C36.5327 93.6518 44.2657 86.073 53.8049 86.073C63.3441 86.073 71.0771 93.6518 71.0771 103.001C71.0771 112.35 63.3441 119.929 53.8049 119.929Z" fill="url(#paint7_radial_552_5104)"/>
<path d="M53.8032 115.151C46.9565 115.151 41.4062 109.712 41.4062 103.002C41.4062 96.2915 46.9565 90.8518 53.8032 90.8518C60.6499 90.8518 66.2002 96.2915 66.2002 103.002C66.2002 109.712 60.6499 115.151 53.8032 115.151Z" fill="#EEFDFF"/>
<path d="M53.8028 113.201C48.0552 113.201 43.3957 108.634 43.3957 103.001C43.3957 97.368 48.0552 92.8015 53.8028 92.8015C59.5505 92.8015 64.21 97.368 64.21 103.001C64.21 108.634 59.5505 113.201 53.8028 113.201Z" fill="url(#paint8_linear_552_5104)"/>
<path d="M47.1376 100.358C47.1376 102.445 48.8688 104.142 50.998 104.142C53.1272 104.142 54.8584 102.445 54.8584 100.358C54.8584 98.2714 53.1272 96.5747 50.998 96.5747C48.8589 96.5845 47.1376 98.2714 47.1376 100.358Z" fill="#EEFDFF"/>
<path d="M55.3455 112.343C54.4938 112.343 53.8034 111.666 53.8034 110.831C53.8034 109.996 54.4938 109.319 55.3455 109.319C56.1973 109.319 56.8877 109.996 56.8877 110.831C56.8877 111.666 56.1973 112.343 55.3455 112.343Z" fill="#EEFDFF"/>
<path d="M59.1582 108.568C59.1582 108.987 59.5065 109.319 59.9243 109.319C60.3422 109.319 60.6904 108.978 60.6904 108.568C60.6904 108.149 60.3422 107.817 59.9243 107.817C59.5065 107.817 59.1582 108.149 59.1582 108.568Z" fill="#EEFDFF"/>
<path d="M70.0709 6.12366C70.0709 9.50728 72.8667 12.2473 76.3191 12.2473C79.7716 12.2473 82.5674 9.50728 82.5674 6.12366C82.5674 2.74005 79.7716 0 76.3191 0C72.8667 0 70.0709 2.74005 70.0709 6.12366Z" fill="url(#paint9_linear_552_5104)"/>
<path d="M71.9816 3.73525C71.9816 4.76887 72.8372 5.5977 73.8819 5.5977C74.9365 5.5977 75.7822 4.75911 75.7822 3.73525C75.7822 2.70164 74.9266 1.8728 73.8819 1.8728C72.8272 1.8728 71.9816 2.70164 71.9816 3.73525Z" fill="white"/>
<path d="M22.5534 65.7516C22.4739 68.6086 24.8518 72.0215 27.5779 72.314C30.1349 72.5871 32.1745 70.0323 34.2739 67.3898C36.3434 64.7862 40.8803 58.1068 39.0794 56.2151C36.6916 53.7285 22.7425 59.0136 22.5534 65.7516Z" fill="white"/>
<path d="M45.8965 54.8601C44.6986 54.8601 43.7275 53.9084 43.7275 52.7344C43.7275 51.5604 44.6986 50.6086 45.8965 50.6086C47.0944 50.6086 48.0654 51.5604 48.0654 52.7344C48.0654 53.9084 47.0944 54.8601 45.8965 54.8601Z" fill="white"/>
<path d="M22.8619 105.389C23.5584 105.866 28.4137 96.1739 41.4475 87.7783C46.0242 84.8237 50.5512 82.7175 50.2826 82.1032C50.0139 81.4791 44.9198 82.6395 40.8405 84.4922C27.8366 90.4013 22.0361 104.813 22.8619 105.389Z" fill="white"/>
<path d="M56.2318 42.3778C56.391 42.3973 56.4905 41.5099 57.2467 40.1253C57.2467 40.1253 57.6048 39.4817 58.0128 38.9357C59.3261 37.1707 63.7536 37.2097 64.1018 37.2097C71.0067 37.2682 75.4541 36.8392 75.4541 36.8782C75.4541 36.9172 72.2106 36.8489 69.8426 36.8002C63.1467 36.6637 59.1569 36.3126 57.4456 38.0678C56.7392 38.7991 56.3811 39.745 56.3811 39.745C55.8836 41.0321 56.0428 42.3485 56.2318 42.3778Z" fill="white"/>
<path d="M21.6167 181.223C21.6167 181.428 21.6167 181.623 21.6266 181.818C21.6963 183.7 22.144 185.114 22.3629 185.748C28.6609 204.597 32.4317 214.543 37.7248 222.587C38.6402 223.972 39.5953 225.308 40.63 226.614C41.9832 228.36 43.4656 230.066 45.1073 231.821C48.7587 235.722 54.2906 237.487 56.0716 238.091C62.5885 240.344 68.3492 239.934 72.1697 239.973H72.8363C76.6768 239.934 82.4276 240.354 88.9345 238.091C90.7155 237.487 96.2573 235.722 99.8988 231.821C109.948 221.105 113.818 212.193 122.643 185.748C122.852 185.143 123.27 183.827 123.369 182.062C123.399 181.555 123.409 181.038 123.379 180.531C123.19 177.372 121.877 174.271 119.559 171.443C115.579 166.587 109.44 163.925 103.093 163.905L72.4881 163.779L42.4408 163.662C35.9538 163.632 29.6658 166.304 25.5467 171.219C23.5568 173.598 22.2833 176.172 21.8157 178.824C21.756 179.205 21.6963 179.585 21.6565 179.965C21.6465 180.375 21.6167 180.794 21.6167 181.223Z" fill="url(#paint10_linear_552_5104)"/>
<path d="M72.5198 163.769L103.124 163.896C109.472 163.925 115.621 166.587 119.591 171.433C121.909 174.261 123.222 177.362 123.411 180.521C123.252 177.284 121.899 174.095 119.471 171.209C115.362 166.294 109.064 163.623 102.577 163.652L72.5198 163.769Z" fill="url(#paint11_linear_552_5104)"/>
<path d="M42.1027 207.961C42.5505 184.695 45.7641 180.093 41.0282 174.554C40.481 173.92 37.7051 170.673 33.1383 169.844C29.4968 169.181 26.1936 170.322 24.6316 171.2C15.1298 176.475 17.9555 199.341 24.2037 213.773C25.5668 216.922 29.2282 225.367 33.6855 225.162C35.5162 225.084 36.8594 223.573 37.8046 222.49C41.9833 217.693 42.0331 211.471 42.1027 207.961Z" fill="url(#paint12_linear_552_5104)"/>
<path d="M37.7365 222.586C38.6518 223.971 39.607 225.307 40.6417 226.614C40.9701 226.282 41.2586 225.951 41.5272 225.648C45.7159 220.851 45.7557 214.63 45.8254 211.119C46.2731 187.853 49.4868 183.251 44.7509 177.722C44.4026 177.312 43.1291 175.83 41.0696 174.602C45.7458 180.121 42.562 184.762 42.1142 207.96C42.0545 211.47 41.9949 217.691 37.8161 222.499C37.7763 222.528 37.7464 222.547 37.7365 222.586Z" fill="url(#paint13_linear_552_5104)"/>
<path d="M24.3347 188.586C24.474 186.09 24.9515 184.247 25.9067 180.571C27.1603 175.763 28.7323 173.413 27.7075 172.487C27.0409 171.883 25.7375 172.292 25.4391 172.38C20.9519 173.784 19.559 182.033 19.7579 187.201C19.8773 190.361 20.6633 193.9 21.8473 194.056C22.0363 194.086 22.494 194.056 22.8323 193.774C24.1456 192.623 24.2352 190.488 24.3347 188.586Z" fill="white"/>
<path d="M21.2516 197.41C21.2516 197.917 21.6695 198.327 22.1868 198.327C22.7042 198.327 23.1221 197.917 23.1221 197.41C23.1221 196.903 22.7042 196.493 22.1868 196.493C21.6695 196.503 21.2516 196.913 21.2516 197.41Z" fill="white"/>
<defs>
<linearGradient id="paint0_linear_552_5104" x1="131.556" y1="173.219" x2="44.1174" y2="242.558" gradientUnits="userSpaceOnUse">
<stop offset="0.0397" stop-color="#06BED8"/>
<stop offset="1" stop-color="#DEFA8E"/>
</linearGradient>
<linearGradient id="paint1_linear_552_5104" x1="86.2552" y1="25.307" x2="71.6456" y2="23.1331" gradientUnits="userSpaceOnUse">
<stop offset="0.0397" stop-color="#06CFF1"/>
<stop offset="1" stop-color="#DEFA8E"/>
</linearGradient>
<linearGradient id="paint2_linear_552_5104" x1="89.9855" y1="61.6957" x2="64.6208" y2="32.4756" gradientUnits="userSpaceOnUse">
<stop offset="0.0397" stop-color="#06CFF1"/>
<stop offset="1" stop-color="#DEFA8E"/>
</linearGradient>
<linearGradient id="paint3_linear_552_5104" x1="127.57" y1="161.151" x2="26.8149" y2="58.346" gradientUnits="userSpaceOnUse">
<stop offset="0.0397" stop-color="#06CFF1"/>
<stop offset="1" stop-color="#DEFA8E"/>
</linearGradient>
<linearGradient id="paint4_linear_552_5104" x1="76.5907" y1="123.457" x2="75.713" y2="83.152" gradientUnits="userSpaceOnUse">
<stop stop-color="#030D14"/>
<stop offset="1" stop-color="#0B2F45"/>
</linearGradient>
<radialGradient id="paint5_radial_552_5104" cx="0" cy="0" r="1" gradientUnits="userSpaceOnUse" gradientTransform="translate(100.461 103.004) rotate(180) scale(17.0915 16.7507)">
<stop offset="0.1296" stop-color="#3280FC"/>
<stop offset="1"/>
</radialGradient>
<linearGradient id="paint6_linear_552_5104" x1="110.872" y1="103.004" x2="90.0492" y2="103.004" gradientUnits="userSpaceOnUse">
<stop stop-color="#030D14"/>
<stop offset="1" stop-color="#0B2F45"/>
</linearGradient>
<radialGradient id="paint7_radial_552_5104" cx="0" cy="0" r="1" gradientUnits="userSpaceOnUse" gradientTransform="translate(53.8043 103.004) rotate(180) scale(17.0915 16.7507)">
<stop offset="0.1296" stop-color="#3280FC"/>
<stop offset="1"/>
</radialGradient>
<linearGradient id="paint8_linear_552_5104" x1="64.2137" y1="103.004" x2="43.3908" y2="103.004" gradientUnits="userSpaceOnUse">
<stop stop-color="#030D14"/>
<stop offset="1" stop-color="#0B2F45"/>
</linearGradient>
<linearGradient id="paint9_linear_552_5104" x1="89.4656" y1="8.0022" x2="70.1312" y2="5.1252" gradientUnits="userSpaceOnUse">
<stop offset="0.0397" stop-color="#06CFF1"/>
<stop offset="1" stop-color="#DEFA8E"/>
</linearGradient>
<linearGradient id="paint10_linear_552_5104" x1="105.062" y1="227.656" x2="28.0095" y2="135.848" gradientUnits="userSpaceOnUse">
<stop offset="0.0397" stop-color="#06CFF1"/>
<stop offset="0.0408" stop-color="#06CFF1"/>
<stop offset="0.1607" stop-color="#37D9DB"/>
<stop offset="0.2745" stop-color="#5DE0CA"/>
<stop offset="0.3793" stop-color="#78E6BD"/>
<stop offset="0.4719" stop-color="#88E9B6"/>
<stop offset="0.5423" stop-color="#8EEAB3"/>
<stop offset="0.8004" stop-color="#B9F39F"/>
<stop offset="1" stop-color="#DEFA8E"/>
</linearGradient>
<linearGradient id="paint11_linear_552_5104" x1="109.242" y1="182.65" x2="62.9059" y2="127.441" gradientUnits="userSpaceOnUse">
<stop offset="0.0397" stop-color="#06CFF1"/>
<stop offset="1" stop-color="#DEFA8E"/>
</linearGradient>
<linearGradient id="paint12_linear_552_5104" x1="7.31936" y1="214.177" x2="65.5444" y2="170.725" gradientUnits="userSpaceOnUse">
<stop offset="0.0397" stop-color="#06CFF1"/>
<stop offset="0.0734" stop-color="#0FD1ED"/>
<stop offset="0.4151" stop-color="#67E2C5"/>
<stop offset="0.6937" stop-color="#A7EFA7"/>
<stop offset="0.8955" stop-color="#CFF795"/>
<stop offset="1" stop-color="#DEFA8E"/>
</linearGradient>
<linearGradient id="paint13_linear_552_5104" x1="59.3677" y1="210.07" x2="17.8763" y2="188.008" gradientUnits="userSpaceOnUse">
<stop offset="0.0397" stop-color="#06BED8"/>
<stop offset="1" stop-color="#DEFA8E"/>
</linearGradient>
</defs>
</svg>
