<svg width="25" height="25" viewBox="0 0 25 25" fill="none" xmlns="http://www.w3.org/2000/svg">
<path d="M19.9056 9.81335C19.869 15.1472 15.5831 19.3896 10.2882 19.3324C4.97032 19.2752 0.794302 14.9733 0.867525 9.63258C0.943037 4.17286 5.12364 0.0860735 10.5879 0.127262C15.7937 0.16845 19.9422 4.48406 19.9056 9.81335ZM17.1437 7.92784C15.8577 7.82259 15.1552 7.06289 14.7182 6.0309C14.3727 5.214 13.796 4.90051 12.9311 4.91653C11.2172 4.94628 9.50103 4.9417 7.78714 4.92111C6.93134 4.91195 6.44395 5.28722 5.97486 6.02404C5.5195 6.73796 4.8193 7.39011 4.07563 7.79742C3.34111 8.19786 3.55848 8.5594 3.7507 9.07196C3.95206 9.60512 4.20377 10.1451 4.26097 10.6989C4.34564 11.5272 4.18775 12.3876 4.31818 13.2045C4.38683 13.6347 4.78727 14.2388 5.14881 14.3326C5.50119 14.4241 6.00232 13.9756 6.42793 13.7445C6.78032 13.5546 7.10982 13.1679 7.45992 13.1565C9.43924 13.1015 11.4209 13.1176 13.4025 13.1519C13.6748 13.1565 14.0821 13.3349 14.185 13.55C14.4848 14.1679 14.9081 14.7033 15.5557 14.3601C15.9721 14.1404 16.3131 13.4837 16.3932 12.9757C16.6197 11.5295 16.0179 9.95293 17.1277 8.63949C17.2261 8.52507 17.1437 8.26879 17.1437 7.92784Z" fill="#D92E10"/>
<path d="M18.1597 18.9292C15.8967 20.6385 13.7229 21.5332 11.2516 21.7231C10.4438 21.7849 10.3042 21.4966 10.4873 20.7689C12.9677 20.6843 15.2514 19.936 17.2055 18.3457C19.6242 16.3801 20.9994 13.8356 21.3175 10.7236C21.3724 10.1927 21.2923 9.46278 22.3495 9.84263C22.3861 12.5702 21.4296 14.9843 19.6814 17.3572C21.0223 18.6477 22.3632 19.9337 23.6995 21.2243C23.9741 21.4874 24.2624 21.7437 24.5004 22.0366C24.9718 22.6155 25.0199 23.2265 24.457 23.7688C23.8963 24.3088 23.2716 24.2837 22.7248 23.7597C21.5715 22.6522 20.4342 21.5241 19.3199 20.3754C18.9011 19.9452 18.5602 19.4326 18.1597 18.9292Z" fill="#D92E10"/>
<path d="M17.1438 7.92825C17.1438 8.26919 17.2239 8.52776 17.1324 8.6376C16.0226 9.95104 16.6267 11.5276 16.3978 12.9738C16.3177 13.4818 15.9768 14.1385 15.5603 14.3582C14.9128 14.6991 14.4894 14.166 14.1897 13.5481C14.0844 13.333 13.6794 13.1546 13.4071 13.15C11.4255 13.1157 9.44389 13.0996 7.46457 13.1546C7.11676 13.1637 6.78497 13.5504 6.43258 13.7426C6.00697 13.9738 5.50585 14.4222 5.15346 14.3307C4.79192 14.2369 4.39148 13.6328 4.32283 13.2026C4.1924 12.3857 4.35029 11.5253 4.26562 10.697C4.20842 10.1433 3.95671 9.60323 3.75535 9.07007C3.56314 8.55751 3.34575 8.19597 4.08028 7.79553C4.82395 7.39051 5.52415 6.73608 5.97951 6.02215C6.4486 5.28763 6.93599 4.91007 7.79179 4.91922C9.50568 4.93981 11.2219 4.94439 12.9357 4.91464C13.8007 4.89863 14.3773 5.21211 14.7228 6.02901C15.1553 7.06329 15.8578 7.82299 17.1438 7.92825ZM14.121 7.80697C13.819 6.36996 12.9884 5.9741 11.7047 6.12054C10.7276 6.23038 9.71848 6.24639 8.74369 6.12969C7.43483 5.97638 6.92455 6.63539 6.64767 7.80697C9.17388 7.80697 11.6292 7.80697 14.121 7.80697ZM11.9335 11.356C12.0067 11.2691 12.0799 11.1821 12.1532 11.0952C11.9815 10.8801 11.8237 10.4956 11.636 10.4796C10.8123 10.411 9.97934 10.4247 9.15329 10.475C8.99082 10.4842 8.84438 10.784 8.68878 10.9487C8.87183 11.0837 9.05032 11.3286 9.24024 11.3377C10.1349 11.3789 11.0342 11.356 11.9335 11.356ZM7.25406 11.3057C7.02066 10.157 6.59962 9.90528 5.30677 10.1089C5.30677 10.4934 5.30677 10.8801 5.30677 11.3057C6.0001 11.3057 6.6225 11.3057 7.25406 11.3057ZM15.4734 10.0563C14.0089 9.96706 13.6245 10.2279 13.5513 11.2988C14.1805 11.2988 14.8075 11.2988 15.4734 11.2988C15.4734 10.8732 15.4734 10.5071 15.4734 10.0563Z" fill="white"/>
<path d="M14.121 7.80676C11.6268 7.80676 9.17382 7.80676 6.6499 7.80676C6.92678 6.63518 7.43705 5.97617 8.74592 6.12948C9.72071 6.24389 10.7298 6.23017 11.7069 6.12033C12.9906 5.97388 13.8212 6.36975 14.121 7.80676Z" fill="#D92E10"/>
<path d="M11.9334 11.3561C11.0342 11.3561 10.1349 11.379 9.24019 11.3378C9.05026 11.3286 8.87178 11.0838 8.68872 10.9488C8.84203 10.784 8.98848 10.4843 9.15323 10.4751C9.97928 10.4248 10.8122 10.4133 11.636 10.4797C11.8236 10.4957 11.9815 10.8801 12.1531 11.0952C12.0776 11.1822 12.0044 11.2691 11.9334 11.3561Z" fill="#D92E10"/>
<path d="M7.25405 11.3057C6.6225 11.3057 6.00239 11.3057 5.30676 11.3057C5.30676 10.8801 5.30676 10.4934 5.30676 10.109C6.59961 9.90531 7.01836 10.157 7.25405 11.3057Z" fill="#D92E10"/>
<path d="M15.4733 10.0563C15.4733 10.507 15.4733 10.8731 15.4733 11.2988C14.8074 11.2988 14.1804 11.2988 13.5511 11.2988C13.6221 10.2279 14.0088 9.96701 15.4733 10.0563Z" fill="#D92E10"/>
</svg>
