<svg width="23" height="22" viewBox="0 0 23 22" fill="none" xmlns="http://www.w3.org/2000/svg">
<path d="M21.6646 1.42778C21.3799 1.19091 21.0363 1.03567 20.6703 0.978584C20.3044 0.921494 19.9298 0.964688 19.5865 1.10357L1.66556 8.33892C1.28231 8.4966 0.956079 8.76711 0.730162 9.11454C0.504246 9.46196 0.38933 9.86988 0.400667 10.2841C0.412005 10.6984 0.549059 11.0994 0.79364 11.434C1.03822 11.7685 1.37876 12.0208 1.77006 12.1573L5.39506 13.418L7.41556 20.0997C7.44302 20.1889 7.48287 20.2739 7.53394 20.352C7.54169 20.364 7.55262 20.373 7.56086 20.3846C7.61987 20.467 7.69118 20.5397 7.77229 20.6004C7.79536 20.618 7.81745 20.6345 7.84211 20.6501C7.93705 20.7131 8.04218 20.7591 8.15284 20.7862L8.16468 20.7872L8.17139 20.7901C8.23793 20.8036 8.30564 20.8105 8.37354 20.8106C8.38007 20.8106 8.38587 20.8074 8.39234 20.8073C8.4948 20.8055 8.59637 20.7879 8.69343 20.755C8.71601 20.7473 8.73536 20.7345 8.75727 20.7252C8.82965 20.6952 8.89822 20.6567 8.96156 20.6106C9.01228 20.5679 9.06302 20.5251 9.11378 20.4824L11.8159 17.4991L15.8462 20.6211C16.201 20.8974 16.6378 21.0475 17.0874 21.0479C17.5586 21.0473 18.0153 20.8847 18.3808 20.5874C18.7464 20.2901 18.9986 19.8762 19.0953 19.4151L22.3579 3.39849C22.4319 3.03801 22.4064 2.66421 22.2843 2.31708C22.1622 1.96995 21.948 1.66255 21.6646 1.42778ZM8.77006 13.7364C8.6314 13.8745 8.53662 14.0505 8.4976 14.2422L8.18809 15.7462L7.40403 13.1532L11.4693 11.0362L8.77006 13.7364ZM17.0718 19.0401L12.3091 15.3506C12.1099 15.1966 11.8599 15.1234 11.6091 15.1455C11.3582 15.1675 11.1249 15.2833 10.9556 15.4697L10.0902 16.4249L10.396 14.9385L17.479 7.85549C17.6481 7.68665 17.7511 7.46285 17.7694 7.22461C17.7877 6.98638 17.72 6.74947 17.5787 6.55681C17.4374 6.36414 17.2318 6.22845 16.9991 6.17433C16.7663 6.1202 16.5219 6.15121 16.3101 6.26174L6.14481 11.5544L2.42045 10.1915L20.3989 2.99905L17.0718 19.0401Z" fill="#D92E10"/>
</svg>
