<svg width="21" height="20" viewBox="0 0 21 20" fill="none" xmlns="http://www.w3.org/2000/svg">
<path d="M18.7766 13.51H14.2466C13.9814 13.51 13.727 13.6154 13.5395 13.8029C13.3519 13.9904 13.2466 14.2448 13.2466 14.51C13.2466 14.7752 13.3519 15.0296 13.5395 15.2171C13.727 15.4046 13.9814 15.51 14.2466 15.51H16.6466C15.5435 16.6627 14.121 17.4593 12.5617 17.7974C11.0025 18.1355 9.37779 17.9996 7.89635 17.4072C6.41492 16.8149 5.14445 15.7931 4.24817 14.4732C3.35189 13.1532 2.87075 11.5955 2.86658 10C2.86658 9.73478 2.76122 9.48043 2.57368 9.29289C2.38615 9.10536 2.13179 9 1.86658 9C1.60136 9 1.34701 9.10536 1.15947 9.29289C0.971934 9.48043 0.866577 9.73478 0.866577 10C0.871864 11.9528 1.4488 13.8613 2.52618 15.49C3.60356 17.1187 5.13424 18.3964 6.92932 19.1652C8.7244 19.9341 10.7053 20.1605 12.6276 19.8166C14.5499 19.4727 16.3294 18.5735 17.7466 17.23V19C17.7466 19.2652 17.8519 19.5196 18.0395 19.7071C18.227 19.8946 18.4814 20 18.7466 20C19.0118 20 19.2661 19.8946 19.4537 19.7071C19.6412 19.5196 19.7466 19.2652 19.7466 19V14.5C19.7441 14.2416 19.6417 13.9943 19.4609 13.8097C19.2801 13.6251 19.0348 13.5177 18.7766 13.51ZM10.8666 0C8.30296 0.00731219 5.84007 0.998914 3.98658 2.77V1C3.98658 0.734784 3.88122 0.48043 3.69368 0.292893C3.50615 0.105357 3.25179 0 2.98658 0C2.72136 0 2.46701 0.105357 2.27947 0.292893C2.09193 0.48043 1.98658 0.734784 1.98658 1V5.5C1.98658 5.76522 2.09193 6.01957 2.27947 6.20711C2.46701 6.39464 2.72136 6.5 2.98658 6.5H7.48658C7.75179 6.5 8.00615 6.39464 8.19368 6.20711C8.38122 6.01957 8.48658 5.76522 8.48658 5.5C8.48658 5.23478 8.38122 4.98043 8.19368 4.79289C8.00615 4.60536 7.75179 4.5 7.48658 4.5H5.08658C6.18904 3.34787 7.61067 2.5515 9.16898 2.21311C10.7273 1.87472 12.3512 2.00975 13.8322 2.60086C15.3132 3.19198 16.5838 4.21221 17.4808 5.5306C18.3778 6.849 18.8604 8.40539 18.8666 10C18.8666 10.2652 18.9719 10.5196 19.1595 10.7071C19.347 10.8946 19.6014 11 19.8666 11C20.1318 11 20.3861 10.8946 20.5737 10.7071C20.7612 10.5196 20.8666 10.2652 20.8666 10C20.8666 8.68678 20.6079 7.38642 20.1054 6.17317C19.6028 4.95991 18.8662 3.85752 17.9376 2.92893C17.0091 2.00035 15.9067 1.26375 14.6934 0.761205C13.4802 0.258658 12.1798 0 10.8666 0Z" fill="#D92E10"/>
</svg>
