<svg width="25" height="25" viewBox="0 0 25 25" fill="none" xmlns="http://www.w3.org/2000/svg">
<path fill-rule="evenodd" clip-rule="evenodd" d="M8.5 9.05627C8.5 7.9954 8.92143 6.97799 9.67157 6.22784C10.4217 5.4777 11.4391 5.05627 12.5 5.05627C13.5609 5.05627 14.5783 5.4777 15.3284 6.22784C16.0786 6.97799 16.5 7.9954 16.5 9.05627C16.5 10.1171 16.0786 11.1345 15.3284 11.8847C14.5783 12.6348 13.5609 13.0563 12.5 13.0563C11.4391 13.0563 10.4217 12.6348 9.67157 11.8847C8.92143 11.1345 8.5 10.1171 8.5 9.05627ZM16.324 13.6793C17.2755 12.8921 17.961 11.8306 18.2868 10.6394C18.6127 9.44831 18.5631 8.18564 18.1448 7.02375C17.7265 5.86186 16.9599 4.85734 15.9495 4.14726C14.9392 3.43719 13.7344 3.05615 12.4995 3.05615C11.2646 3.05615 10.0598 3.43719 9.04946 4.14726C8.03913 4.85734 7.27251 5.86186 6.85421 7.02375C6.4359 8.18564 6.3863 9.44831 6.71217 10.6394C7.03803 11.8306 7.72349 12.8921 8.675 13.6793C5.486 14.8023 3.5 17.3033 3.5 20.0563C3.5 20.3215 3.60536 20.5758 3.79289 20.7634C3.98043 20.9509 4.23478 21.0563 4.5 21.0563C4.76522 21.0563 5.01957 20.9509 5.20711 20.7634C5.39464 20.5758 5.5 20.3215 5.5 20.0563C5.5 17.7863 7.855 15.0563 12.5 15.0563C17.145 15.0563 19.5 17.7863 19.5 20.0563C19.5 20.3215 19.6054 20.5758 19.7929 20.7634C19.9804 20.9509 20.2348 21.0563 20.5 21.0563C20.7652 21.0563 21.0196 20.9509 21.2071 20.7634C21.3946 20.5758 21.5 20.3215 21.5 20.0563C21.5 17.3033 19.516 14.8023 16.324 13.6793Z" fill="#BBBBBB"/>
</svg>
