<svg width="60" height="48" viewBox="0 0 60 48" fill="none" xmlns="http://www.w3.org/2000/svg">
<path d="M53.333 47.3334H6.66634C3.54701 47.4268 0.939222 44.9807 0.833008 41.8617V6.13549C0.939213 3.01701 3.5475 0.571741 6.66634 0.666739H53.333C56.4518 0.571741 59.0601 3.01701 59.1663 6.13549V41.8647C59.0586 44.9824 56.4512 47.4268 53.333 47.3334ZM6.66634 6.50007V41.468L53.333 41.5001V6.53216L6.66634 6.50007ZM34.1705 35.6667H12.4997C12.7141 33.2519 13.8569 31.0144 15.6876 29.4251C17.7258 27.403 20.4645 26.2436 23.3351 26.1876C26.2056 26.2436 28.9443 27.403 30.9826 29.4251C32.8128 31.0148 33.9555 33.2521 34.1705 35.6667ZM47.4997 32.7501H38.7497V26.9167H47.4997V32.7501ZM23.3351 24.0001C21.772 24.0544 20.2565 23.4573 19.1505 22.3513C18.0446 21.2454 17.4474 19.7299 17.5018 18.1667C17.4483 16.6039 18.0457 15.0889 19.1515 13.9831C20.2572 12.8774 21.7722 12.28 23.3351 12.3334C24.898 12.28 26.4129 12.8774 27.5187 13.9831C28.6245 15.0889 29.2219 16.6039 29.1684 18.1667C29.2227 19.7299 28.6256 21.2454 27.5197 22.3513C26.4137 23.4573 24.8982 24.0544 23.3351 24.0001ZM47.4997 21.0834H35.833V15.2501H47.4997V21.0834Z" fill="#D92E10"/>
</svg>
