<svg width="58" height="54" viewBox="0 0 58 54" fill="none" xmlns="http://www.w3.org/2000/svg">
<path d="M0 28.827C0 27.9248 0 27.0225 0 26.1203C0.0206222 25.9186 0.0554222 25.7169 0.0586444 25.5145C0.0973111 23.4562 0.580644 21.4835 1.23411 19.5496C1.86696 17.6774 2.70344 15.8975 3.73907 14.2097C5.43589 11.445 7.57351 9.07991 10.1571 7.12338C12.934 5.01991 16.0306 3.55767 19.4094 2.73793C20.8201 2.39573 22.2733 2.23076 23.7098 1.99682C24.5295 1.86342 25.4394 2.61936 25.4536 3.43651C25.4968 5.87122 25.5612 8.30529 25.5703 10.74C25.5902 16.2352 25.5819 21.7304 25.5799 27.2255C25.5799 27.4337 25.6379 27.5819 25.7862 27.7314C27.7433 29.7054 29.6934 31.687 31.6461 33.6655C34.579 36.6357 37.5163 39.6014 40.4434 42.5768C41.1729 43.3186 41.885 44.0784 42.5797 44.853C43.1391 45.4762 43.1333 46.0175 42.6062 46.6646C42.4309 46.8798 42.2491 47.1021 42.0294 47.2671C41.1291 47.9412 40.2385 48.6327 39.2982 49.2462C37.2231 50.5995 34.9882 51.6203 32.5979 52.2899C30.354 52.9182 28.0636 53.1928 25.7365 53.2037C23.8754 53.2121 22.0181 53.1283 20.2014 52.7133C16.8799 51.9535 13.7918 50.6395 10.9781 48.6952C7.85578 46.5382 5.35276 43.8142 3.44069 40.5423C2.62289 39.1426 1.94171 37.6771 1.40489 36.1472C0.929289 34.7913 0.484622 33.4232 0.299667 31.9938C0.163044 30.9427 0.0973111 29.8832 0 28.827Z" fill="#D92E10"/>
<path d="M57.9995 31.1477C57.899 31.8785 57.8223 32.6125 57.6947 33.3382C57.0438 37.0527 55.6563 40.4715 53.5 43.5674C52.987 44.304 52.4077 44.9968 51.8406 45.6941C51.6885 45.8816 51.4822 46.0357 51.2767 46.1665C50.7392 46.5087 50.1412 46.4668 49.6778 46.0299C48.2413 44.6772 46.7984 43.3296 45.3922 41.9454C43.0516 39.6408 40.7258 37.3208 38.4168 34.9847C37.2864 33.8408 36.1883 32.6641 35.1146 31.4667C34.5398 30.8255 34.6197 30.0451 35.2171 29.4193C35.4498 29.1757 35.7166 29.0346 36.0652 29.0294C37.8883 29.0023 39.7108 28.9469 41.5333 28.9353C45.1693 28.9128 48.8052 28.8967 52.4412 28.9128C53.8222 28.9192 55.2026 29.0204 56.5837 29.0848C56.7532 29.0926 56.9233 29.1319 57.0889 29.1725C57.4775 29.2672 57.7688 29.4734 57.8758 29.8852C57.9074 30.0077 57.9576 30.125 57.9995 30.2442C57.9995 30.5458 57.9995 30.8468 57.9995 31.1477Z" fill="#D92E10"/>
<path d="M41.5347 25.6559C39.9796 25.6559 38.4246 25.67 36.8702 25.6526C34.6275 25.6275 32.3842 25.6062 30.1428 25.5276C29.1285 25.4922 28.8874 25.139 28.8146 24.3309C28.7283 23.3707 28.6567 22.4046 28.6542 21.4412C28.6342 14.73 28.6329 8.01872 28.6361 1.30747C28.6361 1.14958 28.7515 0.98525 28.8352 0.836384C28.8804 0.756473 28.986 0.712006 29.0402 0.634673C29.4778 0.0140726 30.0977 -0.0413496 30.7853 0.0185837C34.7725 0.365295 38.4658 1.58652 41.8762 3.68161C43.863 4.90218 45.6623 6.35089 47.2567 8.04901C50.446 11.4439 52.612 15.3899 53.6135 19.9551C53.908 21.2968 54.1406 22.6444 54.1561 24.0274C54.1645 24.764 53.6638 25.1313 53.2114 25.5483C53.1482 25.6062 53.0071 25.5895 52.902 25.5901C49.5528 25.6004 46.2037 25.6095 42.8545 25.6179C42.4143 25.6191 41.9748 25.6179 41.5347 25.6179C41.534 25.6307 41.534 25.643 41.5347 25.6559Z" fill="#D92E10"/>
</svg>
