<svg width="50" height="57" viewBox="0 0 50 57" fill="none" xmlns="http://www.w3.org/2000/svg">
<path d="M24.0003 56.2502C11.1137 56.2502 0.666992 45.8035 0.666992 32.9168C0.666992 20.0302 11.1137 9.5835 24.0003 9.5835C36.887 9.5835 47.3337 20.0302 47.3337 32.9168C47.3192 45.7975 36.881 56.2357 24.0003 56.2502ZM24.0003 15.4168C14.3353 15.4168 6.50033 23.2518 6.50033 32.9168C6.50033 42.5818 14.3353 50.4168 24.0003 50.4168C33.6653 50.4168 41.5003 42.5818 41.5003 32.9168C41.4891 23.2565 33.6606 15.4281 24.0003 15.4168ZM26.917 35.8335H21.0837V21.2502H26.917V35.8335ZM45.2716 17.4789L39.4382 11.6456L43.5624 7.52141L49.3957 13.3547L45.2745 17.476L45.2716 17.4789ZM32.7503 6.66683H15.2503V0.833496H32.7503V6.66683Z" fill="#D92E10"/>
</svg>
