<svg width="70" height="70" viewBox="0 0 70 70" fill="none" xmlns="http://www.w3.org/2000/svg">
<path d="M55.4167 64.1668H14.5833C11.3617 64.1668 8.75 61.5552 8.75 58.3335V17.5002C8.75 14.2785 11.3617 11.6668 14.5833 11.6668H20.4167V5.8335H26.25V11.6668H43.75V5.8335H49.5833V11.6668H55.4167C58.6383 11.6668 61.25 14.2785 61.25 17.5002V58.3335C61.25 61.5552 58.6383 64.1668 55.4167 64.1668ZM14.5833 29.1668V58.3335H55.4167V29.1668H14.5833ZM14.5833 17.5002V23.3335H55.4167V17.5002H14.5833ZM32.0833 53.7077L21.2713 42.8956L25.3954 38.7714L32.0833 45.4593L44.6046 32.9381L48.7288 37.0622L32.0833 53.7047V53.7077Z" fill="#D92E10"/>
</svg>
