<svg width="48" height="60" viewBox="0 0 48 60" fill="none" xmlns="http://www.w3.org/2000/svg">
<path d="M41.5003 59.1668H6.50033C3.27866 59.1668 0.666992 56.5552 0.666992 53.3335V6.66683C0.666992 3.44517 3.27866 0.833496 6.50033 0.833496H26.917C26.9488 0.834874 26.9802 0.840766 27.0103 0.850996C27.0388 0.859796 27.0681 0.86566 27.0978 0.868496C27.355 0.884985 27.609 0.934991 27.8532 1.01725L27.9349 1.0435C28.001 1.0659 28.0654 1.0932 28.1274 1.12516C28.4452 1.2664 28.7347 1.46403 28.982 1.7085L46.482 19.2085C46.7265 19.4558 46.9241 19.7453 47.0653 20.0631C47.0945 20.1272 47.1149 20.1943 47.1382 20.2614L47.1645 20.3372C47.2459 20.5805 47.294 20.8336 47.3074 21.0897C47.3119 21.1165 47.3188 21.1429 47.3278 21.1685C47.333 21.1954 47.3349 21.2228 47.334 21.2502V53.3335C47.334 56.5552 44.722 59.1668 41.5003 59.1668ZM6.50033 6.66683V53.3335H41.5003V24.1668H26.917C25.3062 24.1668 24.0003 22.861 24.0003 21.2502V6.66683H6.50033ZM29.8337 10.791V18.3335H37.3762L29.8337 10.791Z" fill="#D92E10"/>
</svg>
