<svg width="59" height="45" viewBox="0 0 59 45" fill="none" xmlns="http://www.w3.org/2000/svg">
<path d="M0.833008 44.4165H6.66634C6.66634 37.9732 11.8897 32.7498 18.333 32.7498C24.7763 32.7498 29.9997 37.9732 29.9997 44.4165H35.833C35.833 34.7515 27.998 26.9165 18.333 26.9165C8.66802 26.9165 0.833008 34.7515 0.833008 44.4165Z" fill="#D92E10"/>
<path d="M6.66634 12.3332C6.66634 5.88985 11.8897 0.666504 18.333 0.666504C24.7763 0.666504 29.9997 5.88985 29.9997 12.3332C29.9916 18.7732 24.773 23.9918 18.333 23.9998C11.8897 23.9998 6.66634 18.7765 6.66634 12.3332ZM12.5062 12.2496C12.4605 15.436 14.9805 18.0694 18.1659 18.1639C21.3512 18.2585 24.0229 15.7792 24.1663 12.5957V12.3332C24.1663 9.11151 21.5547 6.49984 18.333 6.49984C15.1462 6.50307 12.5518 9.06314 12.5062 12.2496Z" fill="#D92E10"/>
<path d="M48.4884 32.7482C47.8818 32.2086 47.1963 31.6457 46.4701 31.0507L46.333 30.9398L46.3168 30.9266C42.945 28.1755 38.7497 24.7526 38.7497 20.4982C38.7501 19.0863 39.3192 17.7342 40.3284 16.7469C41.3376 15.7597 42.7019 15.2205 44.1134 15.2511C45.7823 15.2466 47.3739 15.9543 48.4884 17.1965C49.6032 15.9546 51.1946 15.2469 52.8634 15.2511C54.2734 15.2236 55.6351 15.7646 56.6419 16.7522C57.6487 17.7398 58.2158 19.0908 58.2155 20.5011C58.2155 24.7732 53.9878 28.2214 50.5885 30.9939L50.5797 31.0011L50.4134 31.1382L50.3604 31.1816C49.6888 31.7313 49.0539 32.251 48.4855 32.754L48.4884 32.7482Z" fill="#D92E10"/>
</svg>
