<svg width="31" height="30" viewBox="0 0 31 30" fill="none" xmlns="http://www.w3.org/2000/svg">
<path fill-rule="evenodd" clip-rule="evenodd" d="M29.8101 0.415306C29.9941 0.575432 30.1484 0.775054 30.2643 1.00276C30.3801 1.23047 30.4552 1.4818 30.4852 1.74238C30.5152 2.00296 30.4996 2.26768 30.4392 2.52142C30.3788 2.77515 30.2748 3.01293 30.1333 3.22114L12.4741 29.2196C12.3209 29.4451 12.127 29.631 11.9053 29.7649C11.6836 29.8987 11.4392 29.9775 11.1885 29.9958C10.9378 30.0142 10.6865 29.9718 10.4514 29.8714C10.2163 29.7709 10.0029 29.6149 9.82528 29.4136L0.995713 19.4142C0.674038 19.037 0.496043 18.5318 0.500067 18.0075C0.50409 17.4831 0.68981 16.9815 1.01722 16.6107C1.34464 16.2399 1.78755 16.0296 2.25057 16.025C2.71359 16.0205 3.15966 16.2221 3.49271 16.5864L10.9007 24.9759L27.3325 0.781284C27.4739 0.572916 27.6502 0.39815 27.8513 0.266974C28.0523 0.135799 28.2743 0.0507871 28.5044 0.0167983C28.7345 -0.0171905 28.9682 0.000510186 29.1923 0.0688888C29.4163 0.137267 29.6263 0.254982 29.8101 0.415306Z" fill="black"/>
</svg>
