<svg width="92" height="93" viewBox="0 0 92 93" fill="none" xmlns="http://www.w3.org/2000/svg">
<circle cx="46" cy="46.5879" r="46" fill="#F1F1F1"/>
<path d="M45.0035 72.1503C43.994 71.7434 43.257 71.112 43.2167 69.9316C43.1975 69.3405 43.209 68.7475 43.2071 68.1544C43.2071 67.8934 43.2071 67.6305 43.2071 67.3848C42.4471 67.1219 41.6948 66.928 40.9981 66.6114C36.9389 64.765 34.6339 61.6021 34.0696 57.186C33.9986 56.6371 33.9871 56.0555 34.0946 55.5181C34.3191 54.3858 35.3881 53.6776 36.5627 53.7851C37.649 53.8849 38.5338 54.7888 38.5837 55.925C38.6624 57.7272 39.1805 59.3489 40.4204 60.6943C41.1766 61.5158 42.0632 62.1414 43.1745 62.5176C43.1745 57.9767 43.1745 53.4799 43.1745 48.9543C42.7311 48.8219 42.2686 48.7087 41.8253 48.5455C37.6202 46.9967 35.0216 44.0219 34.1905 39.6268C33.085 33.7885 36.9043 27.9694 42.6908 26.5472C43.1188 26.4416 43.2378 26.2747 43.2186 25.8601C43.1879 25.1711 43.1937 24.4783 43.2225 23.7873C43.2724 22.5398 44.2723 21.5879 45.4987 21.5879C46.727 21.5879 47.7269 22.5379 47.7768 23.7854C47.8056 24.509 47.8075 25.2344 47.7807 25.9561C47.7692 26.2977 47.8747 26.434 48.2106 26.5242C52.3772 27.6431 55.1736 30.2475 56.4652 34.3643C56.7934 35.4141 56.899 36.5541 56.9585 37.6615C57.0276 38.9378 55.9931 39.9339 54.7513 39.9569C53.4923 39.9819 52.4713 39.0587 52.4156 37.7728C52.3197 35.5715 51.5481 33.6983 49.7959 32.3145C49.2259 31.8635 48.558 31.5372 47.8306 31.0881C47.8114 31.3971 47.7941 31.5487 47.7922 31.7023C47.7903 35.8997 47.796 40.0951 47.7826 44.2925C47.7807 44.6668 47.8709 44.8222 48.2624 44.9182C53.0106 46.1062 56.448 50.0963 56.9431 54.9635C57.5055 60.4755 53.8416 65.7419 48.4697 67.1468C48.2509 67.2044 48.034 67.2697 47.7903 67.3387C47.7903 67.9548 47.75 68.5498 47.7979 69.1352C47.9169 70.5842 47.4141 71.634 45.9919 72.1445C45.6618 72.1503 45.3317 72.1503 45.0035 72.1503ZM47.8095 62.4716C50.1145 61.8497 52.4156 59.2779 52.3849 56.0075C52.3523 52.5875 49.8592 50.1519 47.8095 49.6625C47.8095 53.9328 47.8095 58.1993 47.8095 62.4716ZM43.1822 31.234C40.4837 32.1092 38.5376 34.8268 38.6125 37.8151C38.6988 41.2659 41.2341 43.6073 43.1822 44.0756C43.1822 39.8053 43.1822 35.5389 43.1822 31.234Z" fill="#D92E10"/>
</svg>
