<svg width="92" height="93" viewBox="0 0 92 93" fill="none" xmlns="http://www.w3.org/2000/svg">
<circle cx="46" cy="46.5879" r="46" fill="#F1F1F1"/>
<path fill-rule="evenodd" clip-rule="evenodd" d="M40.1811 52.4068C45.0103 57.2359 49.4957 59.9276 52.8332 61.4234C55.7478 62.7297 59.1874 61.7047 61.8686 59.0234L62.4811 58.4089L55.1145 53.7214C53.7145 55.763 51.0666 56.9609 48.4228 55.8464C46.4207 55.0005 43.7707 53.5547 41.402 51.1859C39.0332 48.8172 37.5895 46.1672 36.7436 44.1651C35.627 41.5214 36.8228 38.8734 38.8666 37.4734L34.1791 30.1068L33.5645 30.7193C30.8832 33.4005 29.8603 36.8401 31.1645 39.7547C32.6603 43.0922 35.352 47.5776 40.1811 52.4068ZM51.1311 65.2255C47.3499 63.5318 42.4395 60.5568 37.2353 55.3526C32.0311 50.1505 29.0561 45.238 27.3603 41.4568C25.1207 36.4568 27.1666 31.2276 30.6186 27.7734L31.2311 27.1589C31.6723 26.7174 32.2069 26.3807 32.7956 26.1736C33.3843 25.9665 34.012 25.8943 34.6324 25.9623C35.2527 26.0303 35.8498 26.2368 36.3797 26.5665C36.9096 26.8962 37.3586 27.3407 37.6936 27.8672L43.5895 37.138C43.7456 37.3839 43.8485 37.6599 43.8914 37.948C43.9343 38.2361 43.9163 38.5301 43.8385 38.8108C43.7608 39.0915 43.625 39.3529 43.44 39.5779C43.255 39.8029 43.0249 39.9866 42.7645 40.1172L41.4457 40.7776C40.5457 41.2276 40.3624 42.0214 40.5811 42.5443C41.2874 44.2172 42.4686 46.3589 44.3478 48.2401C46.2291 50.1193 48.3707 51.3005 50.0436 52.0068C50.5666 52.2276 51.3603 52.0422 51.8103 51.1422L52.4707 49.8234C52.6011 49.5629 52.7847 49.3325 53.0096 49.1473C53.2345 48.9621 53.4958 48.8261 53.7766 48.7482C54.0573 48.6702 54.3513 48.652 54.6396 48.6948C54.9278 48.7375 55.2038 48.8403 55.4499 48.9964L64.7207 54.8943C65.2472 55.2293 65.6917 55.6783 66.0214 56.2082C66.3511 56.7381 66.5576 57.3352 66.6256 57.9556C66.6936 58.5759 66.6214 59.2036 66.4143 59.7923C66.2072 60.381 65.8705 60.9156 65.4291 61.3568L64.8145 61.9693C61.3624 65.4234 56.1332 67.4672 51.1311 65.2255Z" fill="#D92E10"/>
</svg>
