<svg width="92" height="93" viewBox="0 0 92 93" fill="none" xmlns="http://www.w3.org/2000/svg">
<circle cx="46" cy="46.5879" r="46" fill="#F1F1F1"/>
<path fill-rule="evenodd" clip-rule="evenodd" d="M37.6667 40.3381C37.6667 38.128 38.5446 36.0084 40.1074 34.4456C41.6702 32.8828 43.7899 32.0048 46 32.0048C48.2101 32.0048 50.3298 32.8828 51.8926 34.4456C53.4554 36.0084 54.3333 38.128 54.3333 40.3381C54.3333 42.5483 53.4554 44.6679 51.8926 46.2307C50.3298 47.7935 48.2101 48.6715 46 48.6715C43.7899 48.6715 41.6702 47.7935 40.1074 46.2307C38.5446 44.6679 37.6667 42.5483 37.6667 40.3381ZM53.9667 49.9694C55.949 48.3295 57.377 46.1179 58.0559 43.6364C58.7348 41.1549 58.6314 38.5243 57.76 36.1037C56.8885 33.6831 55.2914 31.5904 53.1865 30.111C51.0817 28.6317 48.5717 27.8379 45.999 27.8379C43.4263 27.8379 40.9162 28.6317 38.8114 30.111C36.7065 31.5904 35.1094 33.6831 34.2379 36.1037C33.3665 38.5243 33.2631 41.1549 33.942 43.6364C34.6209 46.1179 36.0489 48.3295 38.0312 49.9694C31.3875 52.309 27.25 57.5194 27.25 63.2548C27.25 63.8073 27.4695 64.3372 27.8602 64.7279C28.2509 65.1186 28.7808 65.3381 29.3333 65.3381C29.8859 65.3381 30.4158 65.1186 30.8065 64.7279C31.1972 64.3372 31.4167 63.8073 31.4167 63.2548C31.4167 58.5256 36.3229 52.8381 46 52.8381C55.6771 52.8381 60.5833 58.5256 60.5833 63.2548C60.5833 63.8073 60.8028 64.3372 61.1935 64.7279C61.5842 65.1186 62.1141 65.3381 62.6667 65.3381C63.2192 65.3381 63.7491 65.1186 64.1398 64.7279C64.5305 64.3372 64.75 63.8073 64.75 63.2548C64.75 57.5194 60.6167 52.309 53.9667 49.9694Z" fill="#D92E10"/>
</svg>
