<svg width="91" height="91" viewBox="0 0 91 91" fill="none" xmlns="http://www.w3.org/2000/svg">
<circle cx="45.5" cy="45.5879" r="45" fill="white"/>
<path d="M20.5 39.6778C20.5506 39.2956 20.6018 38.9139 20.6507 38.5317C20.8271 37.162 21.6075 36.2272 22.7806 35.5681C24.0221 34.8708 25.337 34.3493 26.7187 34.0265C28.6794 33.5682 30.6535 33.1666 32.6231 32.745C33.047 32.654 33.477 32.5902 33.8986 32.4926C34.0449 32.4587 34.1873 32.3755 34.3124 32.2873C35.4299 31.4979 36.509 30.648 37.6654 29.9201C39.8753 28.5288 42.2983 27.6328 44.8514 27.0914C47.0942 26.616 49.3614 26.5233 51.6481 26.6248C54.9154 26.7702 57.9485 27.7388 60.876 29.1202C64.427 30.7955 67.5642 33.0573 70.3804 35.7745C70.4444 35.8361 70.5006 35.9437 70.5 36.0292C70.4722 38.57 70.4366 41.1102 70.4015 43.651C70.401 43.6776 70.3893 43.7037 70.3771 43.7509C69.6684 43.7509 68.9581 43.7564 68.2484 43.7414C68.1827 43.7403 68.0826 43.6177 68.062 43.5356C67.9296 43.0175 67.8445 42.4855 67.6882 41.9751C67.2761 40.6287 66.3844 39.6784 65.1918 38.9505C63.9887 38.2166 62.6999 38.2077 61.3761 38.3697C60.2475 38.5078 59.3013 39.0099 58.5304 39.8437C58.3985 39.9863 58.2545 40.1166 58.1149 40.252C58.1032 40.2636 58.0826 40.2659 58.0776 40.2681C57.602 39.8914 57.1537 39.487 56.6575 39.1519C55.3465 38.2648 53.8641 37.9863 52.315 38.1112C50.154 38.2854 48.5632 39.4493 47.3105 41.1385C46.761 41.8797 46.4172 42.7296 46.0763 43.5772C45.9923 43.7858 45.8799 43.8585 45.6491 43.8579C42.5531 43.8491 39.4576 43.8524 36.3616 43.8524C36.2615 43.8524 36.1619 43.8524 36.0885 43.8524C36.0256 43.3953 36.0217 42.9537 35.8983 42.5481C35.5773 41.4969 35.1245 40.4772 34.2952 39.7399C32.6276 38.2576 30.6791 37.8238 28.5615 38.5927C26.4951 39.3433 25.3465 40.9011 24.9443 43.0325C24.9121 43.2044 24.8525 43.3781 24.8587 43.5495C24.8703 43.8724 24.7096 43.8829 24.447 43.8707C23.4753 43.8241 22.503 43.8008 21.5301 43.7792C21.3321 43.7747 21.227 43.7104 21.128 43.5279C20.7648 42.8588 20.5467 42.1548 20.5 41.3976C20.5 40.8245 20.5 40.2509 20.5 39.6778ZM49.3536 32.3172C49.4765 32.3228 49.5677 32.33 49.6584 32.33C51.8611 32.3306 54.0638 32.3422 56.2665 32.3267C58.3763 32.3123 60.4855 32.2706 62.5948 32.2363C62.7722 32.2335 62.9491 32.1946 63.1655 32.168C63.1054 32.0904 63.0893 32.0548 63.0615 32.036C62.9235 31.9433 62.7889 31.8429 62.6415 31.7664C60.6029 30.7107 58.527 29.7515 56.2921 29.1668C54.2674 28.6381 52.211 28.3679 50.1218 28.3324C49.5355 28.3224 49.4092 28.4561 49.3764 29.0364C49.3742 29.073 49.3758 29.1102 49.3753 29.1473C49.3681 30.0716 49.3603 30.9953 49.3536 31.9195C49.3525 32.0465 49.3536 32.173 49.3536 32.3172ZM47.3317 28.4772C47.1843 28.4772 47.1003 28.4667 47.0202 28.4789C44.773 28.8145 42.5831 29.3692 40.4683 30.2019C39.3914 30.6258 38.349 31.1223 37.4023 31.7974C37.2599 31.899 37.1309 32.0188 36.9957 32.1303C37.0085 32.1769 37.0213 32.2235 37.0335 32.2706C40.4794 32.3955 43.9275 32.3 47.3311 32.3389C47.3317 31.0158 47.3317 29.7482 47.3317 28.4772Z" fill="#D92E10"/>
<path d="M62.5632 62.298C56.1554 62.298 49.7798 62.298 43.3614 62.298C43.3614 62.0106 43.3642 61.7366 43.3609 61.4625C43.3353 59.0781 43.3147 56.6932 43.2735 54.3094C43.2685 54.0315 43.4371 53.9233 43.5912 53.7724C44.9128 52.4754 46.4953 51.5867 48.1862 50.8755C48.4782 50.7529 48.8036 50.709 49.1724 50.6136C49.0489 50.4217 48.9527 50.2369 48.8248 50.0777C48.0305 49.0913 47.5365 47.9768 47.3335 46.727C46.9247 44.2067 48.0739 41.5372 50.1948 40.264C51.9336 39.2199 53.7502 39.281 55.5313 40.1486C57.294 41.0074 58.1679 42.5513 58.5428 44.3992C58.9494 46.4035 58.4543 48.2248 57.2935 49.883C57.1995 50.0172 57.0604 50.1199 56.9486 50.243C56.7812 50.4278 56.799 50.5354 57.0226 50.6508C57.1366 50.7096 57.2612 50.7517 57.3847 50.7884C59.4116 51.3953 61.1204 52.5064 62.5616 54.0398C62.6227 54.1053 62.6684 54.2151 62.6678 54.3044C62.6444 56.8647 62.6144 59.4243 62.5844 61.9845C62.5833 62.0844 62.571 62.1843 62.5632 62.298ZM55.4495 44.494C54.9829 44.1518 54.5395 43.8633 54.0178 43.7068C53.822 43.648 53.659 43.6608 53.5044 43.7956C52.8502 44.3659 52.1689 44.9084 51.5464 45.5115C50.7844 46.2504 50.0657 47.0348 49.3437 47.8137C49.2464 47.9191 49.1574 48.1366 49.2013 48.2503C49.4233 48.8295 49.6903 49.3915 49.9083 49.8835C51.7634 48.0789 53.5978 46.2953 55.4495 44.494ZM50.4935 50.4361C50.8 50.5726 51.0859 50.6641 51.3345 50.8166C52.1166 51.2954 52.7596 51.1001 53.3675 50.4871C54.4878 49.3565 55.627 48.2442 56.7545 47.1203C56.8051 47.0698 56.859 46.9705 56.8424 46.915C56.7094 46.474 56.5809 46.0291 56.4074 45.6024C56.2622 45.2457 56.0531 45.1969 55.7215 45.4088C55.5046 45.5475 55.2932 45.7045 55.1086 45.8837C54.0601 46.9028 53.0199 47.9297 51.9792 48.956C51.4925 49.437 51.0102 49.9218 50.4935 50.4361ZM49.2725 46.616C50.3917 45.6968 51.3239 44.6971 52.3118 43.7118C51.2533 43.5127 49.2798 45.37 49.2725 46.616ZM56.7122 48.1588C55.7816 49.0986 54.8527 49.9468 54.0261 50.9703C55.0813 50.977 56.5409 49.4314 56.7122 48.1588Z" fill="#D92E10"/>
<path d="M34.4797 52.0679C34.942 52.0679 35.3725 52.0679 35.8392 52.0679C35.8392 52.2548 35.8392 52.4268 35.8392 52.5993C35.8392 53.1075 35.8331 53.6162 35.8414 54.1244C35.8498 54.6331 35.9638 54.7757 36.4633 54.8766C36.8888 54.9621 37.3221 55.0103 37.7471 55.0969C38.2627 55.2023 38.7783 55.3132 39.2845 55.4552C39.6416 55.5557 39.739 55.7171 39.744 56.0888C39.7506 56.6053 39.7456 57.1223 39.7456 57.6904C38.4813 57.1095 37.2559 56.5032 35.8548 56.3528C35.8481 56.4472 35.8375 56.5276 35.8375 56.608C35.8375 57.9849 35.842 59.3624 35.8353 60.7393C35.8342 60.9413 35.8787 61.0189 36.1023 61.0489C36.9578 61.1632 37.7754 61.3901 38.5642 61.7701C40.9927 62.9395 40.7296 66.1172 39.0665 67.3743C38.1854 68.0405 37.1992 68.4061 36.1401 68.6319C36.0506 68.6508 35.9616 68.6741 35.8575 68.699C35.8158 69.9528 35.7747 71.196 35.7329 72.4625C35.3108 72.5041 34.9019 72.5441 34.4625 72.5874C34.4625 71.2809 34.4625 70.0105 34.4625 68.7223C33.9324 68.6724 33.4279 68.6225 32.9223 68.5787C31.8927 68.4893 30.9048 68.2131 29.9258 67.9035C29.8624 67.8835 29.7729 67.8009 29.7734 67.7482C29.7812 67.1024 29.8029 66.4573 29.8229 65.8115C29.8235 65.7965 29.843 65.7816 29.8747 65.7372C30.1667 65.8698 30.4704 65.9946 30.763 66.1427C31.6702 66.6009 32.6203 66.9316 33.6287 67.0575C34.3958 67.1535 34.4386 67.133 34.4403 66.3973C34.4436 65.1691 34.3996 63.9409 34.3841 62.7126C34.3818 62.5334 34.2795 62.5135 34.1449 62.4757C33.4168 62.2738 32.667 62.1218 31.9689 61.8433C29.4097 60.8214 29.1071 57.7603 31.2069 56.0527C31.9672 55.4347 32.8511 55.1118 33.815 54.9831C34.3741 54.9082 34.3718 54.9033 34.3924 54.3424C34.4197 53.5951 34.4497 52.8484 34.4797 52.0679ZM34.3741 56.3329C33.5736 56.5476 32.8605 56.8011 32.2726 57.2921C32.0751 57.4568 31.9244 57.7386 31.8621 57.9933C31.6669 58.791 31.9022 59.4956 32.5541 59.9882C32.905 60.2534 33.3461 60.4148 33.7661 60.569C34.2027 60.7294 34.3924 60.6067 34.4091 60.148C34.4425 59.2448 34.4414 58.3406 34.4397 57.4363C34.4391 57.089 34.3996 56.7417 34.3741 56.3329ZM35.9215 67.0653C35.9566 67.0919 35.9922 67.1191 36.0272 67.1457C36.3904 67.0253 36.7648 66.9305 37.1157 66.7807C38.1581 66.3352 38.4446 65.6806 38.3428 64.5056C38.3083 64.1045 38.132 63.7561 37.766 63.5464C37.4228 63.35 37.0774 63.152 36.7153 62.9939C36.0628 62.7093 35.8642 62.8469 35.8536 63.5653C35.8442 64.2105 35.8375 64.8562 35.8492 65.5014C35.8581 66.0229 35.8965 66.5438 35.9215 67.0653Z" fill="#D92E10"/>
<path d="M30.4753 39.5977C32.9011 39.7047 34.6137 41.6026 34.6215 43.8787C34.6287 46.0362 32.6357 47.9701 30.4859 47.944C28.1914 47.9163 26.2963 45.9608 26.293 43.6774C26.2891 41.6725 28.2899 39.6465 30.4753 39.5977Z" fill="#D92E10"/>
<path d="M62.2938 47.8459C61.6592 47.8381 61.039 47.7782 60.4683 47.4564C60.1707 47.2884 60.0283 47.0676 60.0439 46.7175C60.0695 46.1472 60.104 45.5725 60.0645 45.0044C59.981 43.8083 59.5978 42.6938 59.0076 41.6531C58.908 41.4778 58.937 41.3818 59.0855 41.262C59.4237 40.989 59.7379 40.6861 60.0806 40.4193C61.2854 39.4806 62.6148 39.4762 63.9748 39.9788C65.5239 40.5508 66.5129 41.9826 66.5529 43.6208C66.5941 45.3228 65.6619 46.864 64.1689 47.5269C63.5754 47.7893 62.9385 47.852 62.2938 47.8459Z" fill="#D92E10"/>
</svg>
