<svg width="91" height="91" viewBox="0 0 91 91" fill="none" xmlns="http://www.w3.org/2000/svg">
<circle cx="45.5" cy="45.5879" r="45" fill="white"/>
<path d="M40.8937 70.5872C39.9267 70.3235 39.195 69.7259 38.5035 69.0492C35.87 66.4751 33.2225 63.9147 30.5801 61.3484C29.7549 60.5467 29.1749 59.6219 29.0221 58.4725C28.8231 56.9706 29.2473 55.6465 30.3308 54.584C33.2999 51.6701 36.2942 48.7786 39.3076 45.9067C40.0162 45.231 40.9168 44.9029 41.937 45.1782C43.0135 45.4683 43.7191 46.4389 43.7884 47.7582C43.8336 48.6185 43.8206 49.4827 43.8095 50.345C43.8055 50.6331 43.903 50.7258 44.1985 50.7707C48.6512 51.4455 52.9019 50.8254 56.9495 48.9085C59.8402 47.5394 62.2807 45.6186 64.2829 43.1734C64.4809 42.9313 64.6689 42.6803 64.887 42.4567C65.3724 41.9577 66.0398 41.8298 66.6268 42.1002C67.2138 42.3707 67.6048 42.9674 67.4762 43.6217C67.1837 45.103 66.9334 46.6059 66.4731 48.0414C65.1835 52.0617 62.93 55.5322 59.7809 58.4296C56.7123 61.2527 53.1471 63.2663 49.0492 64.3043C47.5184 64.692 45.9303 64.8638 44.3674 65.1314C44.2045 65.1597 44.0387 65.1744 43.8155 65.2027C43.8155 65.9136 43.8598 66.6108 43.8025 67.3002C43.7502 67.9242 43.6517 68.559 43.4567 69.1527C43.2064 69.9173 42.535 70.3089 41.7973 70.5882C41.4967 70.5872 41.1952 70.5872 40.8937 70.5872ZM40.8002 48.557C40.6182 48.721 40.5298 48.7952 40.4474 48.8753C37.8542 51.3947 35.2599 53.9132 32.6697 56.4355C31.7279 57.3525 31.733 58.3212 32.6818 59.245C35.2609 61.7546 37.8441 64.2613 40.4263 66.768C40.5228 66.8618 40.6353 66.9419 40.8002 67.0786C40.8002 66.0161 40.7982 65.0425 40.8002 64.068C40.8022 62.8571 41.356 62.3757 42.5973 62.2712C44.2598 62.1315 45.9534 62.0437 47.5647 61.6589C53.6959 60.1912 58.3818 56.7587 61.6263 51.4953C62.1782 50.5989 62.6084 49.6321 63.1431 48.6058C61.9279 49.3899 60.8715 50.1624 59.7317 50.7922C54.3141 53.7813 48.5437 54.6651 42.4365 53.4191C41.1851 53.1642 40.8012 52.7169 40.8002 51.4846C40.8002 50.5461 40.8002 49.6077 40.8002 48.557Z" fill="#D92E10"/>
<path d="M49.1348 20.5889C50.1289 20.8789 50.8727 21.5136 51.5863 22.2118C54.1956 24.7635 56.817 27.3034 59.4383 29.8423C60.5962 30.9644 61.1732 32.2895 60.9943 33.892C60.8807 34.9144 60.4635 35.8147 59.7228 36.5364C56.7215 39.4659 53.7161 42.3916 50.6767 45.283C49.9248 45.9978 48.9559 46.3279 47.8995 45.9451C46.7557 45.5311 46.3034 44.6014 46.224 43.497C46.1606 42.622 46.1878 41.7402 46.1878 40.8623C46.1878 40.6026 46.1476 40.4551 45.8249 40.4073C40.5269 39.6192 35.6048 40.6065 31.0576 43.3505C28.976 44.6063 27.1829 46.1844 25.6712 48.0612C25.5164 48.2536 25.3666 48.4499 25.2038 48.6354C24.7254 49.1823 24.0509 49.3619 23.4499 49.109C22.7855 48.8297 22.3965 48.2136 22.5241 47.49C22.7282 46.3377 22.9071 45.1727 23.2358 44.0516C24.9696 38.1437 28.4664 33.4496 33.7262 30.0406C37.3296 27.7057 41.32 26.3786 45.646 26.0535C46.0832 26.0203 46.2139 25.8835 46.1928 25.4656C46.1606 24.8162 46.1838 24.1639 46.2018 23.5135C46.239 22.1249 46.7908 21.0654 48.2282 20.5879C48.5317 20.5889 48.8333 20.5889 49.1348 20.5889ZM49.3499 24.1287C49.3006 24.1502 49.2504 24.1707 49.2011 24.1922C49.2011 25.1961 49.1991 26.1999 49.2021 27.2048C49.2041 27.7516 49.0916 28.2828 48.581 28.5641C48.2362 28.7545 47.801 28.8688 47.403 28.8766C44.5936 28.9371 41.8728 29.4342 39.2836 30.4829C34.0358 32.6078 30.1309 36.1555 27.5879 41.1016C27.3548 41.5547 27.1668 42.0293 26.9577 42.4941C27.2472 42.3808 27.4563 42.2226 27.6663 42.0654C29.2524 40.8789 30.9632 39.8985 32.8055 39.1388C37.6392 37.1467 42.6236 36.7063 47.7538 37.7834C48.7317 37.9884 49.182 38.4953 49.1981 39.4854C49.2122 40.3643 49.2001 41.2432 49.2031 42.122C49.2041 42.2548 49.2273 42.3877 49.2403 42.5205C49.2836 42.541 49.3268 42.5615 49.37 42.582C49.4695 42.4521 49.5539 42.3066 49.6705 42.1933C52.1904 39.7393 54.7142 37.2902 57.2371 34.8382C58.3096 33.7963 58.3106 32.8881 57.2411 31.8481C55.0027 29.6734 52.7613 27.5007 50.5249 25.324C50.1248 24.9344 49.7409 24.5272 49.3499 24.1287Z" fill="#D92E10"/>
</svg>
