<svg width="91" height="91" viewBox="0 0 91 91" fill="none" xmlns="http://www.w3.org/2000/svg">
<circle cx="45.5" cy="45.5879" r="45" fill="white"/>
<path d="M15.5 45.7607C16.3168 45.7748 17.1336 45.7983 17.9505 45.8007C19.7042 45.8066 21.4579 45.803 23.2681 45.803C23.2681 46.959 23.2681 48.0926 23.2681 49.2227C23.2257 49.245 23.1927 49.2779 23.1586 49.2779C20.6057 49.2779 18.0529 49.2744 15.5 49.2721C15.5 48.1008 15.5 46.9308 15.5 45.7607Z" fill="#D92E10"/>
<path d="M63.6109 61.2116C64.6702 61.2116 65.6224 61.2116 66.6075 61.2116C66.6075 65.3561 66.6075 69.4571 66.6075 73.5876C52.5391 73.5876 38.5001 73.5876 24.4258 73.5876C24.4258 69.4642 24.4258 65.3632 24.4258 61.1998C25.4156 61.1998 26.3819 61.1998 27.4177 61.1998C27.4177 60.9097 27.4165 60.6806 27.4177 60.4527C27.4306 56.1437 27.3259 51.8289 27.4859 47.5246C27.6907 42.0092 30.1141 37.524 34.456 34.1254C38.2729 31.138 42.6595 29.9198 47.4687 30.4438C52.5038 30.9936 56.6185 33.3113 59.7587 37.2832C62.4081 40.6347 63.6298 44.4832 63.6133 48.744C63.598 52.6442 63.6097 56.5443 63.6097 60.4445C63.6109 60.6736 63.6109 60.9038 63.6109 61.2116ZM60.0576 61.167C60.0706 60.9672 60.0906 60.7969 60.0906 60.6266C60.0918 56.6101 60.1 52.5936 60.0847 48.5784C60.0812 47.8018 60.0506 47.0136 59.9187 46.25C58.9748 40.7839 55.9547 36.8779 50.7877 34.8596C45.6349 32.8473 40.7411 33.6473 36.4004 37.0635C33.0083 39.7325 31.1251 43.3202 30.9957 47.6503C30.865 52.0133 30.9462 56.3834 30.9368 60.7499C30.9368 60.8803 30.9627 61.0119 30.978 61.1587C34.1406 61.1587 37.2725 61.1587 40.4727 61.1587C40.4727 57.174 40.4727 53.2292 40.4727 49.2902C43.8718 49.2902 47.2003 49.2902 50.5982 49.2902C50.5982 53.2773 50.5982 57.2221 50.5982 61.167C53.7879 61.167 56.9069 61.167 60.0576 61.167ZM27.9285 70.068C39.69 70.068 51.3845 70.068 63.0801 70.068C63.0801 68.2695 63.0801 66.5074 63.0801 64.7488C51.3409 64.7488 39.6465 64.7488 27.9285 64.7488C27.9285 66.5344 27.9285 68.2824 27.9285 70.068ZM44.0072 52.7898C44.0072 55.5916 44.0072 58.364 44.0072 61.1681C45.0217 61.1681 46.0057 61.1681 47.0226 61.1681C47.0226 58.3664 47.0226 55.5939 47.0226 52.7898C46.008 52.7898 45.0241 52.7898 44.0072 52.7898Z" fill="#D92E10"/>
<path d="M43.7852 25.313C43.7852 22.711 43.7852 20.1641 43.7852 17.5879C44.9374 17.5879 46.0614 17.5879 47.2313 17.5879C47.2313 20.1453 47.2313 22.7063 47.2313 25.313C46.1038 25.313 44.9657 25.313 43.7852 25.313Z" fill="#D92E10"/>
<path d="M75.5 45.833C75.5 47.0007 75.5 48.1226 75.5 49.2715C72.9036 49.2715 70.3378 49.2715 67.7461 49.2715C67.7461 48.1061 67.7461 46.9866 67.7461 45.833C70.3496 45.833 72.9154 45.833 75.5 45.833Z" fill="#D92E10"/>
<path d="M55.1133 27.4452C56.4186 25.192 57.7038 22.9741 59.0197 20.7021C60.0331 21.286 61.0182 21.8546 62.0633 22.4584C60.7592 24.7092 59.4693 26.9365 58.1558 29.2038C57.12 28.6047 56.1325 28.0337 55.1133 27.4452Z" fill="#D92E10"/>
<path d="M32.0122 20.7046C33.314 22.9495 34.6027 25.1698 35.921 27.4429C34.9088 28.0291 33.9213 28.6012 32.8796 29.2039C31.5756 26.9542 30.2891 24.7351 28.9697 22.4608C29.9866 21.8735 30.9765 21.3025 32.0122 20.7046Z" fill="#D92E10"/>
<path d="M18.6289 34.0888C19.215 33.0703 19.7765 32.0976 20.3802 31.0474C22.6436 32.3466 24.8787 33.6295 27.1455 34.9311C26.5582 35.9496 25.9968 36.9246 25.393 37.9713C23.1367 36.6768 20.9028 35.3951 18.6289 34.0888Z" fill="#D92E10"/>
<path d="M70.6481 31.0498C71.2472 32.0895 71.8086 33.0633 72.4018 34.0901C70.1479 35.3858 67.9257 36.6628 65.6412 37.9761C65.0539 36.9611 64.4842 35.9767 63.8828 34.9382C66.1344 33.6448 68.3565 32.3679 70.6481 31.0498Z" fill="#D92E10"/>
</svg>
