<svg width="91" height="91" viewBox="0 0 91 91" fill="none" xmlns="http://www.w3.org/2000/svg">
<circle cx="45.5" cy="45.5879" r="45" fill="white"/>
<path d="M41.474 11.5879C42.719 12.5084 43.9749 13.4182 45.2036 14.36C45.5262 14.6057 45.7887 14.6716 46.1861 14.5363C48.0254 13.9114 49.8774 13.3185 51.7258 12.7167C52.8049 12.3659 53.2497 12.5814 53.6125 13.6443C54.6497 16.6693 55.6741 19.6996 56.7277 22.7192C56.8317 23.0148 57.0486 23.3174 57.2983 23.5115C59.0957 24.9056 60.9185 26.2712 62.7286 27.6492C63.6528 28.3525 63.7057 28.8261 62.9784 29.7466C62.4315 30.4374 61.8883 31.13 61.3451 31.8244C61.3269 31.8493 61.3396 31.8974 61.3378 31.9383C62.0797 32.0113 62.8417 31.9953 63.5544 32.1716C65.9333 32.7556 67.2712 34.5538 67.284 37.1016C67.2949 39.4838 67.2858 41.8661 67.2858 44.2483C67.2858 44.4851 67.2858 44.7219 67.2858 45.0566C67.9257 45.0566 68.5254 45.0531 69.1251 45.0584C70.1022 45.0673 70.4941 45.4412 70.4959 46.3991C70.5014 50.3303 70.5014 54.2597 70.4959 58.1909C70.4941 59.1417 70.1022 59.5316 69.1379 59.5547C68.5527 59.569 67.9658 59.5565 67.2858 59.5565C67.2858 59.8378 67.2858 60.0657 67.2858 60.2954C67.2858 62.6972 67.2876 65.099 67.2858 67.5009C67.284 69.559 66.4637 71.1828 64.5169 72.0819C63.8424 72.3935 63.0349 72.5644 62.2875 72.5662C48.8128 72.5947 35.3364 72.5876 21.8617 72.5858C20.881 72.5858 20.5036 72.1834 20.5018 71.1686C20.5 63.6836 20.5 56.2004 20.5 48.7154C20.5 43.6536 20.5 38.5901 20.5 33.5283C20.5 32.3443 20.8463 32.0149 22.0622 32.0006C22.8515 31.9917 23.7593 32.1965 24.3991 31.8849C25.0408 31.5733 25.4181 30.7401 25.9048 30.1312C30.6169 24.2077 35.3272 18.2823 40.0467 12.3642C40.2782 12.0757 40.5899 11.8478 40.8633 11.5915C41.0675 11.5879 41.2698 11.5879 41.474 11.5879ZM65.0802 59.5547C64.7776 59.5547 64.5369 59.5547 64.2963 59.5547C61.2667 59.5547 58.2389 59.5565 55.2093 59.553C54.0372 59.5512 53.6799 59.1969 53.6799 58.0538C53.6781 54.2223 53.6781 50.389 53.6799 46.5575C53.6799 45.4002 54.0263 45.0566 55.1965 45.0548C58.2663 45.0531 61.336 45.0548 64.4057 45.0548C64.6208 45.0548 64.8359 45.0548 65.1057 45.0548C65.1057 44.7753 65.1057 44.5812 65.1057 44.3872C65.1057 41.9854 65.1075 39.5818 65.1057 37.1799C65.1038 35.1574 64.0593 34.1336 61.994 34.1336C49.1264 34.1318 36.2587 34.1336 23.3893 34.1336C23.1723 34.1336 22.9554 34.1336 22.7221 34.1336C22.7221 46.2727 22.7221 58.3334 22.7221 70.4493C22.9335 70.4493 23.1104 70.4493 23.289 70.4493C36.2387 70.4493 49.1884 70.451 62.1362 70.4475C64.0138 70.4475 65.0929 69.4095 65.102 67.5739C65.1148 65.0723 65.1057 62.5708 65.1038 60.0693C65.1038 59.9322 65.0911 59.7951 65.0802 59.5547ZM27.2264 31.9508C36.7837 31.9508 46.2098 31.9508 55.6978 31.9508C54.657 29.6309 54.7226 27.3911 55.902 25.1638C52.7065 22.7406 49.5329 20.3352 46.3593 17.9298C43.6377 20.1696 40.7065 20.515 37.5165 19.0105C34.1059 23.2978 30.7063 27.5727 27.2264 31.9508ZM68.272 57.3969C68.272 53.9659 68.272 50.6009 68.272 47.2359C64.1231 47.2359 60.0126 47.2359 55.9075 47.2359C55.9075 50.6436 55.9075 54.0069 55.9075 57.3969C60.0399 57.3969 64.1359 57.3969 68.272 57.3969ZM47.7337 16.2651C49.7407 17.7874 51.6693 19.2509 53.5979 20.7144C53.6325 20.6913 53.6671 20.6681 53.7036 20.6468C53.0601 18.7666 52.4167 16.8865 51.7568 14.9565C50.3969 15.3998 49.1154 15.8164 47.7337 16.2651ZM41.3846 14.1535C40.9563 14.6894 40.5443 15.2004 40.136 15.715C39.7331 16.2242 39.3339 16.7351 38.9274 17.2533C40.7393 18.1844 43.3934 17.8248 44.4981 16.5179C43.4755 15.7399 42.4528 14.9636 41.3846 14.1535ZM57.6902 26.5792C56.7186 28.1709 57.1652 31.2351 58.4686 31.9365C59.2597 30.9431 60.0508 29.9478 60.8602 28.9294C59.843 28.1585 58.8678 27.4196 57.8907 26.6842C57.8342 26.638 57.7577 26.613 57.6902 26.5792Z" fill="#D92E10"/>
<path d="M62.1048 49.1109C63.8912 49.118 65.3677 50.5601 65.3659 52.2961C65.3659 54.0373 63.8985 55.4688 62.1048 55.4795C60.2965 55.4902 58.7853 54.016 58.8109 52.2658C58.8382 50.5228 60.3184 49.1037 62.1048 49.1109ZM63.1748 52.2783C63.1621 51.7067 62.648 51.2349 62.0538 51.2527C61.4868 51.2705 61.0092 51.7406 61.0038 52.2872C60.9983 52.848 61.5142 53.3519 62.0939 53.3483C62.6735 53.3465 63.1858 52.8391 63.1748 52.2783Z" fill="#D92E10"/>
</svg>
