<svg width="91" height="91" viewBox="0 0 91 91" fill="none" xmlns="http://www.w3.org/2000/svg">
<circle cx="45.5" cy="45.5879" r="45" fill="white"/>
<path d="M28.9442 27.5879C30.1543 27.7239 31.2593 27.8202 32.3579 27.9771C38.2868 28.8247 44.2177 29.6597 50.1339 30.5847C50.7148 30.6747 51.3757 31.2356 51.7019 31.7588C52.3796 32.847 52.91 34.0378 53.394 35.2265C53.6592 35.8774 54.0633 36.1369 54.7094 36.2185C56.8288 36.4843 58.9651 36.681 61.0613 37.0745C63.0755 37.4512 65.0918 37.9178 67.0175 38.598C67.6973 38.8387 68.3056 39.7532 68.5897 40.4941C68.8886 41.2788 69.259 41.599 70.0482 41.7058C71.0437 41.8418 72.0603 41.9904 72.9906 42.3378C73.4494 42.5094 73.7882 43.11 74.0745 43.5809C74.2639 43.8906 74.2407 44.3217 74.3502 44.688C74.83 46.3078 74.7038 46.4606 72.8727 46.3496C72.818 46.1425 72.8243 45.862 72.6875 45.6967C72.3823 45.3242 71.9424 44.6901 71.673 44.7424C71.2479 44.8282 70.7386 45.3242 70.5807 45.7595C70.2377 46.7054 70.8375 47.2893 71.6309 47.8041C72.7611 48.5387 74.0071 48.3964 75.1941 48.6538C75.8529 48.7982 76.0991 49.0891 75.9644 49.7337C75.8929 50.0748 75.8276 50.4201 75.794 50.7654C75.7308 51.4037 75.3772 51.5669 74.7816 51.4874C74.1313 51.4016 73.4725 51.3765 72.6054 51.3095C72.7717 51.8265 72.8622 52.1739 72.9948 52.5045C74.548 56.4034 72.376 61.809 68.5497 62.9663C64.6603 64.1445 60.1584 63.3305 58.0727 58.6364C57.7107 57.8202 57.2582 57.6214 56.429 57.5544C55.6355 57.4895 54.7368 57.276 54.118 56.8156C52.4996 55.6102 50.6895 55.5935 48.848 55.7148C48.5723 55.7337 48.1661 56.2673 48.1008 56.6147C47.6588 58.9712 46.7349 61.0137 44.8365 62.6043C40.8881 65.915 34.4794 64.5212 31.7371 60.3273C30.691 58.7284 30.2975 56.7905 30.3669 54.8254C30.3711 54.6915 30.3311 54.5575 30.2869 54.2331C28.5843 54.3127 26.8837 54.3629 25.1894 54.5094C24.9895 54.5261 24.7411 55.0598 24.6822 55.3821C24.4549 56.6126 24.3791 57.8746 24.0908 59.0884C23.6572 60.9217 23.0995 61.1895 21.2411 61.3235C17.9305 61.56 16.855 60.139 16.3456 57.1672C16.0741 55.5851 16.3162 53.9213 16.2657 52.2973C16.2425 51.5439 15.9605 50.7884 16.0047 50.0455C16.0678 48.9384 16.2551 47.8292 16.5014 46.7473C16.7308 45.7344 17.0612 44.7361 17.4443 43.7713C17.5706 43.4512 17.9641 43.133 18.303 43.0221C19.0144 42.7898 19.4227 42.4508 19.4816 41.6535C19.6394 39.569 19.8983 37.4909 20.0477 35.4065C20.1509 33.9583 20.7107 32.9119 22.0872 32.2736C23.8951 31.4344 25.6441 30.4759 27.4393 29.6116C28.2707 29.214 29.022 28.8122 28.9442 27.5879ZM32.8946 54.2331C32.8841 56.4829 33.2966 57.7678 34.1721 58.8477C35.3886 60.3524 37.426 60.7208 39.0823 59.7351C42.1972 57.885 42.8413 52.4313 40.2441 49.899C39.0655 48.7501 37.5712 48.4299 36.0979 49.1623C33.7638 50.328 32.9914 52.4187 32.8946 54.2331ZM40.3893 36.6915C40.3809 36.6224 40.3725 36.5534 40.3641 36.4822C37.7017 36.208 35.0414 35.9088 32.3769 35.6702C31.3477 35.5781 30.7352 35.124 30.6132 34.1006C30.3943 32.2694 30.2091 30.4341 29.9733 28.605C29.9418 28.358 29.6976 28.1383 29.5524 27.906C29.4388 28.155 29.2094 28.4124 29.2283 28.6489C29.3251 29.8627 29.483 31.0724 29.624 32.282C29.8934 34.5987 30.1712 36.9133 30.4364 39.23C30.5058 39.8432 30.6931 40.2115 31.4382 40.0064C31.8444 39.8955 32.2969 39.9499 32.7283 39.9311C32.7283 39.8809 32.7262 39.8327 32.7262 39.7825C32.2211 39.7532 31.7181 39.7218 31.1814 39.6904C31.1351 38.7257 31.636 38.3469 32.4021 38.2025C33.8123 37.9388 35.2224 37.6876 36.6325 37.4198C37.8869 37.1854 39.137 36.9363 40.3893 36.6915ZM49.4752 40.1467C49.473 41.5258 50.3844 42.8317 51.3294 42.8003C52.2133 42.771 53.0868 41.6493 53.1099 40.515C53.1352 39.2342 52.1165 38.0288 51.0368 38.0602C50.0624 38.0895 49.4752 38.8722 49.4752 40.1467ZM16.5982 54.7249C16.7982 55.7253 16.9623 56.7487 17.2317 57.7448C17.3012 58.0001 17.6842 58.2869 17.962 58.3308C18.1304 58.358 18.505 57.9813 18.5534 57.7386C18.6692 57.1672 18.6481 56.5666 18.6797 55.9785C18.6881 55.8174 18.6313 55.6311 18.6945 55.4951C19.2627 54.2687 18.9554 53.0737 18.5345 51.9039C18.4335 51.6276 18.0736 51.2551 17.8463 51.2635C17.6042 51.274 17.2422 51.6465 17.1686 51.9227C16.9223 52.8226 16.7876 53.7476 16.5982 54.7249ZM23.1921 51.2028C22.7586 49.1749 22.3334 47.2098 21.9188 45.2426C21.6726 44.0748 21.3653 43.8927 20.0288 44.1941C20.4792 46.2178 20.9843 48.2311 21.359 50.2694C21.5568 51.3535 22.0851 51.5544 23.1921 51.2028ZM23.1206 33.6904C22.003 33.9918 21.5715 34.4271 21.5021 35.237C21.3253 37.2502 21.1064 39.2593 20.9191 41.2705C20.8917 41.5572 20.9464 41.8502 20.9822 42.455C21.4621 42.0406 21.8725 41.8606 21.9525 41.5865C22.2534 40.5527 22.4702 39.4916 22.6702 38.4327C22.767 37.9283 22.7501 37.4009 22.7985 36.8861C22.8954 35.8837 23.0006 34.8833 23.1206 33.6904ZM64.6961 41.3563C65.2707 42.2499 65.7063 43.0096 66.2493 43.6855C66.3377 43.7944 67.0175 43.6353 67.2217 43.4135C67.931 42.6538 68.0214 41.733 67.5753 40.7996C67.2659 40.1529 66.786 39.4246 66.0199 39.7344C65.5001 39.9437 65.2033 40.6991 64.6961 41.3563ZM50.9653 44.8575C50.98 45.7616 51.603 46.5317 52.3375 46.5506C53.072 46.5715 53.7266 45.7658 53.6971 44.8784C53.6655 43.9074 53.1057 43.2419 52.3122 43.2293C51.4893 43.2168 50.9484 43.8697 50.9653 44.8575ZM54.2864 46.1446C54.3727 46.1487 54.4611 46.1529 54.5474 46.1571C54.6147 46.0818 54.7347 46.0085 54.7389 45.9311C54.8231 43.5997 54.9052 41.2684 54.9494 38.9349C54.9536 38.7382 54.68 38.5352 54.5348 38.3364C54.4527 38.3783 54.3706 38.418 54.2864 38.4599C54.2864 41.0193 54.2864 43.583 54.2864 46.1446ZM63.6059 39.0542C63.6059 41.6828 63.6059 44.1522 63.6059 46.854C64.4204 45.636 64.4414 39.7888 63.6059 39.0542ZM55.8691 38.4808C55.8691 41.1407 55.8691 43.6709 55.8691 46.4522C56.7447 45.1651 56.7152 39.0103 55.8691 38.4808ZM62.2021 39.0145C62.1305 39.1379 62.0084 39.2468 62.0063 39.3619C61.9474 41.62 61.8948 43.8802 61.8674 46.1383C61.8653 46.3036 62.0737 46.4731 62.2399 46.7243C62.9387 44.8868 62.8987 39.6779 62.2021 39.0145ZM58.9209 46.6238C59.8006 45.5272 59.8069 39.4309 58.9209 38.7194C58.9209 41.3772 58.9209 43.8969 58.9209 46.6238ZM57.3445 38.5247C57.3445 41.2265 57.3445 43.7651 57.3445 46.3915C58.2411 45.703 58.2916 39.1819 57.3445 38.5247ZM61.0108 38.9747C60.9056 38.9642 60.7982 38.9538 60.693 38.9412C60.613 39.0396 60.4657 39.1379 60.4636 39.2384C60.3984 41.5258 60.3415 43.8153 60.31 46.1027C60.3079 46.2597 60.5352 46.4187 60.6551 46.5778C60.7561 46.5485 60.8572 46.5213 60.9603 46.492C60.9414 43.9869 61.4507 41.4777 61.0108 38.9747ZM26.6059 41.1596C26.5659 41.0047 26.5259 40.8498 26.4859 40.6929C25.4167 41.011 24.3497 41.3312 23.2805 41.6493C23.3205 41.7811 23.3626 41.913 23.4026 42.0448C24.4718 41.7497 25.5388 41.4546 26.6059 41.1596ZM26.8816 33.3158C27.6077 33.3158 28.0181 33.3347 28.4264 33.3054C28.5758 33.2949 28.7842 33.2091 28.8431 33.0961C28.9063 32.9768 28.841 32.6461 28.7989 32.6399C28.338 32.5729 27.8603 32.4829 27.4099 32.5499C27.2268 32.575 27.1026 32.9747 26.8816 33.3158ZM25.1326 38.7194C25.2736 38.7152 25.4125 38.711 25.5535 38.7068C25.5914 37.9723 25.6441 37.2356 25.6525 36.501C25.6525 36.4069 25.3725 36.206 25.3052 36.2373C25.1495 36.3064 24.9327 36.4948 24.939 36.6245C24.9685 37.3235 25.0611 38.0204 25.1326 38.7194Z" fill="#D92E10"/>
<path d="M34.8838 55.5704C34.8838 55.0158 34.8838 54.4591 34.8838 53.689C35.4268 54.005 35.8393 54.2436 36.4454 54.5972C35.9214 55.0472 35.5362 55.3799 35.149 55.7127C35.0606 55.6645 34.9722 55.6185 34.8838 55.5704Z" fill="#D92E10"/>
<path d="M40.2993 51.0635C40.5392 51.4423 40.8381 51.7959 40.9917 52.2061C41.0654 52.4008 40.8655 52.7 40.7897 52.9512C40.5161 52.8089 40.0636 52.7189 40.0047 52.5138C39.8826 52.0889 39.9668 51.6055 39.9668 51.1472C40.0783 51.12 40.1878 51.0928 40.2993 51.0635Z" fill="#D92E10"/>
<path d="M41.216 55.8154C40.913 56.4474 40.6499 56.9937 40.3068 57.7115C39.7554 56.2737 39.9617 55.8531 41.216 55.8154Z" fill="#D92E10"/>
<path d="M36.2256 51.4897C36.7665 51.1089 37.0801 50.887 37.5642 50.5459C37.5642 51.1319 37.5642 51.5253 37.5642 52.0653C37.1306 51.8811 36.8317 51.7513 36.2256 51.4897Z" fill="#D92E10"/>
<path d="M36.9351 53.0436C37.1582 53.2989 37.3834 53.5542 37.6065 53.8096C37.436 53.9351 37.1856 54.203 37.1077 54.1612C36.8068 53.9958 36.5079 53.7677 36.3206 53.4894C36.2427 53.3722 36.4405 53.0708 36.5142 52.8511C36.6552 52.916 36.7941 52.9787 36.9351 53.0436Z" fill="#D92E10"/>
<path d="M36.9461 56.3219C36.7525 56.0017 36.5441 55.7611 36.5841 55.7067C36.7903 55.4325 37.0618 55.2086 37.3123 54.9658C37.4386 55.0998 37.6953 55.3069 37.668 55.353C37.4912 55.6564 37.2534 55.9264 36.9461 56.3219Z" fill="#D92E10"/>
<path d="M37.6258 57.0166C37.6258 57.7093 37.6258 58.0797 37.6258 58.5673C37.2301 58.3853 36.9397 58.2492 36.4346 58.0169C36.8366 57.6779 37.106 57.4519 37.6258 57.0166Z" fill="#D92E10"/>
</svg>
