<svg width="91" height="91" viewBox="0 0 91 91" fill="none" xmlns="http://www.w3.org/2000/svg">
<circle cx="45.5" cy="45.5879" r="45" fill="white"/>
<path d="M53.0694 52.2327C51.8007 51.3138 49.6614 51.5196 48.3846 52.6979C47.0944 53.8879 46.4153 56.2294 48.1708 58.3911C46.996 58.5915 45.8848 58.7955 44.7672 58.9592C44.5686 58.9879 44.3333 58.8733 44.1356 58.7803C43.6283 58.5414 43.5093 58.2551 43.8144 57.7961C44.2009 57.2145 44.3136 56.6822 43.7992 56.1355C43.4162 55.7293 43.5674 55.3195 43.8009 54.9276C44.0237 54.5554 44.0228 54.2467 43.6748 53.9532C43.3411 53.6723 43.299 53.3484 43.5817 52.9959C43.9155 52.5789 43.9021 52.188 43.5254 51.7889C43.3598 51.6135 43.2587 51.3764 43.112 51.1411C43.0494 51.567 42.9912 51.9607 42.934 52.3535C42.8937 52.349 42.8543 52.3445 42.8141 52.3401C42.9026 51.661 42.3085 50.9613 42.9438 50.2867C42.9876 50.3878 43.0297 50.4844 43.0968 50.6392C43.3795 50.1489 43.8421 50.0854 44.2868 50.0272C44.8236 49.9574 45.2477 49.7776 45.4258 49.2166C45.4696 49.0797 45.5618 48.9589 45.6503 48.7943C46.0261 49.094 46.3831 49.3776 46.7562 49.6756C47.0819 49.3705 47.3772 49.0519 47.7163 48.7943C47.8809 48.669 48.1341 48.5938 48.3408 48.6037C48.7085 48.6225 49.0825 48.6914 49.4359 48.7978C49.8538 48.9231 50.09 48.8399 50.3253 48.4346C51.2343 46.8661 52.1944 45.3263 53.1285 43.7731C53.6375 42.9276 54.4741 42.7325 55.3599 42.5938C57.883 42.1984 60.4026 41.7859 62.9239 41.3779C64.6391 41.1005 66.3516 40.8115 68.0686 40.5467C68.8497 40.4268 69.5395 40.5816 70.164 41.1506C71.2744 42.1626 72.4411 43.1137 73.5962 44.0746C73.7196 44.1766 73.9317 44.2348 74.0927 44.2178C74.5491 44.1685 74.9991 44.0558 75.4545 43.9941C76.3269 43.8751 76.9272 44.2911 77.1008 45.1545C77.4023 46.6532 77.7048 48.1519 77.9651 49.6577C78.1127 50.5086 77.7987 50.9953 76.9639 51.2914C76.6991 51.3854 76.5935 51.5241 76.5398 51.7782C76.1748 53.488 74.5616 54.6422 72.7686 54.4874C71.1133 54.3451 69.7345 52.9091 69.6469 51.2378C69.5189 48.7898 71.6206 47.0388 74.0122 47.6007C74.1527 47.6338 74.2941 47.6624 74.4936 47.7063C73.249 46.7391 71.1867 46.8295 69.8786 47.8763C68.5329 48.9535 67.7581 51.0347 69.0393 53.233C68.4452 53.3833 67.8664 53.5363 67.2848 53.6768C63.4062 54.6136 59.5275 55.5494 55.6471 56.4808C55.3402 56.5542 55.1577 56.6813 55.0244 57.0105C54.4097 58.5208 52.7339 59.395 51.169 59.0738C49.4681 58.7257 48.2638 57.2789 48.2781 55.5986C48.2916 53.9872 49.5003 52.4644 51.0947 52.2014C51.7613 52.0895 52.4655 52.2157 53.0694 52.2327ZM51.0402 48.7934C54.8427 48.0534 58.5371 47.335 62.2707 46.6085C61.9764 45.0892 61.6919 43.6228 61.4038 42.133C59.5955 42.4265 57.8222 42.6976 56.0569 43.0126C55.512 43.1092 54.9277 43.2291 54.4732 43.5154C54.0885 43.7579 53.8335 44.2348 53.5776 44.6436C52.7348 45.9884 51.9188 47.3502 51.0402 48.7934ZM72.833 44.5551C71.5455 43.4608 70.3626 42.397 69.1064 41.4271C68.7745 41.1712 68.2198 41.1354 67.7644 41.1256C67.283 41.1157 66.7981 41.258 66.3158 41.3358C64.9567 41.5559 63.5976 41.7769 62.184 42.0069C62.4747 43.4993 62.7602 44.9648 63.0518 46.4581C66.3042 45.8256 69.5198 45.1993 72.833 44.5551Z" fill="#D92E10"/>
<path d="M19.1421 59.2536C19.0078 60.2396 19.0078 60.2414 17.9834 60.3193C16.8551 60.4052 15.7242 60.4669 14.5995 60.5823C14.1504 60.6279 14.0475 60.3801 14.0108 60.0535C13.9357 59.3879 13.8811 58.7195 13.8337 58.052C13.6887 56.0326 13.5456 54.0123 13.4158 51.9921C13.3997 51.7478 13.4704 51.4982 13.4892 51.3443C13.3398 51.1483 13.1823 50.9873 13.0794 50.7967C12.836 50.3431 13.1769 49.8241 13.7639 49.7705C14.3866 49.7132 15.012 49.6783 15.6365 49.6613C15.9524 49.6524 16.1429 49.5351 16.3076 49.2578C17.1656 47.8155 18.038 46.3803 18.9291 44.9586C19.0347 44.7904 19.2798 44.6285 19.474 44.6115C20.8975 44.4844 22.3246 44.3958 23.7499 44.2938C25.6512 44.1587 27.5516 44.0227 29.4529 43.8867C31.3094 43.7543 33.166 43.6273 35.0216 43.4823C35.3249 43.4582 35.5182 43.5664 35.7132 43.7767C36.8961 45.0562 38.0968 46.3195 39.2707 47.6061C39.5006 47.8575 39.7198 47.9318 40.0464 47.8871C40.4982 47.8244 40.9948 47.9774 41.2838 47.4173C41.3903 47.2115 41.6936 47.4039 41.7831 47.7555C42.5758 47.7367 42.9158 47.9103 42.9757 48.3648C43.0348 48.8194 42.7583 49.0511 41.9208 49.2309C42.234 49.5772 42.1812 49.9279 41.9468 50.2796C41.9226 50.3153 41.9271 50.3699 41.903 50.4048C41.0896 51.5903 41.4869 52.723 42.1159 53.7985C42.3673 54.2289 42.3995 54.5277 42.0685 54.8901C41.9217 55.0502 41.8251 55.256 41.7195 55.4206C41.7338 55.4699 41.7338 55.4922 41.7428 55.4976C42.8657 56.1239 42.5803 57.2128 42.6205 58.1898C42.6295 58.4054 42.5579 58.588 42.2689 58.605C40.9313 58.6855 39.5955 58.7911 38.2578 58.8689C37.6369 58.9047 37.636 58.885 37.5349 58.2712C37.5206 58.1844 37.5072 58.0986 37.4821 57.9438C31.355 58.3804 25.2459 58.817 19.1421 59.2536ZM39.4532 49.009C39.3592 48.8918 39.3109 48.8238 39.2537 48.763C37.8302 47.2411 36.3959 45.7281 34.9885 44.1918C34.7264 43.9055 34.4633 43.8125 34.0974 43.8402C32.3768 43.9717 30.6545 44.0881 28.933 44.2124C26.0833 44.4173 23.2345 44.6276 20.3848 44.8208C20.0976 44.8405 19.9267 44.9345 19.7925 45.1859C19.5966 45.5518 19.3631 45.8963 19.1474 46.2515C18.2715 47.6965 17.3973 49.1415 16.4802 50.6553C24.157 50.1051 31.763 49.5602 39.4532 49.009ZM15.4021 53.7788C15.9577 53.7403 16.3434 53.7153 16.7281 53.6867C17.7364 53.6133 18.7439 53.5364 19.7523 53.4675C20.0108 53.4496 20.1844 53.3735 20.1549 53.0693C20.1245 52.7588 20.1003 52.4484 20.0824 52.137C20.0681 51.8838 19.9634 51.7576 19.6905 51.7773C18.4603 51.8686 17.2291 51.9491 15.9998 52.0422C15.6643 52.0681 15.1847 52.0108 15.0362 52.2005C14.8653 52.4179 14.9798 52.8671 14.9843 53.2151C14.9914 53.7726 15.0192 53.7931 15.4021 53.7788ZM36.7118 52.2488C37.5233 52.1943 38.5504 52.1477 39.5731 52.0511C40.7971 51.9357 40.8015 51.9008 40.6137 50.6598C40.5716 50.3851 40.4687 50.2733 40.1797 50.2957C38.8287 50.4003 37.4767 50.4791 36.1257 50.5882C35.4475 50.6428 35.4493 50.6634 35.477 51.3228C35.5182 52.2972 35.5182 52.2972 36.7118 52.2488Z" fill="#D92E10"/>
<path d="M55.8015 28.1378C54.9337 31.1127 54.0926 33.9955 53.2319 36.9445C56.6399 36.584 59.9897 36.2297 63.3405 35.8745C63.353 35.8968 63.3646 35.9192 63.3772 35.9416C62.8555 36.312 62.3375 36.6851 61.8132 37.051C59.6784 38.5389 57.5454 40.0313 55.398 41.5014C55.1609 41.6633 54.837 41.7465 54.5462 41.7707C54.0309 41.8136 53.5084 41.7823 52.9098 41.7823C54.8567 40.4197 56.7705 39.0803 58.7649 37.6845C56.129 37.9619 53.6032 38.2285 50.9843 38.5041C51.6321 36.2807 52.262 34.1163 52.9241 31.841C50.6372 33.2135 48.438 34.5324 46.185 35.8843C45.2483 32.9254 44.316 29.9818 43.3398 26.9013C42.2116 29.6946 41.1334 32.3609 40.0428 35.0603C38.1048 34.5404 36.1936 34.0277 34.202 33.4936C34.7827 35.0128 35.3392 36.4677 35.9172 37.9797C34.0812 38.1784 32.2703 38.3743 30.4603 38.5703C30.4486 38.5953 30.4379 38.6204 30.4263 38.6463C32.7311 39.788 35.035 40.9288 37.3398 42.0704C36.8119 42.159 36.3234 42.202 35.825 41.9523C32.6657 40.366 29.4939 38.8038 26.3257 37.2335C26.2345 37.1879 26.1432 37.1432 25.9365 37.0403C28.4686 36.7683 30.8817 36.5097 33.3386 36.2458C32.5799 34.2622 31.839 32.3242 31.0705 30.3155C33.6634 31.0125 36.2017 31.6943 38.7812 32.3868C40.2235 28.8169 41.6622 25.2577 43.1367 21.6099C44.401 25.6012 45.6393 29.5112 46.8946 33.4748C49.8463 31.7086 52.7818 29.9487 55.8015 28.1378Z" fill="#D92E10"/>
<path d="M45.2015 42.1886C45.1577 41.6992 45.1192 41.2787 45.0771 40.8161C45.3688 40.6774 45.6686 40.5343 45.9916 40.3804C46.3092 40.8242 46.6071 41.2411 46.9328 41.6965C46.3611 41.8594 45.826 42.0115 45.2015 42.1886Z" fill="#D92E10"/>
<path d="M41.3803 45.5725C41.1173 45.0106 40.8811 44.5051 40.6377 43.9862C40.78 43.9405 40.8891 43.8976 41.0018 43.8699C42.1811 43.5809 41.8017 43.4153 42.5148 44.4308C42.1489 44.7986 41.7838 45.1663 41.3803 45.5725Z" fill="#D92E10"/>
<path d="M38.3725 42.8452C38.4826 43.1485 38.5783 43.4098 38.6731 43.6702C38.2141 44.2535 38.2141 44.2535 37.3203 43.4608C37.501 43.3525 37.6675 43.2505 37.8357 43.153C37.9994 43.0555 38.1658 42.9633 38.3725 42.8452Z" fill="#D92E10"/>
<path d="M45.4476 46.028C45.2606 44.9544 45.2123 45.1637 45.9567 44.8184C46.1527 45.0904 46.354 45.3713 46.5991 45.7122C46.1956 45.8222 45.8368 45.9207 45.4476 46.028Z" fill="#D92E10"/>
<path d="M47.9526 47.2502C47.8345 47.09 47.7119 46.9254 47.5732 46.7375C47.8103 46.6588 48.0269 46.5872 48.2729 46.5049C48.3946 46.8726 48.4635 47.167 47.9526 47.2502Z" fill="#D92E10"/>
<path d="M49.3971 43.6855C49.4535 44.0148 49.6056 44.3566 49.0687 44.4407C48.9479 44.2787 48.8191 44.1061 48.667 43.9021C48.9444 43.8198 49.1636 43.7544 49.3971 43.6855Z" fill="#D92E10"/>
<path d="M43.9102 48.3128C44.124 48.0229 44.2528 47.8484 44.4837 47.5361C44.5928 47.8377 44.7762 48.0828 44.7172 48.2278C44.5427 48.6528 44.26 48.2161 43.9102 48.3128Z" fill="#D92E10"/>
<path d="M42.6712 46.3784C42.4654 46.4598 42.3034 46.5243 42.1003 46.6057C42.0851 46.3731 42.0717 46.1637 42.0547 45.9033C42.2506 45.9167 42.4197 45.9275 42.6005 45.94C42.6246 46.0912 42.6452 46.2192 42.6712 46.3784Z" fill="#D92E10"/>
</svg>
