<svg width="91" height="91" viewBox="0 0 91 91" fill="none" xmlns="http://www.w3.org/2000/svg">
<circle cx="45.5" cy="45.5879" r="45" fill="white"/>
<path d="M49.4488 56.9876C48.734 56.8089 47.9762 56.3745 47.3107 56.4885C41.3095 57.5113 35.3359 56.7996 29.3655 56.2728C25.6933 55.9494 22.0426 55.3918 18.3889 54.8958C17.7419 54.8064 17.0549 54.6092 16.5219 54.255C16.1153 53.9869 15.7364 53.417 15.6747 52.9364C15.5238 51.7534 15.6008 50.5458 15.5176 49.3504C15.4036 47.7269 15.8226 47.4281 17.3661 47.0861C18.318 46.8735 19.4363 46.587 19.7475 45.099C20.2465 42.7084 22.363 41.6579 24.424 41.1187C26.599 40.5488 28.9249 40.558 30.8227 40.3547C31.6606 39.8248 32.2953 39.3689 32.9792 39.0115C33.3581 38.8144 33.9003 38.8883 34.23 38.648C40.5763 34.0515 47.7359 33.2043 55.3145 33.7219C59.381 34.0023 63.1149 35.2037 66.4205 37.3171C68.1087 38.3985 69.4273 38.5648 71.2234 38.2259C73.8635 37.7269 74.8124 38.5925 75.1698 41.2666C75.5549 44.1317 75.8445 46.9814 74.5937 49.7325C73.8697 51.3283 71.935 52.2617 70.3145 51.6672C69.8709 51.5039 69.5813 50.9216 69.187 50.4965C65.3022 50.3517 61.7778 52.0091 58.1641 53.2599C57.739 53.4078 57.4433 54.0486 57.1814 54.5137C55.8136 56.9352 52.967 58.2045 50.5332 57.4127C50.2313 57.3141 49.9941 57.0245 49.726 56.8212C50.678 56.9629 51.6515 57.2987 52.5819 57.2094C55.1912 56.9568 56.9935 55.096 57.5603 52.3141C58.2134 49.1132 57.1722 45.5827 55.1666 44.3843C54.0945 43.7435 53.0686 43.8513 52.32 44.5568C53.4198 45.1083 54.7014 45.4318 55.5301 46.2297C57.7606 48.3769 57.6774 52.8255 55.5548 55.0837C54.0421 56.698 52.0058 56.7565 50.3945 55.2254C50.1204 54.9635 49.8708 54.677 49.609 54.3998C49.4796 54.4336 49.3471 54.4645 49.2177 54.4983C49.2978 55.3271 49.3748 56.1558 49.4488 56.9876ZM33.2349 40.5272C33.2534 40.6782 33.2719 40.8322 33.2903 40.9832C40.4161 40.9832 47.5418 40.9832 54.9232 40.9832C55.1758 39.7509 55.4808 38.2598 55.792 36.7687C56.0847 35.3763 55.5794 34.5475 54.1037 34.5414C50.9891 34.526 47.8314 34.2302 44.7722 34.6523C40.3267 35.2715 36.5159 37.4835 33.2349 40.5272ZM16.3587 50.5519C16.2385 52.5636 16.793 53.4417 18.9157 53.9715C24.3316 55.3209 29.8584 55.3702 35.3914 55.2624C35.8658 55.2531 36.522 55.0652 36.7623 54.7263C37.1751 54.1471 37.3292 53.38 37.591 52.693C37.0612 52.5174 36.5405 52.234 35.9983 52.1878C29.4887 51.624 22.973 51.0941 16.3587 50.5519ZM55.6071 41.242C57.434 41.4268 58.885 41.356 60.105 40.1052C60.4839 39.717 61.2079 39.4028 61.7162 39.4705C62.4772 39.5753 63.1857 40.0466 63.9159 40.364C63.2412 40.7799 62.6035 41.282 61.8826 41.587C61.2264 41.8643 60.4809 41.929 59.7723 42.0861C60.564 42.2432 61.2942 42.1539 61.9904 41.9475C63.1056 41.6178 64.8555 41.8242 64.0699 39.6862C64.0114 39.526 64.3595 39.2118 64.5259 38.9715C64.8616 38.4816 65.1975 37.9949 65.7643 37.1692C63.6509 36.3991 61.7655 35.6751 59.8555 35.0312C58.5677 34.5968 57.5973 35.1483 57.1444 36.359C56.5683 37.9148 56.137 39.5322 55.6071 41.242ZM48.0039 42.8778C47.933 42.7084 47.8622 42.539 47.7944 42.3726C44.6613 43.6542 41.4974 44.8711 38.4198 46.2697C37.6896 46.6024 37.2368 47.5513 36.6576 48.2167C36.7654 48.3554 36.8763 48.4909 36.9841 48.6296C41.2355 47.8501 44.5073 45.1453 48.0039 42.8778ZM73.6725 51.0757C70.8259 49.64 72.2831 47.0923 71.6054 45.2069C71.1125 47.1847 70.6319 49.1163 70.142 51.0757C71.1525 51.0757 72.2985 51.0757 73.6725 51.0757ZM72.1137 43.0226C72.582 42.6961 73.0687 42.3541 73.5555 42.0152C73.9159 42.5852 74.4489 43.1181 74.5968 43.7404C74.8278 44.7047 74.797 45.7337 74.8771 46.7349C75.0958 45.518 75.1667 44.2826 74.874 43.1397C74.6738 42.3541 73.9714 41.6979 73.4939 40.9801C73.0317 41.6548 72.5666 42.3295 72.1075 43.0072C72.0952 43.0319 72.1445 43.0966 72.1137 43.0226Z" fill="#D92E10"/>
</svg>
