<svg width="91" height="91" viewBox="0 0 91 91" fill="none" xmlns="http://www.w3.org/2000/svg">
<circle cx="45.5" cy="45.5879" r="45" fill="white"/>
<path d="M74.8547 15.5894C75.6843 16.156 75.7122 16.6536 74.9489 17.3671C68.1377 23.738 61.3265 30.1104 54.5153 36.4799C54.3874 36.5988 54.2506 36.7104 54.0726 36.866C59.541 42.2505 64.9696 47.5968 70.4498 52.993C70.8836 52.5908 71.3057 52.2003 71.7279 51.8084C72.4868 51.1023 73.2325 50.383 74.0076 49.6945C74.4164 49.3319 74.9518 49.3715 75.2695 49.7283C75.5739 50.0718 75.5798 50.5885 75.2063 50.9437C73.834 52.2517 72.45 53.5494 71.0498 54.828C70.6204 55.2214 70.1821 55.1876 69.7453 54.7516C69.1643 54.1733 68.623 53.5538 68.1627 53.0591C67.3508 53.771 66.6404 54.3934 65.88 55.0599C67.7685 56.1579 68.7378 57.667 68.0377 59.775C67.3729 61.7773 65.7742 62.4247 63.7283 62.2294C63.7033 63.4434 63.3121 64.4754 62.3767 65.2387C61.4633 65.9845 60.4146 66.2575 59.1821 65.9977C59.1483 67.2058 58.7865 68.2437 57.8658 69.0202C56.9407 69.8012 55.8655 70.036 54.6315 69.8261C54.5771 71.4012 53.9638 72.6314 52.5518 73.3287C51.1355 74.0289 49.7809 73.7691 48.4646 72.8692C47.5733 74.6322 46.3143 75.8374 44.2096 75.5438C42.4917 75.3046 41.496 74.2021 41.0621 72.4861C39.9899 72.762 38.9574 72.6754 38.0132 72.0985C37.0646 71.5187 36.5189 70.6423 36.2806 69.578C33.9421 69.9891 32.1727 69.0863 31.4256 66.5849C29.7768 66.9489 28.3281 66.5893 27.3353 65.1683C26.2499 63.6152 26.4985 62.0401 27.5677 60.5075C26.4235 59.866 25.3204 59.2451 24.1467 58.5874C23.7952 59.4711 23.454 60.3313 23.1127 61.1916C23.0186 61.4279 22.9421 61.6701 22.8289 61.8962C22.5862 62.3821 22.1935 62.5861 21.667 62.4026C19.8226 61.7611 17.9783 61.1182 16.1427 60.4517C15.5941 60.2521 15.3838 59.753 15.575 59.2759C15.7515 58.837 16.2163 58.6344 16.7516 58.8179C18.3209 59.3552 19.8829 59.913 21.5008 60.4811C24.104 53.84 26.7 47.2195 29.3165 40.5476C29.1253 40.461 28.9576 40.3788 28.7841 40.3084C24.6865 38.6686 20.5874 37.0319 16.4884 35.3936C16.4163 35.3643 16.3442 35.3334 16.2722 35.3026C15.6044 35.0178 15.3529 34.5554 15.5838 34.0387C15.7956 33.5645 16.2957 33.4266 16.9472 33.6849C20.2859 35.0134 23.6231 36.3493 26.9603 37.6807C28.1031 38.1372 29.2474 38.5894 30.3902 39.0459C31.3623 39.4335 31.5065 39.7726 31.1285 40.759C31.0726 40.9044 31.0211 41.0511 30.9432 41.2581C32.4257 41.5194 33.8833 41.7851 35.3452 42.02C35.5129 42.0464 35.7129 41.9099 35.8894 41.8306C38.1485 40.8075 40.4017 39.7667 42.6712 38.767C43.0462 38.6026 43.5021 38.5174 43.9081 38.5483C46.8541 38.7685 49.7956 39.0356 52.7401 39.2632C53.0225 39.2852 53.3181 39.134 53.6079 39.0621C53.6182 38.9916 53.6285 38.9211 53.6388 38.8507C53.2431 38.4793 52.8401 38.1152 52.4533 37.7336C51.7532 37.0436 51.7591 36.6546 52.4871 35.9735C58.4541 30.3879 64.424 24.8067 70.3909 19.2226C71.6852 18.0115 72.9766 16.799 74.2694 15.5879C74.4635 15.5894 74.6591 15.5894 74.8547 15.5894ZM54.9051 40.1601C54.2888 40.6724 53.8241 41.1833 52.9225 41.0849C49.9883 40.7649 47.0408 40.552 44.0963 40.326C43.7478 40.2995 43.3565 40.3876 43.0344 40.5315C40.59 41.6192 38.1573 42.732 35.7217 43.8403C35.5085 43.9372 35.2937 44.0355 35.0981 44.1632C34.4039 44.6139 34.1156 45.2745 34.2377 46.0745C34.3568 46.8511 34.8054 47.4529 35.5908 47.5865C36.0953 47.6716 36.6924 47.61 37.1646 47.4133C38.8045 46.7322 40.4062 45.9556 42.0299 45.2348C42.5476 45.0058 43.0271 45.1776 43.2374 45.6033C43.4521 46.0393 43.3021 46.5545 42.8035 46.7835C40.9592 47.6305 39.1354 48.5436 37.2352 49.2453C34.8922 50.1099 32.4095 48.2765 32.4772 45.7853C32.4993 45.0058 32.8346 44.2352 33.0376 43.416C32.1816 43.2692 31.23 43.1063 30.2666 42.9404C28.4252 47.6394 26.6088 52.2781 24.785 56.9316C26.0587 57.6406 27.2633 58.3114 28.4899 58.994C28.8708 58.379 29.2179 57.8138 29.5695 57.253C30.5034 55.766 31.3609 54.2217 32.3948 52.8066C33.8847 50.7661 37.0543 50.9687 38.375 53.109C38.9001 53.9589 39.006 54.8926 38.878 55.904C40.0885 55.9539 41.1283 56.3179 41.8975 57.2604C42.6594 58.194 42.8491 59.2759 42.677 60.4679C43.9184 60.4855 44.945 60.8877 45.7157 61.8199C46.4819 62.7476 46.6555 63.8383 46.4849 65.0244C48.1439 65.045 49.375 65.732 50.0412 67.2132C50.7031 68.687 50.3177 70.0669 49.4397 71.3279C50.4839 72.2233 51.7341 72.144 52.4592 71.1767C53.1578 70.2445 52.8695 69.007 51.7885 68.3141C51.4929 68.1248 51.1884 67.9471 50.8928 67.7563C50.303 67.3761 50.1398 66.9078 50.4251 66.4381C50.7075 65.9742 51.2149 65.9037 51.8062 66.2619C52.6592 66.7757 53.5005 67.313 54.3594 67.8165C55.3669 68.4081 56.5229 68.1571 57.0936 67.2499C57.6805 66.3192 57.3804 65.1624 56.3656 64.515C55.5581 64.0013 54.7345 63.5124 53.9182 63.0118C53.6682 62.8577 53.4093 62.7168 53.1784 62.5392C52.7607 62.2191 52.6636 61.7421 52.9416 61.3516C53.2284 60.9479 53.6182 60.8437 54.0741 61.0624C54.2315 61.1387 54.383 61.2297 54.533 61.3222C55.9994 62.2192 57.4554 63.1352 58.935 64.0115C60.1631 64.7382 61.5898 64.151 61.8957 62.8284C62.0899 61.9945 61.7177 61.1989 60.8559 60.6646C59.1777 59.6253 57.4893 58.6036 55.8126 57.5628C55.2419 57.209 55.0963 56.7495 55.364 56.2901C55.6375 55.8218 56.1626 55.7352 56.7465 56.0772C57.151 56.3135 57.5451 56.5675 57.9452 56.8126C59.794 57.9459 61.6383 59.0865 63.4959 60.208C64.2828 60.6822 65.1564 60.6147 65.7947 60.0833C66.4184 59.5651 66.7125 58.7093 66.3625 57.9767C66.1492 57.5305 65.7624 57.0989 65.3432 56.8303C63.4018 55.5869 61.4221 54.4052 59.4586 53.1971C59.2601 53.0752 58.9762 52.9607 58.913 52.7802C58.8012 52.4645 58.7159 52.0535 58.8291 51.7658C58.9806 51.3827 59.3983 51.2476 59.8248 51.4105C60.0234 51.4869 60.2102 51.5984 60.3926 51.71C61.7074 52.5115 63.0209 53.3189 64.3637 54.141C65.1344 53.335 65.8874 52.5497 66.664 51.7379C62.737 47.8713 58.8394 44.034 54.9051 40.1601ZM37.2528 55.1216C37.1675 54.2114 36.6292 53.4584 35.832 53.2249C34.951 52.9681 34.098 53.2925 33.567 54.1424C31.958 56.726 30.3578 59.3141 28.7679 61.9094C28.1325 62.9473 28.3722 64.0952 29.3077 64.6809C30.2666 65.2813 31.4153 64.976 32.0771 63.9117C33.6553 61.378 35.2261 58.8399 36.7792 56.2915C36.9954 55.9377 37.0984 55.5135 37.2528 55.1216ZM40.9856 59.8308C40.9724 58.7489 40.4312 58.0149 39.6208 57.7786C38.7574 57.5261 37.922 57.8344 37.4028 58.6623C36.1071 60.7262 34.8231 62.799 33.5538 64.8806C32.9302 65.9023 33.1876 67.0708 34.1215 67.6477C35.0599 68.2275 36.2041 67.931 36.8469 66.9034C38.1206 64.8703 39.381 62.8298 40.6238 60.7791C40.8297 60.4385 40.9136 60.026 40.9856 59.8308ZM44.8744 64.1994C44.7861 63.2908 44.2611 62.5817 43.4316 62.3307C42.5785 62.0724 41.7387 62.3821 41.2121 63.2115C40.2414 64.7426 39.2884 66.2869 38.3485 67.837C37.7323 68.8529 37.9911 70.0272 38.9236 70.6041C39.8634 71.1855 40.993 70.8889 41.646 69.854C42.5932 68.3538 43.5286 66.8447 44.442 65.3239C44.6435 64.9833 44.7332 64.5752 44.8744 64.1994ZM48.6719 68.7457C48.5881 67.8385 48.0616 67.1236 47.2438 66.8755C46.4452 66.6333 45.5818 66.9225 45.0935 67.6682C44.4214 68.6943 43.7816 69.7425 43.1506 70.795C42.5344 71.8226 42.7873 72.9925 43.7198 73.5562C44.667 74.1302 45.7966 73.8322 46.4466 72.812C47.0644 71.8431 47.6747 70.8684 48.2513 69.8746C48.4484 69.5325 48.5337 69.1244 48.6719 68.7457Z" fill="#D92E10"/>
<path d="M45.6088 43.834C46.7663 44.1643 48.0944 44.0997 49.2651 44.8601C51.5581 46.3515 53.9187 47.7373 56.2499 49.17C56.4322 49.2816 56.622 49.3932 56.7764 49.537C57.1029 49.8409 57.1559 50.2196 56.9441 50.6028C56.7396 50.9741 56.3852 51.0931 55.9881 50.9903C55.7675 50.933 55.5586 50.8083 55.3601 50.6864C53.2421 49.3917 51.108 48.1219 49.0225 46.7787C48.1106 46.1915 47.1605 45.8216 46.0927 45.71C45.8029 45.6792 45.5102 45.6264 45.2323 45.5383C44.7852 45.3974 44.5484 45.0612 44.6131 44.6003C44.6822 44.1114 45.0205 43.8707 45.6088 43.834Z" fill="#D92E10"/>
</svg>
