<svg width="61" height="61" viewBox="0 0 61 61" fill="none" xmlns="http://www.w3.org/2000/svg">
<circle cx="30.5" cy="30.5879" r="30" fill="white"/>
<path d="M25.5003 29.7547C26.4208 29.7547 27.167 29.0085 27.167 28.0881C27.167 27.1676 26.4208 26.4214 25.5003 26.4214C24.5799 26.4214 23.8337 27.1676 23.8337 28.0881C23.8337 29.0085 24.5799 29.7547 25.5003 29.7547Z" fill="#0D0D0D"/>
<path d="M28.8337 28.0881C28.8337 27.1676 29.5799 26.4214 30.5003 26.4214H35.5003C36.4208 26.4214 37.167 27.1676 37.167 28.0881C37.167 29.0085 36.4208 29.7547 35.5003 29.7547H30.5003C29.5799 29.7547 28.8337 29.0085 28.8337 28.0881Z" fill="#0D0D0D"/>
<path d="M30.5003 31.4214C29.5799 31.4214 28.8337 32.1676 28.8337 33.0881C28.8337 34.0085 29.5799 34.7547 30.5003 34.7547H35.5003C36.4208 34.7547 37.167 34.0085 37.167 33.0881C37.167 32.1676 36.4208 31.4214 35.5003 31.4214H30.5003Z" fill="#0D0D0D"/>
<path d="M30.5003 36.4214C29.5799 36.4214 28.8337 37.1676 28.8337 38.0881C28.8337 39.0085 29.5799 39.7547 30.5003 39.7547H35.5003C36.4208 39.7547 37.167 39.0085 37.167 38.0881C37.167 37.1676 36.4208 36.4214 35.5003 36.4214H30.5003Z" fill="#0D0D0D"/>
<path d="M27.167 33.0881C27.167 34.0085 26.4208 34.7547 25.5003 34.7547C24.5799 34.7547 23.8337 34.0085 23.8337 33.0881C23.8337 32.1676 24.5799 31.4214 25.5003 31.4214C26.4208 31.4214 27.167 32.1676 27.167 33.0881Z" fill="#0D0D0D"/>
<path d="M25.5003 39.7547C26.4208 39.7547 27.167 39.0085 27.167 38.0881C27.167 37.1676 26.4208 36.4214 25.5003 36.4214C24.5799 36.4214 23.8337 37.1676 23.8337 38.0881C23.8337 39.0085 24.5799 39.7547 25.5003 39.7547Z" fill="#0D0D0D"/>
<path d="M25.5003 13.9214C24.5799 13.9214 23.8337 14.6676 23.8337 15.5881H20.5003C18.6594 15.5881 17.167 17.0804 17.167 18.9214V43.9214C17.167 45.7623 18.6594 47.2547 20.5003 47.2547H40.5003C42.3413 47.2547 43.8337 45.7623 43.8337 43.9214V18.9214C43.8337 17.0804 42.3413 15.5881 40.5003 15.5881H37.167C37.167 14.6676 36.4208 13.9214 35.5003 13.9214H25.5003ZM37.167 18.9214H40.5003V43.9214H20.5003V18.9214H23.8337V20.5881C23.8337 21.5085 24.5799 22.2547 25.5003 22.2547H35.5003C36.4208 22.2547 37.167 21.5085 37.167 20.5881V18.9214ZM27.167 18.9214V17.2547H33.8337V18.9214H27.167Z" fill="#0D0D0D"/>
</svg>
