<svg width="61" height="61" viewBox="0 0 61 61" fill="none" xmlns="http://www.w3.org/2000/svg">
<circle cx="30.5" cy="30.5879" r="30" fill="white"/>
<path fill-rule="evenodd" clip-rule="evenodd" d="M28.0114 13.1014C28.3143 12.753 28.7846 12.5998 29.2346 12.7031C35.2493 14.084 38.2896 20.675 37.5746 26.5719C37.2966 28.8642 36.61 30.6613 35.5989 32.0911C35.5928 32.0998 35.5866 32.1085 35.5804 32.1172C35.81 32.0043 36.0219 31.8826 36.2202 31.7539C37.2067 31.1136 37.9308 30.2685 38.8735 29.1682C38.9875 29.0352 39.1046 28.8985 39.2258 28.758C39.4982 28.4422 39.9101 28.283 40.3241 28.3335C40.738 28.3841 41.0995 28.6378 41.2878 29.0099C42.117 30.6486 42.5837 32.5012 42.5837 34.4591C42.5837 41.1326 37.1738 46.5425 30.5003 46.5425C23.8269 46.5425 18.417 41.1326 18.417 34.4591C18.417 30.2307 20.5898 26.5106 23.8742 24.3531L23.9868 24.2397C24.0446 24.1814 24.1081 24.129 24.1762 24.0831C25.6193 23.112 26.6555 22.3178 27.3532 21.3838C28.0122 20.5014 28.417 19.425 28.417 17.7925C28.417 16.5837 28.1938 15.4299 27.7875 14.3682C27.6224 13.937 27.7086 13.4499 28.0114 13.1014ZM30.7857 16.0061C30.8722 16.5894 30.917 17.1859 30.917 17.7925C30.917 19.9065 30.3708 21.5213 29.3561 22.8798C28.4032 24.1556 27.0841 25.1355 25.6748 26.0879L25.5543 26.2093C25.4897 26.2744 25.4182 26.3321 25.341 26.3815C22.6778 28.0866 20.917 31.0676 20.917 34.4591C20.917 39.7519 25.2076 44.0425 30.5003 44.0425C35.7931 44.0425 40.0837 39.7519 40.0837 34.4591C40.0837 33.5927 39.969 32.7543 39.7542 31.9575C39.1205 32.6437 38.4211 33.3058 37.5812 33.8509C36.0424 34.8496 34.1169 35.4197 31.3337 35.4197C30.7632 35.4197 30.2652 35.0336 30.1231 34.4811C29.981 33.9287 30.2309 33.3501 30.7305 33.0749C31.8618 32.4516 32.8209 31.6897 33.5577 30.6476C34.2931 29.6077 34.8565 28.2193 35.0927 26.271C35.6042 22.0531 33.8586 17.8898 30.7857 16.0061Z" fill="black"/>
</svg>
