<svg width="61" height="61" viewBox="0 0 61 61" fill="none" xmlns="http://www.w3.org/2000/svg">
<circle cx="30.5" cy="30.5879" r="30" fill="white"/>
<path fill-rule="evenodd" clip-rule="evenodd" d="M28.7887 18.8281C28.4553 20.5164 27.8953 23.0497 25.8453 25.0997C25.6587 25.2864 25.4537 25.4831 25.237 25.6931C23.3337 27.5281 20.5003 30.2614 20.5003 34.7547C20.5003 37.1931 21.5503 39.5047 23.1687 41.2131C24.797 42.9314 26.882 43.9214 28.8337 43.9214H37.167C37.7537 43.9214 38.2437 43.7714 38.5337 43.5764C38.7753 43.4164 38.8337 43.2764 38.8337 43.0881C38.8337 42.9014 38.7753 42.7597 38.5337 42.5997C38.2437 42.4064 37.7537 42.2547 37.167 42.2547H35.5003C35.0583 42.2547 34.6344 42.0791 34.3218 41.7666C34.0093 41.454 33.8337 41.0301 33.8337 40.5881C33.8337 40.146 34.0093 39.7221 34.3218 39.4095C34.6344 39.097 35.0583 38.9214 35.5003 38.9214H38.0003C38.587 38.9214 39.077 38.7714 39.367 38.5764C39.6087 38.4164 39.667 38.2764 39.667 38.0881C39.667 37.9014 39.6087 37.7597 39.367 37.5997C39.077 37.4064 38.587 37.2547 38.0003 37.2547H36.3337C35.8916 37.2547 35.4677 37.0791 35.1551 36.7666C34.8426 36.454 34.667 36.0301 34.667 35.5881C34.667 35.146 34.8426 34.7221 35.1551 34.4095C35.4677 34.097 35.8916 33.9214 36.3337 33.9214H38.8337C39.4203 33.9214 39.9103 33.7714 40.2003 33.5764C40.442 33.4164 40.5003 33.2764 40.5003 33.0881C40.5003 32.9014 40.442 32.7597 40.2003 32.5997C39.9103 32.4064 39.4203 32.2547 38.8337 32.2547H37.167C36.725 32.2547 36.301 32.0791 35.9885 31.7666C35.6759 31.454 35.5003 31.0301 35.5003 30.5881C35.5003 30.146 35.6759 29.7221 35.9885 29.4095C36.301 29.097 36.725 28.9214 37.167 28.9214H38.8337C39.4203 28.9214 39.9103 28.7714 40.2003 28.5764C40.442 28.4164 40.5003 28.2764 40.5003 28.0881C40.5003 27.9014 40.442 27.7597 40.2003 27.5997C39.9103 27.4064 39.4203 27.2547 38.8337 27.2547H31.3337C31.0687 27.2548 30.8075 27.1917 30.5718 27.0706C30.3361 26.9496 30.1326 26.774 29.9783 26.5586C29.824 26.3432 29.7233 26.0941 29.6845 25.832C29.6457 25.5699 29.67 25.3023 29.7553 25.0514V25.0497L29.762 25.0331L29.7837 24.9664L29.872 24.6831C29.9453 24.4331 30.047 24.0714 30.152 23.6364C30.4054 22.6169 30.5606 21.5755 30.6153 20.5264C30.6587 19.3847 30.507 18.5097 30.202 17.9764C30.022 17.6597 29.7503 17.3747 29.1187 17.2847C29.0387 17.5581 28.9653 17.9314 28.8587 18.4781L28.7887 18.8281ZM33.5053 23.9214C33.7087 22.9914 33.902 21.8331 33.947 20.6497C33.997 19.2914 33.8637 17.6664 33.097 16.3247C32.247 14.8314 30.7437 13.9214 28.667 13.9214C28.0303 13.9214 27.4337 14.1314 26.9503 14.5547C26.512 14.9381 26.262 15.4147 26.107 15.7981C25.8603 16.4097 25.707 17.2031 25.5787 17.8731L25.5187 18.1814C25.1953 19.8264 24.772 21.4597 23.4887 22.7431C23.342 22.8897 23.1637 23.0597 22.9603 23.2514C21.0887 25.0247 17.167 28.7431 17.167 34.7547C17.167 38.1497 18.617 41.2547 20.7487 43.5047C22.8703 45.7447 25.7853 47.2547 28.8337 47.2547H37.167C38.247 47.2547 39.4237 46.9881 40.3837 46.3497C41.392 45.6764 42.167 44.5664 42.167 43.0881C42.167 42.3064 41.9503 41.6297 41.6003 41.0631C42.4153 40.3797 43.0003 39.3747 43.0003 38.0881C43.0003 37.3064 42.7837 36.6281 42.4337 36.0647C43.2487 35.3814 43.8337 34.3747 43.8337 33.0881C43.8337 32.0731 43.4703 31.2331 42.9153 30.5881C43.4687 29.9431 43.8337 29.1031 43.8337 28.0881C43.8337 26.6081 43.0587 25.4997 42.0503 24.8264C41.0903 24.1864 39.9137 23.9214 38.8337 23.9214H33.5053Z" fill="black"/>
</svg>
