<svg width="61" height="61" viewBox="0 0 61 61" fill="none" xmlns="http://www.w3.org/2000/svg">
<circle cx="30.5" cy="30.0879" r="30" fill="white"/>
<path fill-rule="evenodd" clip-rule="evenodd" d="M27.9769 16.445C29.1009 14.5079 31.8983 14.5079 33.0223 16.445L36.4646 22.3773C36.7819 22.9241 37.3303 23.2972 37.9554 23.3917L43.6715 24.255C46.1631 24.6313 47.0371 27.7773 45.0967 29.3849L40.9318 32.8355C40.3472 33.3198 40.0724 34.0837 40.2144 34.8295L41.381 40.9561C41.838 43.356 39.3186 45.2207 37.157 44.0824L31.4702 41.0881C30.8627 40.7682 30.1365 40.7682 29.529 41.0881L23.8422 44.0824C21.6806 45.2207 19.1612 43.356 19.6182 40.9561L20.7848 34.8295C20.9268 34.0837 20.6519 33.3198 20.0674 32.8355L15.9025 29.3849C13.9621 27.7773 14.8361 24.6313 17.3277 24.255L23.0438 23.3917C23.6689 23.2972 24.2173 22.9241 24.5346 22.3773L27.9769 16.445ZM30.86 17.6997C30.6994 17.423 30.2998 17.423 30.1392 17.6997L26.697 23.632C25.9989 24.835 24.7924 25.6559 23.4172 25.8636L17.7011 26.727C17.3451 26.7807 17.2203 27.2302 17.4975 27.4598L21.6623 30.9103C22.9484 31.9758 23.5531 33.6565 23.2407 35.2971L22.074 41.4237C22.0088 41.7666 22.3687 42.033 22.6775 41.8703L28.3642 38.876C29.7008 38.1723 31.2984 38.1723 32.635 38.876L38.3217 41.8703C38.6305 42.033 38.9904 41.7666 38.9251 41.4237L37.7585 35.2971C37.4461 33.6565 38.0508 31.9758 39.3369 30.9103L43.5017 27.4598C43.7789 27.2301 43.6541 26.7807 43.2981 26.727L37.582 25.8636C36.2068 25.6559 35.0003 24.835 34.3022 23.632L30.86 17.6997Z" fill="black"/>
</svg>
