<svg width="40" height="41" viewBox="0 0 40 41" fill="none" xmlns="http://www.w3.org/2000/svg">
<rect x="2.5" y="3" width="35" height="35" rx="6" fill="url(#paint0_radial_107_1261)"/>
<rect x="2.5" y="3" width="35" height="35" rx="6" fill="url(#paint1_radial_107_1261)"/>
<rect x="2.5" y="3" width="35" height="35" rx="6" fill="url(#paint2_radial_107_1261)"/>
<path d="M28.75 13.625C28.75 14.6605 27.9105 15.5 26.875 15.5C25.8395 15.5 25 14.6605 25 13.625C25 12.5895 25.8395 11.75 26.875 11.75C27.9105 11.75 28.75 12.5895 28.75 13.625Z" fill="white"/>
<path fill-rule="evenodd" clip-rule="evenodd" d="M20 26.75C23.4518 26.75 26.25 23.9518 26.25 20.5C26.25 17.0482 23.4518 14.25 20 14.25C16.5482 14.25 13.75 17.0482 13.75 20.5C13.75 23.9518 16.5482 26.75 20 26.75ZM20 24.25C22.0711 24.25 23.75 22.5711 23.75 20.5C23.75 18.4289 22.0711 16.75 20 16.75C17.9289 16.75 16.25 18.4289 16.25 20.5C16.25 22.5711 17.9289 24.25 20 24.25Z" fill="white"/>
<path fill-rule="evenodd" clip-rule="evenodd" d="M7.5 20C7.5 15.7996 7.5 13.6994 8.31745 12.0951C9.0365 10.6839 10.1839 9.5365 11.5951 8.81745C13.1994 8 15.2996 8 19.5 8H20.5C24.7004 8 26.8006 8 28.4049 8.81745C29.8161 9.5365 30.9635 10.6839 31.6825 12.0951C32.5 13.6994 32.5 15.7996 32.5 20V21C32.5 25.2004 32.5 27.3006 31.6825 28.9049C30.9635 30.3161 29.8161 31.4635 28.4049 32.1825C26.8006 33 24.7004 33 20.5 33H19.5C15.2996 33 13.1994 33 11.5951 32.1825C10.1839 31.4635 9.0365 30.3161 8.31745 28.9049C7.5 27.3006 7.5 25.2004 7.5 21V20ZM19.5 10.5H20.5C22.6414 10.5 24.0972 10.5019 25.2224 10.5939C26.3184 10.6834 26.879 10.8457 27.27 11.045C28.2108 11.5243 28.9757 12.2892 29.455 13.23C29.6543 13.621 29.8166 14.1816 29.9061 15.2776C29.9981 16.4028 30 17.8586 30 20V21C30 23.1414 29.9981 24.5972 29.9061 25.7224C29.8166 26.8184 29.6543 27.379 29.455 27.77C28.9757 28.7108 28.2108 29.4757 27.27 29.955C26.879 30.1543 26.3184 30.3166 25.2224 30.4061C24.0972 30.4981 22.6414 30.5 20.5 30.5H19.5C17.3586 30.5 15.9028 30.4981 14.7776 30.4061C13.6816 30.3166 13.121 30.1543 12.73 29.955C11.7892 29.4757 11.0243 28.7108 10.545 27.77C10.3457 27.379 10.1834 26.8184 10.0939 25.7224C10.0019 24.5972 10 23.1414 10 21V20C10 17.8586 10.0019 16.4028 10.0939 15.2776C10.1834 14.1816 10.3457 13.621 10.545 13.23C11.0243 12.2892 11.7892 11.5243 12.73 11.045C13.121 10.8457 13.6816 10.6834 14.7776 10.5939C15.9028 10.5019 17.3586 10.5 19.5 10.5Z" fill="white"/>
<defs>
<radialGradient id="paint0_radial_107_1261" cx="0" cy="0" r="1" gradientUnits="userSpaceOnUse" gradientTransform="translate(15 29.25) rotate(-55.3758) scale(31.8995)">
<stop stop-color="#B13589"/>
<stop offset="0.79309" stop-color="#C62F94"/>
<stop offset="1" stop-color="#8A3AC8"/>
</radialGradient>
<radialGradient id="paint1_radial_107_1261" cx="0" cy="0" r="1" gradientUnits="userSpaceOnUse" gradientTransform="translate(13.75 39.25) rotate(-65.1363) scale(28.2428)">
<stop stop-color="#E0E8B7"/>
<stop offset="0.444662" stop-color="#FB8A2E"/>
<stop offset="0.71474" stop-color="#E2425C"/>
<stop offset="1" stop-color="#E2425C" stop-opacity="0"/>
</radialGradient>
<radialGradient id="paint2_radial_107_1261" cx="0" cy="0" r="1" gradientUnits="userSpaceOnUse" gradientTransform="translate(0.625002 4.25) rotate(-8.1301) scale(48.6136 10.3979)">
<stop offset="0.156701" stop-color="#406ADC"/>
<stop offset="0.467799" stop-color="#6A45BE"/>
<stop offset="1" stop-color="#6A45BE" stop-opacity="0"/>
</radialGradient>
</defs>
</svg>
