<svg width="31" height="22" viewBox="0 0 31 22" fill="none" xmlns="http://www.w3.org/2000/svg">
<path d="M30.3513 14.4772C30.2418 14.346 30.0853 14.2611 29.9053 14.2379L29.4437 14.1916C29.2167 12.2624 28.5751 10.364 27.5736 8.68939L28.2465 8.38842C28.403 8.31897 28.5282 8.18778 28.5908 8.02572C28.6534 7.87138 28.6455 7.69389 28.5829 7.53955C28.5751 7.50868 28.5673 7.47781 28.5516 7.44695C28.5125 7.37749 28.4577 7.32347 28.3873 7.2926C28.3326 7.2463 28.27 7.21543 28.2074 7.19228C28.043 7.13055 27.8631 7.13826 27.7066 7.20772L26.8459 7.59357C26.2277 6.78328 25.5391 6.03473 24.7801 5.37106C24.1228 4.8 23.4108 4.29068 22.6518 3.8508L23.2934 2.97106C23.3951 2.83215 23.4343 2.65466 23.4108 2.48489C23.3795 2.31511 23.2778 2.16849 23.1369 2.06817C22.9961 1.96785 22.8161 1.92926 22.644 1.95241C22.4718 1.98328 22.3153 2.07588 22.2136 2.21479L21.4703 3.24116C19.8505 2.50032 18.0509 2.06045 16.259 1.96785V0.648232C16.259 0.293248 15.9617 0 15.6017 0C15.2418 0 14.9444 0.293248 14.9444 0.648232V1.96013C13.1056 2.0373 11.2746 2.47717 9.61581 3.24116L8.98983 2.16849C8.90376 2.01415 8.76291 1.90611 8.59077 1.86752C8.4108 1.82122 8.23865 1.84437 8.08216 1.92926C7.93349 2.02186 7.82394 2.16077 7.777 2.33055C7.73005 2.4926 7.75352 2.6701 7.84742 2.82444L8.44992 3.8508C7.73005 4.25981 7.0493 4.73826 6.43114 5.27074C5.63302 5.94212 4.91315 6.70611 4.29499 7.54727L3.45775 7.07653C3.30908 6.98392 3.12911 6.96077 2.95696 7.00707C2.87089 7.03023 2.79264 7.06881 2.72222 7.13055C2.64397 7.1537 2.58138 7.20772 2.54225 7.26945C2.50313 7.33119 2.48748 7.40064 2.49531 7.46238C2.46401 7.57042 2.46401 7.69389 2.49531 7.80193C2.54225 7.9717 2.6518 8.11061 2.80047 8.1955L3.55947 8.62765C2.5579 10.2714 1.90845 12.1389 1.65806 14.0373H1.15728C0.79734 14.045 0.5 14.3383 0.5 14.6932C0.5 15.0482 0.79734 15.3415 1.15728 15.3415H1.55634C1.49374 17.1781 1.80673 18.9839 2.47966 20.7048L2.61268 21.0444C2.62833 21.0907 2.66745 21.1215 2.70657 21.137C2.75352 21.1524 2.80047 21.1524 2.83959 21.1293L3.16823 20.9595C3.54382 20.7588 3.77856 20.6354 3.94288 20.5505L3.97418 20.535C4.28717 20.3653 4.28717 20.3653 4.60798 20.2341L4.8975 20.1106C4.97574 20.0797 5.01487 19.9871 4.98357 19.9023L4.87402 19.6167C3.65336 16.3447 4.0759 12.6482 6.00078 9.68489L6.8928 10.2096C7.04147 10.2945 7.24491 10.2482 7.33881 10.0939C7.38576 10.0244 7.39358 9.93183 7.37793 9.85466C7.36228 9.76978 7.30751 9.70032 7.22926 9.65402L6.36854 9.15241C6.8928 8.44244 7.48748 7.80193 8.13693 7.2463C10.1088 5.5717 12.6283 4.62251 15.2496 4.56077V5.49453C15.2496 5.66431 15.3983 5.80322 15.5782 5.80322C15.7582 5.80322 15.9069 5.66431 15.9069 5.49453V4.55305C18.536 4.63794 21.0556 5.61801 23.0196 7.31576C23.5986 7.81736 24.1307 8.38842 24.6002 9.0135L23.669 9.46881C23.5125 9.54598 23.4499 9.73891 23.5282 9.90096C23.6064 10.063 23.802 10.1325 23.9585 10.0476L24.9757 9.54598C26.9632 12.5248 27.4171 16.2675 26.1886 19.5781L26.0947 19.8405C26.0634 19.9177 26.1025 20.0026 26.1729 20.0412L26.4468 20.1878C26.752 20.373 27.0649 20.535 27.3701 20.6971L27.4484 20.5505L27.4014 20.7125C27.5579 20.7974 27.7222 20.8823 27.8787 20.9672L28.2074 21.1524C28.2308 21.1678 28.2621 21.1756 28.2856 21.1756C28.3013 21.1756 28.3247 21.1756 28.3404 21.1678C28.3873 21.1524 28.4186 21.1138 28.4421 21.0752L28.5751 20.728C29.2324 19.0534 29.5454 17.3016 29.5063 15.5113L29.8114 15.5344C30.1557 15.5344 30.4374 15.2797 30.4687 14.9479C30.5156 14.7859 30.4609 14.6161 30.3513 14.4772ZM25.8834 9.12154L26.4859 8.82058C27.6205 10.5801 28.3169 12.6019 28.4969 14.6778L28.5203 14.9942C28.6221 16.6534 28.403 18.2894 27.8709 19.8482L27.8552 19.8405C27.6596 19.7402 27.464 19.6399 27.2762 19.5318C28.4108 16.0823 27.8944 12.2161 25.8834 9.12154ZM25.5078 8.58135C24.9679 7.84823 24.3576 7.17685 23.6847 6.59035C21.5485 4.73055 18.7942 3.66559 15.9225 3.58071V2.93248C17.8239 2.9865 19.7175 3.45723 21.4077 4.29839L21.6972 4.4373C22.5657 4.8926 23.3873 5.45595 24.1228 6.10418C24.8584 6.74469 25.5313 7.47781 26.1103 8.2881L25.5078 8.58135ZM4.95227 8.31125C5.5626 7.45466 6.28247 6.68296 7.07277 6.01158C7.76917 5.42508 8.53599 4.90032 9.34977 4.46817L9.63146 4.32154C11.3607 3.45723 13.3013 2.97878 15.2574 2.94019V3.58842C12.3936 3.65016 9.6471 4.68424 7.4953 6.50547C6.76761 7.12283 6.1025 7.84823 5.51565 8.6508L4.95227 8.31125ZM3.80986 19.5241C3.73944 19.5627 3.65336 19.609 3.51252 19.6785L3.21518 19.8405C2.67527 18.2508 2.45618 16.5839 2.57355 14.8939L2.59703 14.5775C2.78482 12.5556 3.4734 10.5801 4.58451 8.85145L5.16354 9.191C3.18388 12.2547 2.6831 16.0977 3.80986 19.5241Z" fill="#D92E10"/>
<path d="M17.3855 16.9544C17.589 16.6612 17.7142 16.3062 17.7142 15.928C17.7142 14.9325 16.8926 14.1223 15.8832 14.1223C15.6563 14.1223 15.445 14.1686 15.2494 14.238L9.39648 7.62451L14.5217 14.7628C14.1774 15.0946 14.0522 15.411 14.0522 15.928C14.0522 16.9235 14.8738 17.7338 15.8832 17.7338C16.1257 17.7338 16.3605 17.6875 16.5718 17.5949C16.5718 17.5949 17.4325 18.9763 17.4247 18.9917C17.4873 19.0612 17.542 19.1229 17.6046 19.1924C17.6281 19.2155 17.6516 19.2464 17.675 19.2695C18.5358 20.1261 19.2869 19.447 18.8096 18.4978C18.747 18.4438 17.3855 16.9544 17.3855 16.9544ZM15.8675 17.0779C15.2181 17.0779 14.6938 16.5608 14.6938 15.9203C14.6938 15.2798 15.2181 14.7628 15.8675 14.7628C16.517 14.7628 17.0412 15.2798 17.0412 15.9203C17.0334 16.5608 16.5092 17.0779 15.8675 17.0779Z" fill="#D92E10"/>
</svg>
