<svg width="31" height="25" viewBox="0 0 31 25" fill="none" xmlns="http://www.w3.org/2000/svg">
<path d="M28.1979 25.0001C28.1342 25.0001 28.0705 24.9795 28.0138 24.9451L22.0365 20.7521C21.9232 20.6765 21.8807 20.539 21.9232 20.4084C21.9657 20.2847 22.0861 20.1953 22.2206 20.1953L24.4232 20.2022L23.6016 18.1194L19.3948 18.1057C19.2674 18.1057 19.1611 18.03 19.1045 17.9201C19.0549 17.8101 19.0761 17.6795 19.1611 17.5901C19.6144 17.109 19.9543 16.4903 20.103 15.8579C20.1385 15.7205 20.2659 15.6242 20.4076 15.6242L22.6597 15.6311L21.9586 13.6721L20.2518 13.6652C20.1526 13.6652 20.0606 13.6171 20.0039 13.5415C19.9472 13.4658 19.926 13.3627 19.9543 13.2734L21.2433 9.08724C21.2716 8.98413 21.3566 8.90852 21.4628 8.88103C21.5691 8.85353 21.6824 8.88103 21.7603 8.95664L26.2362 13.1771C26.3283 13.2665 26.3566 13.3971 26.307 13.514C26.2574 13.6308 26.1441 13.6996 26.0166 13.7064L24.579 13.6858L26.0945 16.9577L26.4487 17.6932L27.7022 20.209L30.188 20.2159C30.2943 20.2159 30.3934 20.2709 30.4501 20.3534C30.5067 20.4428 30.5138 20.5527 30.4713 20.6421L28.4812 24.8214C28.4387 24.9038 28.3679 24.9657 28.2759 24.9863C28.2546 25.0001 28.2263 25.0001 28.1979 25.0001ZM23.1979 20.8071L28.0775 24.2302L29.6994 20.8208L27.511 20.8139C27.3906 20.8139 27.2844 20.7452 27.2277 20.6421L25.3934 16.9302L24.9897 16.071L23.8141 13.5002C23.7716 13.404 23.7787 13.294 23.8353 13.2115C23.892 13.129 23.9911 13.074 24.0974 13.074L25.2589 13.0809L21.7178 9.74025L20.6979 13.0534L22.1994 13.0603C22.3339 13.0603 22.4472 13.1428 22.4968 13.2665L23.4175 15.8373C23.4529 15.9335 23.4387 16.0366 23.375 16.1123C23.3183 16.1947 23.2334 16.236 23.12 16.2429L20.6625 16.2291C20.528 16.6759 20.3155 17.109 20.0464 17.4939L23.8212 17.5076C23.9487 17.5076 24.0691 17.5833 24.1115 17.707L25.1668 20.4015C25.2022 20.4977 25.188 20.6008 25.1314 20.6833C25.0747 20.7658 24.9756 20.8139 24.8764 20.8139L23.1979 20.8071Z" fill="#D92E10"/>
<path d="M15.5637 25C15.4788 25 15.3938 24.9656 15.3371 24.9038L11.2861 20.6833C11.2011 20.5939 11.1799 20.4633 11.2295 20.3533C11.279 20.2433 11.3924 20.1677 11.5198 20.1677L13.8782 20.1746L13.9207 19.0817C13.9278 18.9923 13.9703 18.9098 14.0411 18.8548C14.1119 18.7998 14.2111 18.7792 14.296 18.7998C15.0963 18.9648 15.847 18.9717 16.6402 18.8136C16.7323 18.793 16.8244 18.8136 16.8952 18.8686C16.966 18.9236 17.0156 19.0061 17.0156 19.0885L17.0864 20.1815L19.4731 20.1883C19.6006 20.1883 19.7068 20.2571 19.7564 20.3671C19.806 20.477 19.7847 20.6076 19.6997 20.697L15.7833 24.8969C15.7408 24.9656 15.6558 25 15.5637 25C15.5708 25 15.5708 25 15.5637 25ZM12.2422 20.7864L15.5637 24.2439L18.779 20.8001L16.8031 20.7932C16.6402 20.7932 16.4986 20.6695 16.4915 20.5045L16.4207 19.4666C15.7833 19.556 15.1742 19.556 14.5368 19.4597L14.4943 20.4977C14.4873 20.6626 14.3527 20.7932 14.1827 20.7932L12.2422 20.7864Z" fill="#D92E10"/>
<path d="M2.93596 24.9997C2.90763 24.9997 2.88638 24.9997 2.85805 24.9928C2.76598 24.9722 2.68808 24.9104 2.65267 24.8279L0.535106 20.5867C0.485531 20.4905 0.492613 20.3805 0.54927 20.2912C0.605927 20.2018 0.705077 20.1468 0.818392 20.1468L3.2759 20.1537L4.91896 16.5999L5.30139 15.7407L6.22916 13.5755L4.77023 13.5686C4.64275 13.5686 4.52944 13.493 4.47986 13.3761C4.43029 13.2593 4.45862 13.1287 4.55069 13.0462L8.92746 8.84629C9.00536 8.77067 9.11867 8.74318 9.22491 8.77067C9.33114 8.79817 9.41613 8.87378 9.45154 8.97689L10.8396 13.2111C10.868 13.3074 10.8538 13.4036 10.7901 13.4861C10.7334 13.5617 10.6413 13.6098 10.5351 13.6098L8.82122 13.603L8.16258 15.5757L10.5705 15.5895C10.7192 15.5895 10.8467 15.6926 10.875 15.8301C11.0238 16.4693 11.3496 17.0948 11.8028 17.5829C11.8878 17.6722 11.909 17.8028 11.8595 17.9128C11.8099 18.0228 11.6966 18.0915 11.5691 18.0915L7.29856 18.064L6.54077 20.1674L8.77873 20.1743C8.91329 20.1743 9.03369 20.2568 9.07618 20.3805C9.11867 20.5042 9.07618 20.6417 8.96287 20.7173L3.12009 24.9447C3.06343 24.9791 2.99969 24.9997 2.93596 24.9997ZM1.31414 20.7655L3.04927 24.2298L7.82972 20.7723H6.0946C5.99545 20.7723 5.8963 20.7242 5.83964 20.6417C5.78298 20.5592 5.76882 20.4561 5.79715 20.3668L6.78156 17.6585C6.82406 17.5348 6.94445 17.4523 7.07901 17.4523L10.9317 17.466C10.6626 17.0742 10.4572 16.6343 10.3226 16.1875L7.73057 16.1738C7.63142 16.1738 7.53935 16.1256 7.47562 16.05C7.41896 15.9744 7.39771 15.8713 7.43312 15.7751L8.29006 13.1905C8.33256 13.0668 8.45295 12.9637 8.58751 12.9774L10.096 12.9843L8.99828 9.62303L5.52802 12.9637L6.69658 12.9706C6.80281 12.9706 6.90196 13.0256 6.95862 13.108C7.01528 13.1905 7.02944 13.3005 6.98695 13.3967L5.36513 17.1361L5.02519 17.8716L3.75749 20.5867C3.70791 20.6967 3.5946 20.7655 3.4742 20.7655H1.31414Z" fill="#D92E10"/>
<path d="M15.4993 18.621C14.6141 18.621 13.7288 18.4079 12.8506 17.9886C11.5688 17.3562 10.988 15.7546 11.1297 14.8885C11.1509 14.7579 11.2571 14.6548 11.3917 14.6342C12.1637 14.5105 12.7373 14.1737 13.0914 13.6238C14.2812 11.7884 12.7656 7.95974 11.6537 5.16211C11.4979 4.7703 11.3492 4.39912 11.2076 4.02793C10.8464 3.2237 11.4342 1.3334 12.8365 0.639148C14.5999 -0.213202 16.3846 -0.213202 18.1481 0.632275C19.5787 1.34028 20.1452 3.21682 19.7628 4.06917C19.6353 4.39912 19.4866 4.78405 19.3237 5.18273L19.3025 5.23772C18.1552 8.11097 16.7316 11.6853 17.886 13.5481C18.2401 14.1187 18.8209 14.483 19.607 14.6273C19.7345 14.6479 19.8336 14.7511 19.8549 14.8748C20.0107 15.7478 19.4299 17.3493 18.1481 17.9817C17.277 18.4079 16.3846 18.621 15.4993 18.621ZM11.7387 15.1841C11.7458 15.8784 12.2345 16.9919 13.1339 17.4387C14.7061 18.1948 16.2996 18.1948 17.879 17.4318C18.7855 16.985 19.2741 15.8577 19.2671 15.1704C18.4101 14.9641 17.7727 14.5173 17.3549 13.8506C16.0447 11.7335 17.5319 8.00786 18.7288 5.01088L18.7501 4.96277C18.9059 4.56409 19.0546 4.1929 19.1891 3.84234C19.4441 3.27869 18.9979 1.73896 17.8719 1.18218C16.2996 0.426061 14.7061 0.426061 13.1268 1.18905C12.0291 1.73208 11.5617 3.27869 11.8025 3.8011C11.9512 4.18603 12.0928 4.55034 12.2486 4.94215C13.403 7.85664 14.9824 11.8503 13.6297 13.9468C13.2118 14.5861 12.5744 15.0054 11.7387 15.1841ZM17.369 4.88028C17.0928 4.88028 16.8025 4.85279 16.4979 4.82529C16.1722 4.7978 15.8322 4.76343 15.4993 4.76343C15.1665 4.76343 14.8265 4.79092 14.5008 4.82529C13.7005 4.89403 12.9427 4.96277 12.4682 4.54347C12.1849 4.28913 12.0433 3.91108 12.0433 3.37492C12.0433 2.18575 13.8492 0.886605 15.4993 0.886605C17.1495 0.886605 18.9554 2.19263 18.9554 3.37492C18.9554 3.91108 18.8138 4.29601 18.5305 4.54347C18.2331 4.81154 17.8294 4.88028 17.369 4.88028ZM15.4993 4.15853C15.8605 4.15853 16.2146 4.1929 16.5546 4.2204C17.2132 4.27539 17.8365 4.33725 18.1056 4.08979C18.2543 3.95919 18.3251 3.72548 18.3251 3.36805C18.3251 2.58443 16.9016 1.4915 15.4993 1.4915C14.0971 1.4915 12.6736 2.58443 12.6736 3.36805C12.6736 3.72548 12.7444 3.95919 12.8931 4.08979C13.1622 4.33038 13.7855 4.27539 14.4441 4.2204C14.7841 4.1929 15.1382 4.15853 15.4993 4.15853Z" fill="#D92E10"/>
</svg>
