<svg width="31" height="31" viewBox="0 0 31 31" fill="none" xmlns="http://www.w3.org/2000/svg">
<path d="M3.32881 3.5708C1.76669 3.5708 0.5 4.83224 0.5 6.38788V28.183C0.5 29.7386 1.76669 31.0001 3.32881 31.0001H27.6671C29.2293 31.0001 30.496 29.7386 30.496 28.183V6.38788C30.496 4.83224 29.2293 3.5708 27.6671 3.5708H26.6756V5.35616C26.6756 6.54909 25.7003 7.51633 24.5065 7.51633C23.3086 7.51633 22.3373 6.54506 22.3373 5.35616V3.5708H8.65864V5.35616C8.65864 6.54909 7.68333 7.51633 6.48948 7.51633C5.29158 7.51633 4.32032 6.54506 4.32032 5.35616V3.5708H3.32881ZM5.12161 11.4619H25.8743C26.5016 11.4619 27.0075 11.9173 27.0075 12.4815V26.5991C27.0075 27.1634 26.5016 27.6188 25.8743 27.6188H5.12161C4.49433 27.6188 3.98847 27.1634 3.98847 26.5991V12.4815C3.99251 11.9173 4.49838 11.4619 5.12161 11.4619Z" fill="#D92E10"/>
<path d="M5.45312 1.03172V3.56669V5.35205C5.45312 5.92031 5.91852 6.38378 6.48914 6.38378C7.05976 6.38378 7.52516 5.92031 7.52516 5.35205V3.57072V1.03172C7.52921 0.463469 7.06381 0 6.48914 0C5.91852 0 5.45312 0.463469 5.45312 1.03172Z" fill="#D92E10"/>
<path d="M23.4707 1.03172V3.56669V5.35205C23.4707 5.92031 23.9361 6.38378 24.5067 6.38378C25.0773 6.38378 25.5427 5.92031 25.5427 5.35205V3.57072V1.03172C25.5427 0.459438 25.0773 0 24.5067 0C23.9361 0 23.4707 0.463469 23.4707 1.03172Z" fill="#D92E10"/>
<path d="M11.4673 13.2231H5.97559V18.817H11.4673V13.2231Z" fill="#D92E10"/>
<path d="M18.3794 13.2231H12.8877V18.817H18.3794V13.2231Z" fill="#D92E10"/>
<path d="M11.4673 20.0986H5.97559V25.6925H11.4673V20.0986Z" fill="#D92E10"/>
<path d="M18.3794 20.0986H12.8877V25.6925H18.3794V20.0986Z" fill="#D92E10"/>
<path d="M25.5464 13.2231H20.0547V18.817H25.5464V13.2231Z" fill="#D92E10"/>
<path d="M25.5464 20.0986H20.0547V25.6925H25.5464V20.0986Z" fill="#D92E10"/>
</svg>
