<svg width="21" height="14" viewBox="0 0 21 14" fill="none" xmlns="http://www.w3.org/2000/svg">
<path fill-rule="evenodd" clip-rule="evenodd" d="M20.5 7.00555C20.5 6.83867 20.4312 6.6793 20.3169 6.5593L14.13 0.309922C13.8856 0.063047 13.49 0.063672 13.2462 0.309922C13.0019 0.556172 13.0019 0.956172 13.2462 1.20242L18.3669 6.3743H1.125C0.78 6.3743 0.5 6.6568 0.5 7.00555C0.5 7.3543 0.78 7.6368 1.125 7.6368H18.3663L13.2462 12.8087C13.0019 13.0549 13.0025 13.4549 13.2462 13.7012C13.4906 13.9474 13.8863 13.9474 14.13 13.7012L20.3169 7.4518C20.4338 7.33367 20.4981 7.17117 20.5 7.00555Z" fill="#121313"/>
</svg>
