<svg width="100" height="100" viewBox="0 0 100 100" fill="none" xmlns="http://www.w3.org/2000/svg">
<circle cx="50" cy="50" r="50" fill="white"/>
<path d="M74.9961 41.9421C74.7939 42.8944 74.2369 43.6522 73.6695 44.4088C72.7512 45.6336 71.8538 46.8741 70.9433 48.1042C70.4672 48.7473 70.0772 48.772 69.5071 48.202C69.1993 47.8942 68.9019 47.5746 68.5953 47.255C68.2849 47.5681 68.0266 47.8289 67.6966 48.1616C67.8857 48.3181 68.0866 48.4577 68.2549 48.6299C70.8376 51.2778 71.2876 55.4767 69.3284 58.5995C69.0062 59.1121 68.5366 59.2543 68.1558 58.953C67.8218 58.6895 67.7788 58.3295 68.0657 57.8625C68.8706 56.5529 69.1745 55.135 69.048 53.6075C68.9136 51.9835 67.964 50.1795 66.6857 49.1855C66.3622 49.5312 66.0361 49.8795 65.7061 50.2317C67.0379 51.3939 67.7318 52.8783 67.5896 54.6993C67.4448 56.5581 66.5291 57.9525 64.9221 58.8786C64.6338 59.0443 64.4512 59.1982 64.4212 59.5647C64.3886 59.9469 64.2347 60.3187 64.1173 60.7531C64.2686 60.7191 64.4095 60.7139 64.5269 60.6578C65.0552 60.4087 65.5808 60.1569 66.0987 59.8856C66.5461 59.6521 66.9361 59.7069 67.1722 60.0696C67.407 60.4283 67.304 60.8418 66.8918 61.1183C65.9043 61.7809 64.8243 62.2153 63.6464 62.3797C63.1703 62.4462 62.7816 62.6145 62.3707 62.8819C61.755 63.2836 61.0584 63.5849 60.3606 63.8263C60.0084 63.9476 59.9106 64.0741 59.9145 64.4211C59.9288 66.1494 59.9406 67.8778 59.9145 69.6061C59.891 71.2066 58.5096 72.2423 57.0669 71.7727C56.5178 71.594 56.1095 71.2366 55.8225 70.7344C55.563 70.2805 54.7568 70.2883 54.4894 70.7422C53.5907 72.2723 51.5702 72.2619 50.6623 70.7227C50.4118 70.2974 49.5979 70.2909 49.3487 70.7109C48.42 72.2788 46.4269 72.2775 45.4994 70.7096C45.2516 70.2896 44.4402 70.2974 44.1898 70.7227C43.6628 71.6149 42.7236 72.0506 41.7975 71.8301C40.7944 71.5914 40.1383 70.7996 40.0952 69.7157C40.0666 68.9826 40.0718 68.2482 40.0926 67.5151C40.1018 67.1942 40.0052 67.0299 39.7013 66.8929C37.8517 66.062 36.662 64.6506 36.1442 62.6862C36.0764 62.4305 35.9681 62.3275 35.7111 62.2544C32.287 61.2827 30.1674 59.056 29.5713 55.5341C29.1251 52.8992 29.9261 50.5747 31.7548 48.6181C31.8331 48.5346 31.914 48.4538 31.9975 48.3768C32.0809 48.2998 32.1696 48.2281 32.3001 48.1172C32.1449 47.9529 32.0131 47.8211 31.8892 47.6802C31.7705 47.5459 31.6609 47.4037 31.4992 47.2041C31.1157 47.5876 30.7896 47.9177 30.4583 48.2424C29.9313 48.7577 29.5282 48.729 29.086 48.1329C27.972 46.6276 26.8555 45.1236 25.7572 43.6066C24.6262 42.0452 24.7723 40.176 26.1276 38.805C27.8233 37.091 29.5308 35.3888 31.2357 33.6852C31.6531 33.2678 32.0549 33.2221 32.3875 33.5378C32.7345 33.8678 32.694 34.2931 32.261 34.7274C30.6057 36.3893 28.9477 38.0485 27.2911 39.709C26.2763 40.7264 26.1993 41.7295 27.0472 42.8918C27.372 43.3366 27.7007 43.7788 28.0007 44.1844C32.0549 40.1212 36.0868 36.0814 40.1592 32.0012C39.5709 31.5877 38.9643 31.092 38.2939 30.7099C37.5203 30.269 36.5772 30.4529 35.9042 31.0868C35.4542 31.5108 35.0302 31.9634 34.588 32.3965C34.1745 32.8021 33.7571 32.8321 33.4349 32.4943C33.1232 32.1682 33.1571 31.7703 33.5445 31.3751C34.001 30.9094 34.455 30.4411 34.9298 29.9963C36.1598 28.8458 37.956 28.6554 39.3348 29.6154C40.9901 30.7685 42.5971 31.9921 44.2146 33.1987C44.6529 33.5248 44.675 33.9709 44.2889 34.3779C43.9537 34.7327 43.5872 35.0562 43.2024 35.4253C43.3263 35.5688 43.4098 35.6797 43.5076 35.7775C44.979 37.2541 46.4477 38.7346 47.9335 40.1968C48.0861 40.3481 48.343 40.4642 48.5557 40.4708C49.5314 40.4995 50.5084 40.4903 51.4841 40.476C51.6458 40.4734 51.8519 40.4238 51.9602 40.3168C53.5672 38.7255 55.1625 37.121 56.87 35.4096C56.5034 35.0862 56.1382 34.7927 55.8069 34.4653C55.2982 33.9617 55.3282 33.5469 55.893 33.1269C57.4074 31.9999 58.9205 30.869 60.448 29.7602C61.9885 28.6411 63.8538 28.7728 65.2039 30.115C68.114 33.0095 71.0033 35.9249 73.9082 38.8246C74.4821 39.3985 74.7809 40.1055 75 40.8634C74.9961 41.2247 74.9961 41.5834 74.9961 41.9421ZM39.0987 55.4963C39.2787 55.3306 39.4117 55.2145 39.537 55.0919C41.9919 52.6879 44.4429 50.2825 46.8991 47.8798C48.6444 46.1723 50.6936 46.0223 52.6698 47.4546C55.4364 49.4595 58.2005 51.467 60.9671 53.4718C61.108 53.5736 61.2541 53.6688 61.4432 53.7979C61.5998 53.3284 61.768 52.907 61.8685 52.47C61.9063 52.3057 61.8489 52.0448 61.7328 51.9274C58.5005 48.6664 55.2564 45.4171 52.0058 42.1743C51.8845 42.053 51.6732 41.9656 51.501 41.963C50.4927 41.9434 49.4844 41.9447 48.4761 41.9617C48.3183 41.9643 48.1239 42.0452 48.013 42.1561C44.7507 45.4106 41.4962 48.6716 38.2508 51.9418C38.1438 52.05 38.0786 52.2992 38.1217 52.444C38.4204 53.4418 38.7517 54.428 39.0987 55.4963ZM59.8453 32.0221C63.906 36.0958 67.934 40.1368 71.992 44.2079C72.3012 43.7879 72.6286 43.3457 72.9521 42.9009C73.8012 41.736 73.7308 40.7329 72.7199 39.7181C71.0437 38.0341 69.3636 36.354 67.6849 34.6713C66.5239 33.5078 65.3682 32.3391 64.1995 31.1834C63.3894 30.3811 62.342 30.252 61.4459 30.852C60.8941 31.2212 60.3723 31.636 59.8453 32.0221ZM48.4448 61.7105C48.6391 61.5279 48.7696 61.4118 48.8935 61.2905C51.0171 59.2021 53.1433 57.1151 55.2616 55.0202C55.9934 54.2962 56.8243 53.7536 57.8248 53.4875C57.9579 53.4523 58.0896 53.4092 58.2905 53.3505C56.8948 52.3435 55.559 51.3796 54.1972 50.3986C53.6898 53.2657 52.4063 54.6641 50.2553 54.7736C49.2574 54.8245 48.3548 54.5741 47.5526 53.9819C46.5625 53.2514 46.0251 52.2483 45.8477 50.923C44.5289 52.3344 43.278 53.6714 42.1184 54.9132C45.4081 54.7815 48.5948 57.6042 48.4448 61.7105ZM42.0727 65.959C44.6189 66.0594 46.8534 63.971 46.9617 61.3896C47.0712 58.7704 45.0194 56.5072 42.4471 56.4094C39.747 56.3063 37.5125 58.3282 37.4134 60.9644C37.3116 63.6528 39.3635 65.852 42.0727 65.959ZM41.0996 37.6624C41.1988 37.7693 41.3044 37.8893 41.4166 38.0028C41.9893 38.5807 42.5802 39.1429 43.1345 39.739C43.7267 40.3755 43.9015 41.1321 43.5989 41.9578C43.2976 42.7796 42.6858 43.2518 41.821 43.3626C41.1127 43.454 40.5114 43.2009 40.0118 42.6987C39.3517 42.0334 38.693 41.3656 38.1099 40.776C37.609 41.2482 37.1655 41.6669 36.6738 42.13C37.3521 42.7913 38.0617 43.4396 38.7217 44.1349C39.6178 45.0793 39.5226 46.4932 38.5469 47.2981C37.6769 48.0168 36.4846 47.9529 35.6276 47.118C34.9546 46.4619 34.3037 45.7836 33.6332 45.104C33.2393 45.5058 32.8897 45.8606 32.5844 46.1723C34.1237 47.7233 35.6668 49.2795 37.1825 50.8069C40.3666 47.6176 43.5728 44.4062 46.7491 41.226C45.2307 39.7038 43.6824 38.1528 42.1601 36.6267C41.8314 36.9462 41.4766 37.2945 41.0996 37.6624ZM57.9148 36.6097C56.3313 38.1946 54.7855 39.7429 53.3102 41.2195C56.476 44.3918 59.6797 47.602 62.8181 50.7469C64.3273 49.2455 65.8796 47.7011 67.3614 46.2245C67.0483 45.8854 66.7092 45.5201 66.3478 45.1301C65.7035 45.781 65.0617 46.428 64.4212 47.075C63.9112 47.5889 63.302 47.8655 62.5742 47.7716C61.712 47.6594 61.0976 47.1859 60.7976 46.3641C60.4897 45.5188 60.6802 44.7505 61.2972 44.1101C61.9598 43.4213 62.6511 42.7587 63.3073 42.1065C62.8311 41.6317 62.3994 41.2012 61.9481 40.7512C61.8411 40.853 61.712 40.973 61.588 41.0969C61.0102 41.6708 60.4571 42.2709 59.8519 42.8148C58.5918 43.947 56.6639 43.3013 56.313 41.6447C56.1473 40.8595 56.4004 40.1981 56.9522 39.6425C57.6135 38.9772 58.2814 38.3185 58.9531 37.6506C58.554 37.2502 58.2109 36.9058 57.9148 36.6097ZM59.1697 62.5075C61.3128 62.5127 63.0594 60.7674 63.0464 58.636C63.0333 56.5176 61.3024 54.7841 59.1944 54.7736C57.0682 54.7645 55.319 56.5202 55.3256 58.6595C55.3321 60.7909 57.0422 62.5036 59.1697 62.5075ZM41.5236 33.0343C37.3273 37.2319 33.1766 41.3852 29.0012 45.5619C29.266 45.9154 29.5634 46.3119 29.8074 46.6393C34.0897 42.3517 38.3408 38.0941 42.5997 33.83C42.2527 33.573 41.8601 33.2835 41.5236 33.0343ZM57.3891 33.8391C61.6611 38.1202 65.9109 42.3804 70.1828 46.6615C70.4515 46.2976 70.7476 45.8984 71.0072 45.5462C66.8213 41.3512 62.6733 37.1954 58.5031 33.0161C58.1444 33.2822 57.7439 33.5769 57.3891 33.8391ZM49.9918 53.314C51.4762 53.3179 52.658 52.1479 52.6698 50.6621C52.6802 49.1608 51.4788 47.9529 49.984 47.9633C48.5035 47.9737 47.3295 49.1608 47.3308 50.6452C47.3321 52.1309 48.5074 53.3101 49.9918 53.314ZM33.3149 49.1973C31.4496 50.5643 30.4817 53.4223 31.1131 55.8733C31.7679 58.4143 33.4036 60.0239 35.9211 60.8157C36.0137 60.3017 36.0972 59.8439 36.182 59.3743C34.2189 58.6843 32.9158 57.3903 32.5049 55.3411C32.0927 53.2814 32.7814 51.5661 34.3493 50.1769C33.9971 49.8443 33.6671 49.5325 33.3149 49.1973ZM35.4072 51.2465C34.1837 52.1974 33.6606 53.4444 33.9149 54.9432C34.1628 56.4042 35.0576 57.3825 36.452 57.9003C36.7103 57.9968 36.8551 57.9603 37.0077 57.7177C37.1968 57.4177 37.4264 57.1359 37.6743 56.8816C37.8582 56.6937 37.9012 56.5398 37.8138 56.2841C37.4773 55.3006 37.1081 54.3223 36.8707 53.314C36.6555 52.4022 36.0607 51.8309 35.4072 51.2465ZM64.5373 51.2282C64.1603 51.6574 63.6868 52.0448 63.4194 52.5418C63.1168 53.1053 62.9864 53.764 62.809 54.3888C62.7724 54.5154 62.8077 54.7254 62.8938 54.8128C63.6347 55.5563 64.1173 56.442 64.3834 57.4529C66.6309 56.3063 66.7379 52.8118 64.5373 51.2282ZM53.742 58.5812C52.5015 59.9 51.2467 61.2357 50.0831 62.4736C51.7306 62.4736 53.5555 62.4736 55.3347 62.4736C54.976 61.8722 54.5468 61.3087 54.2886 60.6748C54.0211 60.0252 53.9233 59.3078 53.742 58.5812ZM51.8623 64.0023C51.8623 65.9381 51.8532 67.8269 51.8702 69.7157C51.8741 70.1227 52.1284 70.3874 52.5498 70.407C52.9737 70.4266 53.2059 70.1748 53.2881 69.7744C53.3076 69.6805 53.3024 69.58 53.3024 69.4822C53.3037 67.7708 53.3037 66.0581 53.3011 64.3467C53.3011 64.2384 53.2763 64.1302 53.2607 64.0023C52.7976 64.0023 52.3645 64.0023 51.8623 64.0023ZM57.0226 63.9945C57.0226 65.0472 57.0226 66.0529 57.0226 67.0599C57.0226 67.9221 57.0161 68.7856 57.0265 69.6478C57.033 70.1122 57.3265 70.4109 57.7348 70.4109C58.1287 70.4096 58.3974 70.1396 58.4457 69.6935C58.4548 69.6126 58.4522 69.5304 58.4522 69.4496C58.4522 67.7734 58.4535 66.0959 58.4509 64.4198C58.4509 64.2815 58.4248 64.1419 58.4105 63.9958C57.9422 63.9945 57.5235 63.9945 57.0226 63.9945ZM48.1396 64.2306C48.0913 64.1993 48.0443 64.1667 47.9961 64.1354C47.61 64.5476 47.2186 64.9572 46.8404 65.3772C46.7699 65.4542 46.706 65.5729 46.706 65.672C46.6982 67.0208 46.689 68.3695 46.7112 69.7183C46.7191 70.15 47.0491 70.4227 47.4404 70.4109C47.8278 70.4005 48.1317 70.1148 48.1343 69.6805C48.1461 67.8647 48.1396 66.0477 48.1396 64.2306ZM39.0504 39.6594C39.7391 40.3481 40.4096 41.0317 41.0957 41.6982C41.3944 41.9891 41.7479 42.0048 42.0519 41.7126C42.3558 41.4204 42.3649 41.0577 42.0753 40.7577C41.4023 40.0599 40.7031 39.3868 40.0235 38.7124C39.6922 39.0346 39.3817 39.3372 39.0504 39.6594ZM60.9032 39.6855C60.5849 39.3555 60.2836 39.045 59.9719 38.7229C59.2884 39.3998 58.5879 40.0742 57.9135 40.7734C57.6383 41.0577 57.6513 41.4086 57.9279 41.693C58.2214 41.9956 58.5827 42.0061 58.8827 41.7165C59.5792 41.0421 60.2523 40.3416 60.9032 39.6855ZM35.6694 43.137C35.3198 43.4813 35.012 43.784 34.6845 44.1049C35.3368 44.7558 35.9955 45.4275 36.6712 46.0823C37.0025 46.4032 37.3834 46.3993 37.6664 46.1163C37.9495 45.8332 37.956 45.451 37.6351 45.1184C36.9842 44.4414 36.3125 43.7827 35.6694 43.137ZM64.3782 43.1005C63.6921 43.7866 63.0085 44.4557 62.342 45.1419C62.0511 45.4406 62.0328 45.7941 62.3263 46.0993C62.6172 46.4032 62.9785 46.415 63.2799 46.1241C63.9777 45.4497 64.6521 44.7492 65.3239 44.0722C65.0017 43.7422 64.6991 43.4305 64.3782 43.1005ZM41.581 67.4199C41.581 68.2508 41.5523 69.0569 41.594 69.8605C41.6136 70.2244 41.9149 70.4161 42.284 70.407C42.6558 70.3979 42.935 70.184 42.9519 69.8252C42.991 69.0204 42.9636 68.213 42.9636 67.4186C42.4797 67.4199 42.0466 67.4199 41.581 67.4199ZM49.6357 64.001C49.6357 65.6798 49.6357 67.3038 49.6357 68.9252C49.9005 68.9252 50.1327 68.9252 50.3623 68.9252C50.3623 67.266 50.3623 65.6446 50.3623 64.001C50.1105 64.001 49.8901 64.001 49.6357 64.001ZM55.516 68.9474C55.516 67.2686 55.516 65.6355 55.516 64.0115C55.2525 64.0115 55.0321 64.0115 54.8077 64.0115C54.8077 65.6759 54.8077 67.309 54.8077 68.9474C55.0608 68.9474 55.2708 68.9474 55.516 68.9474ZM45.2098 66.5603C44.8929 66.8264 44.5107 66.9882 44.4742 67.2086C44.3802 67.7591 44.4429 68.3369 44.4429 68.9317C44.722 68.9317 44.9542 68.9317 45.2098 68.9317C45.2098 68.1791 45.2098 67.4538 45.2098 66.5603Z" fill="#D92E10"/>
<path d="M42.7646 62.9291C41.5567 62.9148 40.5693 61.9026 40.5902 60.6999C40.611 59.4855 41.605 58.5085 42.8155 58.5137C44.0221 58.5189 45.0147 59.5181 45.0147 60.726C45.0134 61.9573 44.0077 62.9435 42.7646 62.9291ZM42.7855 59.9838C42.385 59.9929 42.0498 60.3425 42.0589 60.7416C42.0694 61.1512 42.4033 61.4669 42.8181 61.4591C43.2316 61.4512 43.5525 61.1173 43.5434 60.709C43.5342 60.306 43.1873 59.9733 42.7855 59.9838Z" fill="#D92E10"/>
<path d="M59.7871 60.3997C58.5714 60.3945 57.5866 59.4083 57.5879 58.1965C57.5892 56.99 58.5819 55.9869 59.7845 55.979C61.0028 55.9712 62.0281 57.0017 62.0112 58.2174C61.9929 59.4331 61.0028 60.4049 59.7871 60.3997ZM59.8132 57.4491C59.418 57.4387 59.0658 57.7778 59.0567 58.1783C59.0462 58.5879 59.3671 58.9192 59.7806 58.927C60.1941 58.9348 60.5306 58.6179 60.5398 58.2109C60.5502 57.8183 60.2085 57.4596 59.8132 57.4491Z" fill="#D92E10"/>
</svg>
