<svg width="100" height="100" viewBox="0 0 100 100" fill="none" xmlns="http://www.w3.org/2000/svg">
<circle cx="50" cy="50" r="50" fill="white"/>
<path d="M75 72.2027C73.2289 72.2027 71.4578 72.2027 69.6447 72.2027C69.6447 66.2804 69.6447 60.4071 69.6447 54.4603C64.552 54.4603 59.5047 54.4603 54.426 54.4603C54.426 53.5327 54.426 52.6787 54.426 51.7791C55.7805 51.7791 57.1071 51.7791 58.4617 51.7791C58.4617 51.3661 58.4617 51.0021 58.4617 50.5996C52.8089 50.5996 47.1701 50.5996 41.5068 50.5996C41.5068 50.9811 41.5068 51.3486 41.5068 51.7651C42.8404 51.7651 44.167 51.7651 45.5285 51.7651C45.5285 52.6647 45.5285 53.5187 45.5285 54.4358C40.4813 54.4358 35.4445 54.4358 30.3483 54.4358C30.3483 60.3791 30.3483 66.2629 30.3483 72.1747C28.5387 72.1747 26.7886 72.1747 25 72.1747C25 57.8064 25 43.4382 25 29.035C26.7501 29.035 28.5002 29.035 30.3063 29.035C30.3063 36.5884 30.3063 44.1488 30.3063 51.7441C31.8008 51.7441 33.2429 51.7441 34.72 51.7441C34.734 51.6286 34.7585 51.5061 34.7585 51.3836C34.762 50.6836 34.741 49.9835 34.7655 49.2835C34.7935 48.51 34.615 47.8309 34.286 47.1029C33.1834 44.6598 33.2184 42.1922 34.643 39.8645C35.021 39.245 35.616 38.741 36.1761 38.2545C36.4666 38.0024 36.6346 37.7714 36.6941 37.3899C37.0231 35.3178 37.7091 33.3857 39.1162 31.7756C40.2118 30.5226 41.5593 29.854 43.2674 29.8645C47.6146 29.896 51.9654 29.9345 56.3091 29.8505C58.7382 29.805 60.3973 30.8971 61.6293 32.8467C62.5219 34.2573 63.0049 35.8183 63.2744 37.4529C63.3094 37.6734 63.4004 37.9604 63.5649 38.0725C65.6195 39.469 66.3861 41.4851 66.3931 43.8652C66.3966 45.2233 66.0886 46.5079 65.371 47.6839C65.2975 47.8064 65.203 47.9464 65.1995 48.0795C65.1855 49.294 65.1925 50.5121 65.1925 51.7511C66.6801 51.7511 68.1222 51.7511 69.6027 51.7511C69.6027 44.1838 69.6027 36.6304 69.6027 29C71.4228 29 73.2044 29 74.986 29C75 43.4032 75 57.8029 75 72.2027ZM38.7977 37.0819C39.4137 37.0819 39.9632 37.0819 40.5093 37.0819C44.692 37.0819 48.8747 37.0749 53.0574 37.0854C53.4319 37.0854 53.5614 36.9804 53.5964 36.6059C53.7259 35.2618 54.7165 34.0928 56.0851 33.7217C57.4781 33.3437 58.6892 33.7112 59.6657 34.7823C60.2643 35.4368 60.5023 36.2349 60.5443 37.1169C60.7473 37.1344 60.9188 37.1484 61.1008 37.1624C61.1148 37.0854 61.1358 37.0364 61.1288 36.9944C60.8523 35.6748 60.3728 34.4358 59.5502 33.3577C58.7872 32.3602 57.8071 31.8456 56.4911 31.8596C52.0984 31.9016 47.7021 31.8701 43.3094 31.8841C42.8789 31.8841 42.4029 31.9156 42.0284 32.0977C39.9387 33.0987 39.3542 35.0798 38.7977 37.0819ZM50.0298 44.4323C48.0277 44.4323 46.0256 44.4323 44.0235 44.4323C43.2989 44.4323 42.9734 44.6283 42.9559 45.0728C42.9384 45.5418 43.2814 45.7658 44.027 45.7693C47.9997 45.7693 51.9689 45.7693 55.9415 45.7693C56.1341 45.7693 56.3826 45.8078 56.5121 45.7098C56.7186 45.5488 56.9811 45.2828 56.9706 45.0728C56.9601 44.8593 56.6766 44.6283 56.4631 44.4638C56.3581 44.3833 56.1481 44.4323 55.9871 44.4323C53.999 44.4323 52.0144 44.4323 50.0298 44.4323ZM50.0123 43.8547C50.3378 43.8547 50.6633 43.8547 50.9888 43.8547C52.7144 43.8547 54.44 43.8582 56.1656 43.8512C56.6976 43.8477 57.0126 43.5817 57.0091 43.1757C57.0056 42.7627 56.6976 42.5177 56.1586 42.5037C56.0921 42.5002 56.0291 42.5037 55.9625 42.5037C51.9758 42.5037 47.9857 42.5037 43.999 42.5037C43.8204 42.5037 43.5929 42.4652 43.4774 42.5562C43.2709 42.7207 42.9944 42.9727 42.9979 43.1827C42.9979 43.3962 43.2744 43.6447 43.4844 43.8057C43.5999 43.8967 43.8309 43.8512 44.006 43.8512C46.0046 43.8547 48.0102 43.8547 50.0123 43.8547ZM41.4018 43.7987C41.3913 42.5982 40.4113 41.6181 39.2177 41.6251C38.0277 41.6321 37.0476 42.6192 37.0476 43.8162C37.0441 45.0343 38.0452 46.0249 39.2597 46.0074C40.4568 45.9864 41.4088 45.0028 41.4018 43.7987ZM58.5667 43.8232C58.5667 45.0273 59.5327 46.0004 60.7333 46.0074C61.9304 46.0144 62.9104 45.0448 62.9209 43.8407C62.9314 42.6227 61.9303 41.6146 60.7263 41.6251C59.5292 41.6356 58.5667 42.6192 58.5667 43.8232ZM59.1442 37.0574C59.2212 35.9093 58.2447 34.9328 57.0616 34.9223C55.8645 34.9118 54.8775 35.8883 54.9335 37.0574C56.3231 37.0574 57.7161 37.0574 59.1442 37.0574Z" fill="#D92E10"/>
</svg>
