<svg width="101" height="100" viewBox="0 0 101 100" fill="none" xmlns="http://www.w3.org/2000/svg">
<circle cx="50.5" cy="50" r="50" fill="white"/>
<path d="M38.8581 19.5388C39.4715 19.858 40.1506 20.0943 40.6842 20.5152C41.5543 21.2006 41.9408 22.1818 41.9596 23.2944C41.9674 23.7232 41.9455 24.1551 41.9768 24.5823C42.1145 26.4022 43.2819 27.507 45.1128 27.5257C46.5461 27.5398 47.9733 27.5977 49.3347 28.0844C53.7131 29.6523 56.2356 32.7523 56.8898 37.3467C56.9477 37.7504 57.0744 37.8928 57.4719 37.9695C59.7691 38.417 61.9724 39.1165 63.9143 40.4826C65.9674 41.9285 67.0722 43.8001 67.0331 46.4087C66.9517 51.8152 66.9486 57.2233 67.0346 62.6298C67.0769 65.3464 65.886 67.2649 63.7046 68.6639C63.146 69.0222 62.9739 69.3899 62.9864 70.0174C63.0255 71.8906 63.0083 73.7652 62.9973 75.6384C62.9864 77.6226 61.6563 79.1749 59.7331 79.4754C57.6503 79.8008 55.8163 78.7884 55.1903 76.9247C55.0448 76.4896 54.99 76.0077 54.9806 75.546C54.954 74.2018 54.9713 72.8561 54.9713 71.4727C53.987 71.4727 53.0387 71.4727 51.9855 71.4727C51.9855 71.7153 51.9887 71.9375 51.9855 72.1613C51.9605 73.5649 52.0294 74.978 51.8823 76.3676C51.707 78.0075 50.4035 79.1952 48.7401 79.4691C46.6698 79.8102 44.8107 78.7993 44.1832 76.945C44.0361 76.51 43.9845 76.028 43.9782 75.5648C43.9548 73.8075 43.9516 72.0502 43.9798 70.2944C43.9876 69.8218 43.8421 69.5683 43.4149 69.3493C41.7671 68.5074 40.3024 67.4214 39.5216 65.6922C39.1945 64.9677 38.9942 64.1211 38.988 63.3277C38.9441 57.4518 38.9707 51.5758 38.9598 45.7014C38.9567 44.0802 39.5982 42.7501 40.7093 41.6203C42.5871 39.7112 44.9782 38.7973 47.5101 38.1682C47.9076 38.0696 48.3113 37.993 48.7119 37.9022C48.7463 37.8944 48.776 37.8615 48.8073 37.8396C48.7714 36.7395 47.4412 35.6253 46.2739 35.5643C45.2411 35.5111 44.1989 35.497 43.177 35.3531C38.3745 34.6724 34.4233 30.4833 34.0352 25.6589C33.9539 24.6542 33.921 23.623 34.0556 22.6293C34.2606 21.1193 35.2402 20.1788 36.6689 19.6937C36.8128 19.6452 36.9521 19.5888 37.0945 19.5356C37.6844 19.5388 38.2713 19.5388 38.8581 19.5388ZM64.9612 59.2889C64.9878 59.1246 65.005 59.0682 65.005 59.0119C65.0066 54.5615 65.0113 50.1095 65.0035 45.6591C65.0019 44.8579 64.739 44.1334 64.2398 43.4918C63.2305 42.1977 61.8613 41.4215 60.3684 40.8504C56.4985 39.3716 52.5191 39.1979 48.485 39.9975C46.3568 40.42 44.3413 41.1399 42.6356 42.542C41.5199 43.4605 40.9331 44.5935 40.9518 46.0973C41.0019 50.2738 40.969 54.452 40.969 58.6301C40.969 58.8288 40.969 59.0276 40.969 59.3202C44.5338 56.3798 48.6493 55.5395 52.9667 55.5364C57.2997 55.5364 61.4309 56.383 64.9612 59.2889ZM43.9704 67.3995C43.9704 66.3698 43.9485 65.4403 43.9798 64.5139C43.9955 64.0319 44.0346 63.5296 44.1848 63.0758C44.7654 61.3404 46.1988 60.4829 48.3301 60.5329C50.0952 60.5752 51.6741 61.8584 51.8744 63.5922C52.0231 64.8832 51.9621 66.1992 51.984 67.5043C51.9949 68.1443 51.9855 68.7843 51.9855 69.44C52.9996 69.44 53.9478 69.44 54.9713 69.44C54.9713 69.1583 54.9713 68.9502 54.9713 68.7421C54.9713 67.3165 54.954 65.8925 54.9806 64.4685C54.9885 64.0069 55.0448 63.5265 55.1919 63.0899C55.7865 61.3169 57.245 60.4594 59.4451 60.5345C61.1148 60.5924 62.6812 61.9303 62.9019 63.575C63.0098 64.3825 62.9707 65.2087 63.0005 66.0255C63.0083 66.2227 63.0208 66.4214 63.0349 66.664C64.7421 65.6015 65.9784 62.9897 63.8001 61.0086C63.0036 60.2841 62.0897 59.605 61.1086 59.1825C56.1152 57.0277 51.02 56.9917 45.8999 58.7255C44.4633 59.2122 43.1457 59.9352 42.0832 61.0509C40.9315 62.2605 40.6623 63.6 41.3337 64.8988C41.897 65.9911 42.8203 66.7219 43.9704 67.3995ZM54.9134 37.6049C54.5581 34.6019 52.9025 32.1232 50.3784 30.6977C48.7995 29.8057 47.0923 29.5052 45.3021 29.5287C43.1082 29.5553 41.462 28.6336 40.4573 26.6588C39.9253 25.6119 39.9566 24.4727 39.9535 23.3398C39.9503 22.2397 39.1632 21.5402 37.9567 21.5433C36.7565 21.5465 35.9631 22.2616 35.9506 23.3507C35.9459 23.6825 35.9506 24.0142 35.9506 24.346C35.9537 29.776 40.2211 33.4408 44.6996 33.5191C45.4601 33.5332 46.241 33.5081 46.9749 33.6677C48.9059 34.0871 50.1781 35.2748 50.7712 37.1761C50.8229 37.3404 51.0059 37.583 51.1343 37.5861C52.3783 37.6158 53.6255 37.6049 54.9134 37.6049ZM56.9946 72.9844C58.3544 72.3569 59.6376 72.3725 60.9536 72.9656C60.9536 71.8718 60.9849 70.8468 60.9317 69.8265C60.9177 69.5574 60.6908 69.2491 60.4764 69.0519C59.6955 68.3305 58.3059 68.3149 57.5235 69.0379C57.2731 69.2695 57.0415 69.6466 57.0196 69.9736C56.9523 70.9376 56.9946 71.9093 56.9946 72.9844ZM56.9883 66.9926C58.3576 66.3541 59.6548 66.3808 60.9943 66.9817C60.9943 66.7188 60.9943 66.5638 60.9943 66.4089C60.9928 65.6296 61.0663 64.8409 60.9599 64.0773C60.902 63.6658 60.6188 63.1994 60.2948 62.9303C59.5938 62.3482 58.3795 62.3544 57.6753 62.9334C57.3608 63.1916 57.0588 63.6376 57.0212 64.0257C56.9257 64.9677 56.9883 65.9269 56.9883 66.9926ZM49.9841 72.9844C49.9841 72.0721 49.9857 71.2427 49.9825 70.4134C49.9825 70.2381 50.0138 70.044 49.9497 69.8938C49.8229 69.5981 49.6915 69.2695 49.4661 69.0582C48.6759 68.318 47.2597 68.329 46.4632 69.0645C46.2723 69.2413 46.0485 69.5026 46.0391 69.7326C45.9938 70.7889 46.0188 71.8483 46.0188 72.9656C47.352 72.3522 48.6368 72.3772 49.9841 72.9844ZM49.9763 66.9879C49.9763 65.9363 50.0342 64.9614 49.9465 64.0006C49.9121 63.6298 49.6242 63.1916 49.3175 62.9537C48.2675 62.1369 46.2817 62.5312 46.0845 63.6438C45.8983 64.7017 46.0438 65.819 46.0438 66.9597C47.3677 66.3526 48.654 66.3808 49.9763 66.9879ZM47.9748 77.5083C49.0092 77.5068 49.9215 76.848 49.97 76.0656C50.0185 75.2831 49.172 74.5837 48.0906 74.5101C48.0719 74.5085 48.0515 74.507 48.0327 74.5054C46.9577 74.4679 45.9922 75.1783 45.9922 76.0077C45.9922 76.8229 46.8998 77.5099 47.9748 77.5083ZM58.9068 77.5068C59.9913 77.5459 60.9568 76.8558 60.974 76.0296C60.9896 75.2331 60.1462 74.5586 59.068 74.507C59.0492 74.5054 59.0289 74.5038 59.0101 74.5038C57.9523 74.4898 57.0181 75.1783 57.0009 75.9842C56.9852 76.7791 57.8474 77.4677 58.9068 77.5068Z" fill="#D92E10"/>
<path d="M42.9932 54.4912C42.9932 52.5164 42.9932 50.5713 42.9932 48.573C43.6222 48.573 44.2529 48.573 44.9226 48.573C44.9226 50.5322 44.9226 52.4913 44.9226 54.4912C44.2873 54.4912 43.6551 54.4912 42.9932 54.4912Z" fill="#D92E10"/>
<path d="M42.9971 44.5496C43.6418 44.5496 44.2568 44.5496 44.9171 44.5496C44.9171 45.1849 44.9171 45.8124 44.9171 46.479C44.2881 46.479 43.659 46.479 42.9971 46.479C42.9971 45.8374 42.9971 45.2084 42.9971 44.5496Z" fill="#D92E10"/>
</svg>
