<svg width="101" height="100" viewBox="0 0 101 100" fill="none" xmlns="http://www.w3.org/2000/svg">
<circle cx="50.5" cy="50" r="50" fill="white"/>
<path d="M75.4988 28.8817C75.3005 29.6502 75.0925 30.4077 74.5822 31.0527C73.7683 32.0794 72.7183 32.6363 71.4236 32.7843C71.191 32.8113 70.9304 32.9361 70.7615 33.0976C69.9061 33.9176 69.0776 34.7644 68.1952 35.6456C68.9319 36.3749 69.6515 37.0554 70.3344 37.77C71.5423 39.033 71.4456 40.8075 70.1337 41.8465C69.184 42.5979 67.7693 42.6113 66.8393 41.8183C66.2335 41.3019 65.6852 40.7169 65.126 40.1491C65.0024 40.0243 64.9375 39.8407 64.8665 39.7195C63.7994 40.7842 62.8571 41.7229 61.8768 42.7007C62.4116 43.4668 62.9819 44.2549 63.5228 45.0638C64.4504 46.4491 64.2142 48.0878 62.9611 49.0803C61.8144 49.9883 60.0779 49.877 59.1123 48.7792C58.5885 48.1832 58.1528 47.5102 57.645 46.8297C57.4406 47.0488 57.2448 47.2581 57.0306 47.4881C57.5911 48.2897 58.1651 49.0766 58.7048 49.8868C59.8992 51.6796 59.0927 53.9044 57.049 54.416C55.972 54.6852 54.9967 54.4025 54.26 53.563C53.7484 52.9817 53.325 52.3233 52.8453 51.6772C52.6519 51.8913 52.4696 52.092 52.2579 52.3245C52.7963 53.098 53.3788 53.8983 53.9222 54.7244C54.9514 56.2908 54.4692 58.184 52.8526 59.0064C51.7304 59.5767 50.2863 59.3319 49.4615 58.3737C48.9561 57.7863 48.5265 57.134 48.0444 56.4866C47.8522 56.7094 47.6772 56.9137 47.4716 57.1524C47.9979 57.9062 48.5828 58.7066 49.1262 59.5339C50.1591 61.1015 49.639 63.0473 47.9979 63.8367C46.7178 64.4535 45.248 64.0411 44.3338 62.7989C43.9692 62.3045 43.6253 61.7954 43.2912 61.3206C42.623 61.99 41.9842 62.6313 41.294 63.3227C41.8385 63.8648 42.4321 64.4596 43.0293 65.0507C43.5824 65.5989 43.941 66.239 43.9398 67.0357C43.9386 68.1677 43.4282 69.0194 42.41 69.5004C41.4359 69.9605 40.4642 69.87 39.6149 69.1834C39.123 68.7857 38.6885 68.317 38.2406 67.8678C37.8967 67.5227 37.5724 67.158 37.2065 66.7689C36.2238 67.7504 35.2901 68.6719 34.3747 69.6117C34.2792 69.7096 34.267 69.9067 34.2474 70.0621C33.846 73.277 30.5565 74.9793 27.7099 73.441C26.1019 72.5721 25.2477 70.7205 25.5659 68.7942C25.8498 67.0785 27.3966 65.5378 29.1467 65.3236C29.7353 65.2514 30.1636 65.0384 30.5589 64.6113C31.254 63.8612 31.9993 63.1575 32.7715 62.3877C32.0666 61.6877 31.3813 61.0232 30.7131 60.3403C29.7683 59.3748 29.5603 58.1608 30.1355 57.0826C30.9358 55.5798 32.8706 55.1662 34.1789 56.2566C34.7773 56.7559 35.3035 57.3408 35.8628 57.8866C35.9888 58.009 36.1173 58.1289 36.2666 58.2721C37.1551 57.3812 38.0179 56.5184 38.8782 55.6532C38.9565 55.5737 39.0287 55.488 39.1279 55.3779C38.5649 54.5714 37.9946 53.7821 37.4537 52.9719C36.5089 51.5609 36.7549 49.9259 38.0436 48.9273C39.1805 48.0462 40.8999 48.1637 41.8532 49.2443C42.3782 49.839 42.8151 50.5121 43.3205 51.1876C43.4955 50.9735 43.6669 50.7642 43.8786 50.5048C43.3768 49.784 42.8127 48.9922 42.2681 48.1881C41.4322 46.9521 41.5008 45.5325 42.4309 44.4996C43.5775 43.2269 45.5858 43.2085 46.7055 44.4984C47.2134 45.0834 47.6393 45.7393 48.119 46.3855C48.3099 46.1652 48.4874 45.9584 48.6942 45.7185C48.1606 44.9537 47.5769 44.1545 47.0323 43.3285C45.9713 41.718 46.5183 39.7624 48.2292 38.9791C49.3073 38.486 50.722 38.7613 51.4893 39.6694C51.9911 40.2641 52.4267 40.9164 52.9273 41.5895C53.1035 41.3557 53.2748 41.1281 53.4841 40.8491C52.9909 40.1442 52.4218 39.3548 51.8797 38.5471C50.9313 37.1349 51.1748 35.5036 52.4659 34.5025C53.5979 33.6239 55.3332 33.7438 56.2804 34.8195C56.8042 35.4143 57.2411 36.0837 57.6841 36.6748C58.3315 36.0274 58.9801 35.3788 59.696 34.6629C59.1184 34.1048 58.449 33.5088 57.8395 32.859C56.535 31.4688 56.9107 29.3443 58.5946 28.5549C59.5785 28.0936 60.5772 28.1572 61.38 28.889C62.1938 29.6319 62.8864 30.5069 63.6684 31.3635C64.749 30.2829 65.6779 29.3577 66.5982 28.4252C66.6679 28.3542 66.7034 28.2245 66.7095 28.1193C66.8319 26.0633 68.4388 24.3133 70.5302 24.0465C70.5596 24.0428 70.5865 24.0159 70.6146 24C70.9402 24 71.2657 24 71.5912 24C71.6659 24.0269 71.7393 24.0636 71.8164 24.0771C72.9178 24.268 73.8087 24.8016 74.521 25.6668C75.0864 26.3533 75.3311 27.161 75.5 28.0055C75.4988 28.2955 75.4988 28.5892 75.4988 28.8817ZM62.2476 46.8701C62.0628 46.5115 61.9588 46.2399 61.7985 46.0086C60.4266 44.0334 59.0437 42.0643 57.6645 40.094C56.7883 38.8421 55.9182 37.5865 55.0346 36.3407C54.681 35.8426 54.1131 35.7251 53.675 36.0249C53.2332 36.3272 53.1488 36.8852 53.4694 37.4078C53.5208 37.491 53.5783 37.5693 53.6346 37.6489C55.8252 40.7769 58.0158 43.9061 60.2076 47.0341C60.3104 47.1797 60.407 47.3364 60.5368 47.4563C60.8354 47.7329 61.2172 47.8565 61.5623 47.6325C61.8291 47.4575 62.009 47.1442 62.2476 46.8701ZM51.5493 57.3384C52.3545 57.3249 52.7584 56.5368 52.3227 55.8515C51.9042 55.1931 51.4342 54.5665 50.9863 53.9265C49.1384 51.2868 47.293 48.6446 45.4401 46.0086C45.062 45.4701 44.5015 45.3379 44.0511 45.65C43.5873 45.9719 43.5139 46.525 43.8761 47.0745C44.1087 47.4282 44.3608 47.7684 44.6031 48.1147C46.6199 50.9943 48.6367 53.8738 50.6498 56.7559C50.8848 57.0912 51.1405 57.3665 51.5493 57.3384ZM56.3551 52.5387C57.1187 52.5509 57.5605 51.7702 57.1457 51.0897C56.8165 50.5488 56.431 50.0434 56.0675 49.5245C54.1572 46.7942 52.2505 44.0628 50.3304 41.3411C50.1689 41.111 49.9486 40.876 49.7014 40.7634C49.3183 40.5884 48.9304 40.6888 48.655 41.04C48.3393 41.4426 48.3846 41.8575 48.6624 42.2564C49.3954 43.3101 50.1358 44.3589 50.8725 45.4101C52.3925 47.5799 53.9124 49.7497 55.4287 51.9207C55.66 52.2511 55.9035 52.5473 56.3551 52.5387ZM39.5586 50.2894C39.4265 50.402 39.123 50.5721 38.9516 50.8303C38.7093 51.195 38.8598 51.5792 39.0973 51.9195C41.3662 55.1588 43.6326 58.3994 45.904 61.6375C46.2723 62.1625 46.8499 62.2984 47.2966 61.9912C47.7519 61.6779 47.829 61.1101 47.468 60.5704C47.1057 60.0295 46.7263 59.5008 46.3531 58.9672C44.4685 56.2737 42.5802 53.5826 40.6992 50.8854C40.463 50.5464 40.1938 50.2918 39.5586 50.2894ZM69.2232 39.5812C69.1253 39.4442 68.987 39.1872 68.79 38.9877C67.095 37.2793 65.3891 35.5807 63.6868 33.8796C62.594 32.7868 61.5036 31.6927 60.4083 30.6036C59.9787 30.1764 59.5369 30.1312 59.2175 30.4604C58.8871 30.8018 58.9422 31.1983 59.384 31.6536C59.4182 31.689 59.4525 31.7233 59.4868 31.7576C62.2231 34.4952 64.9595 37.2328 67.6971 39.9692C67.8342 40.1063 67.9749 40.2507 68.1414 40.3449C68.6309 40.6202 69.2281 40.269 69.2232 39.5812ZM41.9854 66.9243C41.8875 66.7921 41.737 66.5266 41.5301 66.3173C38.7889 63.5626 36.039 60.8164 33.2916 58.069C33.1998 57.9772 33.1105 57.8805 33.0089 57.801C32.6675 57.5305 32.271 57.5366 31.9932 57.8095C31.7215 58.0775 31.7129 58.49 31.9797 58.8241C32.0507 58.9122 32.1339 58.9917 32.2147 59.0725C34.9743 61.8321 37.7327 64.5918 40.4936 67.3502C40.6196 67.4762 40.7481 67.6084 40.8987 67.6965C41.3796 67.9804 41.9805 67.6378 41.9854 66.9243ZM68.6541 28.3922C68.6529 29.731 69.7274 30.8226 71.0613 30.8361C72.4124 30.8495 73.5334 29.7469 73.537 28.402C73.5407 27.0644 72.4112 25.9434 71.0711 25.9544C69.7409 25.9642 68.6566 27.0582 68.6541 28.3922ZM32.315 69.6227C32.3138 68.2852 31.2357 67.196 29.9017 67.185C28.5519 67.174 27.4321 68.2803 27.4321 69.6252C27.4321 70.9628 28.5641 72.0813 29.9042 72.0679C31.2344 72.0544 32.315 70.9579 32.315 69.6227ZM42.0662 59.5608C41.491 58.7396 40.8974 57.8915 40.3357 57.0887C39.4619 57.9711 38.6004 58.8412 37.7988 59.6501C38.4756 60.3305 39.1915 61.0501 39.8842 61.7477C40.5805 61.0501 41.3123 60.3171 42.0662 59.5608ZM60.6224 40.9127C61.5023 40.0255 62.3639 39.1566 63.1398 38.3746C62.4716 37.7052 61.7557 36.988 61.0887 36.3211C60.4034 37.0052 59.6716 37.7358 58.9214 38.4847C59.4831 39.2851 60.0693 40.1209 60.6224 40.9127ZM68.6737 32.3328C68.1267 31.8212 67.5784 31.3097 67.1073 30.8691C66.63 31.3452 65.9594 32.0146 65.3316 32.6424C65.815 33.1258 66.34 33.6508 66.8503 34.1611C67.4756 33.5333 68.1267 32.881 68.6737 32.3328ZM32.282 65.6785C32.8474 66.2072 33.3944 66.7199 33.8949 67.1874C34.3722 66.7126 35.0355 66.0505 35.667 65.4215C35.1567 64.9148 34.6219 64.3837 34.0981 63.8648C33.4776 64.4853 32.8229 65.1376 32.282 65.6785ZM54.0886 43.2832C54.6761 44.1215 55.2671 44.9647 55.879 45.8385C56.1213 45.5827 56.3172 45.3771 56.5154 45.1703C55.9023 44.2977 55.3185 43.4655 54.7409 42.6407C54.5182 42.861 54.3261 43.0507 54.0886 43.2832ZM46.8879 54.7917C46.2797 53.924 45.6873 53.0784 45.1171 52.2646C44.8686 52.4689 44.6581 52.6439 44.4379 52.8263C45.0644 53.7209 45.6555 54.5628 46.276 55.4489C46.5036 55.2041 46.6786 55.0156 46.8879 54.7917ZM51.6802 49.9736C51.0904 49.1317 50.4944 48.2811 49.9877 47.5579C49.7087 47.7317 49.475 47.8773 49.24 48.0229C49.8751 48.9285 50.4577 49.7607 51.05 50.6051C51.2727 50.3812 51.4612 50.1927 51.6802 49.9736Z" fill="#D92E10"/>
</svg>
