<svg width="101" height="100" viewBox="0 0 101 100" fill="none" xmlns="http://www.w3.org/2000/svg">
<circle cx="50.5" cy="50" r="50" fill="white"/>
<path d="M61.5744 20.0012C61.8268 20.2441 62.1411 20.4464 62.3221 20.7345C66.2627 26.9943 69.9569 33.391 72.9534 40.1686C73.9153 42.3448 74.813 44.5533 75.2583 46.8998C76.0011 50.8154 75.0071 54.3738 72.6236 57.4763C69.214 61.9158 64.6103 63.8825 59.0791 63.0158C53.367 62.1205 49.5407 58.7419 47.6061 53.269C47.5466 53.1012 47.4906 52.9309 47.4525 52.7571C47.3168 52.1381 47.6668 51.5273 48.2525 51.3452C48.8276 51.1666 49.4347 51.4309 49.6812 52.0047C49.8597 52.4226 49.9752 52.8666 50.1407 53.2893C52.0527 58.1728 57.2279 61.3741 62.2661 60.7931C67.8758 60.1467 72.1689 56.112 72.9986 50.7594C73.3022 48.7963 72.9594 46.9355 72.3308 45.0937C70.8867 40.8579 68.8735 36.8816 66.7306 32.9719C64.9888 29.7932 63.1507 26.6681 61.2399 23.3168C61.1149 23.568 61.0708 23.6739 61.0125 23.7728C57.46 29.6634 54.0075 35.6065 51.2979 41.946C51.1038 42.4008 50.9241 42.8627 50.7395 43.3223C50.3812 44.2187 49.7681 44.5687 49.0633 44.2782C48.3823 43.9973 48.1799 43.3282 48.5168 42.4663C50.0193 38.6209 51.8503 34.9279 53.8765 31.3385C55.854 27.836 57.9326 24.3906 59.9887 20.9346C60.2018 20.5762 60.5673 20.3095 60.8613 20C61.0982 20.0012 61.3363 20.0012 61.5744 20.0012Z" fill="#D92E10"/>
<path d="M46.0953 80.9558C44.8739 80.6653 43.7143 80.251 42.7107 79.4534C40.0725 77.3557 39.1689 74.1687 40.3451 70.9221C41.4654 67.8292 43.1417 65.0207 44.8524 62.2313C45.1941 61.6742 45.5394 61.117 45.9132 60.5813C46.4311 59.8396 47.3894 59.761 47.8645 60.4908C50.1574 64.0136 52.3479 67.5863 53.7432 71.596C54.9695 75.1187 52.5253 80.0403 48.0942 80.8475C47.9799 80.8677 47.8728 80.9201 47.7621 80.957C47.2061 80.9558 46.6513 80.9558 46.0953 80.9558ZM46.9287 63.385C45.1858 66.2922 43.4893 69.0804 42.4071 72.1865C42.0369 73.2496 42.1261 74.2925 42.5262 75.3235C43.3726 77.5093 45.5691 78.8486 47.6025 78.5188C50.2455 78.0902 52.4599 74.8758 51.4062 72.0281C50.286 69.0006 48.6502 66.2482 46.9287 63.385Z" fill="#D92E10"/>
<path d="M33.8662 63.6208C29.2244 63.5851 25.4088 59.7552 25.5017 55.1622C25.5302 53.7692 26.0303 52.4859 26.5696 51.2299C28.2268 47.3714 30.4506 43.8332 32.7983 40.37C33.3484 39.5592 34.2865 39.5283 34.8246 40.3235C37.4128 44.151 39.8522 48.0595 41.5594 52.3859C43.5749 57.4944 40.0665 62.4934 35.5687 63.3815C35.008 63.4922 34.4341 63.5422 33.8662 63.6208ZM33.8829 43.1486C33.7781 43.2391 33.7246 43.2665 33.696 43.3117C31.8281 46.213 30.0161 49.15 28.6958 52.3501C28.3149 53.2716 27.9327 54.2788 27.922 55.2502C27.8934 57.7587 29.1268 59.6254 31.4173 60.6528C33.7115 61.6814 35.9175 61.3386 37.7795 59.6552C39.6117 57.998 40.2546 55.9205 39.4236 53.5097C38.5462 50.9656 37.208 48.6464 35.8532 46.3392C35.2234 45.2689 34.5496 44.2272 33.8829 43.1486Z" fill="#D92E10"/>
<path d="M61.566 58.45C60.7612 58.4666 60.3327 58.2392 60.1136 57.6785C59.7957 56.8642 60.3827 56.107 61.3648 56.0725C63.1566 56.0094 64.7292 55.3939 66.046 54.1736C67.5127 52.8164 68.271 51.1235 68.3568 49.1294C68.3948 48.2603 68.8508 47.7329 69.5699 47.7448C70.2902 47.7567 70.7449 48.3103 70.739 49.1687C70.7021 54.0808 66.4876 58.3452 61.566 58.45Z" fill="#D92E10"/>
<path d="M49.305 47.7224C49.3145 48.3795 48.7633 48.9331 48.1061 48.926C47.4716 48.9188 46.9418 48.3914 46.9323 47.7569C46.9216 47.0985 47.4716 46.5473 48.1299 46.5533C48.7657 46.5604 49.2955 47.089 49.305 47.7224Z" fill="#D92E10"/>
</svg>
