<svg width="100" height="101" viewBox="0 0 100 101" fill="none" xmlns="http://www.w3.org/2000/svg">
<circle cx="50" cy="50.5" r="50" fill="white"/>
<path d="M44.3308 24.5C44.8514 24.5 45.372 24.5 45.8925 24.5C45.9677 24.5275 46.04 24.5694 46.1167 24.5781C47.1347 24.6851 48.1527 24.808 49.1736 24.889C51.937 25.1088 53.1155 26.0646 53.8863 28.7152C53.9196 28.8324 54.1162 28.9668 54.2478 28.9799C57.7169 29.311 60.9401 30.3767 63.9349 32.1597C72.3104 37.1472 76.6225 47.1639 74.4361 56.6587C73.1694 62.1638 70.2787 66.6552 65.7265 70.0028C60.7449 73.6671 55.1284 75.064 49.0073 74.2571C44.9107 73.7178 41.2146 72.1228 37.9942 69.5213C33.0082 65.4926 30.1913 60.2623 29.503 53.891C29.4654 53.5425 29.37 53.4065 29.0128 53.3328C27.266 52.9756 26.0918 51.9301 25.6247 50.2108C25.4092 49.4198 25.3962 48.5724 25.2907 47.751C25.1938 46.9976 25.0969 46.2457 25 45.4923C25 44.9067 25 44.321 25 43.7354C25.0304 43.6616 25.0766 43.5907 25.0868 43.5156C25.3355 41.776 26.1453 40.3285 27.3773 39.0979C31.4508 35.0287 35.5215 30.9566 39.595 26.886C40.373 26.108 41.2334 25.4399 42.2803 25.0741C42.9484 24.8384 43.6454 24.688 44.3308 24.5ZM34.8389 51.5484C34.8331 53.3704 35.0746 54.9524 35.5157 56.5126C37.8192 64.6496 45.9778 70.0462 54.3288 68.9067C58.7349 68.3052 62.4686 66.379 65.3491 62.9548C68.7141 58.955 70.0502 54.3349 69.3171 49.1551C68.7633 45.2392 67.0352 41.8728 64.1692 39.1615C60.502 35.6939 56.106 34.0873 51.0477 34.3823C50.8163 34.3953 50.543 34.5182 50.3767 34.6816C49.0623 35.9657 47.7738 37.2787 46.4637 38.5672C46.2425 38.7855 46.1543 38.9648 46.2786 39.2757C46.4305 39.656 46.3075 40.0132 46.0154 40.2966C45.7219 40.5801 45.3604 40.7015 44.9873 40.5179C44.701 40.3776 44.5535 40.4789 44.3655 40.6683C43.4632 41.5836 42.5435 42.4816 41.6513 43.4057C41.5356 43.5257 41.472 43.7643 41.4908 43.9349C41.5717 44.6536 41.0222 45.2783 40.3368 45.1467C40.0302 45.0874 39.8611 45.1713 39.6629 45.3708C38.4165 46.6318 37.2003 47.9275 35.8902 49.119C35.0775 49.8608 34.6133 50.6417 34.8389 51.5484ZM45.907 26.6271C43.7365 26.5071 42.2832 27.126 41.054 28.3581C36.9892 32.4359 32.9142 36.5022 28.8436 40.5743C28.6715 40.7464 28.5023 40.9228 28.3462 41.1108C27.4597 42.1837 27.0042 43.423 27.0953 44.8069C27.1922 46.2978 27.3744 47.7843 27.5436 49.2708C27.6289 50.017 27.9716 50.6301 28.6498 51.009C29.7083 51.6004 30.6685 51.4269 31.6374 50.4595C38.0795 44.0202 44.5202 37.5795 50.958 31.1388C51.0954 31.0014 51.2256 30.8539 51.3456 30.7007C52.3679 29.379 51.723 27.447 50.0803 27.1434C48.5663 26.8643 47.0204 26.7587 45.907 26.6271ZM52.8278 32.2653C56.2173 32.42 59.3176 33.3223 62.1779 35.033C65.0324 36.7394 67.2796 39.0429 68.9498 41.909C70.6287 44.7881 71.5122 47.9043 71.5888 51.2346C71.8086 60.7684 65.206 68.8865 55.97 70.7418C51.4367 71.6528 47.0696 71.0498 43.0265 68.8113C36.5944 65.2511 33.2613 59.665 32.7103 52.335C32.4891 52.4955 32.3358 52.6763 32.1449 52.7327C31.4725 52.9351 31.513 53.4051 31.5781 53.956C31.9179 56.8351 32.7422 59.5638 34.2475 62.0423C38.3398 68.7766 44.3684 72.3006 52.2335 72.3787C57.9164 72.4337 62.8894 70.3629 66.8617 66.272C72.079 60.9 74.0139 54.4332 72.3509 47.1206C70.6475 39.6286 65.9406 34.6542 58.7392 32.0397C57.2064 31.483 55.6056 31.1836 53.9788 31.0578C53.8169 31.0448 53.5812 31.107 53.4901 31.2212C53.25 31.5191 53.0707 31.8691 52.8278 32.2653Z" fill="#D92E10"/>
<path d="M41.7656 51.7378C41.7165 45.8625 46.5521 41.1932 52.2799 41.2785C58.0641 41.3653 62.6857 46.049 62.5989 51.7392C62.5107 57.603 57.8356 62.1913 52.0326 62.1117C46.3554 62.0322 41.6861 57.3152 41.7656 51.7378ZM43.8378 51.7117C43.8176 56.2914 47.5686 60.0251 52.2018 60.0395C56.7771 60.054 60.5166 56.2972 60.5325 51.6684C60.5484 47.1133 56.8002 43.3637 52.2076 43.3406C47.5903 43.3189 43.8581 47.0511 43.8378 51.7117Z" fill="#D92E10"/>
<path d="M59.293 39.1819C59.2814 39.7444 58.8129 40.2014 58.2533 40.1956C57.7226 40.1898 57.2309 39.6895 57.228 39.1515C57.2251 38.5804 57.724 38.1032 58.301 38.1263C58.8664 38.1494 59.3046 38.6151 59.293 39.1819Z" fill="#D92E10"/>
<path d="M64.3414 56.1759C64.3645 55.6192 64.8504 55.1665 65.3926 55.1984C65.9566 55.2316 66.4049 55.7059 66.3861 56.2467C66.3644 56.8338 65.8785 57.2807 65.3001 57.2445C64.7304 57.2098 64.3168 56.75 64.3414 56.1759Z" fill="#D92E10"/>
<path d="M64.9356 49.5266C64.9645 48.9655 65.4417 48.5332 65.9999 48.5635C66.571 48.5939 66.9962 49.0508 66.9774 49.6162C66.9586 50.173 66.4814 50.627 65.9333 50.6082C65.3448 50.5865 64.9052 50.1108 64.9356 49.5266Z" fill="#D92E10"/>
<path d="M49.2545 64.3081C49.8358 64.3038 50.2739 64.7246 50.287 65.2972C50.3 65.8785 49.8387 66.3529 49.2574 66.3557C48.7209 66.3586 48.2466 65.8742 48.2451 65.3233C48.2422 64.7535 48.6833 64.311 49.2545 64.3081Z" fill="#D92E10"/>
<path d="M37.2827 50.4465C37.2784 49.884 37.7383 49.4155 38.2964 49.4126C38.843 49.4112 39.3144 49.884 39.3246 50.4422C39.3347 50.9931 38.8647 51.4617 38.3008 51.4645C37.7296 51.4689 37.2871 51.0235 37.2827 50.4465Z" fill="#D92E10"/>
<path d="M39.3113 56.0166C39.8767 56.0152 40.3337 56.4721 40.3337 57.039C40.3323 57.5914 39.8652 58.0613 39.307 58.0729C38.7705 58.0845 38.2846 57.5928 38.2818 57.0375C38.2789 56.4822 38.7474 56.0181 39.3113 56.0166Z" fill="#D92E10"/>
<path d="M52.7541 37.7561C52.7527 38.3317 52.3088 38.777 51.7361 38.777C51.1707 38.777 50.7022 38.3129 50.7051 37.7576C50.708 37.2124 51.1967 36.7208 51.7332 36.7236C52.29 36.7251 52.7556 37.1965 52.7541 37.7561Z" fill="#D92E10"/>
<path d="M62.3848 43.3666C62.4094 42.8156 62.8967 42.3674 63.4448 42.3905C63.99 42.4136 64.4469 42.9067 64.4267 43.4519C64.4064 44.0216 63.9104 44.4699 63.3306 44.4425C62.7695 44.415 62.3603 43.9493 62.3848 43.3666Z" fill="#D92E10"/>
<path d="M60.7233 61.8065C60.7334 61.2368 61.1904 60.7986 61.7645 60.8088C62.3198 60.8189 62.7912 61.3033 62.7767 61.8528C62.7622 62.3936 62.2532 62.881 61.7211 62.8607C61.16 62.8419 60.7132 62.3691 60.7233 61.8065Z" fill="#D92E10"/>
<path d="M42.2511 62.3896C42.2627 61.804 42.7009 61.3803 43.2836 61.3918C43.8577 61.402 44.3103 61.8661 44.2915 62.4229C44.2713 62.9969 43.8244 63.4337 43.2518 63.438C42.7095 63.4423 42.241 62.9492 42.2511 62.3896Z" fill="#D92E10"/>
<path d="M56.9447 65.1223C56.9418 65.6949 56.4863 66.1417 55.9165 66.1316C55.3526 66.1215 54.9 65.6558 54.9028 65.0933C54.9072 64.5467 55.3844 64.0854 55.9469 64.084C56.5022 64.0825 56.9476 64.5467 56.9447 65.1223Z" fill="#D92E10"/>
<path d="M32.7828 40.3125C34.2679 40.3183 35.4623 41.5344 35.4464 43.0268C35.4319 44.4815 34.2071 45.6875 32.7553 45.6774C31.302 45.6672 30.0873 44.4526 30.0801 43.0007C30.0758 41.5272 31.302 40.3067 32.7828 40.3125ZM32.7755 43.5835C33.0922 43.5806 33.3699 43.3058 33.3727 42.9949C33.3756 42.6725 33.0575 42.3543 32.7408 42.389C32.3851 42.4295 32.1711 42.6493 32.1812 43.0051C32.1913 43.3622 32.4126 43.5603 32.7755 43.5835Z" fill="#D92E10"/>
<path d="M40.8067 32.2511C40.8183 30.7891 42.0272 29.5874 43.4834 29.5903C44.954 29.5932 46.1933 30.847 46.1672 32.3046C46.1412 33.794 44.9178 34.9754 43.4284 34.9523C41.9621 34.9306 40.7952 33.7275 40.8067 32.2511ZM43.4776 31.6857C43.1132 31.716 42.9064 31.9156 42.8818 32.2728C42.8601 32.5952 43.1913 32.9148 43.5094 32.8787C43.8637 32.8382 44.0777 32.6256 44.0676 32.2626C44.0574 31.8982 43.8362 31.7102 43.4776 31.6857Z" fill="#D92E10"/>
<path d="M59.3237 51.6178C59.3497 55.5771 56.1539 58.8177 52.2019 58.8365C48.3149 58.8567 45.054 55.6349 45.0338 51.7552C45.0135 47.8103 48.1847 44.577 52.1108 44.5437C56.044 44.5105 59.2976 47.7004 59.3237 51.6178ZM52.1267 56.7339C54.8366 56.8308 57.1228 54.614 57.2254 51.7884C57.3252 49.038 55.1532 46.7576 52.3334 46.6405C49.6192 46.5277 47.1219 48.73 47.132 51.6785C47.1378 54.2395 49.1073 56.6963 52.1267 56.7339Z" fill="#D92E10"/>
</svg>
