<svg width="101" height="100" viewBox="0 0 101 100" fill="none" xmlns="http://www.w3.org/2000/svg">
<circle cx="50.5" cy="50" r="50" fill="white"/>
<path d="M25.5 45.4854C25.6865 44.5479 25.8125 43.5938 26.0703 42.6768C27.7109 36.8389 32.7617 32.6328 38.7861 32.0918C39.8848 31.9932 40.9951 32.0137 42.1006 32.0108C45.0615 32.001 48.0225 32.0127 50.9834 32C51.3027 31.999 51.4668 32.0859 51.6104 32.3848C53.2949 35.8926 54.3057 39.5889 54.7139 43.4512C55.3574 49.5264 54.2031 55.2891 51.6758 60.8125C51.5039 61.1875 51.3047 61.3252 50.8789 61.3223C47.3486 61.3018 43.8184 61.3125 40.2881 61.3106C32.8086 61.3066 26.6836 55.9932 25.624 48.5938C25.5879 48.3379 25.542 48.084 25.5 47.8291C25.5 47.0488 25.5 46.2666 25.5 45.4854ZM41.0215 58.3818C41.9688 58.3818 42.6035 58.3623 43.2363 58.3897C43.582 58.4043 43.7441 58.294 43.8711 57.9629C45.7734 53.0029 46.5986 47.9092 45.8066 42.6113C45.4307 40.0947 44.7676 37.6543 43.8262 35.291C43.7686 35.1465 43.5762 34.9512 43.4502 34.9541C41.6807 34.9922 39.8867 34.8926 38.1484 35.1524C33.1953 35.8945 29.3105 39.9424 28.5508 44.9512C27.8076 49.8477 30.3564 54.8086 34.7686 57.0752C36.835 58.1377 39.0332 58.5078 41.0215 58.3818ZM46.8662 58.3106C46.9443 58.3486 46.9707 58.3731 46.998 58.3731C47.6973 58.377 48.3975 58.3613 49.0957 58.3887C49.4404 58.4023 49.6035 58.2949 49.7305 57.9629C51.6182 53.0342 52.4502 47.9756 51.6777 42.707C51.3037 40.1553 50.6348 37.6846 49.6895 35.2881C49.6367 35.1553 49.5068 34.957 49.4072 34.9541C48.5742 34.9268 47.7393 34.9385 46.8359 34.9385C49.7568 42.7832 49.751 50.5586 46.8662 58.3106Z" fill="#D92E10"/>
<path d="M75.5 38.0625C75.1836 38.9277 74.8682 39.7939 74.5322 40.7139C68.8311 38.7705 63.1357 36.8281 57.3691 34.8623C57.6777 33.9443 57.9805 33.0459 58.3027 32.0889C59.1953 32.3916 60.0645 32.6846 60.9336 32.9814C65.6836 34.6016 70.4326 36.2236 75.1816 37.8447C75.2891 37.8818 75.3936 37.9248 75.5 37.9658C75.5 37.998 75.5 38.0303 75.5 38.0625Z" fill="#D92E10"/>
<path d="M75.5 64.4336C75.1855 65.3008 74.8711 66.168 74.5361 67.0908C68.834 65.1465 63.1396 63.2061 57.3701 61.2383C57.6807 60.3184 57.9834 59.4209 58.3057 58.4639C59.1826 58.7627 60.0352 59.0527 60.8887 59.3438C65.7598 61.0078 70.6299 62.6719 75.5 64.335C75.5 64.3682 75.5 64.4004 75.5 64.4336Z" fill="#D92E10"/>
<path d="M75.5 46.8535C75.1846 47.7197 74.8691 48.5859 74.5342 49.5049C68.833 47.5615 63.1387 45.6201 57.3691 43.6533C57.6797 42.7324 57.9824 41.834 58.291 40.917C58.373 40.9258 58.4365 40.9209 58.4922 40.9404C64.0713 42.8428 69.6484 44.7461 75.2266 46.6504C75.3184 46.6816 75.4082 46.7207 75.499 46.7559C75.5 46.7881 75.5 46.8203 75.5 46.8535Z" fill="#D92E10"/>
<path d="M75.5 55.6436C75.1855 56.5098 74.8711 57.376 74.5361 58.2988C68.835 56.3555 63.1416 54.4141 57.3701 52.4463C57.6797 51.5273 57.9824 50.6299 58.3047 49.6729C58.9824 49.9043 59.6357 50.127 60.29 50.3496C65.2236 52.0293 70.1582 53.708 75.0918 55.3887C75.2295 55.4355 75.3643 55.4941 75.5 55.5469C75.5 55.5781 75.5 55.6104 75.5 55.6436Z" fill="#D92E10"/>
</svg>
