<svg width="100" height="100" viewBox="0 0 100 100" fill="none" xmlns="http://www.w3.org/2000/svg">
<circle cx="50" cy="50" r="50" fill="white"/>
<path d="M21.8925 54.3243C21.8925 53.3706 21.8925 52.49 21.8925 51.5207C21.2151 51.5207 20.5516 51.5224 19.888 51.5207C18.8336 51.519 18.6148 51.3348 18.6756 50.2631C18.7207 49.4693 18.8163 48.6616 19.0247 47.8973C19.3408 46.7404 20.159 46.1133 21.3662 45.9535C23.1258 45.7225 24.8837 45.4654 26.6329 45.1701C27.0307 45.1024 27.4545 44.9061 27.7637 44.6456C31.566 41.4268 35.8739 39.2625 40.7931 38.4218C47.3122 37.3066 53.503 38.4478 59.4106 41.3122C62.2558 42.6914 64.8353 44.4666 67.1334 46.6518C67.3471 46.8533 67.6841 46.9958 67.9793 47.0288C70.5467 47.3154 73.0862 47.7184 75.4989 48.6911C76.159 48.9569 76.8052 49.2713 77.434 49.6082C78.339 50.0929 78.3546 50.6122 77.5434 51.2133C77.2151 51.4564 76.899 51.7274 76.6158 52.0227C76.1955 52.4604 76.1938 52.9642 76.6784 53.3185C77.302 53.7736 77.9586 54.227 78.6673 54.5136C79.8068 54.9722 80.9984 55.3126 82.1778 55.6635C82.6225 55.7955 82.9699 56.0075 82.9734 56.4764C82.9838 57.51 83.0672 58.5696 82.8726 59.5701C82.5791 61.0813 81.5594 61.7796 80.0239 61.7813C77.1422 61.7831 74.2604 61.7848 71.3787 61.7813C70.4164 61.7796 70.2496 61.618 70.1784 60.6609C69.9926 58.17 67.9029 56.235 65.412 56.2437C62.8968 56.2524 60.8141 58.2343 60.6647 60.76C60.6161 61.5746 60.4129 61.7796 59.5756 61.7796C53.4873 61.7831 47.3973 61.7848 41.309 61.7796C40.4787 61.7796 40.2998 61.5903 40.2408 60.7461C40.0636 58.2326 38.0191 56.2767 35.5386 56.2437C33.0425 56.2107 30.9737 58.0849 30.7218 60.6088C30.6159 61.6632 30.4908 61.7813 29.4399 61.7813C26.2334 61.7831 23.0251 61.7831 19.8185 61.7813C18.8545 61.7813 18.7138 61.6875 18.4306 60.7634C17.9669 59.2401 17.774 57.7063 18.3855 56.1725C18.5053 55.8737 18.6634 55.5854 18.8336 55.3109C19.2627 54.6161 19.8289 54.1923 20.7096 54.3173C21.0883 54.3694 21.4774 54.3243 21.8925 54.3243ZM19.8324 60.2475C19.961 60.2632 20.0461 60.2805 20.1312 60.2805C23.0129 60.2823 25.8946 60.2719 28.7764 60.2944C29.2315 60.2979 29.2801 60.0843 29.3565 59.7229C29.9593 56.8534 32.4832 54.8037 35.4066 54.7776C38.3787 54.7516 40.913 56.7631 41.5678 59.6639C41.613 59.8671 41.6738 60.0669 41.7242 60.2527C47.5797 60.2527 53.3814 60.2527 59.1761 60.2527C60.088 56.7283 62.2715 54.8037 65.3616 54.7759C68.5126 54.7481 70.7117 56.6397 71.6862 60.2388C71.7574 60.251 71.839 60.2771 71.9224 60.2788C74.7173 60.2823 77.5139 60.2805 80.3088 60.284C80.8403 60.284 81.2085 60.0026 81.3319 59.5371C81.4899 58.9378 81.5264 58.3073 81.6167 57.6906C81.6914 57.1852 81.4326 57.0253 80.9741 56.8569C79.4385 56.2923 77.8422 55.7973 76.4369 54.9861C74.3403 53.7771 74.3977 51.9932 75.8481 50.6591C75.8759 50.6331 75.8863 50.5862 75.9454 50.4698C75.3009 50.2162 74.6704 49.9417 74.0225 49.7211C71.8755 48.9899 69.6434 48.7085 67.4027 48.4583C67.0483 48.4184 66.6453 48.236 66.39 47.9876C63.668 45.3386 60.5397 43.3098 57.0534 41.8385C52.1446 39.7662 47.0499 38.9255 41.7468 39.7159C36.6538 40.4732 32.247 42.7018 28.3786 46.0664C28.0746 46.3305 27.6386 46.5181 27.2374 46.5841C25.3162 46.9054 23.3881 47.1833 21.4583 47.4543C20.9441 47.5255 20.6002 47.7844 20.463 48.2568C20.3032 48.8023 20.2111 49.3685 20.0721 50.0147C20.9667 50.0147 21.7206 50.013 22.4744 50.0147C23.0755 50.0164 23.4055 50.2944 23.4037 50.9232C23.4003 52.2468 23.4124 53.5721 23.3985 54.8958C23.3916 55.5558 23.1415 55.7973 22.4901 55.8146C21.9481 55.8285 21.4044 55.8546 20.866 55.8077C20.3709 55.7643 20.1069 55.9866 19.9036 56.3948C19.2644 57.6767 19.452 58.9569 19.8324 60.2475Z" fill="#D92E10"/>
<path d="M55.4068 51.2952C52.4608 51.2952 49.5148 51.2969 46.5688 51.2952C45.6117 51.2952 45.4398 51.1197 45.438 50.154C45.4363 47.875 45.4346 45.596 45.438 43.317C45.4398 42.4433 45.6465 42.2331 46.5254 42.2939C50.7395 42.5823 54.686 43.8364 58.3789 45.8253C60.5641 47.003 62.6242 48.4152 64.7364 49.7301C65.1134 49.9646 65.4816 50.2512 65.3131 50.7741C65.1464 51.29 64.6965 51.2987 64.2431 51.2987C61.2971 51.2917 58.3511 51.2952 55.4068 51.2952ZM62.0458 49.7961C57.4618 46.6573 52.5685 44.3523 46.9562 43.8138C46.9562 45.8757 46.9562 47.8333 46.9562 49.7961C52.0231 49.7961 57.0344 49.7961 62.0458 49.7961Z" fill="#D92E10"/>
<path d="M37.5554 51.2945C35.5856 51.2945 33.6175 51.298 31.6477 51.2928C30.8053 51.291 30.6073 51.0948 30.602 50.2662C30.5951 49.4428 30.6212 48.6178 30.5934 47.7944C30.576 47.3063 30.7688 46.9902 31.1579 46.714C33.2267 45.2444 35.5109 44.2022 37.9219 43.4953C39.7162 42.9672 41.5714 42.6354 43.4161 42.2967C44.1943 42.1525 44.4357 42.4444 44.4375 43.2347C44.4427 45.5988 44.4427 47.9612 44.4375 50.3253C44.4357 51.0687 44.2099 51.291 43.4647 51.2945C41.4949 51.298 39.5252 51.2945 37.5554 51.2945ZM42.9419 49.7937C42.9419 47.7683 42.9419 45.8211 42.9419 43.7315C41.792 43.9973 40.6924 44.2074 39.619 44.5097C37.1541 45.2028 34.7813 46.1321 32.6118 47.5182C32.3947 47.6572 32.1219 47.8865 32.0924 48.1036C32.0177 48.649 32.0681 49.2136 32.0681 49.7937C35.7315 49.7937 39.315 49.7937 42.9419 49.7937Z" fill="#D92E10"/>
<path d="M47.2236 54.4437C46.8571 54.4437 46.4889 54.4628 46.1241 54.4385C45.6951 54.409 45.3772 54.1363 45.4762 53.7298C45.5457 53.4467 45.8722 53.0576 46.1276 53.0211C46.8259 52.9221 47.5467 52.9655 48.2589 52.9933C48.7071 53.0124 48.9798 53.2869 48.9659 53.7524C48.952 54.1884 48.6862 54.4194 48.2606 54.442C47.9167 54.4594 47.571 54.4455 47.2254 54.4455C47.2236 54.4455 47.2236 54.4455 47.2236 54.4437Z" fill="#D92E10"/>
</svg>
