<svg width="100" height="100" viewBox="0 0 100 100" fill="none" xmlns="http://www.w3.org/2000/svg">
<circle cx="50" cy="50" r="50" fill="white"/>
<path d="M28.2309 58.8995C27.2286 57.5648 27.1551 55.8729 27.151 54.1737C27.1427 50.3539 27.1592 46.5352 27.1603 42.7154C27.1613 40.1516 27.153 37.5868 27.1458 35.023C27.1406 33.2814 27.766 31.8659 29.2653 30.8978C30.2521 30.261 31.3507 30.0063 32.5084 30.0052C40.5828 29.999 48.6583 30.0001 56.7327 30.0001C60.1487 30.0001 63.5657 30.0021 66.9816 30.0011C68.1569 30.0011 69.2793 30.2134 70.293 30.8388C71.7489 31.7365 72.4799 33.0629 72.4809 34.76C72.482 41.6789 72.4706 48.5978 72.4499 55.5167C72.4457 56.7292 72.1154 57.864 71.4134 58.9264C72.8402 59.6792 73.1188 61.2324 73.884 62.4511C74.1397 62.858 74.3551 63.2939 74.5497 63.734C74.7082 64.0923 74.8863 64.4702 74.9184 64.8513C75.0364 66.2439 75.0934 67.6459 74.6067 68.99C74.2722 69.9115 73.7276 70.2605 72.7574 70.2605C62.6814 70.2625 52.6054 70.2605 42.5284 70.2615C37.5417 70.2615 32.556 70.2656 27.5693 70.2667C26.0192 70.2667 25.3803 69.7852 25.1577 68.2444C25.0086 67.21 24.9786 66.1477 25.0128 65.1018C25.0293 64.5924 25.2644 64.0685 25.4901 63.5932C25.9498 62.6302 26.4458 61.6807 26.978 60.755C27.3311 60.14 27.7722 59.5725 28.2309 58.8995ZM49.8066 58.5485C49.8066 58.5454 49.8066 58.5423 49.8066 58.5392C55.7708 58.5392 61.735 58.5433 67.6992 58.5361C69.1706 58.534 69.9575 57.8816 70.2692 56.4351C70.3375 56.1172 70.3883 55.788 70.3893 55.4639C70.4007 50.5289 70.4048 45.595 70.4059 40.66C70.4059 38.6243 70.409 36.5886 70.3769 34.5529C70.3717 34.2081 70.2495 33.8364 70.087 33.5278C69.5547 32.5224 68.6073 32.1673 67.5511 32.1031C66.5364 32.042 65.5165 32.0668 64.4986 32.0658C58.8057 32.0637 53.1118 32.0658 47.4189 32.0668C42.4497 32.0679 37.4816 32.0534 32.5125 32.0896C31.8623 32.0948 31.1654 32.2615 30.5773 32.539C29.5014 33.0464 29.2208 34.0383 29.2239 35.1721C29.2384 41.1767 29.2291 47.1813 29.2322 53.1859C29.2332 54.0484 29.2022 54.9161 29.285 55.7714C29.4786 57.7688 30.3743 58.565 32.2164 58.5568C38.0801 58.5319 43.9429 58.5485 49.8066 58.5485ZM27.0567 65.1712C42.3648 65.1712 57.6046 65.1712 72.921 65.1712C72.8371 64.961 72.7833 64.786 72.7004 64.6266C72.1817 63.6336 71.6163 62.6634 71.1452 61.6486C70.7962 60.8969 70.264 60.6318 69.4709 60.6328C64.0203 60.6453 58.5686 60.638 53.118 60.638C46.8898 60.637 40.6626 60.637 34.4343 60.637C33.0199 60.637 31.6055 60.6339 30.191 60.6442C29.6102 60.6484 29.1918 60.9021 28.9205 61.4498C28.378 62.5453 27.7929 63.6201 27.2307 64.7063C27.1623 64.8378 27.1261 64.9838 27.0567 65.1712ZM27.1582 67.2929C27.0629 68.1036 27.1375 68.1916 27.8965 68.1916C30.9324 68.1916 33.9684 68.1927 37.0043 68.1927C48.0785 68.1947 59.1536 68.1968 70.2278 68.1989C71.053 68.1989 71.8783 68.1989 72.7419 68.1989C72.7926 67.8841 72.8382 67.6066 72.8889 67.2929C57.6025 67.2929 42.3783 67.2929 27.1582 67.2929Z" fill="#D92E10"/>
<path d="M49.8285 57.1786C44.2722 57.1786 38.717 57.1786 33.1608 57.1786C33.0055 57.1786 32.8502 57.1817 32.6949 57.1776C31.0433 57.1299 30.4117 56.5097 30.4075 54.8602C30.392 48.5274 30.3889 42.1956 30.3848 35.8628C30.3848 35.5708 30.3982 35.2736 30.449 34.9868C30.6001 34.1336 31.151 33.6004 32.0135 33.5103C32.5779 33.4513 33.1484 33.4347 33.7168 33.4347C44.7082 33.4316 55.6995 33.4326 66.6897 33.4337C66.8109 33.4337 66.932 33.4305 67.0521 33.4368C68.7068 33.5217 69.327 34.1802 69.326 35.8463C69.325 41.8508 69.3281 47.8554 69.3229 53.86C69.3229 54.3767 69.2929 54.8944 69.2483 55.409C69.1624 56.4103 68.6229 56.9819 67.631 57.1217C67.2913 57.1693 66.9434 57.1765 66.5986 57.1765C61.0093 57.1796 55.4189 57.1786 49.8285 57.1786ZM49.9227 34.4815C49.9227 34.4805 49.9227 34.4784 49.9227 34.4774C49.6814 34.4774 49.4402 34.4774 49.1989 34.4774C45.4102 34.4774 41.6215 34.4722 37.8338 34.4795C35.9907 34.4826 34.1476 34.4919 32.3055 34.5323C31.6522 34.5468 31.471 34.7828 31.4389 35.4414C31.4316 35.5967 31.4347 35.752 31.4347 35.9073C31.4337 40.6663 31.4326 45.4252 31.4337 50.1841C31.4337 51.8046 31.4347 53.4251 31.4482 55.0456C31.4554 55.8584 31.6698 56.0738 32.4847 56.1452C32.6213 56.1577 32.7601 56.1577 32.8978 56.1577C39.9171 56.1545 46.9375 56.1494 53.9568 56.1473C57.0217 56.1463 60.0856 56.1556 63.1506 56.1545C64.5101 56.1545 65.8707 56.1618 67.2292 56.1245C68.0161 56.1028 68.2108 55.8884 68.2274 55.1181C68.2543 53.8269 68.2574 52.5346 68.2584 51.2434C68.2605 46.2153 68.2502 41.1881 68.2605 36.16C68.2636 34.6068 68.1601 34.4815 66.611 34.4815C61.0486 34.4826 55.4862 34.4815 49.9227 34.4815Z" fill="#D92E10"/>
<path d="M33.5202 63.59C33.8464 63.59 34.1819 63.5454 34.4956 63.6076C34.6634 63.6407 34.7938 63.8581 34.9419 63.9917C34.8011 64.1149 34.6644 64.3376 34.5174 64.3448C33.8153 64.381 33.1091 64.379 32.4071 64.3386C32.2642 64.3303 32.1337 64.0994 31.9971 63.97C32.1451 63.8395 32.2797 63.6252 32.4444 63.5972C32.7944 63.5392 33.1609 63.5796 33.5213 63.5796C33.5202 63.5848 33.5202 63.5879 33.5202 63.59Z" fill="#D92E10"/>
<path d="M45.752 63.5911C46.1123 63.5911 46.4799 63.5486 46.8299 63.6097C46.9935 63.6387 47.1219 63.8675 47.2668 64.0052C47.1239 64.1264 46.9862 64.3438 46.8382 64.3511C46.1361 64.3852 45.4289 64.3821 44.7269 64.3407C44.584 64.3324 44.4535 64.1015 44.3179 63.9731C44.4525 63.8416 44.5726 63.6231 44.7258 63.5962C45.0582 63.5382 45.4082 63.5786 45.752 63.5786C45.752 63.5817 45.752 63.5859 45.752 63.5911Z" fill="#D92E10"/>
<path d="M58.1202 64.3635C57.794 64.3635 57.4564 64.4111 57.1437 64.3449C56.9574 64.3055 56.8083 64.086 56.6426 63.9473C56.8041 63.824 56.9605 63.6024 57.1272 63.5942C57.8116 63.5579 58.5012 63.5662 59.1846 63.6087C59.3296 63.618 59.46 63.8437 59.5978 63.969C59.4652 64.1005 59.3482 64.3221 59.1981 64.3459C58.8481 64.4018 58.4815 64.3635 58.1202 64.3635Z" fill="#D92E10"/>
<path d="M62.2287 63.5735C62.5549 63.5735 62.8904 63.5279 63.2041 63.5911C63.3884 63.6284 63.5375 63.8386 63.7021 63.9711C63.5499 64.1016 63.4039 64.3335 63.2445 64.3439C62.5766 64.3863 61.9036 64.3874 61.2357 64.346C61.07 64.3356 60.9168 64.1119 60.7573 63.9856C60.9209 63.85 61.069 63.6356 61.2533 63.5973C61.566 63.5331 61.9025 63.5797 62.2287 63.5797C62.2287 63.5776 62.2287 63.5756 62.2287 63.5735Z" fill="#D92E10"/>
<path d="M37.5272 64.3659C37.201 64.3659 36.8655 64.4104 36.5518 64.3483C36.3841 64.3151 36.2526 64.0977 36.1045 63.9641C36.2567 63.8399 36.4017 63.6183 36.5611 63.6069C37.228 63.5624 37.9 63.5561 38.5668 63.5924C38.7283 63.6007 38.8795 63.8223 39.0348 63.9465C38.8754 64.0853 38.7335 64.31 38.5544 64.3452C38.2241 64.4104 37.871 64.3638 37.5282 64.3638C37.5272 64.3648 37.5272 64.3659 37.5272 64.3659Z" fill="#D92E10"/>
<path d="M49.9318 63.5775C50.259 63.5775 50.5955 63.534 50.9113 63.5951C51.078 63.6272 51.2095 63.8415 51.3565 63.9741C51.2219 64.1025 51.0925 64.3344 50.9506 64.3427C50.2631 64.3821 49.5704 64.3872 48.8828 64.3448C48.7234 64.3355 48.5795 64.0932 48.4272 63.9586C48.5836 63.8353 48.7275 63.6355 48.8994 63.6065C49.2349 63.5506 49.587 63.5899 49.9318 63.5899C49.9318 63.5858 49.9318 63.5816 49.9318 63.5775Z" fill="#D92E10"/>
<path d="M66.3388 64.3667C65.9951 64.3667 65.643 64.4102 65.3117 64.3481C65.1491 64.318 65.0228 64.0923 64.8799 63.9556C65.0207 63.8345 65.1543 63.6181 65.3023 63.6088C65.9868 63.5663 66.6754 63.5559 67.3598 63.5932C67.5192 63.6015 67.6673 63.8376 67.8206 63.9681C67.6539 64.0996 67.5027 64.3087 67.3163 64.345C67.0026 64.4081 66.6671 64.3626 66.3399 64.3626C66.3388 64.3646 66.3388 64.3657 66.3388 64.3667Z" fill="#D92E10"/>
<path d="M41.7321 64.3654C41.3718 64.3665 41.0042 64.4079 40.6542 64.3468C40.4937 64.3188 40.3674 64.0879 40.2266 63.9492C40.3663 63.8312 40.501 63.6189 40.648 63.6106C41.3314 63.5713 42.0189 63.565 42.7013 63.6034C42.8587 63.6127 43.0036 63.8456 43.1548 63.9751C42.9891 64.1055 42.84 64.3095 42.6557 64.3489C42.3596 64.411 42.0407 64.3644 41.7321 64.3654Z" fill="#D92E10"/>
<path d="M54.0208 63.5878C54.3801 63.5878 54.7456 63.5495 55.0966 63.6064C55.2436 63.6303 55.3596 63.8539 55.489 63.9864C55.3513 64.1117 55.2177 64.3364 55.0738 64.3447C54.3718 64.383 53.6656 64.3851 52.9636 64.3478C52.8196 64.3406 52.6871 64.1138 52.5483 63.9875C52.6964 63.856 52.8289 63.6396 52.9946 63.6095C53.327 63.5495 53.677 63.5919 54.0197 63.5919C54.0207 63.5909 54.0208 63.5899 54.0208 63.5878Z" fill="#D92E10"/>
<path d="M33.8276 63.2506C33.4848 63.2506 33.1348 63.2941 32.8045 63.2319C32.643 63.2019 32.5188 62.9762 32.3779 62.8395C32.5156 62.7194 32.6492 62.5019 32.7931 62.4947C33.4765 62.4574 34.1641 62.4543 34.8464 62.4968C34.9976 62.5061 35.1343 62.7504 35.2772 62.8861C35.1198 63.0062 34.9748 63.1988 34.8019 63.2288C34.4861 63.2847 34.1537 63.2444 33.8286 63.2444C33.8276 63.2464 33.8276 63.2485 33.8276 63.2506Z" fill="#D92E10"/>
<path d="M53.9441 62.4791C54.2879 62.4791 54.6379 62.4397 54.9713 62.4967C55.1214 62.5226 55.2384 62.741 55.3699 62.8715C55.2343 62.9958 55.1038 63.2194 54.962 63.2267C54.261 63.2619 53.5558 63.2567 52.8548 63.2215C52.7254 63.2153 52.4893 62.973 52.509 62.8901C52.5473 62.7338 52.7212 62.5226 52.8652 62.4987C53.2162 62.4418 53.5827 62.4801 53.9431 62.4801C53.9441 62.4811 53.9441 62.4801 53.9441 62.4791Z" fill="#D92E10"/>
<path d="M41.8553 62.4801C42.1991 62.4801 42.5511 62.4366 42.8835 62.4988C43.0471 62.5288 43.1745 62.7545 43.3184 62.8912C43.1724 63.0082 43.0316 63.2174 42.8804 63.2257C42.196 63.2619 41.5063 63.2619 40.8219 63.2236C40.6801 63.2153 40.5506 62.9865 40.416 62.8591C40.5517 62.7328 40.6738 62.5226 40.8271 62.4977C41.1615 62.4429 41.5115 62.4801 41.8553 62.4801Z" fill="#D92E10"/>
<path d="M45.8556 63.2484C45.5294 63.2484 45.1939 63.2919 44.8791 63.2308C44.7114 63.1987 44.5778 62.9864 44.4287 62.856C44.5675 62.7297 44.7 62.5029 44.846 62.4946C45.5325 62.4573 46.2231 62.4584 46.9096 62.4967C47.0577 62.505 47.1934 62.7255 47.3342 62.8477C47.1861 62.9792 47.0525 63.1956 46.8858 63.2256C46.5524 63.2857 46.2004 63.2432 45.8566 63.2432C45.8556 63.2443 45.8556 63.2463 45.8556 63.2484Z" fill="#D92E10"/>
<path d="M57.9398 63.2496C57.5981 63.2496 57.2492 63.2879 56.9168 63.232C56.7646 63.2071 56.6435 62.9969 56.5078 62.8717C56.6393 62.7412 56.7646 62.5051 56.9023 62.4968C57.6023 62.4595 58.3064 62.4595 59.0064 62.4999C59.141 62.5072 59.2621 62.7505 59.3905 62.8841C59.2487 63.0032 59.1203 63.2009 58.9639 63.2258C58.6305 63.2786 58.2815 63.2423 57.9398 63.2423C57.9398 63.2444 57.9398 63.2475 57.9398 63.2496Z" fill="#D92E10"/>
<path d="M65.9855 63.2411C65.6407 63.2411 65.2907 63.2794 64.9552 63.2246C64.8009 63.1997 64.6777 62.9906 64.541 62.8642C64.6756 62.7369 64.8051 62.507 64.9469 62.4987C65.6334 62.4594 66.3251 62.4542 67.0106 62.4956C67.1638 62.5049 67.3026 62.7503 67.4475 62.887C67.3046 63.0082 67.1731 63.208 67.0147 63.2339C66.6792 63.2877 66.3292 63.2505 65.9855 63.2505C65.9855 63.2473 65.9855 63.2442 65.9855 63.2411Z" fill="#D92E10"/>
<path d="M49.8874 63.2517C49.5602 63.2517 49.2237 63.2941 48.9078 63.2351C48.7349 63.202 48.5962 62.9959 48.4419 62.8675C48.5786 62.7381 48.7111 62.5041 48.854 62.4968C49.5591 62.4595 50.2684 62.4627 50.9736 62.503C51.103 62.5103 51.2863 62.7443 51.3163 62.8996C51.3339 62.9897 51.1071 63.2123 50.9715 63.2299C50.6163 63.2776 50.2498 63.2465 49.8874 63.2465C49.8874 63.2465 49.8874 63.2486 49.8874 63.2517Z" fill="#D92E10"/>
<path d="M61.9848 63.2496C61.64 63.2496 61.2869 63.292 60.9535 63.2309C60.793 63.2009 60.6677 62.9752 60.5269 62.8385C60.6677 62.7184 60.8023 62.502 60.9493 62.4937C61.6203 62.4554 62.2954 62.4512 62.9664 62.4937C63.1258 62.504 63.2729 62.7349 63.4251 62.8654C63.2729 62.9917 63.1352 63.1968 62.9653 63.2278C62.6485 63.2868 62.313 63.2444 61.9848 63.2444C61.9848 63.2465 61.9848 63.2485 61.9848 63.2496Z" fill="#D92E10"/>
<path d="M37.847 63.2424C37.5022 63.2424 37.1512 63.2797 36.8147 63.2258C36.6614 63.201 36.5362 62.998 36.3984 62.8758C36.5299 62.7443 36.6542 62.5062 36.7929 62.4989C37.4981 62.4596 38.2074 62.4585 38.9125 62.4968C39.0513 62.5041 39.1766 62.7474 39.307 62.881C39.1652 63.0042 39.0357 63.2072 38.8783 63.2331C38.5429 63.2879 38.1918 63.2496 37.847 63.2496C37.847 63.2486 37.847 63.2455 37.847 63.2424Z" fill="#D92E10"/>
<path d="M34.1599 61.4611C34.4695 61.4611 34.7884 61.4186 35.0856 61.4776C35.2543 61.5118 35.39 61.7127 35.5401 61.839C35.3879 61.9674 35.2429 62.1962 35.0835 62.2066C34.4322 62.249 33.7747 62.249 33.1244 62.2056C32.9732 62.1952 32.8386 61.9477 32.6968 61.809C32.8407 61.693 32.9722 61.5004 33.1296 61.4766C33.4651 61.4248 33.8151 61.4611 34.1599 61.4611Z" fill="#D92E10"/>
<path d="M45.9952 61.4569C46.3214 61.4569 46.6538 61.4185 46.9706 61.4734C47.1249 61.5003 47.2502 61.6992 47.3889 61.8203C47.2616 61.9539 47.1394 62.1951 47.0048 62.2013C46.3038 62.2376 45.5986 62.2324 44.8966 62.1951C44.7641 62.1879 44.6429 61.9725 44.5166 61.8524C44.6491 61.723 44.7672 61.5035 44.9163 61.4807C45.2683 61.4258 45.6339 61.4631 45.9942 61.4631C45.9952 61.462 45.9952 61.46 45.9952 61.4569Z" fill="#D92E10"/>
<path d="M57.8602 61.4571C58.1698 61.4571 58.4887 61.4136 58.7859 61.4737C58.9557 61.5089 59.0903 61.7139 59.2415 61.8433C59.1027 61.9707 58.9691 62.1985 58.8242 62.2068C58.1377 62.2441 57.447 62.242 56.7605 62.2006C56.6207 62.1923 56.4934 61.9572 56.3608 61.8268C56.4986 61.7046 56.6249 61.4996 56.7771 61.4778C57.1312 61.425 57.4978 61.4613 57.8591 61.4613C57.8602 61.4602 57.8602 61.4581 57.8602 61.4571Z" fill="#D92E10"/>
<path d="M38.0822 61.4621C38.4074 61.4621 38.7387 61.4248 39.0556 61.4776C39.214 61.5035 39.3455 61.694 39.4894 61.81C39.3476 61.9467 39.2119 62.1921 39.0618 62.2024C38.397 62.247 37.7261 62.249 37.0613 62.2066C36.9091 62.1973 36.7714 61.9498 36.6274 61.8121C36.7869 61.694 36.9339 61.5035 37.1089 61.4735C37.4247 61.4176 37.7571 61.4579 38.0822 61.4579C38.0822 61.4579 38.0822 61.46 38.0822 61.4621Z" fill="#D92E10"/>
<path d="M53.8231 62.2262C53.5125 62.2262 53.1935 62.2697 52.8943 62.2096C52.7214 62.1744 52.5816 61.9715 52.4263 61.8451C52.5743 61.7157 52.7172 61.4848 52.8726 61.4744C53.5259 61.4341 54.1834 61.4392 54.8378 61.4765C54.989 61.4848 55.1288 61.6877 55.2738 61.8016C55.135 61.9425 55.0139 62.1744 54.8534 62.2055C54.52 62.2686 54.1669 62.2241 53.8221 62.2241C53.8231 62.2241 53.8231 62.2251 53.8231 62.2262Z" fill="#D92E10"/>
<path d="M65.7296 61.4613C66.0392 61.4613 66.3571 61.4188 66.6543 61.4779C66.8241 61.512 66.9618 61.7119 67.113 61.8382C66.9597 61.9676 66.8137 62.1975 66.6522 62.2079C66.002 62.2503 65.3455 62.2503 64.6963 62.2058C64.5451 62.1954 64.4094 61.9469 64.2676 61.8071C64.4115 61.6901 64.543 61.4975 64.7014 61.4727C65.0369 61.4209 65.3859 61.4572 65.7296 61.4572C65.7296 61.4582 65.7296 61.4603 65.7296 61.4613Z" fill="#D92E10"/>
<path d="M41.9952 62.2263C41.6856 62.2263 41.3656 62.275 41.0705 62.2087C40.8862 62.1673 40.7402 61.9519 40.5776 61.8142C40.7361 61.6951 40.8893 61.4829 41.055 61.4725C41.6887 61.4321 42.3275 61.428 42.9602 61.4746C43.1311 61.487 43.2864 61.7241 43.4479 61.8587C43.2895 61.9809 43.1445 62.1776 42.9706 62.2097C42.6558 62.2667 42.3213 62.2263 41.9952 62.2263Z" fill="#D92E10"/>
<path d="M61.7456 62.2243C61.4194 62.2243 61.085 62.2688 60.7712 62.2067C60.6056 62.1735 60.4761 61.9571 60.3291 61.8225C60.4834 61.7024 60.6325 61.4881 60.794 61.4777C61.4256 61.4363 62.0635 61.4342 62.6961 61.4736C62.8566 61.4839 63.0037 61.7034 63.1569 61.8267C62.9954 61.9602 62.8504 62.1694 62.6682 62.2098C62.3731 62.274 62.0542 62.2274 61.7456 62.2274C61.7456 62.2263 61.7456 62.2253 61.7456 62.2243Z" fill="#D92E10"/>
<path d="M49.883 62.2212C49.5558 62.2212 49.2203 62.2668 48.9066 62.2026C48.744 62.1694 48.6208 61.9427 48.48 61.8029C48.626 61.689 48.7668 61.484 48.919 61.4757C49.5713 61.4394 50.2278 61.4374 50.8781 61.4798C51.0365 61.4902 51.1804 61.719 51.3306 61.8474C51.1753 61.9737 51.0334 62.1767 50.8605 62.2088C50.5447 62.2678 50.2102 62.2254 49.883 62.2254C49.883 62.2243 49.883 62.2222 49.883 62.2212Z" fill="#D92E10"/>
</svg>
