<svg width="101" height="100" viewBox="0 0 101 100" fill="none" xmlns="http://www.w3.org/2000/svg">
<circle cx="50.5" cy="50" r="50" fill="white"/>
<path d="M70.5003 40.1902C69.0656 40.3712 68.1469 40.4844 67.2282 40.5975C67.2191 40.7514 67.2101 40.9007 67.201 41.0546C67.7984 41.127 68.4275 41.0999 68.9751 41.299C69.4412 41.4619 69.8123 41.8828 70.2242 42.1906C69.7988 42.5662 69.4277 43.064 68.9298 43.2813C68.423 43.503 67.7939 43.4442 67.115 43.5166C68.251 44.2 69.2376 44.7883 70.2242 45.3767C69.2466 45.8157 68.2645 46.2547 67.0336 46.8068C67.5404 46.9742 67.9613 47.0738 68.3415 47.2548C68.9841 47.5535 69.6042 47.9065 70.2332 48.2324C69.5725 48.599 68.9253 48.9882 68.251 49.3186C67.9025 49.4905 67.4997 49.5494 67.1331 50.1558C67.7305 50.2282 68.3596 50.2147 68.9163 50.4002C69.3915 50.5631 69.7897 50.9569 70.2197 51.251C69.8667 51.7353 69.6132 52.378 69.1425 52.6721C68.5632 53.0297 67.8029 53.093 67.4273 53.1971C68.3958 54.401 69.835 55.4373 70.1382 56.7408C70.7492 59.3476 69.5499 60.5107 66.8299 60.5378C62.3042 60.5786 57.783 60.5514 53.2573 60.5514C52.5874 60.5514 51.9176 60.5514 51.2795 60.5514C50.8994 63.0858 50.9808 65.6247 50.0711 67.7292C49.2203 69.6934 47.315 71.205 46.0523 73.2234C47.0072 72.7754 47.9667 72.3273 48.9669 71.8567C48.718 74.0381 46.9212 75.5134 45.0476 74.8979C44.5407 74.7305 44.0746 73.5629 44.07 72.8478C44.0067 62.5925 44.0248 52.3372 44.0293 42.0865C44.0293 39.2172 44.5769 38.9185 47.3693 40.249C46.8171 40.9143 46.2695 41.5705 45.7219 42.2313C45.8441 42.3806 45.9663 42.53 46.093 42.6793C46.9439 42.3082 47.7992 41.9371 48.7994 41.5026C50.5418 44.7295 45.4006 43.9149 45.9754 46.576C47.0525 46.06 48.021 45.5939 48.7225 45.2545C51.981 47.5037 50.4694 50.8709 51.0125 53.8714C55.0902 53.8714 59.0819 53.8714 63.3496 53.8714C62.1096 52.9753 61.1411 52.2739 60.1726 51.5724C61.132 50.9524 62.096 50.3369 62.9151 49.8073C62.1458 49.3593 61.1637 48.7845 60.1861 48.2098C61.1456 47.73 62.1096 47.2548 63.1414 46.7389C62.9151 45.2997 59.4575 47.5083 60.3626 44.4308C61.2361 44.3041 62.1503 44.1683 63.1731 44.0189C62.535 42.5481 59.8965 44.3312 60.3174 42.1C60.426 41.5298 62.0507 41.2447 63.4084 40.6382C62.2589 40.4979 61.3855 40.3893 60.168 40.2445C60.4215 38.4387 59.1271 36.3433 61.8244 35.049C62.1096 34.9132 61.7566 32.7318 61.2225 31.7633C60.0006 29.5366 60.0413 27.2059 61.6841 25.5042C63.3496 23.7799 65.8885 23.5084 67.8799 24.8435C70.197 26.3958 70.713 29.3782 69.0022 31.7859C67.9206 33.3066 67.4725 34.3746 69.4005 35.8545C70.3057 36.5515 70.1518 38.6333 70.5003 40.1902ZM64.4856 26.1107C63.9696 26.8031 62.8473 27.6766 62.6391 28.7356C62.3177 30.3694 63.5035 31.4058 65.1509 31.451C66.7077 31.4917 67.7396 30.5459 67.7984 28.9981C67.8663 27.3417 66.8389 26.432 64.4856 26.1107ZM45.6088 57.1752C45.8351 57.4784 46.0614 57.7817 46.2876 58.0849C47.3602 57.2929 48.4283 56.5054 49.5009 55.7134C49.3108 55.469 49.1207 55.2201 48.9307 54.9757C47.8219 55.7089 46.7176 56.4421 45.6088 57.1752ZM49.5281 59.6282C49.3063 59.3295 49.0845 59.0353 48.8583 58.7366C47.8083 59.5376 46.7538 60.3342 45.7038 61.1352C45.8894 61.3887 46.0795 61.6421 46.265 61.8955C47.3557 61.1398 48.4419 60.384 49.5281 59.6282ZM45.6133 53.3736C45.8396 53.6768 46.0614 53.9846 46.2876 54.2878C47.3557 53.4822 48.4283 52.6767 49.4964 51.8711C49.3018 51.6267 49.1117 51.3778 48.9171 51.1334C47.8173 51.8801 46.7176 52.6269 45.6133 53.3736ZM45.6767 64.9504C45.8758 65.2038 46.0749 65.4618 46.2695 65.7153C47.3467 64.9278 48.4238 64.1358 49.5009 63.3483C49.2972 63.0903 49.0936 62.8278 48.8899 62.5699C47.8173 63.3619 46.7447 64.1584 45.6767 64.9504Z" fill="#D92E10"/>
<path d="M43.4045 74.8432C40.9651 74.8432 38.743 74.8432 36.4077 74.8432C36.4077 63.117 36.4077 51.5447 36.4077 39.7598C38.7068 39.7598 40.9787 39.7598 43.4045 39.7598C43.4045 51.4135 43.4045 63.0401 43.4045 74.8432Z" fill="#D92E10"/>
<path d="M30.8456 71.8038C31.9906 72.3831 32.855 72.8176 33.8552 73.3244C34.3621 70.5728 29.2571 71.2879 30.7958 67.9977C31.8096 68.4774 32.7826 68.9345 33.9322 69.4731C34.1222 66.7305 29.5286 67.5225 30.7732 64.2096C31.7598 64.6758 32.7328 65.1329 33.8779 65.6714C34.3033 62.947 29.2571 63.6394 30.7913 60.3673C31.796 60.8425 32.7736 61.3041 33.9186 61.8427C34.1539 59.1454 29.4155 59.8423 30.7868 56.5793C31.8186 57.0499 32.7917 57.498 33.9276 58.0185C34.1584 55.303 29.3476 56.0452 30.7777 52.746C31.7734 53.2076 32.76 53.6692 33.8914 54.1942C34.2309 51.4652 29.3567 52.2391 30.7732 48.9444C31.7598 49.4015 32.7419 49.8586 33.8643 50.379C34.2535 47.641 29.3521 48.433 30.7823 45.1201C31.7689 45.5999 32.7555 46.0751 33.7376 46.5503C33.8869 46.3783 34.0363 46.2108 34.1856 46.0389C33.4615 45.4234 32.8007 44.6947 31.9951 44.215C30.9135 43.5678 30.0174 43.0066 31.185 41.581C32.0404 41.9431 32.8958 42.3006 33.7511 42.6581C33.8733 42.5314 33.991 42.4047 34.1132 42.278C33.5837 41.6172 33.0542 40.9565 32.2667 39.9789C33.4841 39.7979 34.4933 39.6485 35.6881 39.4766C35.6881 51.4109 35.6881 62.9967 35.6927 74.5871C32.9863 75.4334 31.4656 74.655 30.8456 71.8038Z" fill="#D92E10"/>
</svg>
