<svg width="100" height="100" viewBox="0 0 100 100" fill="none" xmlns="http://www.w3.org/2000/svg">
<circle cx="50" cy="50" r="50" fill="white"/>
<path d="M37.5726 81.5001C37.1022 81.3861 36.6253 81.2901 36.1614 81.1566C32.5335 80.1085 30.0433 76.8435 30.0124 73.0642C29.9912 70.3184 30.0026 67.5726 30.0075 64.8269C30.0156 60.3265 32.9355 56.9069 37.361 56.181C37.7891 56.111 38.2025 55.9336 38.6159 55.7839C40.0514 55.2647 41.474 54.7048 42.9225 54.2279C43.4287 54.0603 43.9967 54.0847 44.5973 54.0131C44.5973 53.7998 44.5973 53.6013 44.5973 53.4011C44.5973 49.2718 44.5908 45.1442 44.6071 41.015C44.6087 40.5723 44.4688 40.3314 44.0879 40.1019C40.0384 37.6638 37.9014 32.8037 38.834 28.2139C39.8138 23.3962 43.6403 19.7747 48.4466 19.1107C48.5606 19.0944 48.6696 19.0374 48.7819 19C49.5534 19 50.3249 19 51.0964 19C52.2617 19.3239 53.4336 19.6331 54.5908 19.9831C54.9538 20.0938 55.294 20.3005 55.6244 20.4958C56.1061 20.7806 56.2608 21.3014 56.0248 21.749C55.792 22.1917 55.294 22.3138 54.7552 22.1022C53.8356 21.7393 52.9323 21.2835 51.9769 21.0671C46.806 19.8952 41.5684 23.3815 40.6276 28.5638C39.6478 33.9658 43.2383 39.0635 48.5752 39.8545C52.4456 40.4274 56.2575 38.5947 58.2399 35.2061C60.1931 31.8679 59.918 27.6426 57.5449 24.5436C57.4701 24.4476 57.3887 24.3548 57.322 24.2539C57.0013 23.777 57.0567 23.2627 57.4587 22.9486C57.8526 22.641 58.3929 22.7012 58.7575 23.1357C59.8008 24.3841 60.5349 25.8018 60.9597 27.374C62.3008 32.322 60.2728 37.4115 55.8701 40.1345C55.5739 40.3184 55.39 40.4877 55.3916 40.8848C55.4079 45.1149 55.4014 49.3467 55.403 53.5769C55.403 53.7168 55.4258 53.8552 55.4372 53.9886C56.1175 54.0961 56.8353 54.0619 57.4147 54.3304C58.5736 54.8659 59.7764 55.2419 60.989 55.6065C61.7165 55.8246 62.431 56.1062 63.1716 56.2657C67.156 57.1218 69.9554 60.5023 69.9847 64.5795C70.0059 67.3855 70.0043 70.1931 69.9847 73.0007C69.9554 77.2422 66.9558 80.7155 62.7679 81.3959C62.6507 81.4154 62.5368 81.4659 62.4229 81.5017C54.1416 81.5001 45.8571 81.5001 37.5726 81.5001ZM35.6732 58.6273C33.3555 59.7911 31.9573 61.6449 31.8678 64.2605C31.7669 67.2276 31.806 70.2012 31.8499 73.17C31.902 76.6921 34.7943 79.6283 38.3229 79.6478C46.0996 79.6934 53.8763 79.6918 61.653 79.6495C65.2126 79.6299 68.1 76.6954 68.1521 73.1325C68.1944 70.2435 68.196 67.3545 68.139 64.4672C68.1228 63.6729 67.9274 62.851 67.654 62.099C67.0632 60.4795 65.5755 59.0131 64.3418 58.6534C64.5143 59.2572 64.8285 59.8724 64.8431 60.4958C64.9082 63.196 64.8871 65.8995 64.8903 68.6013C64.8903 68.8015 64.8399 69.0049 64.7927 69.2002C64.0472 72.2894 61.4919 74.2702 58.2025 74.2784C53.4304 74.2898 48.6598 74.2816 43.8877 74.2816C42.9209 74.2816 42.4554 73.974 42.4635 73.3425C42.4717 72.7305 42.9079 72.4506 43.8519 72.4506C48.6436 72.4506 53.4352 72.4587 58.2285 72.4473C60.8653 72.4408 62.9128 70.7579 63.0853 68.2009C63.2448 65.8523 63.1911 63.4808 63.0902 61.1273C63.0235 59.5567 62.1576 58.3669 60.735 57.5108C60.7806 58.1228 60.8441 58.642 60.8506 59.1612C60.8669 60.4633 60.8604 61.7653 60.8555 63.0674C60.8441 66.1257 58.7803 68.1895 55.7236 68.1928C51.9264 68.196 48.1292 68.196 44.332 68.1928C41.1956 68.1911 39.153 66.1436 39.1481 62.9974C39.1448 61.1989 39.1481 59.4021 39.1481 57.5824C37.7174 58.4613 36.9134 59.7797 36.8727 61.5017C36.8223 63.6159 36.8092 65.7351 36.876 67.8477C36.9378 69.835 37.9469 71.2527 39.7601 72.0827C39.9261 72.1592 40.1051 72.2129 40.2549 72.3122C40.6243 72.558 40.7806 72.9714 40.582 73.3181C40.4209 73.5997 40.0465 73.8178 39.7194 73.9268C39.5143 73.9952 39.2116 73.8373 38.9772 73.7282C36.4544 72.5499 35.1361 70.5446 35.0433 67.7728C34.9831 65.9646 35.0482 64.1514 35.0238 62.3415C35.0058 61.0687 35.1458 59.8317 35.6732 58.6273ZM46.4251 41.2038C46.4251 41.5244 46.4251 41.7458 46.4251 41.9655C46.4251 47.5775 46.4251 53.1895 46.4268 58.8015C46.4268 59.0651 46.43 59.3304 46.4495 59.5941C46.6123 61.7279 48.7135 63.2579 50.7904 62.7565C52.5059 62.3431 53.5703 60.9743 53.5736 59.0977C53.585 53.3229 53.5785 47.5482 53.5768 41.7735C53.5768 41.614 53.5573 41.4544 53.541 41.2282C51.181 41.9606 48.847 41.9785 46.4251 41.2038ZM44.6071 55.9825C42.6751 55.6814 41.0231 57.016 40.984 58.8536C40.9531 60.3786 40.9564 61.9037 40.984 63.4288C41.0133 65.0026 42.2812 66.3357 43.8503 66.3487C47.9486 66.3829 52.0485 66.3812 56.1485 66.3487C57.6426 66.3373 58.9479 65.0808 59.0016 63.6127C59.0619 61.9688 59.0716 60.3168 59.0016 58.6729C58.9268 56.9102 57.0436 55.5446 55.3786 56.0345C55.3786 57.2471 55.4339 58.4873 55.3672 59.7211C55.1996 62.8217 52.1429 65.1768 49.0928 64.6023C46.5016 64.114 44.708 62.0567 44.6152 59.4167C44.5745 58.2839 44.6071 57.1462 44.6071 55.9825Z" fill="#D92E10"/>
<path d="M48.9996 29.4649C49.7043 29.4649 50.3065 29.4649 50.9999 29.4649C50.9999 28.8009 50.9999 28.1596 50.9999 27.5183C50.9999 27.0252 51.1708 26.6329 51.6705 26.475C52.2499 26.2911 52.7968 26.711 52.8196 27.3735C52.8423 28.0424 52.8244 28.713 52.8244 29.4356C53.4966 29.4356 54.133 29.4356 54.8655 29.4356C54.8655 28.8351 54.8622 28.2133 54.8671 27.5916C54.872 26.8575 55.1828 26.4571 55.7493 26.4441C56.3433 26.4311 56.69 26.8461 56.6916 27.6046C56.6965 29.4763 56.6965 31.3481 56.6916 33.2182C56.69 33.923 56.3319 34.3559 55.7769 34.3592C55.2187 34.3624 54.8736 33.936 54.8671 33.2263C54.8622 32.6192 54.8655 32.0121 54.8655 31.3627C54.1835 31.3627 53.5471 31.3627 52.8277 31.3627C52.8277 32.0121 52.8358 32.6567 52.8261 33.2996C52.8147 33.9539 52.4436 34.3705 51.9048 34.3575C51.3922 34.3445 51.0243 33.9392 51.0064 33.3224C50.9885 32.6778 51.0032 32.0317 51.0032 31.353C50.3228 31.353 49.7027 31.353 49.0012 31.353C49.0012 32.03 49.063 32.7006 48.9752 33.3517C48.9312 33.6788 48.6757 34.0662 48.399 34.242C48.202 34.3673 47.7463 34.2761 47.5266 34.115C47.3264 33.9685 47.2125 33.6039 47.1929 33.3256C47.1457 32.6827 47.1783 32.0349 47.1783 31.3188C46.2684 31.3188 45.4221 31.322 44.5757 31.3188C43.6106 31.3139 43.316 31.0128 43.3127 30.0313C43.3111 29.198 43.3046 28.3631 43.3143 27.5297C43.3225 26.8543 43.6578 26.4571 44.2063 26.4425C44.7824 26.4278 45.1275 26.8315 45.1373 27.5427C45.1454 28.1319 45.1454 28.7228 45.1535 29.3119C45.1535 29.3478 45.1828 29.3836 45.2138 29.4535C45.8371 29.4535 46.4719 29.4535 47.1767 29.4535C47.1767 28.7732 47.1685 28.1287 47.1783 27.4825C47.188 26.8396 47.5103 26.4636 48.0442 26.4441C48.6024 26.4229 48.9784 26.8103 48.9979 27.4711C49.0142 28.1157 48.9996 28.7634 48.9996 29.4649Z" fill="#D92E10"/>
</svg>
