<svg width="111" height="33" viewBox="0 0 111 33" fill="none" xmlns="http://www.w3.org/2000/svg">
<path d="M38.9244 0C45.5471 0 52.1709 0 58.7935 0C60.3157 0.495404 61.8978 0.859327 63.347 1.50969C67.2016 3.24126 70.6817 5.59149 74.0863 8.05325C74.3951 8.2763 74.8283 8.41248 75.2149 8.43831C77.9565 8.62614 80.7078 8.70244 83.4423 8.95602C87.0671 9.29176 90.6656 9.8353 94.2103 10.6852C97.8746 11.5633 101.456 12.6704 104.779 14.4524C105.76 14.9783 106.644 15.6792 107.573 16.299C107.544 16.3706 107.517 16.4411 107.488 16.5127C107.277 16.5127 107.068 16.5127 106.857 16.5127C103.906 16.5127 100.955 16.5221 98.0039 16.5068C97.2883 16.5033 96.7318 16.7733 96.2699 17.2781C95.7325 17.8662 95.7385 18.4743 96.2794 19.0508C96.7844 19.5896 97.4151 19.8009 98.1535 19.7986C101.484 19.7903 104.813 19.795 108.144 19.795C109.899 19.795 109.899 19.795 110.5 21.3669C110.5 21.563 110.5 21.7579 110.5 21.9539C109.405 21.9704 108.31 21.9704 107.215 22.0067C106.49 22.0302 106 22.5115 106.005 23.1326C106.01 23.7501 106.508 24.1821 107.253 24.1903C108.188 24.1997 109.124 24.1926 110.142 24.1926C110.031 24.4861 109.957 24.7233 109.853 24.9487C109.152 26.4677 108.005 27.5771 106.523 28.3554C106.223 28.5127 105.85 28.6102 105.51 28.6114C102.06 28.6301 98.6082 28.6231 95.1581 28.6219C94.969 28.6219 94.78 28.6055 94.5885 28.5973C94.6902 27.6699 94.8218 26.8011 94.8733 25.9277C95.0863 22.2756 94.0224 19.1376 90.8104 17.0222C88.3967 15.4315 85.6693 15.0441 82.8511 15.6299C78.9438 16.4434 76.2201 18.6493 75.0294 22.4705C74.869 22.987 74.6679 23.1185 74.1414 23.1173C63.1711 23.1009 52.202 23.1056 41.2317 23.1056C40.972 23.1056 40.7123 23.1009 40.455 23.122C39.8818 23.169 39.4474 23.6162 39.4295 24.1551C39.4127 24.6869 39.8292 25.1787 40.3892 25.2574C40.6238 25.2903 40.8667 25.2809 41.1061 25.2809C51.9962 25.282 62.8863 25.282 73.7764 25.282C74.0301 25.282 74.285 25.282 74.5926 25.282C74.5926 26.4173 74.5926 27.4832 74.5926 28.582C61.5543 28.582 48.5065 28.582 35.4264 28.582C35.5018 27.9598 35.5832 27.3811 35.6383 26.8C35.8992 24.0764 35.4408 21.5055 33.6374 19.3454C30.7892 15.9339 27.0578 14.7846 22.7269 15.7132C19.0829 16.4951 16.5136 18.6516 15.3061 22.1641C14.9566 23.1807 14.8561 24.2983 14.7664 25.3783C14.6778 26.4372 14.7472 27.5102 14.7472 28.6219C13.3052 28.6219 11.9254 28.5409 10.5611 28.6442C9.17052 28.7499 7.97978 28.3625 6.85248 27.6405C6.28523 27.2766 5.6797 26.9584 5.16152 26.537C4.31544 25.8491 3.52561 25.093 2.71304 24.3664C2.75014 24.3088 2.78843 24.2502 2.82553 24.1926C2.93563 24.1926 3.04573 24.1926 3.15582 24.1926C4.87072 24.1926 6.58681 24.1997 8.3017 24.1879C9.09273 24.1832 9.55705 23.6855 9.48166 22.9694C9.41824 22.3625 8.93476 22.0021 8.14373 22.0009C5.98965 21.9974 3.83556 22.0067 1.68147 21.9938C1.5247 21.9927 1.27698 21.8929 1.22672 21.7743C0.666656 20.4642 0.384231 19.1036 0.544591 17.6056C0.783934 17.6056 0.996949 17.6056 1.21116 17.6056C5.07895 17.6056 8.94673 17.6068 12.8145 17.6045C13.4751 17.6045 13.9358 17.1983 13.9861 16.5972C14.034 16.022 13.663 15.5606 13.0347 15.4374C12.842 15.3998 12.6386 15.4021 12.4399 15.4021C9.09034 15.3986 5.74073 15.3974 2.39112 15.3963C2.20204 15.3963 2.01296 15.3963 1.82268 15.3963C1.78918 15.347 1.75447 15.2977 1.72096 15.2472C2.43779 14.3961 3.10676 13.5004 3.87864 12.7021C6.88359 9.59112 10.609 7.53907 14.5761 5.88146C21.322 3.06282 28.3993 1.46273 35.6335 0.457838C36.7309 0.306399 37.8283 0.152613 38.9244 0ZM52.0321 11.0128C52.0321 11.0163 52.0321 11.0198 52.0321 11.0233C54.325 11.0233 56.6179 11.0233 58.912 11.0233C59.7688 11.0233 60.6269 11.0386 61.4837 11.0175C61.7003 11.0116 61.9145 10.893 62.1288 10.8261C62.0294 10.6265 61.9612 10.4035 61.8248 10.2321C61.5926 9.94095 61.3126 9.68503 61.0601 9.40916C59.0005 7.15166 56.9518 4.88361 54.8683 2.64607C54.6481 2.41011 54.2245 2.24106 53.8942 2.23871C49.7069 2.21171 45.5184 2.21875 41.3298 2.2258C41.0343 2.2258 40.7315 2.25749 40.4455 2.32676C39.597 2.53572 39.2978 3.01704 39.4725 3.84701C39.609 4.49503 39.6951 5.15948 39.9046 5.78402C40.4191 7.31602 40.9708 8.83862 41.556 10.346C41.7451 10.8343 42.1843 11.028 42.7611 11.0245C45.851 11.001 48.941 11.0128 52.0321 11.0128ZM37.6045 2.92077C34.645 3.58757 31.8734 4.45864 29.2334 5.7218C26.9262 6.82648 24.7865 8.16126 22.9447 9.92569C22.7377 10.1241 22.6264 10.4211 22.4708 10.6711C22.7903 10.7874 23.1099 10.9083 23.4318 11.0175C23.5036 11.0409 23.5897 11.021 23.6699 11.021C27.9554 11.021 32.2396 11.021 36.525 11.021C37.5889 11.021 38.654 11.021 39.7729 11.021C39.098 8.26456 38.6229 5.55627 37.6045 2.92077ZM67.9352 11.0233C67.9352 11.0198 67.9352 11.0175 67.9352 11.0139C68.8124 11.0139 69.6884 11.0222 70.5644 11.0081C70.7978 11.0045 71.0467 10.9729 71.2585 10.8848C71.7444 10.6864 72.3439 10.5502 72.4301 9.92922C72.5151 9.31289 71.9753 9.04876 71.5409 8.79871C68.9512 7.30897 66.3759 5.79106 63.7383 4.38468C62.0474 3.48309 60.2978 2.65429 58.3783 2.29154C57.8828 2.19762 57.2462 1.99336 56.9494 2.50989C56.6466 3.03699 57.1672 3.45139 57.5226 3.80358C59.8801 6.13268 62.246 8.45239 64.6263 10.7592C64.7855 10.913 65.0727 11.0022 65.3048 11.0104C66.1808 11.0398 67.058 11.0233 67.9352 11.0233Z" fill="#D92E10"/>
<path d="M25.1483 32.9915C20.882 32.995 17.36 29.5647 17.3564 25.4019C17.3529 21.0301 20.8185 17.6151 25.262 17.6128C29.5247 17.6104 33.0562 21.0818 33.0586 25.2775C33.0621 29.5835 29.5701 32.9879 25.1483 32.9915ZM19.6302 25.2317C19.6194 28.2734 22.1026 30.7457 25.177 30.7539C28.2549 30.7621 30.7776 28.3332 30.7848 25.3514C30.7932 22.2604 28.3734 19.8327 25.2703 19.8186C22.1409 19.8057 19.641 22.2053 19.6302 25.2317Z" fill="#D92E10"/>
<path d="M76.8228 25.2924C76.8276 21.0486 80.3508 17.5937 84.6542 17.6089C89.0066 17.6242 92.5788 21.0967 92.5273 25.3276C92.4735 29.7804 88.796 33.1355 84.3789 32.9958C80.3053 32.8679 76.7702 29.5432 76.8228 25.2924ZM84.7403 19.8195C81.6504 19.7784 79.1229 22.1756 79.0631 25.202C79.0033 28.2061 81.5367 30.7266 84.6434 30.7548C87.689 30.7818 90.2225 28.3447 90.2524 25.3581C90.2811 22.3118 87.8422 19.8606 84.7403 19.8195Z" fill="#D92E10"/>
</svg>
