<svg width="111" height="30" viewBox="0 0 111 30" fill="none" xmlns="http://www.w3.org/2000/svg">
<path d="M95.2608 27.2214C99.5717 27.2214 103.701 27.2856 107.831 27.1938C109.945 27.1479 110.752 25.9952 110.432 23.9654C110.28 22.9964 110.022 22.0137 110.079 21.0539C110.218 18.6016 108.929 17.1412 106.714 16.3421C102.703 14.8864 98.7315 13.2745 94.6115 12.1769C91.117 11.2492 87.4554 10.6247 83.8415 10.4685C79.1726 10.2665 75.0479 8.66835 71.3815 6.29871C60.3537 -0.83318 48.5334 -1.12709 36.1211 1.5732C26.9026 3.58005 17.6078 5.27921 8.34631 7.12073C4.25504 7.93357 2.97084 9.3526 2.47435 13.4719C2.39796 14.1057 2.25952 14.8588 1.84896 15.3043C-0.246796 17.5775 0.139893 22.4775 2.72737 24.1583C3.88744 24.9114 5.21937 25.4166 6.89502 26.2432C5.32439 20.3375 6.47491 15.7451 12.0366 13.0586C15.8987 11.1941 19.7083 11.7544 22.9307 14.4593C27.0888 17.9448 27.4564 22.2708 25.1697 27.0974C42.6328 27.0974 59.924 27.0974 77.4492 27.0974C75.0431 21.4718 75.8356 16.5993 81.5452 13.3066C85.2212 11.1895 89.5989 11.7406 92.8929 14.3858C96.6166 17.3708 97.3661 21.1549 95.2608 27.2214ZM69.2953 10.2022C69.2428 10.4456 69.1903 10.6936 69.1378 10.937C55.1549 11.0334 41.3438 9.81184 27.8909 5.59149C30.9557 4.72813 34.0588 4.23216 37.0855 3.46983C50.7103 0.0301778 63.1512 2.24368 74.3032 10.6476C72.8328 10.9278 71.5247 10.9737 70.2835 9.5317C69.4194 8.53058 68.0875 7.6764 66.7985 7.3182C65.9774 7.08859 64.7935 7.7958 63.8864 8.28259C63.6047 8.43414 63.5475 9.63733 63.6382 9.66488C64.5548 9.96797 65.5143 10.2206 66.4787 10.294C66.9799 10.3308 67.5098 9.88991 68.0397 9.84857C68.4455 9.81643 68.8752 10.0736 69.2953 10.2022ZM65.9583 22.5142C66.006 22.5418 66.0538 22.5739 66.1063 22.6015C62.7072 22.6015 59.2939 22.7484 55.9044 22.5739C48.3138 22.1836 40.8808 21.0309 34.1734 17.2652C28.5974 14.1332 22.8639 11.4008 16.3761 10.3951C17.5027 10.2894 18.6055 10.2665 19.6844 10.4134C24.8737 11.1023 29.7049 12.7601 34.0922 15.5247C37.9973 17.9908 42.1888 19.8047 46.8243 20.3926C53.1928 21.2008 59.5803 21.8162 65.9583 22.5142ZM97.1608 15.7589C99.734 16.2089 102.078 16.4983 104.346 17.0677C105.577 17.38 106.928 17.954 107.754 18.822C108.37 19.4695 108.232 20.7783 108.427 21.7932C107.482 21.9494 106.475 22.3902 105.601 22.2203C101.749 21.458 99.4475 18.7301 97.1608 15.7589ZM3.1236 13.9082C4.02589 12.5121 3.0329 10.5053 5.36736 10.6293C5.96888 10.6614 7.03347 11.8141 6.98096 12.3744C6.79478 14.3491 5.17163 14.0046 3.1236 13.9082ZM41.7114 11.4054C43.6162 9.92205 45.9698 10.3813 47.1251 12.3698C45.0341 11.9978 43.3728 11.7039 41.7114 11.4054Z" fill="#D92E10"/>
<path d="M86.1231 13.8123C81.3682 13.9363 77.8355 17.5826 77.993 22.2071C78.1506 26.7627 81.9793 30.1518 86.7819 29.9865C91.3887 29.8258 94.8976 26.1978 94.8069 21.6882C94.7162 17.1372 90.9113 13.6883 86.1231 13.8123ZM87.9276 16.8111C87.4359 18.2301 87.0635 19.291 86.6912 20.3564C86.4763 20.3472 86.2615 20.3334 86.0467 20.3242C85.6934 19.2313 85.3449 18.1429 84.9152 16.8111C85.9894 16.8111 86.7294 16.8111 87.9276 16.8111ZM91.9616 20.4574C91.6895 21.6239 91.5224 22.3311 91.3601 23.0429C90.2525 22.7536 89.1497 22.4689 88.0422 22.1795C88.0899 21.9362 88.1377 21.6973 88.1902 21.454C89.2643 21.1692 90.3432 20.8891 91.9616 20.4574ZM83.5642 16.857C84.3758 18.524 84.8866 19.5757 85.4022 20.6273C85.2351 20.7467 85.068 20.8615 84.9009 20.9809C83.8698 20.4345 82.8338 19.888 81.4971 19.1808C82.2323 18.3541 82.7192 17.8031 83.5642 16.857ZM84.6861 21.5412C84.6909 21.7708 84.6909 22.005 84.6956 22.2346C83.5738 22.5745 82.4519 22.9143 80.972 23.3644C81.034 22.2301 81.077 21.4861 81.1391 20.4207C82.576 20.8753 83.6311 21.206 84.6861 21.5412ZM87.9658 26.9556C86.7055 26.9556 85.9846 26.9556 84.8914 26.9556C85.3449 25.6238 85.7125 24.563 86.0753 23.4975C86.2711 23.4929 86.462 23.4838 86.6577 23.4792C87.0492 24.5262 87.4407 25.5687 87.9658 26.9556ZM89.1641 17.1647C89.9518 18.0694 90.4817 18.6756 91.1739 19.4747C89.7608 20.0809 88.7535 20.5171 87.7462 20.9488C87.6173 20.8064 87.4884 20.6641 87.3595 20.5171C87.9037 19.5068 88.448 18.4965 89.1641 17.1647ZM91.3314 24.4895C90.4053 25.3253 89.8563 25.8213 89.0495 26.5514C88.4146 25.2426 87.9037 24.1864 87.3929 23.1256C87.5505 23.0199 87.7128 22.9143 87.8703 22.8041C88.8919 23.3047 89.9136 23.8006 91.3314 24.4895ZM84.9869 22.8133C85.1349 22.9556 85.2876 23.098 85.4356 23.2404C84.8723 24.2736 84.309 25.3069 83.612 26.5928C82.8147 25.757 82.3134 25.2334 81.5878 24.4757C82.8911 23.8374 83.9414 23.323 84.9869 22.8133Z" fill="#D92E10"/>
<path d="M16.3563 29.9996C21.1255 29.9583 24.8396 26.3855 24.8301 21.8483C24.8205 17.311 21.0634 13.7841 16.2704 13.8117C11.5394 13.8392 7.86823 17.4626 7.92552 22.0503C7.98281 26.4498 11.7876 30.0364 16.3563 29.9996ZM14.9003 22.358C13.7211 22.6381 12.5467 22.9183 11.3675 23.1984C11.1479 23.0514 10.9236 22.9091 10.7039 22.7621C11.1957 21.7931 11.6874 20.8242 12.1839 19.8552C11.8449 18.0274 12.561 17.435 14.3703 18.1285C15.0339 16.7875 15.9744 16.1675 17.7742 17.0998C17.4161 18.1606 17.0533 19.226 16.6905 20.2915C16.4422 20.4017 16.1892 20.5119 15.941 20.6221C15.7309 20.2134 15.5209 19.8047 15.3108 19.4005C15.4779 20.5854 15.2535 21.2421 13.8357 20.4889C13.2962 20.1996 12.6899 20.0205 12.117 19.7955C12.5181 20.2134 12.9 20.6588 13.3248 21.0492C13.8261 21.5084 14.3703 21.9263 14.8955 22.358C14.7332 23.6898 14.5756 25.017 14.3465 26.9366C13.1482 25.9079 12.456 25.3109 11.6635 24.6312C12.9143 23.7541 13.9073 23.056 14.9003 22.358ZM18.5666 22.7897C17.9794 19.8644 20.4428 21.3431 21.6411 20.4843C21.6411 21.6003 21.6411 22.3213 21.6411 23.1433C20.481 22.9917 19.4928 22.8632 18.5094 22.7346C19.3162 23.1846 20.1277 23.6393 21.1303 24.1995C20.5669 24.8654 19.9033 25.6507 19.0393 26.6748C18.4282 25.4946 17.9174 24.7965 17.7407 24.025C17.6644 23.6898 18.2754 23.2076 18.5666 22.7897ZM17.9174 27.1524C16.6045 27.056 15.8312 26.9963 14.7141 26.9136C15.3156 25.5038 15.7548 24.4751 16.194 23.4464C16.3945 23.4693 16.5902 23.4923 16.7907 23.5199C17.1154 24.5577 17.4352 25.5956 17.9174 27.1524ZM21.2973 19.3041C19.8508 19.9562 18.7528 20.4522 17.6548 20.9482C17.5402 20.7966 17.4304 20.6451 17.3159 20.4935C17.8171 19.5016 18.3184 18.5142 18.9772 17.2054C19.7935 17.9402 20.3807 18.4729 21.2973 19.3041Z" fill="#D92E10"/>
<path d="M41.7113 11.4053C43.3727 11.7038 45.034 11.9977 47.125 12.3697C45.9697 10.3812 43.6161 9.92195 41.7113 11.4053Z" fill="white"/>
</svg>
