<svg width="77" height="40" viewBox="0 0 77 40" fill="none" xmlns="http://www.w3.org/2000/svg">
<path d="M0.00428426 32.9476C0.00428426 30.5587 -0.0170361 28.3442 0.0354457 26.1313C0.0403659 25.8994 0.437258 25.5966 0.716068 25.4634C3.69769 24.0419 6.65307 22.5578 9.69046 21.2647C14.8845 19.0518 20.0802 16.8241 25.3678 14.8531C33.4778 11.8307 41.7486 9.30692 50.208 7.42475C56.4517 6.03615 62.7446 4.97825 69.1244 4.55377C71.7026 4.38266 74.3021 4.5258 77 4.5258C76.6556 5.22668 76.3276 5.92427 75.9733 6.6087C72.0224 14.2345 68.0617 21.857 64.1256 29.4893C63.8517 30.0207 63.522 30.307 62.9398 30.4682C56.9421 32.1283 50.8772 32.1579 44.7532 31.3731C39.6477 30.7183 34.721 29.2787 29.7287 28.1122C21.1479 26.1083 12.8148 26.9178 4.79325 30.6097C3.53204 31.1905 2.35448 31.9506 1.1228 32.5988C0.814471 32.7601 0.448739 32.8127 0.00428426 32.9476ZM42.9557 16.523C42.9475 15.373 42.0684 14.4763 40.9417 14.4681C39.7937 14.4599 38.831 15.4092 38.8375 16.5428C38.8441 17.6879 39.7953 18.6141 40.9532 18.6059C42.0455 18.5961 42.9655 17.6402 42.9557 16.523ZM36.3807 18.6832C36.3922 17.502 35.5115 16.5526 34.3831 16.5263C33.2892 16.5016 32.2724 17.4888 32.2576 18.5878C32.2429 19.7115 33.1875 20.6707 34.3274 20.6888C35.4131 20.7069 36.3692 19.7708 36.3807 18.6832ZM28.046 22.7355C29.1891 22.7289 30.096 21.8438 30.1042 20.7283C30.1124 19.6079 29.1317 18.6125 28.0246 18.6174C26.9061 18.6224 25.986 19.5404 25.986 20.6543C25.986 21.8487 26.87 22.7421 28.046 22.7355Z" fill="#D92E10"/>
<path d="M19.468 14.8037C18.8481 12.7471 18.2593 10.7926 17.6213 8.6784C19.6681 7.98246 21.646 7.30297 23.6289 6.64157C24.198 6.45237 24.79 6.33391 25.3608 6.15128C26.1923 5.8864 26.5564 5.28094 26.3628 4.53893C26.1841 3.84628 25.4805 3.44484 24.6621 3.69327C22.4989 4.34973 20.352 5.05883 18.2003 5.75313C17.7886 5.8864 17.3885 6.05751 16.9079 6.23848C16.6849 5.55241 16.4766 4.9157 16.2945 4.35631C14.42 4.35631 12.588 4.35631 10.7561 4.35631C10.7331 4.26253 10.7085 4.16875 10.6855 4.07497C11.4892 3.74592 12.283 3.39712 13.0948 3.09275C19.3992 0.740029 25.9413 -0.0365316 32.6328 0.0013093C36.0687 0.0210524 39.3193 0.937461 42.6207 1.64328C46.3568 2.44123 50.0781 3.30992 53.8043 4.149C53.9797 4.18849 54.1487 4.24936 54.3209 4.3596C42.2779 6.33062 30.7221 9.90412 19.468 14.8037Z" fill="#D92E10"/>
<path d="M71.5696 28.5205C70.0559 30.1625 68.2797 31.4474 66.3608 32.5267C62.3525 34.7774 58.0326 36.0262 53.4798 36.5773C46.4719 37.4246 39.6755 36.5379 32.9644 34.4286C25.5546 32.1022 17.9874 31.1463 10.2496 32.4362C7.06624 32.966 3.96161 33.7952 0.970153 35.0291C0.696264 35.1427 0.419093 35.2414 0.0566406 35.2184C0.679862 34.7906 1.28504 34.3332 1.92795 33.9367C6.5857 31.069 11.6338 29.381 17.0739 28.8084C22.1482 28.2754 27.093 28.8858 31.977 30.2546C36.8726 31.6268 41.8338 32.7093 46.8966 33.198C52.9009 33.7771 58.8625 33.4843 64.6322 31.5527C66.7446 30.8453 68.7504 29.817 70.8021 28.9269C71.0661 28.8117 71.3138 28.6571 71.5696 28.5205Z" fill="#D92E10"/>
<path d="M44.2564 38.3656C40.7516 39.6423 37.3189 40.0355 33.8076 39.9977C29.4893 39.9516 25.4302 38.6552 21.312 37.5808C14.3827 35.7727 7.53714 35.9898 0.847354 38.7292C0.747311 38.7703 0.642347 38.7983 0.537384 38.8246C0.517703 38.8295 0.491462 38.8032 0.201172 38.6502C2.08396 37.691 3.76173 36.6825 5.55103 35.9503C11.5372 33.4989 17.6104 33.6684 23.7589 35.4189C28.4954 36.7664 33.3237 37.5709 38.2882 37.5578C40.2103 37.5512 42.1374 38.0629 44.2564 38.3656Z" fill="#D92E10"/>
<path d="M22.0473 33.7109C25.7259 34.0482 29.2898 34.9301 32.8159 35.988C32.7946 36.0883 32.7732 36.1887 32.7519 36.2874C29.1651 35.5125 25.58 34.7376 21.9932 33.9643C22.0112 33.8804 22.0292 33.7948 22.0473 33.7109Z" fill="#D92E10"/>
</svg>
