<svg width="71" height="40" viewBox="0 0 71 40" fill="none" xmlns="http://www.w3.org/2000/svg">
<path d="M54.7056 1.28088C55.0048 0.839591 55.2818 0.43237 55.5754 0C56.4326 0.510245 56.8692 1.29143 57.0843 2.22999C57.0962 2.28272 57.1176 2.33707 57.1128 2.38898C57.0597 3.01929 57.4224 3.37378 57.874 3.72422C60.1408 5.47803 61.9266 7.70883 63.6719 9.96803C64.414 10.9285 65.0863 11.9571 65.6903 13.0141C66.2855 14.054 65.9943 14.6381 64.8371 14.9431C64.0569 15.1492 63.2616 15.2944 62.4782 15.4899C60.9218 15.8784 59.4852 16.5493 58.147 17.4457C58.0978 17.4781 58.0581 17.5252 58.0232 17.5965C59.1479 17.1991 60.286 17.0482 61.4543 17.3013C62.5449 17.5373 63.5822 17.9283 64.6307 18.4516C64.3402 18.6892 64.0807 18.9018 63.791 19.1395C66.9308 20.5063 69.0738 22.785 70.0516 26.1044C70.8136 28.693 70.5977 31.2442 69.4556 33.6867C67.1483 38.6188 61.6647 40.8634 56.7684 39.1874C51.5229 37.3923 48.3179 31.5362 50.1521 25.6323C50.0553 25.8781 49.9434 26.1182 49.8632 26.3697C49.4442 27.6863 49.4378 29.0572 49.3696 30.4184C49.3053 31.7001 49.268 32.9834 49.218 34.2659C49.2148 34.3438 49.2005 34.4208 49.1886 34.5214C40.3762 34.5214 31.5837 34.5214 22.7055 34.5214C22.9261 34.2002 23.1229 33.9114 23.3229 33.625C23.4841 33.3947 23.6619 33.1748 23.8103 32.9363C24.2198 32.2785 24.6389 31.64 25.5405 31.5605C25.2715 30.8183 25.0262 30.1409 24.7635 29.4149C24.0301 29.6615 23.3166 29.8903 22.6142 30.1523C22.5229 30.1864 22.4594 30.3835 22.4372 30.5141C21.9824 33.2284 20.7474 35.4973 18.7068 37.2933C13.7272 41.677 6.05536 40.6054 2.38612 35.0236C-0.108454 31.2271 -0.130678 26.261 2.33215 22.4848C6.28474 16.4236 14.7225 15.7065 19.5902 21.0182C19.6966 21.1342 19.8045 21.2494 19.9251 21.38C20.422 21.019 20.8935 20.6767 21.4244 20.2905C20.9546 20.0009 20.5228 19.7316 20.0886 19.468C19.0545 18.8401 18.0163 18.2196 16.9877 17.5828C16.8393 17.4903 16.7035 17.3426 16.6154 17.1877C16.2305 16.5136 15.8654 15.8273 15.4511 15.0697C16.3662 15.253 17.2107 15.3893 18.0362 15.601C18.5084 15.7219 18.8584 15.657 19.2092 15.3065C19.5164 14.9991 19.8855 14.7573 20.2918 14.4361C19.437 14.1822 18.6568 13.9535 17.8774 13.7174C16.775 13.3824 15.6765 13.0392 14.6892 12.4041C14.4296 12.237 14.1312 12.099 13.8328 12.0342C12.2811 11.6991 10.7223 11.3974 9.16902 11.0688C8.90948 11.0137 8.72932 11.068 8.52772 11.244C6.65698 12.8729 4.77673 14.4913 2.89726 16.1104C2.80757 16.1875 2.68931 16.3124 2.60359 16.2978C2.12103 16.2167 1.95594 16.5558 1.87498 16.9054C1.70593 17.6379 1.13288 17.6679 0.558248 17.8018C0.56936 17.7126 0.564597 17.6582 0.582852 17.6144C1.06462 16.4592 1.55592 15.3082 2.02658 14.1481C2.12103 13.9145 2.25119 13.8358 2.47581 13.8731C2.94488 13.951 3.30601 13.7693 3.64095 13.4367C4.09097 12.9897 4.5783 12.5809 5.09738 12.1128C4.48068 12.0049 3.99414 12.0131 3.71397 12.6198C3.55999 12.9524 3.30443 13.1001 2.93615 12.9638C2.92425 12.9468 2.89409 12.9232 2.89647 12.9046C2.98774 12.271 2.75916 11.8232 2.19246 11.5288C2.09722 11.4793 2.05357 11.2546 2.05833 11.1126C2.05991 11.0583 2.25993 10.9772 2.37501 10.965C3.65048 10.8295 4.92673 10.6965 6.20458 10.5845C6.48237 10.5602 6.65619 10.4734 6.7181 10.1408C6.07521 9.84148 5.41962 9.53079 4.76085 9.22902C3.95287 8.8583 3.14648 8.48353 2.33136 8.13147C1.50195 7.77373 1.19558 7.08015 1.11225 6.23326C1.09637 6.07426 1.10986 5.91284 1.10986 5.77412C1.16225 5.73599 1.18447 5.70598 1.20431 5.7076C1.80435 5.76844 2.3131 5.56321 2.83138 5.25495C3.24093 5.01159 3.74334 4.93128 4.23146 4.76904C3.87033 4.16308 3.51555 3.56685 3.13616 2.93005C3.24966 2.92032 3.3322 2.90247 3.41395 2.90734C4.07431 2.94547 4.73466 2.98035 5.39342 3.03227C5.69106 3.05579 5.95933 3.12474 6.18394 2.79377C6.26728 2.67128 6.57285 2.65181 6.76889 2.6729C8.55708 2.8611 10.3437 3.06633 12.1303 3.27076C13.6677 3.44679 15.2035 3.63742 16.7416 3.80047C17.094 3.83779 17.2782 4.00408 17.2226 4.33749C17.1171 4.96941 16.9805 5.59809 16.8147 6.21623C16.771 6.38009 16.571 6.49933 16.3885 6.69808C16.6535 7.07853 16.9631 7.52145 17.2726 7.96517C17.2948 7.92056 17.3163 7.87594 17.3385 7.83132C17.6147 7.89865 17.9274 7.90271 18.1608 8.04386C19.4489 8.8218 20.8292 9.35881 22.2824 9.67761C22.8261 9.79686 23.4095 9.7563 23.9738 9.74089C25.8763 9.68978 27.7787 9.6111 29.6812 9.55837C29.932 9.55107 30.0503 9.46427 30.1519 9.23227C31.3742 6.44579 33.9441 4.8526 36.9102 5.00348C38.815 5.10001 40.6453 5.56321 42.4573 6.1278C42.6954 6.20162 42.9057 6.26084 43.1732 6.13348C43.5947 5.93312 44.5265 6.35494 44.7582 6.76946C44.8154 6.87168 44.9289 6.96091 45.0368 7.00877C45.8138 7.35028 46.6075 7.65286 47.3695 8.02682C47.6742 8.17608 47.9012 8.48515 48.1814 8.69687C48.3147 8.79827 48.4894 8.84289 48.7354 8.95403C48.633 8.38862 48.5457 7.95868 48.4782 7.52631C48.3632 6.78974 48.4965 6.4174 49.1688 6.17161C49.9712 5.87795 50.8165 5.70436 51.6498 5.50805C51.7602 5.48209 51.9562 5.59566 52.0332 5.70355C52.2737 6.04182 52.5618 6.16836 52.9753 6.13591C53.4864 6.09536 54.0031 6.12618 54.5817 6.12618C54.5817 6.78569 54.6048 7.41599 54.573 8.04386C54.554 8.41458 54.6579 8.68633 54.9175 8.93618C55.1762 9.18603 55.4016 9.47157 55.6429 9.74008C55.8636 9.98587 56.5334 10.1692 56.8168 10.0135C56.9287 9.95261 57.039 9.73927 57.0176 9.61921C56.9977 9.50564 56.7977 9.33691 56.6882 9.34502C56.2461 9.37828 56.162 8.9597 55.9247 8.74717C55.885 8.71147 56.0215 8.43729 56.1104 8.29533C56.2382 8.09091 56.3937 7.90514 56.543 7.71532C56.9216 7.23266 56.9255 7.23022 56.4517 6.83355C55.3572 5.91689 54.1047 5.27686 52.8237 4.69036C51.7141 4.18255 50.6006 3.68609 49.4902 3.18071C49.3458 3.11501 49.2132 3.02415 49.0751 2.94466C48.8576 2.81973 48.8457 2.64532 49.0092 2.48308C49.1878 2.30624 49.3759 2.1148 49.5966 2.01096C50.7601 1.46584 51.9332 0.93937 53.111 0.427503C53.2261 0.377208 53.4214 0.423446 53.5388 0.494831C53.9222 0.730079 54.2881 0.996153 54.7056 1.28088ZM40.9405 19.2254C40.9524 19.2822 40.9644 19.339 40.9763 19.3958C41.989 19.9863 43.0684 20.3092 44.2145 19.8695C45.2376 19.4769 46.244 19.0202 47.2131 18.5035C48.4767 17.8294 49.6982 17.0725 50.9292 16.3368C51.0601 16.2589 51.1339 16.0812 51.2339 15.9498C51.107 15.8663 50.9895 15.7357 50.8514 15.7065C50.3093 15.5929 49.7632 15.4858 49.2132 15.429C48.9672 15.4039 48.6846 15.4477 48.4608 15.5548C46.3305 16.572 44.209 17.6087 42.0866 18.643C41.7009 18.8304 41.3215 19.0308 40.9405 19.2254ZM26.4088 21.2794C26.5818 20.3319 26.512 19.5118 25.8469 18.7914C25.1318 18.0159 24.4682 17.1893 23.8031 16.3676C23.5999 16.1169 23.4357 16.1161 23.169 16.2516C22.4356 16.6239 21.6848 16.9622 20.9427 17.3167C20.3617 17.5949 19.7831 17.878 19.1243 18.1968C21.6054 19.2457 24.0008 20.2597 26.4088 21.2794ZM4.79974 30.9684C5.07357 31.7366 5.4593 32.4667 5.98314 33.1156C6.22204 33.4117 6.5538 33.4417 6.83953 33.2292C7.47607 32.7571 8.08563 32.2468 8.73249 31.7317C7.62767 30.5303 7.52211 29.1407 7.69355 27.5816C6.77048 27.5427 5.89186 27.4818 5.01245 27.4778C4.57275 27.4753 4.37353 27.726 4.36004 28.1787C4.35131 28.4885 4.35131 28.8025 4.3902 29.1091C4.44972 29.5796 4.54497 30.0452 4.6283 30.5303C4.84736 30.446 4.97912 30.3949 5.10611 30.3454C5.47676 30.8069 4.91007 30.7404 4.79974 30.9684ZM11.0413 23.7901C11.0906 23.7836 11.1398 23.7779 11.189 23.7714C10.9929 23.0738 10.7913 22.3786 10.6032 21.6785C10.5358 21.427 10.3921 21.4181 10.1834 21.4684C8.26262 21.9316 6.79032 23.0348 5.74503 24.7343C5.68868 24.826 5.71408 25.0766 5.7863 25.1269C6.50698 25.6355 7.24511 26.1182 8.00309 26.6244C8.61899 25.4482 9.49999 24.7643 10.6159 24.3684C10.6977 24.3392 10.762 24.2395 10.8175 24.16C10.9001 24.0423 10.9675 23.9142 11.0413 23.7901ZM9.60158 32.3734C9.32935 33.1602 9.07775 33.8814 8.83011 34.605C8.76583 34.7932 8.79519 34.9351 9.00711 35.0219C10.854 35.7796 12.6938 35.7561 14.5209 34.9651C14.6161 34.9238 14.7233 34.7056 14.6963 34.6074C14.5518 34.0891 14.3764 33.5788 14.1852 33.0759C14.1542 32.9947 13.9851 32.9136 13.8883 32.9234C12.4557 33.0645 11.0358 33.1043 9.60158 32.3734ZM64.5616 27.2279C65.1831 26.8337 65.7792 26.4686 66.3554 26.0728C66.4363 26.0168 66.4871 25.7743 66.4379 25.681C65.5077 23.9085 64.0997 22.7185 62.2083 22.149C62.094 22.1149 61.844 22.2115 61.8059 22.308C61.548 22.9634 61.3297 23.6351 61.0876 24.3328C62.7377 24.7181 63.8426 25.6802 64.5616 27.2279ZM64.8601 28.4439C65.0236 30.128 64.4823 31.5054 63.2909 32.693C63.8037 33.131 64.2838 33.5285 64.7482 33.9447C64.991 34.1621 65.1577 34.1288 65.368 33.8887C66.6411 32.435 67.2785 30.7437 67.2467 28.7887C67.2427 28.5656 67.1618 28.4496 66.957 28.4472C66.2744 28.439 65.5911 28.4439 64.8601 28.4439ZM57.7748 33.1927C57.5168 33.84 57.2732 34.4476 57.0335 35.0568C56.9438 35.284 57.0485 35.4186 57.2581 35.4811C57.9645 35.692 58.6708 35.9045 59.3804 36.1041C59.4963 36.1365 59.628 36.1089 59.7479 36.1089C59.79 35.5963 59.79 35.5963 60.1368 35.7017C60.1543 35.8437 60.1717 35.9865 60.1924 36.156C61.0654 36.1755 61.8869 36.0165 62.6814 35.7074C62.7647 35.6749 62.879 35.5208 62.8623 35.4527C62.6949 34.7575 62.5028 34.068 62.3131 33.3606C60.7329 34.042 59.2812 34.0233 57.7748 33.1927ZM63.9259 14.3193C64.2196 14.3193 64.4172 14.3266 64.6148 14.3161C64.7188 14.3104 64.8236 14.2828 64.9244 14.2512C65.3196 14.1287 65.4538 13.9121 65.4022 13.4919C65.2704 12.4089 64.4029 11.4322 63.3576 11.2367C62.3734 11.0526 61.3829 10.9058 60.3963 10.7387C60.1384 10.6949 60.0725 10.819 60.1535 11.0348C60.2566 11.3106 60.3582 11.5945 60.5146 11.8395C61.3504 13.1528 62.2337 14.411 63.9259 14.3193ZM56.7882 32.4326C56.5414 32.0692 56.2541 31.799 56.1533 31.4689C55.8866 30.592 55.3556 30.3543 54.5405 30.6041C54.3397 30.6658 54.2524 30.5668 54.2151 30.3713C54.1516 30.0412 54.0865 29.7094 53.9976 29.3857C53.923 29.1148 53.973 28.9128 54.1547 28.6889C54.3452 28.4545 54.4619 28.1576 54.6683 27.7836C54.2285 27.7836 53.9285 27.7909 53.6293 27.7812C53.392 27.7739 53.315 27.8915 53.2904 28.1194C53.0833 30.0736 53.5531 31.8331 54.7087 33.4076C54.873 33.6315 55.0286 33.6599 55.2397 33.5131C55.7516 33.157 56.262 32.8001 56.7882 32.4326ZM15.9099 29.3525C15.5154 29.4701 15.6305 29.7216 15.7718 29.956C15.6424 30.0282 15.5424 30.085 15.4289 30.1482C15.4781 30.2975 15.5209 30.4289 15.5757 30.596C15.1265 30.5847 15.1376 30.8224 15.2757 31.1006C15.1297 31.1476 14.8939 31.1841 14.8923 31.232C14.8844 31.4202 14.909 31.6352 15.0011 31.7925C15.0566 31.8875 15.2765 31.9629 15.3892 31.9296C16.263 31.6709 17.129 31.3853 17.9957 31.103C18.0798 31.0754 18.1981 31.0308 18.2235 30.9635C18.5116 30.1961 18.7037 29.4092 18.6671 28.5461C17.6552 28.7116 16.6956 28.8682 15.6964 29.0312C15.7813 29.1594 15.8368 29.2429 15.9099 29.3525ZM16.8504 23.7454C16.8663 23.6814 16.8813 23.6181 16.8972 23.554C16.7718 23.4567 16.6361 23.3707 16.5218 23.2612C15.6265 22.3989 14.5788 21.8221 13.3907 21.513C13.2605 21.479 13.0073 21.4984 12.9787 21.5674C12.6708 22.295 12.4676 23.0543 12.3747 23.8347C12.9073 23.8906 13.3835 23.9774 13.8613 23.9839C14.6272 23.9937 15.3947 23.9628 16.1599 23.9223C16.3924 23.9093 16.6202 23.8063 16.8504 23.7454ZM46.4535 23.6513C46.4543 23.614 46.4551 23.5767 46.4559 23.5394C43.5407 22.5838 40.6247 21.629 37.7094 20.6734C37.7555 20.7911 37.8261 20.8462 37.9031 20.8908C39.0873 21.5714 40.2969 22.2107 41.4477 22.9448C42.2859 23.4794 43.1351 23.7503 44.1272 23.6651C44.8987 23.5978 45.6781 23.6513 46.4535 23.6513ZM55.6929 24.6507C56.135 24.9793 56.5366 25.2778 56.935 25.5739C57.2041 25.3541 57.4478 25.1553 57.6938 24.9541C57.4073 24.2549 57.1327 23.584 56.8565 22.9132C56.8422 22.8783 56.8136 22.8499 56.7922 22.8199C56.1025 23.1224 55.1746 23.9507 54.5778 24.7943C54.219 25.3013 54.2492 25.4222 54.8214 25.7264C55.1048 25.3776 55.3889 25.0263 55.6929 24.6507ZM21.984 24.4114C22.18 25.0685 22.3483 25.6307 22.5205 26.2066C23.0063 26.1223 23.4722 25.9941 23.9428 25.9681C24.9619 25.9122 25.1492 24.9509 25.7826 24.4114C24.4722 24.4114 23.2587 24.4114 21.984 24.4114ZM29.2963 18.1757C29.2963 17.8204 29.278 17.5779 29.301 17.3402C29.3272 17.0709 29.2098 16.9589 28.9725 16.89C28.6058 16.7829 28.247 16.6474 27.8867 16.5209C26.9501 16.1924 26.9509 16.1924 26.289 17.0214C26.5255 17.3962 26.7652 17.7766 27.0176 18.1782C27.3128 17.9332 27.5914 17.7288 27.8383 17.4895C28.0772 17.2575 28.2645 17.191 28.5169 17.4822C28.7209 17.7174 28.982 17.9007 29.2963 18.1757ZM22.5777 27.9994C22.5777 28.5007 22.5777 28.9663 22.5777 29.4823C23.2483 29.2519 23.8904 29.032 24.546 28.8065C24.4 28.4171 24.2746 28.0813 24.1452 27.7341C23.5999 27.8266 23.0959 27.9118 22.5777 27.9994ZM59.8868 24.1908C59.705 23.4988 59.5296 22.8028 59.3312 22.1125C59.309 22.0354 59.151 21.9413 59.0669 21.9511C58.8113 21.9803 58.5613 22.0565 58.3232 22.1117C58.3232 22.1944 58.3153 22.2228 58.324 22.2447C58.5431 22.7793 58.7645 23.3131 58.9836 23.8477C59.2034 24.383 59.2018 24.383 59.8868 24.1908ZM36.1554 25.5909C34.8688 25.4749 33.9132 24.8746 33.5187 23.5775C33.1258 22.2853 33.5656 21.2299 34.5767 20.3887C33.4282 20.8852 32.8052 22.2772 33.1322 23.5556C33.479 24.9079 34.7339 25.767 36.1554 25.5909ZM22.6602 15.4996C22.6586 15.4688 22.657 15.4371 22.6547 15.4063C22.4292 15.3382 22.207 15.2562 21.9776 15.2068C21.8316 15.1751 21.63 15.124 21.5308 15.1954C20.6506 15.8257 19.7878 16.482 18.9195 17.1309C18.9322 17.1536 18.9457 17.1763 18.9584 17.1991C20.1934 16.6312 21.4268 16.0658 22.6602 15.4996ZM15.7257 32.5088C16.0908 32.7733 16.3813 32.9947 16.6853 33.1967C16.7385 33.2324 16.8829 33.2194 16.9186 33.1748C17.2314 32.7741 17.5282 32.3612 17.8298 31.9524C17.802 31.9223 17.7742 31.8931 17.7465 31.8631C17.1044 32.0675 16.4623 32.2736 15.7257 32.5088ZM13.5264 24.6159C13.5264 24.8081 13.5264 24.9639 13.5264 25.1383C13.6351 25.1139 13.7296 25.0937 13.8232 25.0726C13.8653 25.221 13.8994 25.3443 13.9344 25.4701C14.6272 25.4887 14.9892 24.9752 15.5225 24.6159C14.8003 24.6159 14.1725 24.6159 13.5264 24.6159ZM25.081 23.7446C24.7318 23.4721 24.4801 23.2685 24.219 23.0795C24.1658 23.0405 24.0603 23.0251 24.0031 23.0527C23.5595 23.2628 23.1221 23.485 22.6007 23.7454C23.4587 23.7446 24.2095 23.7446 25.081 23.7446ZM39.5373 27.6003C38.0198 27.0543 37.7967 26.6568 38.138 25.1107C37.7213 25.599 37.6761 26.2683 38.0205 26.8661C38.3452 27.4315 38.969 27.7333 39.5373 27.6003ZM11.6938 28.1008C11.6334 28.1 11.5731 28.0983 11.5128 28.0975C11.4064 28.2541 11.2374 28.4001 11.208 28.5713C11.166 28.8179 11.3128 29.0604 11.585 29.0045C11.7446 28.972 11.9684 28.7611 11.9795 28.6159C11.9922 28.4528 11.7977 28.2727 11.6938 28.1008ZM60.2995 28.6451C60.2376 28.6427 60.1757 28.6394 60.1138 28.637C60.0043 28.7887 59.8328 28.9274 59.8003 29.0945C59.7495 29.3508 59.9098 29.5342 60.1813 29.5407C60.4225 29.5471 60.6225 29.4117 60.5908 29.1626C60.5678 28.9801 60.4019 28.8171 60.2995 28.6451Z" fill="#D92E10"/>
</svg>
