<svg width="55" height="45" viewBox="0 0 55 45" fill="none" xmlns="http://www.w3.org/2000/svg">
<path d="M53.3912 44.436C53.5936 44.4566 53.7959 44.4771 53.9982 44.4988C54.002 44.5353 54.0057 44.5718 54.0094 44.6071C53.6631 44.6436 53.3168 44.7041 52.9692 44.7109C47.9246 44.8136 42.8787 44.9721 37.8329 44.9903C29.8899 45.0189 21.9469 44.9824 14.0051 44.9128C10.2837 44.8809 6.56354 44.7109 2.8434 44.5991C2.58397 44.5912 2.32578 44.5478 2.06759 44.5216C2.06883 44.4714 2.07007 44.4212 2.07255 44.371C3.42432 44.3083 4.77733 44.2456 6.28922 44.1748C3.68623 43.0343 2.77885 41.0611 2.55045 38.6579C2.39281 38.6579 2.23516 38.6682 2.08 38.6557C1.31909 38.5941 0.972771 38.3272 0.786577 37.6417C0.287578 35.8065 0.0430446 33.9463 0.194482 32.0518C0.204412 31.9206 0.235444 31.7746 0.188275 31.6583C-0.12453 30.8861 -0.0227435 30.1858 0.311164 29.4068C0.570593 28.8 0.465083 28.0598 0.508528 27.3778C0.682309 24.6849 0.834988 21.9897 1.02863 19.298C1.13166 17.8666 1.82926 16.6017 2.46356 15.3231C3.19841 13.8404 3.92456 12.3543 4.66189 10.8544C4.4819 10.7324 4.33419 10.6366 4.1902 10.5351C3.75575 10.2282 3.59438 9.83589 3.87987 9.38765C4.28454 8.75236 4.70409 8.12048 5.18075 7.52967C5.35949 7.30954 5.69588 7.13161 5.99379 7.06774C8.40438 6.55335 10.8125 6.02298 13.2417 5.58843C16.9879 4.91778 20.749 4.30872 24.5076 3.6951C25.2698 3.57077 26.0493 3.54226 26.9567 3.45672C26.2268 4.56877 25.3443 5.29417 24.1303 5.55878C22.143 5.99105 20.1408 6.3663 18.1361 6.72785C14.6133 7.36543 11.0856 7.97335 7.5603 8.59724C7.43121 8.62005 7.30832 8.67594 7.19785 8.77517C8.65264 8.5231 10.1037 8.24366 11.5635 8.02239C15.9849 7.35288 20.4064 6.68565 24.8366 6.06861C25.5764 5.96596 26.3597 6.09484 27.1193 6.15415C28.0143 6.22258 28.0478 6.19293 28.2539 5.42761C28.3867 4.93489 28.6014 4.45699 28.8224 3.9905C28.8733 3.88329 29.1377 3.75326 29.237 3.78976C29.9172 4.03955 30.5788 4.33039 31.2901 4.6258C30.7849 5.31242 30.3578 5.8941 29.9296 6.47579C29.9979 6.51685 30.0674 6.55677 30.1357 6.59783C30.6396 5.96824 31.1448 5.33751 31.7605 4.56877C30.7724 4.12623 29.8291 3.70308 28.985 3.32555C29.0955 3.26168 29.3176 3.10428 29.5659 2.99935C29.7558 2.91951 30.0103 2.82598 30.1828 2.87959C30.9375 3.11569 31.7456 3.30046 32.401 3.69281C34.1488 4.73871 35.817 5.8941 37.5362 6.97992C38.389 7.51827 38.9563 8.22085 39.0419 9.16296C39.1288 10.1336 39.9158 10.2431 40.7065 10.421C39.4913 10.2032 39.3758 9.33176 39.13 8.45239C38.9811 7.92316 38.5839 7.35858 38.1184 7.01413C36.3967 5.74355 34.5931 4.56534 32.8404 3.32897C32.6244 3.17614 32.4246 2.9024 32.3836 2.65946C32.1875 1.51776 32.8417 0.618994 34.0693 0.377194C34.69 0.255154 35.3391 0.223219 35.9759 0.219797C36.7952 0.216375 37.6119 0.120568 38.4337 0.373773C39.6539 0.749018 40.4719 1.43108 40.7822 2.58305C41.6821 5.9363 42.0496 9.35229 42.1203 12.7968C42.2233 17.8324 42.2953 22.868 42.3797 27.9024C42.3822 28.0507 42.3797 28.2001 42.3797 28.3986C41.4997 28.3986 40.663 28.3986 39.773 28.3986C39.7482 28.6632 39.7284 28.881 39.7035 29.1513C41.2005 29.4331 42.767 29.416 44.0667 30.2965C43.8879 30.2828 43.7092 30.2691 43.4559 30.2508C43.7712 30.4265 44.0195 30.5656 44.2678 30.7036C44.2491 30.7401 44.2305 30.7766 44.2119 30.8131C43.9897 30.7709 43.7663 30.7287 43.5441 30.6865C43.5354 30.7048 43.5267 30.723 43.518 30.7413C43.7601 30.869 44.0034 30.9968 44.2454 31.1245C44.2293 31.161 44.2119 31.1987 44.1958 31.2351C43.9934 31.2021 43.7911 31.1701 43.4299 31.112C43.7737 31.3139 43.9909 31.4405 44.2082 31.5682C44.1958 31.6036 44.1833 31.6378 44.1709 31.6731C43.9338 31.6355 43.698 31.5967 43.3802 31.5454C43.6881 31.7199 43.9264 31.8545 44.166 31.9902C44.1424 32.0415 44.12 32.0917 44.0965 32.143C43.6819 32.0472 43.2673 31.9514 42.844 31.8533C43.1109 32.2662 43.9959 31.9332 43.9909 32.6072C44.9604 32.6072 45.9472 32.6118 46.9353 32.6061C47.8265 32.6004 48.0574 32.7795 48.0822 33.5744C48.0984 34.0615 48.1902 34.4036 48.8692 34.3808C49.6761 34.3535 50.2197 34.7755 50.4568 35.2864C51.5008 35.2864 52.4429 35.283 53.3863 35.2876C53.92 35.2899 54.1608 35.656 54.2924 36.0312C54.5245 36.695 54.7529 37.3737 54.8473 38.0614C55.0943 39.8624 55.0955 41.661 54.4426 43.4095C54.2552 43.8943 54.0218 44.3334 53.3912 44.436ZM25.0811 28.3267C24.962 28.305 24.8366 28.2971 24.7236 28.2594C24.0968 28.0518 23.5866 28.24 23.1571 28.6575C22.7016 29.1012 22.6172 29.6327 22.8394 30.1915C23.064 30.755 23.5171 31.0675 24.2805 31.1359C24.1489 31.0538 24.108 31.0253 24.062 31.0013C23.3135 30.6044 23.0342 30.0615 23.2142 29.3521C23.3892 28.6632 23.7331 28.4465 24.7174 28.394C24.8403 28.3872 24.9607 28.3495 25.0811 28.3267C24.9123 28.3792 24.746 28.4636 24.5734 28.4773C24.0459 28.5217 23.7083 28.759 23.527 29.2608C23.6574 29.1787 23.7467 29.1217 23.8349 29.0658C24.4121 29.7262 24.5325 29.7615 25.3132 29.5106C25.5156 30.1961 25.3306 30.504 24.6988 30.6341C24.7919 30.471 24.9086 30.2657 25.0253 30.0615C24.7249 30.1003 24.566 30.2189 24.3934 30.317C24.2135 30.4196 24.0198 30.5029 23.8423 30.5896C24.3637 31.0572 24.9855 31.0538 25.4485 30.5542C25.8979 30.0695 25.8892 29.3726 25.4374 28.8229C25.3058 28.6655 25.1978 28.4921 25.0811 28.3267ZM43.0873 34.3215C42.2147 34.2257 41.3433 34.1288 40.3862 34.0238C40.4508 35.0264 40.5128 36.0004 40.5824 36.9745C40.5861 37.0178 40.6618 37.0566 40.7003 37.1034C40.5128 37.4489 40.601 37.6234 41.0478 37.6542C41.6635 37.6976 42.2755 37.7854 42.8912 37.839C43.0289 37.8516 43.1742 37.8025 43.3144 37.7831C43.2015 37.6086 43.0836 37.5505 42.9607 37.5345C42.3289 37.4524 41.6933 37.3885 41.0627 37.2984C40.9336 37.2801 40.8182 37.1729 40.6966 37.1068C40.884 37.0657 41.0764 36.979 41.2589 36.9904C41.9316 37.0361 42.6007 37.1136 43.2772 37.1798C43.2809 36.4521 43.2797 36.4601 42.6156 36.3859C41.985 36.3164 41.3569 36.2274 40.6978 36.143C40.6978 35.559 40.6978 35.0184 40.6978 34.4344C42.2693 34.6694 43.8023 34.8986 45.3154 35.1256C45.4234 36.1578 45.5239 37.1159 45.6245 38.074C45.5686 37.0737 45.586 36.0757 45.5488 35.08C45.5438 34.9397 45.2906 34.7287 45.1143 34.6876C44.4415 34.5302 43.7539 34.4299 43.0736 34.309C44.6116 34.3375 46.1483 34.366 47.6503 34.3934C47.6503 35.7347 47.6503 36.9756 47.6503 37.8926C47.762 37.1091 47.9358 36.0061 48.0686 34.8998C48.1592 34.139 47.9755 33.9828 47.16 34.0101C46.0068 34.0489 44.8524 34.0797 43.7005 34.1356C43.4919 34.1459 43.2909 34.2576 43.0873 34.3215ZM23.8733 25.0738C23.8448 25.1137 23.8162 25.1548 23.7877 25.1947C24.0757 26.357 23.6238 26.8816 22.3466 26.925C20.5492 26.9854 18.7456 27.0071 16.9569 27.1633C12.0414 27.5945 7.1333 28.0861 2.22275 28.5582C1.92236 28.5868 1.62693 28.6598 1.32902 28.7111C3.43301 28.7179 5.51465 28.605 7.5963 28.5138C12.5739 28.2959 17.5527 28.0895 22.5315 27.8762C22.8952 27.8602 23.2726 27.8796 23.6176 27.7964C24.5436 27.5717 25.4473 27.8465 25.9575 28.5582C26.4714 29.2768 26.4019 30.3056 25.7973 30.95C25.1606 31.6286 24.2482 31.7929 23.3235 31.4131C23.1236 31.331 22.8965 31.2637 22.6817 31.2625C21.6688 31.2591 20.6534 31.2477 19.6418 31.3002C13.4279 31.6229 7.21522 31.9628 1.00256 32.2993C0.827541 32.3084 0.655001 32.3438 0.605349 32.3495C2.52811 32.3495 4.55265 32.378 6.5772 32.3438C12.0153 32.2537 17.4521 32.1351 22.8902 32.0313C23.7728 32.0142 24.0322 32.2354 24.1092 33.0407C24.1514 33.4946 24.1787 33.9497 24.2209 34.4048C24.319 35.4792 24.422 36.5525 24.5287 37.6873C17.9884 37.9519 11.5151 38.2143 5.04296 38.4766C5.12613 38.5519 5.20806 38.5621 5.28874 38.5621C12.4237 38.5177 19.5599 38.4732 26.6948 38.4275C27.4793 38.423 27.8082 38.115 27.8207 37.3794C27.8455 35.916 27.8653 34.4538 27.8877 32.9905C27.9026 32.0723 28.0888 31.9104 29.1104 31.9195C29.3325 31.9218 29.5535 31.9195 29.8055 31.9195C29.3288 33.8801 28.8683 35.7792 28.4065 37.6782C28.9515 36.362 29.371 35.015 29.8402 33.6851C29.9395 33.4034 30.1741 33.1102 30.4361 32.9357C31.6066 32.1533 33.1743 32.3643 34.3089 33.4216C35.2051 34.2576 35.7153 35.2876 36.0281 36.4053C36.4352 37.8618 36.3769 39.3389 36.1683 40.955C36.2664 40.7281 36.3297 40.6334 36.3483 40.533C36.7753 38.2405 36.578 36.005 35.3528 33.9463C34.397 32.3404 33.0912 31.1063 30.8246 31.3834C30.796 31.3868 30.7625 31.3481 30.6707 31.2922C30.9624 30.7607 31.2367 30.2121 31.5545 29.6863C32.2297 28.5697 32.2322 28.7191 33.5728 28.7738C35.2932 28.8434 35.8828 29.652 36.1882 31.0686C36.6648 33.2768 36.9354 35.4837 36.856 37.7307C37.2123 34.9123 37.0087 32.1168 36.3719 29.3019C37.2656 29.4604 38.0514 29.5996 38.8371 29.7376C38.739 29.6224 38.6211 29.5631 38.4958 29.5311C35.4496 28.7727 32.4047 28.0062 29.3524 27.2683C28.4127 27.0413 27.9907 26.674 28.023 25.8232C28.1322 22.9364 28.2489 20.0508 28.4065 17.1663C28.4847 15.7315 28.661 14.3012 28.8087 12.701C28.3494 13.7549 27.6705 14.3685 26.5806 14.4883C22.0064 14.9924 17.4298 15.4794 12.8556 15.9915C11.5573 16.1364 10.2676 16.3474 8.97413 16.5287C9.02627 16.5994 9.06723 16.612 9.10571 16.6074C13.6861 16.1523 18.2664 15.703 22.8456 15.2376C24.4704 15.0722 24.6479 15.2262 24.3885 16.7078C24.3798 16.7591 24.3475 16.807 24.3289 16.8504C24 16.8903 23.6896 16.9291 23.3806 16.9667C23.3855 17.01 23.3905 17.0545 23.3942 17.0979C23.7169 17.0979 24.0397 17.0979 24.3624 17.0979C24.2023 19.7542 24.0372 22.414 23.8733 25.0738ZM15.4177 8.63488C15.4326 8.6748 15.4487 8.71472 15.4636 8.75349C19.9372 8.12504 24.4096 7.49659 28.8832 6.86814C28.8969 6.92745 28.9117 6.98676 28.9254 7.04607C28.6759 7.32209 28.4227 7.59468 28.1781 7.87412C27.4731 8.6862 26.562 9.11277 25.4361 9.26561C21.9841 9.73552 18.5408 10.2545 15.0925 10.7438C14.7238 10.7962 14.5264 10.9365 14.4011 11.2776C13.9443 12.5162 13.444 13.7412 12.9649 14.9741C12.9214 15.0848 12.914 15.2068 12.8892 15.3254C12.9847 15.3403 13.0257 15.3551 13.0642 15.3505C17.369 14.8726 21.6738 14.3867 25.9798 13.9157C27.3626 13.764 27.8728 13.4298 28.1645 12.3554C28.5989 10.7552 29.0197 9.15155 29.4405 7.54792C29.6267 6.83735 29.3983 6.57958 28.5965 6.68907C24.3488 7.26734 20.1035 7.86386 15.8596 8.46037C15.7069 8.48318 15.5654 8.57557 15.4177 8.63488ZM2.45239 16.8561C2.65224 16.8561 2.7354 16.8663 2.81485 16.8549C5.89325 16.3998 8.97289 15.9493 12.0476 15.4714C12.2325 15.4429 12.4485 15.2262 12.5279 15.0505C12.8122 14.4198 13.0443 13.7697 13.2926 13.1264C13.5657 12.4193 13.8338 11.7098 14.1429 10.9C12.4609 11.143 10.8994 11.3985 9.3279 11.5855C7.9451 11.7509 6.52879 12.3143 5.1522 11.3677C4.24854 13.2028 3.36722 14.9947 2.45239 16.8561ZM26.3497 44.0277C25.7688 43.1563 25.1953 42.3716 24.7137 41.5413C24.4965 41.1672 24.2768 41.0303 23.8225 41.0337C21.2406 41.052 18.6574 41.0702 16.0756 41.028C15.0738 41.0121 14.2235 41.0737 13.8723 42.1173C13.809 42.3043 13.6315 42.4777 13.4626 42.61C12.8159 43.1153 12.1518 43.6023 11.5858 44.0277C16.4231 44.0277 21.4032 44.0277 26.3497 44.0277ZM33.0502 35.3264C32.9422 35.3264 32.9025 35.3321 32.8653 35.3252C32.1999 35.202 31.5234 34.512 30.8755 35.3674C30.8283 35.4301 30.6682 35.4792 30.5925 35.4552C29.9544 35.2442 29.8464 35.7084 29.623 36.0415C30.199 36.5023 30.1518 36.8194 29.4964 37.0748C29.1898 37.1946 29.0818 37.9371 29.3437 38.1356C29.9867 38.6249 29.9892 38.772 29.2754 39.3514C29.4579 39.6115 29.587 40.0323 29.8601 40.1373C30.5167 40.3916 30.621 40.5193 30.2077 41.0349C30.9053 41.8515 31.0952 41.9211 32.0634 41.6017C32.4767 41.466 32.8653 41.2664 33.2637 41.0965C33.2923 41.1375 33.3208 41.1797 33.3494 41.2208C32.8888 41.5036 32.4283 41.7865 31.9628 42.0728C33.0341 42.107 33.7193 41.5527 34.15 40.7475C35.1095 38.9579 35.0239 37.1729 33.8285 35.5054C33.5095 35.0595 32.9521 34.7139 32.4296 34.4481C31.8995 34.1789 31.3931 34.3124 30.9996 34.6329C32.1081 34.6317 32.3563 34.7139 33.0502 35.3264ZM32.5289 8.78657C32.3613 8.71472 32.2645 8.68278 32.1776 8.63488C30.5627 7.75436 30.5875 8.05205 30.2623 9.44468C29.8737 11.111 29.3946 12.7888 29.3003 14.4768C29.1737 16.7466 29.3834 19.0311 29.4356 21.3088C29.4554 22.1551 29.4393 23.0026 29.4393 23.85C29.5063 23.8489 29.5734 23.8477 29.6404 23.8477C29.6404 20.8845 29.6404 17.9202 29.6404 14.9068C30.9909 15.1954 32.2607 15.4669 33.5306 15.7372C33.543 15.6881 33.5567 15.6391 33.5691 15.59C32.4283 15.2775 31.2938 14.9399 30.1431 14.6639C29.7024 14.5578 29.6379 14.3605 29.7074 14.0138C30.0177 12.466 30.307 10.9149 30.6297 9.3694C30.8606 8.25849 30.8693 8.2813 32.0274 8.717C32.4569 8.87896 32.6021 9.07741 32.5872 9.50741C32.5512 10.5134 32.5822 11.5205 32.5922 12.5276C32.5996 13.2701 32.792 13.4047 33.6609 13.2439C33.6609 12.612 33.6622 11.9687 33.6609 11.3266C33.6584 10.4153 33.6771 9.50171 33.6299 8.59153C33.62 8.40562 33.3953 8.12048 33.2116 8.07372C32.8888 7.9916 32.612 8.16154 32.5711 8.52196C32.5599 8.59724 32.5462 8.67138 32.5289 8.78657ZM38.111 44.0688C39.9294 44.0688 41.5692 44.0688 43.1096 44.0688C42.6913 43.0833 42.2569 42.058 41.8174 41.0212C41.1645 41.0212 40.4297 41.0212 39.6861 41.0212C39.5211 42.1572 39.2691 43.2088 38.111 44.0688ZM17.8295 36.0871C17.9238 35.2408 17.9971 34.5029 18.0889 33.7672C18.1696 33.1159 18.012 32.9426 17.2908 32.962C14.2943 33.0418 11.2978 33.1239 8.30135 33.2118C7.99724 33.2209 7.69436 33.2699 7.39024 33.2996C7.39521 33.3452 7.40017 33.392 7.4039 33.4376C10.6685 33.368 13.9343 33.311 17.1989 33.2152C17.7203 33.2003 17.863 33.3361 17.8084 33.7832C17.7426 34.3306 17.6694 34.8827 17.6892 35.4301C17.7066 35.9411 17.5105 36.0597 16.9743 36.0609C13.8723 36.0654 10.7703 36.0848 7.67078 36.1476C6.68395 36.1681 5.70209 36.3335 5.52707 35.0549C5.63382 35.4096 5.73933 35.7643 5.85353 36.1441C4.87911 36.1932 3.93946 36.2411 2.99856 36.289C2.9998 36.297 3.00104 36.3061 3.00228 36.3141C9.34155 36.3141 15.6796 36.3141 22.0189 36.3141C22.0189 36.2388 22.0201 36.1624 22.0201 36.0871C20.6435 36.0871 19.2657 36.0871 17.8295 36.0871ZM40.457 39.47C40.3738 37.5698 40.2944 35.7598 40.2149 33.9189C39.9555 33.9189 39.7395 33.9189 39.526 33.9189C39.2728 35.3549 39.0245 36.7669 38.775 38.18C38.7316 38.1743 38.6881 38.1686 38.6459 38.1629C38.6459 37.8846 38.6459 37.6063 38.6459 37.255C38.2103 37.6999 38.5231 38.675 37.4506 38.5838C37.8043 38.618 38.1569 38.6511 38.5516 38.6887C38.4784 38.9921 38.4089 39.2795 38.3245 39.6297C39.0469 39.5761 39.7147 39.5259 40.457 39.47ZM50.6505 36.297C50.4605 35.9696 50.2781 35.5488 49.9951 35.1952C49.681 34.8017 49.2702 34.7994 48.966 35.194C48.6967 35.5419 48.467 35.9468 48.3491 36.3586C47.7843 38.3215 47.7868 40.3026 48.3069 42.2724C48.436 42.7605 48.6582 43.2499 48.9474 43.6753C49.3049 44.2022 49.825 44.1908 50.1688 43.6536C50.4643 43.1928 50.6418 42.6682 50.8714 42.1709C50.679 42.2302 50.6467 42.3614 50.5623 42.4503C50.3339 42.691 50.0832 42.9145 49.8424 43.1449C49.6016 42.9111 49.3546 42.6819 49.1249 42.4389C49.0616 42.3728 49.0455 42.2655 49.0169 42.1743C48.4472 40.3426 48.4261 38.4994 48.9722 36.6677C49.0815 36.3038 49.4526 36.0061 49.7034 35.6776C50.0236 35.8887 50.3464 36.0997 50.6505 36.297ZM5.14723 30.3273C6.74477 30.7025 17.4819 30.1744 18.5532 29.6965C17.3839 29.311 6.78698 29.7889 5.14723 30.3273ZM35.4695 27.2591C34.0184 26.9421 32.6604 26.6444 31.3025 26.3478C31.2975 26.3661 31.2925 26.3855 31.2876 26.4037C33.9464 27.2489 36.6065 28.094 39.2641 28.9381C39.4726 28.4453 39.315 28.2013 38.7601 28.0815C37.7634 27.8648 36.7815 27.5899 35.791 27.3378C35.7252 22.706 35.6594 18.1187 35.5936 13.5313C35.5514 13.5313 35.5092 13.5325 35.4682 13.5325C35.4695 18.0844 35.4695 22.6364 35.4695 27.2591ZM50.6939 39.6388C50.571 38.8872 50.5189 38.2188 50.3327 37.5847C50.2396 37.2653 49.9007 37.0075 49.6723 36.7213C49.4601 37.1045 49.2391 37.4843 49.0442 37.8744C49.0107 37.9417 49.1075 38.0534 49.11 38.1458C49.1336 39.0092 49.1448 39.8738 49.1696 40.7372C49.1795 41.0657 49.1547 41.4113 49.259 41.7169C49.326 41.912 49.5979 42.0477 49.7791 42.2108C49.9392 42.0511 50.1924 41.912 50.2421 41.7261C50.4332 41.0132 50.5586 40.2855 50.6939 39.6388ZM54.3222 36.7361C54.3768 36.6882 54.4314 36.6391 54.4861 36.5912C54.1695 36.2833 53.8902 35.7712 53.5278 35.7153C52.9407 35.624 52.8413 36.2479 52.6427 36.6517C52.6092 36.7201 52.5807 36.7931 52.5608 36.8661C52.0395 38.8416 52.0246 40.8125 52.6564 42.7685C52.8091 43.243 52.9344 43.9148 53.6147 43.8589C54.2713 43.8042 54.3545 43.1312 54.5146 42.6271C54.5245 42.5952 54.4997 42.5541 54.5034 42.5689C54.2862 42.7366 54.0603 43.0445 53.8108 43.0605C53.6333 43.0719 53.3292 42.7218 53.2448 42.4834C52.5856 40.63 52.5546 38.7549 53.2088 36.8958C53.4521 36.2034 53.8145 36.1772 54.3222 36.7361ZM35.9573 12.5231C35.8928 12.5516 35.8282 12.5801 35.7649 12.6097C35.8183 12.7318 35.8369 12.8858 35.93 12.9713C36.4116 13.4104 36.496 13.9442 36.501 14.5384C36.5295 17.5586 36.5718 20.5789 36.6413 23.5991C36.6599 24.4123 36.6053 25.1879 36.1472 25.9087C36.0814 26.0114 36.1261 26.1733 36.1199 26.3079C36.1807 26.317 36.2416 26.3262 36.3036 26.3353C36.779 25.7388 37.0645 25.075 37.0559 24.3119C37.0484 23.6664 37.0285 23.0208 37.0186 22.3752C36.9789 19.6208 36.9354 16.8675 36.9069 14.113C36.8982 13.4024 36.5022 12.928 35.9573 12.5231ZM31.2255 7.48747C31.2268 7.54906 31.228 7.61065 31.2292 7.67224C31.7444 7.67224 32.2607 7.66198 32.7759 7.67452C33.4772 7.69163 33.8161 7.94826 33.8273 8.54363C33.8732 10.9913 33.9166 13.4401 33.9017 15.8877C33.9005 16.1751 33.5442 16.6998 33.3357 16.7078C32.3836 16.7431 31.3459 17.2131 30.4869 16.4169C30.4547 16.3873 30.3405 16.4329 30.2548 16.4443C30.3355 16.9484 30.6756 17.1629 31.1535 17.1777C31.7729 17.1971 32.396 17.2017 33.0117 17.156C33.8161 17.0967 34.284 16.6131 34.2816 15.8718C34.2741 13.545 34.2679 11.2183 34.2332 8.89264C34.2121 7.46808 32.5947 6.72443 31.2255 7.48747ZM39.2703 27.9914C39.3336 28.0108 39.3969 28.0302 39.4602 28.0507C39.9394 27.4952 40.2286 26.8531 40.2224 26.1266C40.1889 22.7129 40.1392 19.298 40.0858 15.8843C40.0747 15.1965 39.6861 14.6947 39.0518 14.3251C39.0295 14.4711 39.0407 14.6228 39.1288 14.7015C39.6216 15.1338 39.7048 15.6756 39.711 16.2641C39.7445 19.4508 39.814 22.6376 39.8152 25.8243C39.8152 26.3889 39.5608 26.9546 39.418 27.5181C39.3795 27.6766 39.32 27.8328 39.2703 27.9914ZM53.8257 42.391C54.0082 42.0351 54.1919 41.7865 54.2676 41.5116C54.5866 40.3699 54.5729 39.2145 54.2465 38.0797C54.1633 37.7911 53.8691 37.5539 53.6718 37.2927C53.493 37.5938 53.2944 37.8881 53.1455 38.2006C53.0971 38.3032 53.1914 38.4561 53.1939 38.5861C53.2075 39.3754 53.2721 40.1692 53.2026 40.9516C53.1542 41.4968 53.2746 41.912 53.8257 42.391ZM5.92304 24.5663C5.93049 24.6404 5.93793 24.7145 5.94538 24.7887C10.2328 24.4203 14.5202 24.0507 18.8064 23.6823C18.7989 23.6093 18.7915 23.5375 18.7841 23.4645C14.4743 23.5991 10.1894 23.9937 5.92304 24.5663ZM18.8089 24.8229C18.8052 24.7488 18.8014 24.6735 18.7977 24.5993C14.4867 24.7488 10.2005 25.124 5.93545 25.7103C5.9429 25.7833 5.95035 25.8574 5.9578 25.9304C10.2415 25.562 14.5252 25.1924 18.8089 24.8229ZM5.89449 22.1757C5.89697 22.2395 5.89946 22.3023 5.90194 22.3661C7.78498 22.4813 17.4733 21.6248 18.7741 21.2278C18.7692 21.1765 18.7642 21.1252 18.758 21.0739C14.4706 21.4411 10.1831 21.8084 5.89449 22.1757ZM5.89325 21.0374C5.89945 21.148 5.90442 21.2586 5.91063 21.3693C10.2055 20.9997 14.5016 20.6302 18.7965 20.2606C18.7853 20.1511 18.7741 20.0405 18.763 19.931C14.4731 20.2994 10.1831 20.669 5.89325 21.0374ZM5.88456 23.3219C5.89573 23.4314 5.9069 23.5409 5.91807 23.6493C10.2167 23.2797 14.5153 22.9102 18.8126 22.5406C18.8014 22.4311 18.7903 22.3216 18.7791 22.2122C14.4805 22.5817 10.1831 22.9512 5.88456 23.3219ZM34.4765 12.3314C34.5187 12.3337 34.5609 12.336 34.6018 12.3383C34.6465 12.2277 34.6912 12.117 34.7359 12.0064C34.7843 12.0178 34.8327 12.0292 34.8799 12.0417C34.7967 12.3349 34.7123 12.628 34.6316 12.9223C34.6006 13.034 34.5795 13.1492 34.5534 13.2621C34.7036 13.2462 34.9047 13.2781 34.9916 13.2006C35.1095 13.0968 35.1964 12.9086 35.1964 12.7569C35.1964 11.354 35.1803 9.95109 35.1542 8.54819C35.1467 8.13303 34.8761 8.00643 34.4752 8.06459C34.4764 9.51197 34.4765 10.9217 34.4765 12.3314ZM5.61147 10.5761C8.7358 9.99899 11.8614 9.42301 14.9857 8.84588C14.9671 8.76832 14.9472 8.69076 14.9286 8.61321C11.8068 9.19489 8.65388 9.65682 5.61147 10.5761ZM1.12173 26.6387C1.1689 26.6341 1.21731 26.6296 1.26447 26.6238C1.35012 24.2766 1.43701 21.9281 1.52266 19.5809C1.36998 19.8535 1.21606 20.1477 1.19869 20.4488C1.1118 22.0399 1.04477 23.631 1.00132 25.2244C0.990149 25.6954 1.07952 26.1676 1.12173 26.6387ZM45.7114 39.7403C45.73 39.6354 45.7486 39.5305 45.7672 39.4255C44.0878 39.2613 42.4008 39.1712 40.6692 39.1837C40.7425 39.3354 40.848 39.4951 40.9634 39.502C42.5461 39.5932 44.1287 39.6639 45.7114 39.7403ZM40.704 38.1093C40.529 38.6842 40.668 38.9819 41.306 38.967C41.5953 38.9602 41.8907 38.9545 42.1725 39.0024C42.7261 39.0982 42.9694 38.8598 43.0724 38.3409C42.2842 38.2644 41.5133 38.1892 40.704 38.1093ZM34.7917 40.4304C34.4479 41.1603 34.0246 41.815 33.2439 42.2131C32.4544 42.6168 31.6438 42.4994 30.8271 42.2747C31.4825 42.7799 32.2024 43.0503 33.0366 42.7377C34.155 42.3203 34.6552 41.4786 34.7917 40.4304ZM1.18503 31.4496C1.20365 31.5214 1.22227 31.5944 1.24089 31.6663C1.44819 31.6264 1.71382 31.648 1.85036 31.5351C2.27985 31.1793 2.24758 30.0467 1.81809 29.7068C1.71506 29.6247 1.50404 29.5665 1.39233 29.6087C1.26944 29.6555 1.14531 29.822 1.12545 29.9509C1.06463 30.3478 1.49908 30.6478 2.04028 30.504C1.93353 30.8576 1.84416 31.1565 1.75354 31.4564C1.71506 31.445 1.67534 31.4347 1.63686 31.4233C1.67907 31.2716 1.72251 31.1211 1.76472 30.9694C1.73617 30.9557 1.70762 30.9409 1.67907 30.9272C1.51397 31.1006 1.34888 31.2751 1.18503 31.4496ZM1.36626 29.376C0.650036 29.4023 0.290062 29.8448 0.28882 30.6329C0.287579 31.4382 0.633899 31.8682 1.29923 31.8944C0.475014 31.1359 0.473773 30.1049 1.36626 29.376ZM39.1536 30.2052C39.1065 30.1835 39.0593 30.1619 39.0121 30.1402C38.7999 30.4607 38.5888 30.7801 38.3803 31.096C37.9657 31.0435 37.5722 30.9945 37.1787 30.9443C37.1638 31.0241 37.1502 31.1028 37.1353 31.1827C37.7311 31.3013 38.3269 31.4211 39.0059 31.5556C39.0593 31.0584 39.1065 30.6318 39.1536 30.2052ZM37.4878 34.5359C37.4767 34.5816 37.4667 34.6272 37.4555 34.6728C37.9421 34.7698 38.4287 34.8678 39.0096 34.9842C39.0692 34.439 39.1214 33.9645 39.1723 33.49C38.8818 33.7946 38.8272 34.228 38.564 34.4185C38.322 34.5941 37.8565 34.5074 37.4878 34.5359ZM44.6228 37.2665C44.6463 36.581 44.5706 36.5251 43.7539 36.581C43.7315 37.2881 43.7315 37.2881 44.6228 37.2665ZM44.4105 38.5097C43.5304 38.3431 43.5304 38.3431 43.3206 39.0868C43.6124 39.0868 43.8978 39.0868 44.2231 39.0868C44.2839 38.8986 44.346 38.7058 44.4105 38.5097ZM42.9309 35.0903C43.4286 35.4427 43.8556 35.7449 44.4006 36.1327C44.0108 35.5636 43.8023 35.0081 42.9309 35.0903ZM34.3834 23.9983C34.2505 24.0142 33.9613 24.0245 33.9588 24.0542C33.9253 24.4613 33.898 24.8742 33.9539 25.2768C33.9663 25.3681 34.3002 25.4228 34.4851 25.4936C33.8012 25.3054 34.1885 24.7853 34.119 24.4488C34.0966 24.3393 34.2605 24.1967 34.3834 23.9983Z" fill="#D92E10"/>
<path d="M11.4883 5.56253C12.6551 5.61271 13.2323 4.9375 13.7983 4.1813C14.3246 3.47758 15.1526 3.15138 16.0475 2.97687C20.4901 2.11004 24.9277 1.22268 29.3778 0.387792C30.624 0.153976 31.9038 0.0752772 33.1873 0C31.9299 0.215566 30.907 0.854282 29.8656 1.45308C28.0446 2.49897 25.9766 2.75332 23.9223 3.10347C20.5758 3.6749 17.2466 4.3273 13.9249 5.06068C14.018 5.09033 14.1111 5.12113 14.3135 5.18614C13.3266 5.38574 12.4552 5.56253 11.5839 5.73817C11.5516 5.68001 11.5206 5.6207 11.4883 5.56253Z" fill="#D92E10"/>
<path d="M24.3596 17.098C24.0369 17.098 23.7141 17.098 23.3914 17.098C23.3864 17.0547 23.3815 17.0102 23.3777 16.9669C23.6881 16.9292 23.9984 16.8905 24.3261 16.8505C24.3447 16.8072 24.377 16.7593 24.3857 16.708C24.6451 15.2264 24.4676 15.0735 22.8427 15.2378C18.2636 15.7031 13.6833 16.1525 9.10289 16.6076C9.06317 16.611 9.02221 16.5985 8.97132 16.5289C10.2647 16.3476 11.5544 16.1377 12.8528 15.9917C17.4257 15.4796 22.0024 14.9926 26.5778 14.4884C27.6676 14.3687 28.3466 13.7539 28.8059 12.7012C28.6582 14.3014 28.4819 15.7317 28.4037 17.1665C28.2461 20.051 28.1294 22.9366 28.0202 25.8234C27.9879 26.6742 28.4099 27.0415 29.3496 27.2685C32.4019 28.0064 35.4468 28.7729 38.4929 29.5313C38.6183 29.5621 38.7362 29.6226 38.8343 29.7378C38.0485 29.5986 37.2628 29.4595 36.3691 29.3021C37.0059 32.117 37.2094 34.9137 36.8532 37.7309C36.9339 35.4839 36.662 33.277 36.1854 31.0688C35.88 29.6522 35.2892 28.8436 33.57 28.774C32.2281 28.7193 32.2269 28.5698 31.5516 29.6865C31.2339 30.2123 30.9583 30.7609 30.6678 31.2924C30.7597 31.3483 30.7932 31.387 30.8217 31.3836C33.0883 31.1076 34.3942 32.3405 35.35 33.9465C36.5751 36.0063 36.7725 38.2407 36.3455 40.5332C36.3269 40.6336 36.2648 40.7271 36.1655 40.9552C36.374 39.3391 36.4324 37.862 36.0252 36.4055C35.7124 35.2878 35.2023 34.2578 34.306 33.4218C33.1715 32.3645 31.6038 32.1524 30.4332 32.9359C30.1713 33.1104 29.9367 33.4036 29.8374 33.6853C29.3682 35.0163 28.9486 36.3622 28.4037 37.6784C28.8655 35.7793 29.326 33.8803 29.8026 31.9197C29.5519 31.9197 29.3297 31.9208 29.1075 31.9197C28.0859 31.9106 27.8998 32.0725 27.8849 32.9907C27.8613 34.454 27.8414 35.9162 27.8178 37.3796C27.8054 38.1152 27.4765 38.4232 26.692 38.4277C19.557 38.4734 12.4209 38.519 5.28593 38.5623C5.20524 38.5623 5.12332 38.5521 5.04015 38.4768C11.5122 38.2145 17.9856 37.9521 24.5259 37.6875C24.4192 36.5515 24.3161 35.4782 24.2181 34.405C24.1759 33.951 24.1498 33.4959 24.1064 33.0409C24.0306 32.2356 23.77 32.0143 22.8874 32.0315C17.4493 32.1352 12.0125 32.2539 6.57439 32.344C4.54984 32.3782 2.52406 32.3497 0.602539 32.3497C0.650949 32.3428 0.824731 32.3086 0.999752 32.2995C7.21241 31.963 13.4251 31.6231 19.639 31.3004C20.6494 31.2479 21.666 31.2593 22.6789 31.2627C22.8936 31.2639 23.1208 31.3311 23.3206 31.4133C24.2454 31.7942 25.1577 31.63 25.7945 30.9502C26.399 30.3058 26.4685 29.277 25.9546 28.5584C25.4457 27.8456 24.5421 27.5718 23.6148 27.7965C23.2685 27.8798 22.8911 27.8604 22.5287 27.8764C17.5499 28.0897 12.5723 28.2961 7.59348 28.514C5.5106 28.6052 3.42896 28.7193 1.32621 28.7113C1.62412 28.6588 1.91955 28.587 2.21994 28.5584C7.13048 28.0862 12.0398 27.5947 16.9541 27.1635C18.7428 27.0073 20.5463 26.9856 22.3437 26.9251C23.6198 26.8818 24.0729 26.3583 23.7849 25.1961C24.8561 25.2907 25.7039 24.6862 25.7436 23.7008C25.8169 21.9067 25.8342 20.1114 25.8529 18.3162C25.8591 17.7174 25.5463 17.2532 24.9318 17.0273C24.7754 16.9692 24.547 17.0764 24.3509 17.1072L24.3596 17.098ZM29.7902 31.7532C30.3079 30.5841 30.7857 29.5074 31.2785 28.3976C30.5015 28.2744 29.7356 28.1216 28.9623 28.0406C28.3379 27.9756 27.973 28.287 27.9506 28.8516C27.9233 29.5131 27.8762 30.1826 27.9593 30.8361C27.9928 31.103 28.292 31.4418 28.5663 31.5604C28.9362 31.7201 29.3992 31.6996 29.7902 31.7532Z" fill="#F1F1F1"/>
<path d="M15.4167 8.6344C15.5644 8.57509 15.7071 8.4827 15.861 8.46103C20.1063 7.86451 24.3502 7.268 28.5979 6.68973C29.3998 6.58024 29.6282 6.83801 29.442 7.54858C29.0212 9.15221 28.6004 10.7558 28.166 12.3561C27.8743 13.4305 27.3641 13.7646 25.9813 13.9163C21.6752 14.3874 17.3704 14.8721 13.0656 15.3512C13.0272 15.3557 12.9862 15.3409 12.8906 15.3261C12.9155 15.2075 12.9229 15.0854 12.9663 14.9748C13.4455 13.743 13.9457 12.518 14.4025 11.2782C14.5279 10.9383 14.7253 10.7969 15.0939 10.7444C18.5422 10.2551 21.9856 9.73618 25.4376 9.26627C26.5634 9.11343 27.4733 8.68686 28.1796 7.87478C28.4229 7.5942 28.6774 7.32275 28.9269 7.04673C28.9132 6.98742 28.8983 6.92811 28.8847 6.8688C24.411 7.49725 19.9387 8.1257 15.4651 8.75415C15.4464 8.71309 15.4315 8.67431 15.4167 8.6344Z" fill="#F1F1F1"/>
<path d="M2.45801 16.858C3.37284 14.9966 4.25415 13.2048 5.15781 11.3685C6.53565 12.314 7.95072 11.7506 9.33351 11.5864C10.905 11.3993 12.4665 11.1438 14.1485 10.9009C13.8394 11.7107 13.5713 12.4201 13.2982 13.1273C13.0499 13.7717 12.8166 14.4207 12.5336 15.0514C12.4541 15.227 12.2381 15.4437 12.0532 15.4723C8.97851 15.9502 5.89886 16.4007 2.82046 16.8558C2.74102 16.8683 2.65786 16.858 2.45801 16.858Z" fill="#F1F1F1"/>
<path d="M26.3547 44.0309C21.4082 44.0309 16.4281 44.0309 11.5908 44.0309C12.1568 43.6054 12.8222 43.1196 13.4677 42.6131C13.6365 42.4808 13.8152 42.3063 13.8773 42.1204C14.2286 41.0779 15.0788 41.0152 16.0806 41.0312C18.6625 41.0734 21.2443 41.0551 23.8275 41.0369C24.2818 41.0335 24.5015 41.1703 24.7187 41.5444C25.2003 42.3736 25.7738 43.1583 26.3547 44.0309Z" fill="#F1F1F1"/>
<path d="M33.0569 35.3252C32.363 34.7115 32.1148 34.6306 31.0063 34.6328C31.3998 34.3123 31.9062 34.1778 32.4362 34.4481C32.9601 34.7138 33.5162 35.0594 33.8352 35.5054C35.0293 37.1729 35.115 38.9579 34.1567 40.7474C33.7247 41.5526 33.0408 42.107 31.9695 42.0727C32.435 41.7876 32.8955 41.5036 33.356 41.2207C33.3275 41.1797 33.2989 41.1375 33.2704 41.0964C32.8707 41.2664 32.4822 41.466 32.0701 41.6017C31.1019 41.921 30.9132 41.8515 30.2143 41.0348C30.6277 40.5181 30.5234 40.3915 29.8668 40.1372C29.5937 40.0311 29.4646 39.6114 29.2821 39.3514C29.9959 38.7719 29.9934 38.6248 29.3504 38.1355C29.0897 37.9371 29.1965 37.1945 29.5031 37.0748C30.1585 36.8193 30.2056 36.5022 29.6297 36.0414C29.8519 35.7084 29.9599 35.2442 30.5991 35.4552C30.6749 35.4803 30.835 35.4301 30.8821 35.3674C31.5301 34.5119 32.2078 35.202 32.8719 35.3252C32.9092 35.332 32.9489 35.3252 33.0569 35.3252ZM31.9869 36.6505C31.262 37.2025 31.2185 37.9564 31.3514 38.7343C31.4544 39.3342 31.7473 39.6559 32.1582 39.7483C31.3092 38.8062 31.2694 37.7945 31.9869 36.6505Z" fill="#F1F1F1"/>
<path d="M32.5338 8.7843C32.5512 8.6691 32.5648 8.59497 32.5735 8.52083C32.6145 8.16041 32.8925 7.99047 33.214 8.07259C33.3977 8.11935 33.6224 8.40449 33.6323 8.5904C33.6795 9.50057 33.6609 10.413 33.6633 11.3255C33.6646 11.9676 33.6633 12.6098 33.6633 13.2428C32.7957 13.4036 32.602 13.2701 32.5946 12.5265C32.5847 11.5194 32.5524 10.5123 32.5896 9.50628C32.6058 9.07628 32.4593 8.87782 32.0298 8.71586C30.8717 8.28017 30.863 8.25622 30.6321 9.36827C30.3106 10.9137 30.0202 12.4649 29.7098 14.0126C29.6403 14.3605 29.7049 14.5578 30.1455 14.6628C31.2975 14.9388 32.4307 15.2764 33.5715 15.5889C33.5591 15.638 33.5454 15.687 33.533 15.736C32.2632 15.4646 30.9933 15.1931 29.6428 14.9057C29.6428 17.9191 29.6428 20.8834 29.6428 23.8466C29.5758 23.8477 29.5088 23.8489 29.4417 23.8489C29.4417 23.0014 29.4579 22.154 29.438 21.3077C29.3859 19.0289 29.1761 16.7443 29.3027 14.4757C29.397 12.7865 29.8762 11.1099 30.2647 9.44355C30.5899 8.05092 30.5638 7.75323 32.18 8.63374C32.2694 8.68051 32.3674 8.71244 32.5338 8.7843Z" fill="#F1F1F1"/>
<path d="M38.1182 44.0661C39.2775 43.2062 39.5283 42.1546 39.6934 41.0186C40.4369 41.0186 41.1717 41.0186 41.8247 41.0186C42.2641 42.0553 42.6985 43.0807 43.1168 44.0661C41.5752 44.0661 39.9367 44.0661 38.1182 44.0661Z" fill="#F1F1F1"/>
<path d="M17.8329 36.089C19.2703 36.089 20.6469 36.089 22.0235 36.089C22.0235 36.1643 22.0222 36.2407 22.0222 36.3159C15.683 36.3159 9.34495 36.3159 3.00568 36.3159C3.00444 36.308 3.00319 36.2988 3.00195 36.2909C3.94161 36.2429 4.88251 36.195 5.85692 36.146C5.74272 35.7662 5.63721 35.4115 5.53046 35.0568C5.70548 36.3353 6.6861 36.17 7.67417 36.1494C10.7749 36.0867 13.8769 36.0673 16.9776 36.0627C17.5139 36.0616 17.71 35.943 17.6926 35.432C17.674 34.8845 17.746 34.3314 17.8118 33.785C17.8652 33.3379 17.7237 33.2022 17.2023 33.217C13.9377 33.3117 10.6719 33.3699 7.40729 33.4394C7.40233 33.3938 7.39736 33.3471 7.39364 33.3014C7.69776 33.2706 8.00063 33.2216 8.30475 33.2136C11.3012 33.1258 14.2977 33.0437 17.2942 32.9638C18.0154 32.9444 18.173 33.1178 18.0923 33.7691C18.0005 34.5047 17.926 35.2415 17.8329 36.089Z" fill="#F1F1F1"/>
<path d="M23.8643 25.0754C24.0281 22.4156 24.192 19.757 24.3571 17.0972L24.3459 17.1086C25.1651 17.4211 25.4047 17.7199 25.391 18.402C25.3588 20.0535 25.3253 21.7039 25.2979 23.3554C25.2818 24.3534 24.9243 24.7891 23.8643 25.0754Z" fill="#F1F1F1"/>
<path d="M40.4539 39.473C39.7116 39.5289 39.0438 39.5791 38.3202 39.6327C38.4046 39.2825 38.4741 38.9951 38.5473 38.6917C38.1526 38.6541 37.8001 38.621 37.4463 38.5868C38.5188 38.678 38.206 37.7028 38.6416 37.258C38.6416 37.6082 38.6416 37.8876 38.6416 38.1659C38.6851 38.1716 38.7285 38.1773 38.7707 38.183C39.019 36.771 39.2685 35.359 39.5217 33.9219C39.7352 33.9219 39.9512 33.9219 40.2106 33.9219C40.2926 35.7627 40.3708 37.574 40.4539 39.473Z" fill="#F1F1F1"/>
<path d="M50.6477 36.2956C50.3448 36.0971 50.022 35.8861 49.6993 35.6751C49.4486 36.0036 49.0762 36.3013 48.9682 36.6651C48.422 38.4969 48.4431 40.34 49.0129 42.1718C49.0414 42.263 49.0576 42.3702 49.1209 42.4364C49.3505 42.6793 49.5975 42.9086 49.8383 43.1424C50.0804 42.912 50.3299 42.6885 50.5583 42.4478C50.6427 42.3588 50.6737 42.2277 50.8674 42.1684C50.6377 42.6645 50.4602 43.1903 50.1648 43.6511C49.8197 44.1883 49.2996 44.1997 48.9434 43.6728C48.6541 43.2462 48.432 42.758 48.3029 42.2699C47.7828 40.3001 47.7803 38.319 48.3451 36.356C48.463 35.9443 48.6926 35.5394 48.962 35.1915C49.2673 34.7969 49.677 34.8003 49.991 35.1927C50.2753 35.5474 50.4577 35.9694 50.6477 36.2956Z" fill="#F1F1F1"/>
<path d="M5.15039 30.3286C6.79013 29.7903 17.3883 29.3124 18.5563 29.6979C17.4838 30.1747 6.74669 30.7027 5.15039 30.3286Z" fill="#F1F1F1"/>
<path d="M35.4775 27.2571C35.4775 22.6344 35.4775 18.0824 35.4775 13.5304C35.5197 13.5304 35.5619 13.5293 35.6029 13.5293C35.6687 18.1166 35.7332 22.704 35.8003 27.3358C36.7908 27.5879 37.7727 27.8628 38.7694 28.0795C39.3231 28.1992 39.4819 28.4433 39.2734 28.936C36.6146 28.0909 33.9557 27.2469 31.2969 26.4017C31.3018 26.3835 31.3068 26.3641 31.3118 26.3458C32.6673 26.6424 34.0252 26.9401 35.4775 27.2571Z" fill="#F1F1F1"/>
<path d="M50.6948 39.6383C50.5607 40.285 50.4341 41.0126 50.243 41.7255C50.1933 41.9103 49.9401 42.0494 49.78 42.2102C49.6 42.0483 49.3269 41.9114 49.2599 41.7164C49.1556 41.4107 49.1792 41.0651 49.1705 40.7366C49.1457 39.8732 49.1345 39.0087 49.1109 38.1453C49.1084 38.0529 49.0116 37.94 49.0451 37.8738C49.24 37.4837 49.461 37.1039 49.6732 36.7207C49.9016 37.007 50.2405 37.2648 50.3336 37.5841C50.5198 38.2194 50.5707 38.8866 50.6948 39.6383Z" fill="#F1F1F1"/>
<path d="M54.3148 36.7359C53.8072 36.177 53.4447 36.2032 53.2002 36.8967C52.546 38.7558 52.577 40.6298 53.2362 42.4843C53.3206 42.7227 53.6247 43.0729 53.8022 43.0615C54.0517 43.0455 54.2776 42.7375 54.4948 42.5699C54.4911 42.555 54.5159 42.5961 54.506 42.628C54.3459 43.1322 54.264 43.8051 53.6061 43.8598C52.9258 43.9157 52.8005 43.2439 52.6478 42.7695C52.0172 40.8134 52.0321 38.8425 52.5522 36.8671C52.5721 36.7941 52.6006 36.7211 52.6341 36.6526C52.8327 36.2489 52.9333 35.6238 53.5192 35.7162C53.8829 35.7733 54.1609 36.2854 54.4775 36.5922C54.4241 36.6401 54.3695 36.688 54.3148 36.7359Z" fill="#F1F1F1"/>
<path d="M35.959 12.5264C36.5039 12.9313 36.8999 13.4057 36.9086 14.1152C36.9384 16.8696 36.9806 19.623 37.0203 22.3774C37.0302 23.023 37.0501 23.6685 37.0575 24.3141C37.0662 25.0771 36.7807 25.7409 36.3053 26.3375C36.2445 26.3283 36.1837 26.3192 36.1216 26.3101C36.1278 26.1755 36.0844 26.0135 36.1489 25.9109C36.607 25.19 36.6616 24.4145 36.643 23.6012C36.5734 20.5822 36.5312 17.5608 36.5027 14.5406C36.4965 13.9464 36.4121 13.4126 35.9317 12.9735C35.8386 12.8879 35.82 12.7339 35.7666 12.6119C35.8299 12.5845 35.8945 12.5549 35.959 12.5264Z" fill="#F1F1F1"/>
<path d="M31.2204 7.48715C32.5896 6.72411 34.207 7.46662 34.2293 8.89346C34.2641 11.2202 34.2715 13.5458 34.2777 15.8726C34.2802 16.6139 33.8122 17.0975 33.0079 17.1568C32.391 17.2025 31.7678 17.1979 31.1497 17.1785C30.6718 17.1637 30.3329 16.9481 30.251 16.4451C30.3379 16.4337 30.4521 16.3881 30.4831 16.4178C31.3421 17.2139 32.3798 16.7428 33.3319 16.7086C33.5404 16.7006 33.8966 16.176 33.8979 15.8885C33.9128 13.4409 33.8693 10.9921 33.8234 8.54445C33.8122 7.95022 33.4734 7.69245 32.772 7.67534C32.2569 7.66279 31.7405 7.67306 31.2254 7.67306C31.2229 7.61033 31.2217 7.54874 31.2204 7.48715Z" fill="#F1F1F1"/>
<path d="M39.2718 27.9888C39.3227 27.8303 39.381 27.674 39.422 27.5132C39.5648 26.9498 39.8192 26.3841 39.8192 25.8195C39.8167 22.6327 39.7485 19.446 39.715 16.2593C39.7087 15.6707 39.6243 15.1301 39.1328 14.6967C39.0447 14.6191 39.0335 14.4663 39.0558 14.3203C39.6901 14.6899 40.0799 15.1917 40.0898 15.8795C40.1432 19.2932 40.1929 22.708 40.2264 26.1217C40.2338 26.8483 39.9434 27.4893 39.4642 28.0459C39.3984 28.0276 39.3351 28.0082 39.2718 27.9888Z" fill="#F1F1F1"/>
<path d="M40.7077 37.0992C40.6655 37.0581 40.5885 37.0194 40.5848 36.976C40.5153 36.0031 40.4532 35.0291 40.3887 34.0254C41.3457 34.1315 42.2171 34.2273 43.0897 34.3231L43.0736 34.3094C43.7563 34.4314 44.444 34.5318 45.1167 34.6892C45.293 34.7303 45.545 34.9413 45.5512 35.0815C45.5884 36.0773 45.5711 37.0741 45.6269 38.0755C45.5264 37.1175 45.4258 36.1594 45.3178 35.1272C43.8047 34.9013 42.273 34.6721 40.7002 34.436C40.7002 35.02 40.7002 35.5606 40.7002 36.1446C41.3594 36.229 41.9875 36.3179 42.618 36.3875C43.2834 36.4616 43.2834 36.4536 43.2796 37.1813C42.6031 37.1152 41.9341 37.0365 41.2613 36.992C41.0776 36.9794 40.8864 37.0661 40.699 37.1083L40.7077 37.0992Z" fill="#F1F1F1"/>
<path d="M53.822 42.389C53.2708 41.91 53.1504 41.4948 53.1988 40.9519C53.2683 40.1683 53.2038 39.3745 53.1901 38.5864C53.1877 38.4563 53.0933 38.3024 53.1417 38.2009C53.2907 37.8872 53.4893 37.5941 53.668 37.293C53.8654 37.5542 54.1583 37.7914 54.2428 38.08C54.5705 39.2148 54.5829 40.3691 54.2638 41.5119C54.1881 41.7834 54.0044 42.0331 53.822 42.389Z" fill="#F1F1F1"/>
<path d="M5.91797 24.567C10.1843 23.9944 14.4692 23.5998 18.7802 23.4663C18.7877 23.5393 18.7951 23.6112 18.8026 23.6842C14.5151 24.0526 10.2277 24.4221 5.94155 24.7905C5.93286 24.7152 5.92542 24.6411 5.91797 24.567Z" fill="#F1F1F1"/>
<path d="M18.8168 24.8236C14.5331 25.1932 10.2494 25.5616 5.9657 25.9311C5.95826 25.8581 5.95081 25.784 5.94336 25.711C10.2084 25.1248 14.4946 24.7495 18.8056 24.6001C18.8093 24.6754 18.8131 24.7495 18.8168 24.8236Z" fill="#F1F1F1"/>
<path d="M5.89844 22.1762C10.1859 21.8089 14.4745 21.4416 18.7619 21.0732C18.7669 21.1246 18.7719 21.1759 18.7781 21.2272C17.4772 21.6241 7.78892 22.4807 5.90588 22.3655C5.9034 22.3039 5.90092 22.24 5.89844 22.1762Z" fill="#F1F1F1"/>
<path d="M5.89844 21.0401C10.1883 20.6706 14.4782 20.3022 18.7694 19.9326C18.7806 20.0421 18.7917 20.1527 18.8029 20.2622C14.508 20.6318 10.2119 21.0013 5.91706 21.3709C5.90961 21.2625 5.90464 21.1507 5.89844 21.0401Z" fill="#F1F1F1"/>
<path d="M5.89258 23.321C10.1912 22.9515 14.4898 22.5819 18.7871 22.2124C18.7983 22.3219 18.8094 22.4314 18.8206 22.5409C14.522 22.9104 10.2234 23.28 5.92609 23.6495C5.91492 23.5389 5.90375 23.4294 5.89258 23.321Z" fill="#F1F1F1"/>
<path d="M23.8757 25.072C24.9345 24.7869 25.292 24.35 25.3081 23.352C25.3342 21.7005 25.369 20.0501 25.4012 18.3985C25.4149 17.7154 25.1753 17.4177 24.3561 17.1051C24.551 17.0744 24.7794 16.9671 24.937 17.0253C25.5514 17.2523 25.8642 17.7165 25.858 18.3141C25.8394 20.1094 25.8208 21.9046 25.7488 23.6988C25.7091 24.6842 24.8613 25.2876 23.79 25.194C23.8186 25.1518 23.8471 25.1119 23.8757 25.072Z" fill="#D92E10"/>
<path d="M34.4775 12.3295C34.4775 10.9198 34.4775 9.51005 34.4775 8.06267C34.8785 8.0045 35.1491 8.1311 35.1565 8.54627C35.1826 9.94916 35.1975 11.3521 35.1987 12.755C35.1987 12.9066 35.1106 13.0948 34.9939 13.1986C34.907 13.275 34.7059 13.2431 34.5557 13.2602C34.5818 13.1473 34.6029 13.0321 34.6339 12.9203C34.7146 12.6261 34.799 12.3329 34.8822 12.0398C34.8338 12.0284 34.7854 12.017 34.7382 12.0045C34.6935 12.1151 34.6488 12.2257 34.6041 12.3364C34.5619 12.3341 34.5197 12.3318 34.4775 12.3295Z" fill="#F1F1F1"/>
<path d="M25.082 28.3271C25.1999 28.4925 25.3066 28.6659 25.4357 28.8233C25.8876 29.373 25.8963 30.0699 25.4469 30.5547C24.9839 31.0542 24.362 31.0577 23.8407 30.59C24.0182 30.5033 24.2118 30.4201 24.3918 30.3174C24.5644 30.2193 24.7232 30.1007 25.0236 30.0619C24.9069 30.2672 24.7903 30.4714 24.6972 30.6345C25.3302 30.5045 25.5139 30.1965 25.3116 29.5111C24.5308 29.762 24.4117 29.7278 23.8332 29.0662C23.7451 29.1221 23.6557 29.178 23.5254 29.2613C23.7054 28.7594 24.0443 28.5222 24.5718 28.4777C24.7468 28.464 24.9132 28.3796 25.082 28.3271Z" fill="#F1F1F1"/>
<path d="M43.0884 34.3206C43.292 34.2556 43.4931 34.145 43.6991 34.1347C44.8523 34.0788 46.0054 34.048 47.1586 34.0092C47.9741 33.9819 48.1578 34.1393 48.0672 34.8989C47.9356 36.0052 47.7606 37.107 47.6489 37.8917C47.6489 36.9736 47.6489 35.7338 47.6489 34.3925C46.1482 34.3651 44.6102 34.3366 43.0723 34.3081L43.0884 34.3206Z" fill="#F1F1F1"/>
<path d="M5.60352 10.5757C8.64468 9.65641 11.7976 9.19448 14.9206 8.61279C14.9393 8.69035 14.9591 8.76791 14.9777 8.84547C11.8534 9.42259 8.72909 9.99972 5.60352 10.5757Z" fill="#F1F1F1"/>
<path d="M1.12815 26.6423C1.08594 26.1712 0.996571 25.699 1.00898 25.228C1.05119 23.6358 1.11822 22.0435 1.20635 20.4524C1.22249 20.1513 1.37641 19.8559 1.53033 19.5845C1.44468 21.9318 1.35779 24.2802 1.27214 26.6275C1.22373 26.6332 1.17532 26.6377 1.12815 26.6423Z" fill="#F1F1F1"/>
<path d="M45.7079 39.7418C44.1252 39.6654 42.5426 39.5947 40.9612 39.5023C40.8457 39.4954 40.7402 39.3358 40.667 39.1841C42.3986 39.1727 44.0855 39.2628 45.765 39.4259C45.7451 39.5319 45.7265 39.6369 45.7079 39.7418Z" fill="#F1F1F1"/>
<path d="M40.7112 38.1074C41.5193 38.1861 42.2901 38.2614 43.0783 38.339C42.9766 38.8579 42.732 39.0963 42.1784 39.0005C41.8966 38.9514 41.6012 38.9583 41.312 38.9651C40.6752 38.98 40.5362 38.6834 40.7112 38.1074Z" fill="#F1F1F1"/>
<path d="M34.7928 40.4277C34.6563 41.4759 34.156 42.3177 33.0376 42.7362C32.2047 43.0476 31.4835 42.7784 30.8281 42.2732C31.6461 42.4967 32.4555 42.6142 33.2449 42.2116C34.0257 41.8124 34.449 41.1577 34.7928 40.4277Z" fill="#F1F1F1"/>
<path d="M25.0823 28.3287C24.9606 28.3515 24.8415 28.3891 24.7186 28.396C23.7355 28.4485 23.3916 28.6652 23.2154 29.3541C23.0354 30.0635 23.3147 30.6064 24.0632 31.0033C24.1079 31.0273 24.1488 31.0558 24.2817 31.1379C23.517 31.0695 23.0652 30.757 22.8405 30.1935C22.6183 29.6346 22.7027 29.1031 23.1583 28.6595C23.5878 28.2409 24.0979 28.0538 24.7248 28.2614C24.8365 28.299 24.9606 28.307 25.0823 28.3287C25.081 28.3287 25.0823 28.3287 25.0823 28.3287Z" fill="#F1F1F1"/>
<path d="M1.18761 31.4484C1.35146 31.2739 1.51655 31.0994 1.6804 30.9249C1.70895 30.9386 1.7375 30.9534 1.76605 30.9671C1.72385 31.1188 1.6804 31.2693 1.6382 31.421C1.67668 31.4324 1.7164 31.4439 1.75488 31.4541C1.84425 31.1541 1.93487 30.8553 2.04162 30.5017C1.50042 30.6466 1.06597 30.3466 1.12679 29.9486C1.14665 29.8208 1.27078 29.6532 1.39367 29.6064C1.50538 29.5642 1.71516 29.6224 1.81943 29.7045C2.24892 30.0444 2.28243 31.177 1.8517 31.5328C1.7164 31.6457 1.44952 31.6241 1.24223 31.664C1.22485 31.5933 1.20623 31.5214 1.18761 31.4484Z" fill="#F1F1F1"/>
<path d="M1.3594 29.373C0.466918 30.1019 0.468158 31.1329 1.29362 31.8914C0.627043 31.8663 0.281965 31.4352 0.283206 30.6299C0.283206 29.8418 0.643181 29.3993 1.3594 29.373Z" fill="#F1F1F1"/>
<path d="M39.1482 30.2025C39.101 30.6291 39.0551 31.0557 39.0005 31.5541C38.3215 31.4184 37.7257 31.2998 37.1299 31.1811C37.1448 31.1013 37.1584 31.0226 37.1733 30.9428C37.5668 30.9918 37.9603 31.042 38.3749 31.0945C38.5834 30.7785 38.7957 30.4592 39.0067 30.1387C39.0539 30.1592 39.101 30.1809 39.1482 30.2025Z" fill="#F1F1F1"/>
<path d="M40.6951 37.1031C40.8168 37.1693 40.931 37.2765 41.0613 37.2948C41.6919 37.3849 42.3274 37.4487 42.9592 37.5309C43.0834 37.5468 43.2001 37.605 43.313 37.7795C43.1715 37.8 43.0275 37.8479 42.8897 37.8354C42.2741 37.7818 41.6621 37.694 41.0464 37.6506C40.5995 37.6198 40.5114 37.4442 40.7026 37.0963C40.7051 37.0952 40.6951 37.1031 40.6951 37.1031Z" fill="#F1F1F1"/>
<path d="M37.4812 34.5352C37.8486 34.5066 38.3154 34.5933 38.5587 34.4177C38.8218 34.2272 38.8764 33.7938 39.1669 33.4893C39.1148 33.9637 39.0639 34.4382 39.0043 34.9834C38.4234 34.8671 37.9368 34.769 37.4502 34.672C37.4601 34.6264 37.4713 34.5808 37.4812 34.5352Z" fill="#F1F1F1"/>
<path d="M44.6139 37.2686C43.7226 37.2903 43.7226 37.2903 43.7449 36.5831C44.5617 36.5261 44.6374 36.5831 44.6139 37.2686Z" fill="#F1F1F1"/>
<path d="M44.417 38.5102C44.3537 38.7064 44.2904 38.8991 44.2296 39.0873C43.9043 39.0873 43.6189 39.0873 43.3271 39.0873C43.5369 38.3437 43.5369 38.3437 44.417 38.5102Z" fill="#F1F1F1"/>
<path d="M42.9258 35.0926C43.7972 35.0105 44.0069 35.5659 44.3955 36.1351C43.8493 35.7473 43.4235 35.445 42.9258 35.0926Z" fill="#F1F1F1"/>
<path d="M34.3912 24.002C34.2684 24.2004 34.1045 24.343 34.1269 24.4536C34.1951 24.7901 33.8078 25.3102 34.493 25.4984C34.3068 25.4265 33.9742 25.3729 33.9618 25.2817C33.9059 24.8802 33.9332 24.4662 33.9667 24.059C33.9692 24.0282 34.2584 24.0179 34.3912 24.002Z" fill="#F1F1F1"/>
<path d="M29.8006 31.7518C29.4108 31.6993 28.9466 31.7187 28.5754 31.559C28.3011 31.4404 28.002 31.1028 27.9684 30.8348C27.8853 30.1812 27.9337 29.5117 27.9597 28.8502C27.9821 28.2867 28.347 27.9742 28.9714 28.0392C29.746 28.1202 30.5106 28.2731 31.2876 28.3962C30.7961 29.506 30.3182 30.5827 29.8006 31.7518Z" fill="#D92E10"/>
<path d="M31.973 36.6499C31.2555 37.7927 31.2952 38.8056 32.1443 39.7477C31.7334 39.6553 31.4404 39.3336 31.3374 38.7337C31.2046 37.9558 31.248 37.2019 31.973 36.6499Z" fill="#D92E10"/>
</svg>
