<svg width="49" height="45" viewBox="0 0 49 45" fill="none" xmlns="http://www.w3.org/2000/svg">
<path d="M44.9498 11.6369C44.7561 11.6369 44.6183 11.6369 44.4246 11.6369C44.4246 17.8881 44.4246 24.1382 44.4246 30.4507C44.1792 30.4507 43.9887 30.4507 43.7982 30.4507C41.7532 30.4507 39.7093 30.4496 37.6643 30.4518C37.0218 30.4529 36.8808 30.5949 36.8776 31.2375C36.8754 31.7939 36.8754 32.3493 36.8776 32.9058C36.8808 33.544 37.0196 33.6796 37.6751 33.6807C39.7018 33.6818 41.7285 33.6818 43.7551 33.6818C43.95 33.6818 44.1448 33.6818 44.3719 33.6818C44.3869 33.8486 44.4117 33.9853 44.4085 34.122C44.3772 35.518 44.6151 36.9914 44.2406 38.2894C43.7261 40.0739 43.9736 41.8272 43.8821 43.5913C43.8273 44.6342 43.528 44.9819 42.4883 44.9819C41.5552 44.983 40.6231 44.9851 39.6899 44.9808C38.9161 44.9776 38.4985 44.5643 38.4942 43.7861C38.4877 42.7679 38.492 41.7508 38.492 40.7047C29.1594 40.7047 19.8752 40.7047 10.507 40.7047C10.507 41.4753 10.4844 42.2556 10.5124 43.0359C10.5652 44.5266 10.4392 45.0906 8.5514 44.9883C7.81844 44.9485 7.08117 44.984 6.34605 44.9808C5.54205 44.9776 5.13306 44.5675 5.12875 43.7517C5.12337 42.712 5.12876 41.6712 5.1266 40.6315C5.12553 39.9588 5.11153 39.3151 4.81986 38.6543C4.58737 38.1269 4.61643 37.4693 4.59814 36.8676C4.56692 35.8312 4.58953 34.7925 4.58953 33.6807C4.81017 33.6807 4.9996 33.6807 5.18903 33.6807C7.19741 33.6807 9.20687 33.6807 11.2153 33.6807C12.0386 33.6807 12.1237 33.5924 12.1237 32.7465C12.1237 32.2266 12.1269 31.7057 12.1226 31.1858C12.1183 30.6111 11.9644 30.4529 11.3928 30.4518C9.25853 30.4486 7.12422 30.4507 4.98991 30.4507C4.88336 30.4507 4.7768 30.4507 4.61213 30.4507C4.61213 24.1802 4.61213 17.9322 4.61213 11.6455C4.40656 11.6358 4.25803 11.6294 4.08474 11.6208C4.07075 11.737 4.05138 11.822 4.05138 11.9082C4.04922 13.7013 4.05137 15.4955 4.04922 17.2886C4.04815 17.9236 3.89854 18.07 3.25706 18.0721C2.6651 18.0743 2.07313 18.0678 1.48116 18.0743C1.03773 18.0786 0.820312 17.872 0.820312 17.4242C0.822465 14.9853 0.822465 12.5453 0.820312 10.1064C0.820312 9.65652 1.04418 9.45956 1.48654 9.46171C2.50365 9.46709 3.52076 9.46386 4.58845 9.46386C4.58845 7.96242 4.53464 6.51156 4.6089 5.06824C4.65303 4.20397 4.82631 3.33109 5.06633 2.49695C5.43873 1.20216 6.46122 0.713516 7.72372 0.640327C11.0656 0.446592 14.4054 0.180745 17.7506 0.0935643C21.7447 -0.0108371 25.7443 -0.0302106 29.7395 0.0472833C33.3365 0.116167 36.9303 0.360488 40.5252 0.542383C41.0407 0.568215 41.553 0.675845 42.0643 0.75872C43.0889 0.925547 43.6766 1.61976 43.9446 2.53462C44.1878 3.3666 44.3503 4.24271 44.3934 5.10699C44.4655 6.53417 44.4128 7.96888 44.4128 9.46386C45.4148 9.46386 46.377 9.46279 47.3392 9.46386C48.0238 9.46494 48.1798 9.62316 48.1798 10.3195C48.1809 12.6336 48.1809 14.9466 48.1798 17.2606C48.1798 17.9376 48.0431 18.0711 47.3618 18.0732C46.8237 18.0754 46.2855 18.0754 45.7474 18.0732C45.1037 18.07 44.9541 17.9258 44.9531 17.2918C44.9509 15.5342 44.952 13.7766 44.952 12.019C44.9498 11.9125 44.9498 11.807 44.9498 11.6369ZM37.3253 26.2445C37.3135 26.2962 37.3027 26.3468 37.2909 26.3984C37.6504 26.4942 38.0088 26.6632 38.3704 26.6729C39.6071 26.7073 40.8448 26.6869 42.0826 26.6858C42.9339 26.6847 43.3343 26.2929 43.3343 25.4405C43.3365 20.1677 43.3365 14.8949 43.3343 9.62208C43.3343 8.80194 42.9318 8.39079 42.1181 8.39079C30.3702 8.38864 18.6235 8.38864 6.8756 8.39079C6.08344 8.39079 5.66691 8.79656 5.66691 9.5758C5.6626 14.9024 5.6626 20.2291 5.66691 25.5557C5.66691 26.2521 6.10927 26.6804 6.81317 26.6858C7.70973 26.6923 8.61813 26.5997 9.5007 26.7095C10.6685 26.8548 11.5037 26.2886 12.4347 25.616C11.9116 25.6525 11.4757 25.7031 11.0398 25.7074C10.7115 25.7107 10.4952 25.5266 10.4909 25.1779C10.4866 24.8303 10.6846 24.6634 11.0269 24.6419C12.6715 24.5364 14.315 24.4277 15.9585 24.3179C17.8528 24.192 19.746 24.0607 21.6403 23.9401C23.7488 23.8056 25.8584 23.6786 27.9679 23.5494C28.2919 23.5301 28.5427 23.6302 28.5943 23.9864C28.6503 24.3739 28.4124 24.5558 28.0745 24.5967C27.6838 24.643 27.2877 24.6419 26.8948 24.6667C23.6606 24.8744 20.4284 25.1112 17.192 25.2791C15.669 25.3587 14.2128 25.5288 12.9858 26.5566C12.6284 26.8559 12.199 27.069 11.6673 27.4069C20.1862 27.4069 28.5362 27.4069 37.0056 27.4069C36.348 27.0722 35.812 26.7558 35.2427 26.5254C34.8304 26.3586 34.373 26.2208 33.9339 26.2165C30.1528 26.1724 26.3718 26.1627 22.5907 26.139C22.3959 26.138 22.157 26.1649 22.0181 26.0669C21.8427 25.9432 21.6285 25.6859 21.6532 25.5202C21.6802 25.3436 21.9449 25.1316 22.1473 25.0703C22.3916 24.9971 22.679 25.0703 22.948 25.0724C28.1046 25.1069 33.2612 25.1435 38.4178 25.1704C38.7891 25.1725 39.0969 25.2683 39.112 25.6633C39.1281 26.0852 38.8074 26.2359 38.4253 26.2445C38.0583 26.251 37.6912 26.2445 37.3253 26.2445ZM24.4721 7.31126C26.4094 7.31126 28.3457 7.31126 30.283 7.31126C34.0135 7.31126 37.744 7.31126 41.4745 7.31126C42.1159 7.31126 42.2569 7.16918 42.2591 6.52556C42.2612 5.87977 42.3054 5.22969 42.2472 4.58928C42.188 3.93812 42.0675 3.28373 41.8974 2.65301C41.7586 2.14069 41.3905 1.91575 40.805 1.91682C29.9365 1.93297 19.068 1.93297 8.19945 1.91682C7.61502 1.91575 7.28674 2.14823 7.09624 2.64871C6.99506 2.91456 6.8756 3.19009 6.85838 3.46778C6.79703 4.44937 6.76581 5.43311 6.74536 6.41577C6.72814 7.21762 6.8347 7.31126 7.63224 7.31126C13.2452 7.31126 18.8581 7.31126 24.4721 7.31126Z" fill="#D92E10"/>
</svg>
