<svg width="65" height="45" viewBox="0 0 65 45" fill="none" xmlns="http://www.w3.org/2000/svg">
<path d="M48.0504 1.58686C48.0504 2.20843 48.0558 2.80847 48.0423 3.4112C48.0423 3.47847 47.9589 3.58072 47.8916 3.60762C46.627 4.08658 46.1077 4.79694 46.0861 6.16115C46.07 7.33432 46.0781 8.50749 46.0942 9.67797C46.0969 9.8152 46.1749 9.98202 46.2718 10.087C46.5893 10.4287 46.7507 10.8215 46.7507 11.2844C46.7507 11.7579 46.7454 12.2315 46.7507 12.7051C46.7561 13.2136 46.6001 13.6522 46.2207 14.0074C46.1507 14.072 46.0996 14.1877 46.0969 14.2845C46.0834 14.6935 46.0781 15.1025 46.0996 15.5115C46.105 15.5923 46.2341 15.7268 46.3175 15.7376C48.2845 15.9447 50.2541 16.1385 52.2237 16.3376C54.9629 16.6147 57.7021 16.8946 60.4386 17.1825C60.5382 17.1933 60.662 17.2659 60.7158 17.3466C62.0585 19.2947 63.3958 21.2455 64.725 23.2017C64.7923 23.3013 64.8407 23.4385 64.8407 23.5569C64.8461 26.7966 64.8434 30.0362 64.8434 33.2759C64.8434 33.3378 64.8326 33.4024 64.8272 33.4804C63.8936 33.4804 62.9733 33.4804 62.088 33.4804C60.3821 29.0541 57.2797 26.5194 52.474 26.3687C48.4836 26.2423 44.1972 28.8953 42.7953 33.4885C42.5209 33.4885 42.241 33.4885 41.9047 33.4885C42.0984 32.1485 42.2895 30.83 42.4832 29.4792C39.1601 29.4792 35.8747 29.4792 32.5274 29.4792C32.6001 29.9098 32.6593 30.3295 32.748 30.7412C32.7588 30.7896 32.9203 30.8354 33.0117 30.8354C33.8513 30.8435 34.6908 30.8381 35.5303 30.8408C37.3385 30.8435 39.1467 30.8488 40.9522 30.8515C40.9925 30.8515 41.0356 30.8596 41.1217 30.865C40.7692 33.5773 40.4194 36.2788 40.0669 38.9991C38.8857 38.9991 37.7367 38.9991 36.5851 38.9991C35.7456 38.9991 34.906 38.9938 34.0665 39.0045C33.8835 39.0072 33.8082 38.948 33.749 38.7758C33.1597 37.0134 32.5409 35.2617 31.9731 33.4912C31.8305 33.0499 31.8601 32.5575 31.7928 32.0893C31.147 27.55 28.8303 24.1085 24.7457 22.0662C19.8997 19.6445 15.1962 20.1665 10.7942 23.3336C10.6785 23.417 10.5305 23.5004 10.3959 23.5004C8.44783 23.5111 6.49972 23.5085 4.55161 23.5058C4.50856 23.5058 4.4682 23.4977 4.37402 23.4869C4.49242 23.043 4.59736 22.6097 4.72382 22.1819C5.14627 20.7746 5.65482 19.4077 6.55623 18.2265C6.99482 17.6534 7.5249 17.1933 8.21373 16.9349C8.30253 16.9026 8.39939 16.7708 8.41554 16.6739C8.65771 15.0676 8.88104 13.4612 9.11783 11.8548C9.61562 8.46175 10.1215 5.0687 10.6139 1.67297C10.6516 1.42004 10.7511 1.32317 11.0014 1.26128C13.8616 0.548233 16.7703 0.18229 19.7113 0.0719692C21.2693 0.0127726 22.8326 -0.0195163 24.3906 0.0127728C27.006 0.0692786 29.6106 0.273776 32.183 0.779638C33.0037 0.941084 33.8243 1.12136 34.6396 1.3151C34.7365 1.33932 34.8576 1.47923 34.8764 1.58417C35.1401 2.99951 35.3877 4.42023 35.6406 5.83826C35.6675 5.98625 35.7133 6.12886 35.7563 6.31183C36.2729 6.31183 36.8003 6.31183 37.325 6.31183C37.4623 5.65529 37.7259 5.4481 38.3502 5.48039C38.9179 5.51268 39.1009 5.70641 39.1009 6.27954C39.1009 8.46444 39.1009 10.6493 39.1009 12.8342C39.1009 13.3159 39.0229 13.4477 38.6516 13.5823C38.2829 13.7168 37.6398 13.6145 37.473 13.3697C37.4057 13.2728 37.3869 13.1302 37.3842 13.0064C37.3735 12.6001 37.3815 12.1911 37.3815 11.7606C37.1609 11.7606 36.9752 11.7606 36.7384 11.7606C36.7896 12.0593 36.838 12.3391 36.8891 12.619C37.0075 13.2755 37.1232 13.9321 37.2551 14.5832C37.2739 14.6801 37.3869 14.8281 37.4676 14.8361C39.6498 15.0649 41.832 15.2801 44.0142 15.4954C44.025 15.4954 44.0358 15.49 44.0977 15.4658C44.0977 15.0514 44.103 14.6182 44.0923 14.1823C44.0896 14.1231 44.0116 14.0585 43.955 14.0128C43.573 13.6926 43.4196 13.2674 43.4142 12.7858C43.4088 12.2799 43.4088 11.7741 43.4142 11.2682C43.4169 10.8054 43.5891 10.4179 43.9093 10.0789C44.0116 9.96857 44.095 9.79098 44.0977 9.64299C44.1111 8.36219 44.0977 7.08139 44.1084 5.80059C44.1273 3.65336 45.9247 1.71333 48.0504 1.58686ZM21.4792 10.2968C21.4792 12.1911 21.4845 14.0827 21.4738 15.977C21.4711 16.2622 21.5464 16.386 21.8397 16.456C24.7888 17.1637 27.3235 18.6005 29.4115 20.815C29.5057 20.9146 29.6833 20.9899 29.8205 20.9926C30.843 21.0087 31.8655 20.9926 32.8853 21.0087C33.1409 21.0141 33.2297 20.9199 33.297 20.6885C33.8809 18.6759 34.4863 16.6712 35.0621 14.6586C35.1401 14.3814 35.1643 14.0639 35.1132 13.7814C34.7419 11.6422 34.3464 9.50845 33.9589 7.3693C33.706 5.9728 33.4503 4.5763 33.2082 3.17979C33.1597 2.90534 33.0656 2.74927 32.7669 2.70622C31.4161 2.51248 30.0734 2.27032 28.72 2.10349C26.3871 1.81558 24.0408 1.80751 21.6971 1.79405C21.5195 1.79405 21.4469 1.86132 21.4496 2.0416C21.463 2.92148 21.4765 3.80136 21.4765 4.68393C21.4818 6.55131 21.4792 8.42408 21.4792 10.2968ZM18.8072 1.92321C18.3821 1.97433 17.9812 2.012 17.5803 2.0712C16.1568 2.28108 14.7334 2.49634 13.31 2.70622C13.0921 2.73851 12.9791 2.83268 12.9602 3.07216C12.9333 3.40313 12.8607 3.7314 12.8122 4.05967C12.301 7.55765 11.7897 11.0583 11.2812 14.559C11.1978 15.1402 11.1224 15.7214 11.0336 16.3537C13.6383 15.9851 16.2026 15.8317 18.8072 15.9555C18.8072 11.2736 18.8072 6.63203 18.8072 1.92321ZM59.887 21.4393C56.2034 20.9334 52.5278 20.4302 48.8119 19.9217C48.8119 20.4464 48.8226 20.9173 48.8065 21.3854C48.7984 21.6007 48.8899 21.6599 49.0809 21.6814C50.4694 21.8321 51.8578 21.9909 53.2435 22.1469C54.7073 22.3111 56.1684 22.4779 57.6322 22.6447C58.3748 22.7281 59.1148 22.8089 59.887 22.8923C59.887 22.3837 59.887 21.9263 59.887 21.4393ZM48.8307 18.6812C52.5197 19.0983 56.1953 19.5154 59.9005 19.9351C59.9005 19.4454 59.9005 18.9718 59.9005 18.4821C56.1926 17.9736 52.5197 17.4677 48.8307 16.9592C48.8307 17.5619 48.8307 18.1054 48.8307 18.6812ZM36.9914 16.4425C37.1232 17.1879 37.2497 17.8713 37.3627 18.5602C37.4219 18.918 37.5349 19.2893 37.5026 19.6418C37.282 21.9209 37.0263 24.1946 36.7842 26.471C36.7277 26.9957 36.6766 27.5231 36.6227 28.0478C36.7492 27.811 36.8111 27.5634 36.873 27.3186C37.5053 24.7327 38.1376 22.1469 38.77 19.5611C38.6919 18.5951 38.6166 17.6292 38.5386 16.6739C37.9843 16.5905 37.5188 16.5206 36.9914 16.4425ZM36.507 32.8696V32.8723C35.7348 32.8723 34.9598 32.8696 34.1876 32.875C33.7867 32.8777 33.5257 33.1171 33.5284 33.4696C33.5284 33.8167 33.7652 34.0481 34.1553 34.0508C35.724 34.0562 37.29 34.0562 38.8588 34.0508C39.2516 34.0508 39.483 33.8194 39.483 33.4696C39.483 33.1198 39.2139 32.875 38.8265 32.8723C38.0542 32.8669 37.282 32.8696 36.507 32.8696ZM37.3654 11.4108C37.3654 9.80712 37.3654 8.23303 37.3654 6.63472C36.8407 6.63472 36.3375 6.63472 35.8021 6.63472C35.8666 6.97914 35.9258 7.27243 35.977 7.56572C36.1976 8.77926 36.4129 9.99548 36.6443 11.2063C36.6604 11.2844 36.7788 11.3839 36.8649 11.4001C37.0183 11.4323 37.1797 11.4108 37.3654 11.4108ZM37.0048 37.7264C37.0048 37.7291 37.0048 37.7291 37.0048 37.7264C37.5968 37.7291 38.1888 37.7345 38.778 37.7237C38.9233 37.721 39.0875 37.6995 39.2032 37.6242C39.405 37.4923 39.4992 37.2851 39.4211 37.0349C39.3296 36.7497 39.1171 36.6367 38.8292 36.6367C37.6237 36.6367 36.4209 36.6313 35.2155 36.634C34.8522 36.634 34.6047 36.8815 34.6127 37.2071C34.6208 37.5058 34.8711 37.721 35.2316 37.7237C35.8236 37.7291 36.4155 37.7264 37.0048 37.7264Z" fill="#D92E10"/>
<path d="M27.1304 27.7922C27.2703 28.3654 27.5421 28.9842 28.0803 29.4524C28.3144 29.6569 28.5834 29.7161 28.8929 29.6246C29.2292 29.5278 29.4499 29.6273 29.5387 29.9664C29.7431 30.744 29.918 31.5297 30.0876 32.3181C30.1441 32.5791 29.8212 32.789 29.4499 32.7513C29.3046 32.7378 29.1593 32.6921 28.987 32.6544C28.7879 33.3244 28.7395 33.981 28.9413 34.6348C29.0301 34.9254 29.2238 35.1488 29.5656 35.2214C29.9127 35.2941 30.0553 35.5335 29.9638 35.8726C29.7674 36.5856 29.5575 37.2987 29.3288 38.001C29.205 38.3804 29.0193 38.453 28.6453 38.2808C28.4677 38.2001 28.317 38.0521 28.1233 37.9122C27.6417 38.3911 27.2165 38.9427 27.1143 39.6585C27.082 39.8791 27.195 40.167 27.3349 40.3554C27.6013 40.7132 27.6524 40.907 27.3349 41.2218C26.8344 41.7223 26.3151 42.2066 25.7877 42.6802C25.481 42.9573 25.2388 42.9116 25.0074 42.5564C24.9105 42.4084 24.8648 42.2254 24.776 42.0183C24.0549 42.2174 23.358 42.4784 22.9382 43.1672C22.8414 43.326 22.844 43.5789 22.8736 43.7753C22.9328 44.1628 22.8629 44.3646 22.4889 44.4668C21.8054 44.6525 21.1166 44.822 20.4251 44.9646C19.9031 45.0723 19.6259 44.7117 19.79 44.187C19.8169 44.0982 19.8465 44.0094 19.8815 43.8964C19.147 43.6381 18.4393 43.6085 17.7558 43.9206C17.5621 44.0094 17.3953 44.2516 17.3092 44.4615C17.1612 44.8247 16.989 44.9781 16.5988 44.8705C15.8858 44.674 15.1781 44.4561 14.4731 44.2274C14.1395 44.1197 14.0668 43.9691 14.2013 43.6435C14.2874 43.4336 14.4489 43.2533 14.5888 43.0381C14.204 42.6129 13.7278 42.2712 13.1573 42.0882C12.7618 41.9618 12.3824 41.9591 12.0649 42.3196C11.8873 42.5214 11.6128 42.543 11.4272 42.3546C10.8379 41.7599 10.2728 41.1438 9.71047 40.5222C9.65665 40.463 9.65665 40.2693 9.71047 40.2181C9.92304 40.011 10.1679 39.8361 10.4612 39.602C10.4746 39.1069 9.83155 38.0198 9.28533 37.7992C9.12388 37.7346 8.90862 37.748 8.73103 37.7857C8.4216 37.8503 8.16867 37.7749 8.09063 37.4709C7.88614 36.6825 7.70316 35.886 7.53903 35.0896C7.52019 34.9927 7.64397 34.7882 7.73545 34.764C8.00184 34.694 8.28706 34.6886 8.65031 34.6483C8.83597 34.0133 8.94091 33.2814 8.5669 32.571C8.4781 32.4042 8.26284 32.267 8.07718 32.1943C7.69778 32.0463 7.55517 31.8741 7.6628 31.492C7.85116 30.8086 8.05296 30.1305 8.27091 29.4551C8.41352 29.0165 8.73372 28.925 9.12388 29.1887C9.2369 29.2668 9.33107 29.3717 9.47368 29.5009C10.0091 28.9627 10.4666 28.3788 10.5177 27.585C10.5285 27.4021 10.3912 27.1814 10.2648 27.02C10.0145 26.6971 9.97685 26.4926 10.2648 26.202C10.7706 25.6934 11.2953 25.1983 11.8281 24.7167C12.1375 24.4369 12.3474 24.4638 12.5869 24.8109C12.6972 24.9723 12.7537 25.1714 12.8479 25.3786C13.4775 25.2145 14.0695 24.9535 14.5296 24.4584C14.7583 24.2108 14.874 23.9283 14.7476 23.5731C14.6426 23.2798 14.7637 23.0242 15.0731 22.9435C15.8508 22.7417 16.6392 22.5775 17.4222 22.3892C17.6294 22.3408 17.7504 22.4403 17.78 22.6125C17.8285 22.8897 17.8312 23.1722 17.8554 23.5112C18.4474 23.6969 19.1147 23.7803 19.7873 23.5301C20.0591 23.4305 20.2475 23.2422 20.3309 22.9408C20.4385 22.5479 20.6296 22.4242 21.0278 22.5345C21.7839 22.7417 22.5292 22.9812 23.2719 23.2287C23.3553 23.2556 23.4683 23.4359 23.4468 23.5059C23.358 23.7992 23.2208 24.0763 23.0781 24.4153C23.4414 24.8109 23.9473 25.1607 24.5581 25.3436C24.9025 25.4459 25.2307 25.419 25.5052 25.1257C25.7554 24.8593 26.0111 24.8405 26.2667 25.1015C26.8237 25.6665 27.3618 26.2531 27.8892 26.8451C27.9538 26.9177 27.9619 27.1438 27.9 27.2003C27.6793 27.4075 27.4291 27.5689 27.1304 27.7922ZM12.038 33.7011C12.046 37.3041 14.8498 40.428 18.8106 40.4872C22.5292 40.5437 25.5832 37.4198 25.5779 33.6742C25.5725 29.961 22.5265 26.9258 18.8106 26.9285C15.0678 26.9339 12.0326 29.9664 12.038 33.7011Z" fill="#D92E10"/>
<path d="M45.3571 33.2358C45.5966 32.8375 45.8334 32.4931 46.0137 32.1245C46.1617 31.8204 46.159 31.5056 45.8737 31.2392C45.6988 31.0751 45.6988 30.8625 45.8711 30.6957C46.3016 30.2759 46.7375 29.8616 47.1922 29.4687C47.2595 29.4095 47.4801 29.423 47.5501 29.4876C47.69 29.6194 47.7788 29.8104 47.916 30.023C48.3842 29.9127 48.8632 29.7082 49.1941 29.275C49.3071 29.127 49.3475 28.8741 49.3206 28.683C49.2829 28.4005 49.3744 28.231 49.622 28.1637C50.1386 28.0238 50.6606 27.8919 51.188 27.787C51.5835 27.709 51.7557 27.9027 51.7019 28.3117C51.6912 28.3978 51.6696 28.4812 51.6508 28.5808C52.1244 28.7772 52.6114 28.796 53.0984 28.6534C53.3406 28.5808 53.5343 28.4382 53.5935 28.1556C53.6527 27.8866 53.8411 27.787 54.1048 27.8623C54.6106 28.0049 55.1192 28.1422 55.6197 28.3063C56.0071 28.4328 56.0717 28.6965 55.8215 29.0355C55.7703 29.1028 55.7111 29.1647 55.6385 29.2454C56.0017 29.6355 56.4134 29.945 56.9381 30.0257C57.113 30.0526 57.3471 29.9746 57.4924 29.8616C57.7454 29.6625 57.9525 29.6463 58.1705 29.8723C58.5364 30.2517 58.9051 30.6284 59.2522 31.0213C59.5051 31.3065 59.4594 31.4868 59.1176 31.6751C59.0154 31.7316 58.9024 31.7639 58.7598 31.8231C58.8889 32.3505 59.1042 32.8349 59.5509 33.1658C59.6935 33.2708 59.9329 33.3004 60.1159 33.2761C60.4119 33.2331 60.576 33.3273 60.6433 33.6044C60.7671 34.1157 60.8935 34.6269 60.9985 35.1408C61.0792 35.5283 60.9231 35.6897 60.5222 35.6601C60.4173 35.6521 60.315 35.6252 60.1913 35.601C60.0433 36.0961 59.9921 36.5911 60.1563 37.0647C60.2209 37.2531 60.4388 37.4307 60.6325 37.5275C60.872 37.6486 61.0092 37.7832 60.9366 38.0468C60.7778 38.6146 60.6083 39.1797 60.428 39.742C60.3608 39.9492 60.0621 39.9923 59.8334 39.8389C59.7365 39.7743 59.6585 39.6882 59.5697 39.6102C59.0719 39.9465 58.854 40.4443 58.7409 40.9852C58.7113 41.1278 58.819 41.335 58.9266 41.4587C59.1446 41.7117 59.1903 41.8597 58.9616 42.0964C58.6145 42.4597 58.2512 42.8122 57.8718 43.1431C57.4951 43.4741 57.2476 43.3907 57.0834 42.9064C57.0673 42.8552 57.0538 42.8041 57.0404 42.7557C56.5776 42.7288 55.7138 43.2535 55.5551 43.6759C55.5093 43.7943 55.5093 43.9477 55.5389 44.0741C55.6035 44.3621 55.504 44.5396 55.2295 44.6123C54.7209 44.7441 54.2097 44.876 53.6958 44.9809C53.2787 45.0643 53.1038 44.876 53.1684 44.4455C53.1818 44.3621 53.2034 44.2813 53.2276 44.1764C52.719 44.0123 52.2078 43.9665 51.7127 44.1468C51.5405 44.2114 51.3817 44.4105 51.2956 44.5881C51.1396 44.9056 51.0508 44.9917 50.701 44.8975C50.2139 44.7684 49.7296 44.6257 49.2506 44.467C48.8443 44.3325 48.7825 44.0849 49.0461 43.7432C49.0973 43.6759 49.1592 43.614 49.2399 43.5252C48.8928 43.1458 48.4892 42.8606 47.9806 42.7476C47.7438 42.6938 47.5151 42.718 47.3321 42.9252C47.1492 43.1324 46.9312 43.1297 46.7429 42.936C46.3608 42.5431 45.9814 42.1476 45.6127 41.7413C45.3894 41.491 45.4325 41.2758 45.7258 41.1062C45.8253 41.047 45.941 41.0201 46.0971 40.9609C45.9679 40.3932 45.7419 39.8766 45.2253 39.5429C45.1096 39.4676 44.9131 39.4649 44.7705 39.4972C44.5122 39.5564 44.3212 39.4918 44.2566 39.2469C44.0978 38.6442 43.966 38.0361 43.8422 37.428C43.8288 37.358 43.9149 37.21 43.9795 37.1939C44.1866 37.1454 44.4073 37.1428 44.6817 37.1158C44.8378 36.6665 44.8835 36.1364 44.679 35.6225C44.6118 35.453 44.3965 35.3077 44.2162 35.2242C43.966 35.1085 43.8557 34.9632 43.931 34.6995C44.0763 34.1937 44.2162 33.6851 44.3804 33.1873C44.5149 32.7837 44.7625 32.7218 45.1015 32.9855C45.158 33.0367 45.2145 33.1012 45.3571 33.2358ZM57.6001 36.349C57.5893 33.5291 55.2699 31.2231 52.45 31.2258C49.5708 31.2312 47.2541 33.5237 47.2568 36.3705C47.2595 39.2335 49.5789 41.5556 52.423 41.5448C55.3075 41.5368 57.6108 39.2227 57.6001 36.349Z" fill="#D92E10"/>
<path d="M3.36535 19.5825C3.36535 21.3719 3.36535 23.1424 3.36535 24.9398C5.25426 24.9398 7.11088 24.9398 9.05898 24.9398C6.90369 27.4207 5.7951 30.2487 5.69823 33.4964C4.91791 33.4964 4.15912 33.4964 3.3788 33.4964C3.3788 34.3521 3.3788 35.1754 3.3788 36.0177C3.55639 36.0257 3.71245 36.0338 3.89542 36.0446C3.89542 36.5908 3.89542 37.1343 3.89542 37.7021C2.66844 37.7021 1.42531 37.7021 0.155273 37.7021C0.155273 37.1666 0.155273 36.6258 0.155273 36.0526C0.305956 36.0419 0.46202 36.0311 0.669208 36.0177C0.669208 30.5447 0.669208 25.077 0.669208 19.5852C1.57599 19.5825 2.44242 19.5825 3.36535 19.5825Z" fill="#D92E10"/>
<path d="M59.8877 21.4395C59.8877 21.9265 59.8877 22.3839 59.8877 22.8925C59.1181 22.8064 58.3755 22.7283 57.6328 22.6449C56.169 22.4808 54.708 22.314 53.2442 22.1471C51.8558 21.9911 50.47 21.8323 49.0816 21.6816C48.8905 21.6601 48.7991 21.6009 48.8071 21.3856C48.8233 20.9175 48.8125 20.4466 48.8125 19.9219C52.5284 20.4304 56.204 20.9336 59.8877 21.4395Z" fill="white"/>
<path d="M48.8311 18.6811C48.8311 18.1052 48.8311 17.5617 48.8311 16.959C52.5201 17.4675 56.193 17.9707 59.9008 18.482C59.9008 18.9717 59.9008 19.4452 59.9008 19.935C56.193 19.5152 52.5201 19.1008 48.8311 18.6811Z" fill="white"/>
<path d="M36.507 32.8693C37.2792 32.8693 38.0542 32.8693 38.8264 32.8693C39.2139 32.8693 39.483 33.1169 39.483 33.4667C39.483 33.8165 39.2489 34.0479 38.8587 34.0479C37.29 34.0533 35.724 34.0533 34.1553 34.0479C33.7624 34.0452 33.5283 33.8165 33.5283 33.4667C33.5283 33.1169 33.7866 32.8747 34.1876 32.872C34.9598 32.8666 35.7347 32.8693 36.507 32.8693Z" fill="white"/>
<path d="M18.7834 37.4867C16.6685 37.4651 14.9894 35.7431 15.0109 33.6281C15.0352 31.5805 16.7626 29.8987 18.8264 29.9122C20.9091 29.9256 22.6043 31.6316 22.5962 33.7035C22.5881 35.8049 20.8687 37.5082 18.7834 37.4867Z" fill="#D92E10"/>
<path d="M52.4419 33.502C54.0348 33.502 55.3049 34.772 55.3076 36.3703C55.3102 37.9901 54.0483 39.2629 52.4338 39.2656C50.8194 39.2656 49.5413 37.9928 49.5439 36.3811C49.5493 34.7693 50.8221 33.502 52.4419 33.502Z" fill="#D92E10"/>
</svg>
