<svg width="51" height="18" viewBox="0 0 51 18" fill="none" xmlns="http://www.w3.org/2000/svg">
<path d="M38.889 5.43932H38.8685L38.8548 5.41704L38.8428 5.39648L38.865 5.41704L38.889 5.43932Z" fill="#D92E10"/>
<path d="M28.6714 5.5625V5.59677L28.6697 5.62589H28.6543C28.6577 5.61561 28.6594 5.60362 28.6611 5.59677C28.668 5.57278 28.6714 5.5625 28.6714 5.5625Z" fill="#D92E10"/>
<path d="M49.9963 12.5029C49.9072 12.0437 49.7735 11.492 49.7735 11.492L49.7958 10.2996C49.7958 10.2996 49.0317 9.91584 49.0077 9.73595C48.9854 9.55605 48.8963 7.39734 48.6479 7.01528C48.4012 6.63322 48.761 5.28488 48.761 5.28488H47.0066C47.0066 5.28488 45.2299 3.75493 43.9707 3.19298C43.9707 3.19298 43.7685 2.3175 44.5104 1.84292L44.5344 1.57223C44.5344 1.57223 42.9153 1.34779 40.7566 1.18845C40.7566 1.18845 40.0233 0.388358 38.944 0.266716C37.8646 0.146788 25.2721 -0.752678 22.1522 1.61506C19.0341 3.98451 16.7863 5.57271 16.7863 5.57271C16.7863 5.57271 3.96589 5.49561 0.907712 8.76966C0.907712 8.76966 0.863167 9.89357 0.907712 10.4795C0.907712 10.4795 0.592471 11.0192 0.164154 11.1545C-0.26245 11.2899 0.277229 12.0454 0.277229 12.0454C0.277229 12.0454 1.17669 12.5251 1.24351 13.2242C1.31204 13.9215 3.06643 14.7987 3.89908 15.4052C3.89908 15.4052 3.3731 9.53721 8.39126 9.08662C13.4094 8.63603 13.7692 15.0676 13.7692 15.0676H31.983C31.983 15.0676 34.3661 15.7872 34.9521 15.4034C34.9521 15.4034 35.1765 9.0849 39.7201 9.0849C44.2637 9.0849 45.0261 12.998 44.668 14.7524C44.668 14.7524 45.9272 14.7969 46.4669 14.3018C47.0066 13.8067 48.1305 14.211 48.1305 14.211C48.1305 14.211 49.4343 14.2555 49.0745 13.6268C49.0745 13.6268 50.0853 12.962 49.9963 12.5029ZM47.7467 6.29571C49.1379 7.83593 47.5446 7.93702 45.8142 7.39734C44.0821 6.85766 44.2859 6.29571 44.2859 6.29571H47.7467ZM45.4475 5.55729C45.2882 5.4425 42.744 3.60759 42.3277 3.23924C41.8994 2.85718 41.8548 2.49739 41.8548 2.49739L45.4475 5.55729ZM43.6777 1.86862V2.18044C43.6777 2.18044 40.8029 1.70757 39.1821 1.58079L43.6777 1.86862ZM38.8206 0.775557L38.2809 1.17989C28.6524 0.275283 24.765 1.11992 23.3498 1.65789C28.4519 -0.613903 38.8206 0.775557 38.8206 0.775557ZM18.1123 5.56243C18.1123 5.56243 22.4966 2.02453 25.5993 1.46086C28.7021 0.898912 35.5157 1.19017 37.5408 2.20442C39.4939 3.1827 45.0209 5.25233 41.5738 5.38939C43.5167 4.34087 34.7961 1.84292 34.7961 1.84292C34.7961 1.84292 27.1978 1.05653 24.3623 2.08963C21.5303 3.12616 18.4036 5.81085 18.4036 5.81085C18.0695 5.81942 17.8862 5.82284 17.8862 5.82284L18.1123 5.56243ZM20.2471 5.90679C20.2471 5.90679 19.5275 5.4425 20.0072 4.91824C20.4852 4.39398 21.0866 4.4231 21.0866 4.4231C21.0866 4.4231 19.7828 5.00733 20.2471 5.90679ZM17.5041 6.09525C15.354 7.81023 16.579 12.1003 16.6681 12.3967C14.5419 7.28426 17.5041 6.09525 17.5041 6.09525ZM15.539 12.4121H14.7458C14.4151 10.178 12.976 9.16029 12.976 9.16029C14.7458 9.00952 15.539 12.4121 15.539 12.4121ZM1.56903 9.58004C1.11844 9.12945 1.56903 8.69428 1.56903 8.69428C3.47247 7.28597 7.63229 7.24828 7.63229 7.24828C4.7026 8.16317 4.29655 9.03351 3.60782 9.40015C2.91737 9.76679 1.56903 9.58004 1.56903 9.58004ZM48.9632 12.5543L45.4767 12.7273C45.4767 12.7273 44.0821 8.40988 39.8554 8.43729C35.6288 8.46642 34.7739 13.2224 34.7739 13.2224L14.0262 13.4332C14.0262 13.4332 13.8155 8.87075 8.91381 8.43729C4.01215 8.00555 3.42621 13.4332 3.42621 13.4332C3.42621 13.4332 2.19095 13.4246 1.87399 13.1779C1.87399 13.1779 2.75119 13.0871 2.99961 12.8627C3.24632 12.6382 3.47076 7.961 8.68766 7.961C13.9046 7.961 14.5333 12.7427 14.5333 12.7427L34.3216 12.7736C34.3216 12.7736 35.1988 8.74739 39.3363 8.07408L39.3123 6.11753L38.9936 5.63438C35.4386 5.88109 31.8356 5.97704 28.6592 5.99588L28.5342 12.4138C27.9294 9.43784 28.344 6.95703 28.5599 5.99588C28.1589 5.9976 27.7649 5.99931 27.3794 5.99931C25.2978 5.99931 23.444 5.97018 21.9706 5.93421L22.022 5.81428C22.106 5.56071 22.1317 5.34313 22.1163 5.15981C22.1625 4.36143 21.4378 4.2295 21.4378 4.2295C23.2796 2.76809 26.2709 2.22841 27.4411 2.18215C28.6112 2.13932 28.1264 3.16043 28.1264 3.16043L27.4668 5.64809L28.6524 5.62582C28.6558 5.61554 28.6626 5.63267 28.6644 5.62582H28.6746C29.0567 5.61896 29.437 5.60697 29.8208 5.60012L29.8277 5.58813L30.1258 2.18044C30.1258 2.18044 35.1097 1.92173 35.9852 3.50308L35.7813 5.46306C36.9155 5.4425 37.976 5.48533 38.8703 5.47162L38.9166 5.46477L41.6372 5.41851C40.7994 5.49561 39.9514 5.56585 39.1016 5.62582L39.583 6.049L39.6276 7.93702C39.6276 7.93702 44.3048 7.89418 45.6994 12.3007C45.6994 12.3007 46.6657 11.4681 46.7787 10.524C46.7787 10.524 48.2624 10.8393 49.4771 10.524C49.4788 10.524 49.7273 11.391 48.9632 12.5543ZM25.0014 7.10608C25.0014 7.01356 25.0751 6.93989 25.1676 6.93989H27.7889C27.878 6.93989 27.9534 7.01356 27.9534 7.10608C27.9534 7.1986 27.8797 7.27227 27.7889 7.27227H25.1676C25.0751 7.27055 25.0014 7.19688 25.0014 7.10608ZM35.5962 6.88164C35.5962 6.79941 35.6648 6.73259 35.747 6.73259H38.3563C38.4385 6.73259 38.5054 6.79941 38.5054 6.88164C38.5054 6.96388 38.4385 7.0307 38.3563 7.0307H35.747C35.6648 7.0307 35.5962 6.96388 35.5962 6.88164Z" fill="#D92E10"/>
<path d="M23.3394 1.66309C23.0893 1.77445 22.8546 1.89438 22.6318 2.02287C22.6455 2.00917 22.8306 1.85669 23.3394 1.66309Z" fill="#D92E10"/>
<path d="M39.9184 10.7451C38.2634 10.7451 36.9219 12.0832 36.9219 13.7331C36.9219 15.3846 38.2634 16.721 39.9184 16.721C41.5734 16.721 42.9166 15.3846 42.9166 13.7331C42.9166 12.0832 41.5734 10.7451 39.9184 10.7451ZM40.8898 11.3893L39.9184 13.0426L39.1131 11.3893C39.831 10.7828 40.8898 11.3893 40.8898 11.3893ZM40.2627 13.7331C40.2627 13.9524 40.0811 14.1305 39.8584 14.1305C39.6357 14.1305 39.4541 13.9524 39.4541 13.7331C39.4541 13.5138 39.6357 13.3356 39.8584 13.3356C40.0811 13.3356 40.2627 13.5138 40.2627 13.7331ZM38.1417 11.8587L39.168 13.4795L37.3296 13.4401C37.1189 12.5201 38.1417 11.8587 38.1417 11.8587ZM37.4564 14.2727L39.3718 14.2265L38.3919 15.7821C37.4958 15.4909 37.4564 14.2727 37.4564 14.2727ZM39.0292 16.207L39.9646 14.5349L40.8059 16.1676C40.1 16.7912 39.0292 16.207 39.0292 16.207ZM41.5066 15.8164L40.4855 14.1939L42.3238 14.2385C42.5294 15.1568 41.5066 15.8164 41.5066 15.8164ZM40.5677 13.4315L41.7533 12.0266C42.6014 12.4378 42.4729 13.6508 42.4729 13.6508L40.5677 13.4315Z" fill="#D92E10"/>
<path d="M39.8593 9.66602C37.5601 9.66602 35.6943 11.5249 35.6943 13.8156C35.6943 16.1096 37.5601 17.9668 39.8593 17.9668C42.1585 17.9668 44.0242 16.1079 44.0242 13.8156C44.0242 11.5249 42.1585 9.66602 39.8593 9.66602ZM39.9193 17.0194C38.0981 17.0194 36.6212 15.5477 36.6212 13.7333C36.6212 11.919 38.0981 10.4473 39.9193 10.4473C41.7405 10.4473 43.2173 11.919 43.2173 13.7333C43.2173 15.5477 41.7387 17.0194 39.9193 17.0194Z" fill="#D92E10"/>
<path d="M39.9184 10.7451C38.2634 10.7451 36.9219 12.0832 36.9219 13.7331C36.9219 15.3846 38.2634 16.721 39.9184 16.721C41.5734 16.721 42.9166 15.3846 42.9166 13.7331C42.9166 12.0832 41.5734 10.7451 39.9184 10.7451ZM40.8898 11.3893L39.9184 13.0426L39.1131 11.3893C39.831 10.7828 40.8898 11.3893 40.8898 11.3893ZM40.2627 13.7331C40.2627 13.9524 40.0811 14.1305 39.8584 14.1305C39.6357 14.1305 39.4541 13.9524 39.4541 13.7331C39.4541 13.5138 39.6357 13.3356 39.8584 13.3356C40.0811 13.3356 40.2627 13.5138 40.2627 13.7331ZM38.1417 11.8587L39.168 13.4795L37.3296 13.4401C37.1189 12.5201 38.1417 11.8587 38.1417 11.8587ZM37.4564 14.2727L39.3718 14.2265L38.3919 15.7821C37.4958 15.4909 37.4564 14.2727 37.4564 14.2727ZM39.0292 16.207L39.9646 14.5349L40.8059 16.1676C40.1 16.7912 39.0292 16.207 39.0292 16.207ZM41.5066 15.8164L40.4855 14.1939L42.3238 14.2385C42.5294 15.1568 41.5066 15.8164 41.5066 15.8164ZM40.5677 13.4315L41.7533 12.0266C42.6014 12.4378 42.4729 13.6508 42.4729 13.6508L40.5677 13.4315Z" fill="#D92E10"/>
<path d="M39.9184 10.7451C38.2634 10.7451 36.9219 12.0832 36.9219 13.7331C36.9219 15.3846 38.2634 16.721 39.9184 16.721C41.5734 16.721 42.9166 15.3846 42.9166 13.7331C42.9166 12.0832 41.5734 10.7451 39.9184 10.7451ZM40.8898 11.3893L39.9184 13.0426L39.1131 11.3893C39.831 10.7828 40.8898 11.3893 40.8898 11.3893ZM40.2627 13.7331C40.2627 13.9524 40.0811 14.1305 39.8584 14.1305C39.6357 14.1305 39.4541 13.9524 39.4541 13.7331C39.4541 13.5138 39.6357 13.3356 39.8584 13.3356C40.0811 13.3356 40.2627 13.5138 40.2627 13.7331ZM38.1417 11.8587L39.168 13.4795L37.3296 13.4401C37.1189 12.5201 38.1417 11.8587 38.1417 11.8587ZM37.4564 14.2727L39.3718 14.2265L38.3919 15.7821C37.4958 15.4909 37.4564 14.2727 37.4564 14.2727ZM39.0292 16.207L39.9646 14.5349L40.8059 16.1676C40.1 16.7912 39.0292 16.207 39.0292 16.207ZM41.5066 15.8164L40.4855 14.1939L42.3238 14.2385C42.5294 15.1568 41.5066 15.8164 41.5066 15.8164ZM40.5677 13.4315L41.7533 12.0266C42.6014 12.4378 42.4729 13.6508 42.4729 13.6508L40.5677 13.4315Z" fill="#D92E10"/>
<path d="M8.88615 10.7451C7.23114 10.7451 5.88965 12.0832 5.88965 13.7331C5.88965 15.3846 7.23114 16.721 8.88615 16.721C10.5412 16.721 11.8844 15.3846 11.8844 13.7331C11.8844 12.0832 10.5412 10.7451 8.88615 10.7451ZM9.85758 11.3893L8.88615 13.0426L8.08092 11.3893C8.80049 10.7828 9.85758 11.3893 9.85758 11.3893ZM9.23223 13.7331C9.23223 13.9524 9.05063 14.1305 8.8279 14.1305C8.60518 14.1305 8.42357 13.9524 8.42357 13.7331C8.42357 13.5138 8.60518 13.3356 8.8279 13.3356C9.05063 13.3356 9.23223 13.5138 9.23223 13.7331ZM7.11121 11.8587L8.13746 13.4795L6.29912 13.4401C6.08667 12.5201 7.11121 11.8587 7.11121 11.8587ZM6.4259 14.2727L8.34133 14.2265L7.36135 15.7821C6.46531 15.4909 6.4259 14.2727 6.4259 14.2727ZM7.99697 16.207L8.93241 14.5349L9.77363 16.1676C9.06776 16.7912 7.99697 16.207 7.99697 16.207ZM10.4744 15.8164L9.45324 14.1939L11.2916 14.2385C11.4989 15.1568 10.4744 15.8164 10.4744 15.8164ZM9.53548 13.4315L10.7211 12.0266C11.5691 12.4378 11.4406 13.6508 11.4406 13.6508L9.53548 13.4315Z" fill="#D92E10"/>
<path d="M8.82609 9.66602C6.52688 9.66602 4.66113 11.5249 4.66113 13.8156C4.66113 16.1096 6.52688 17.9668 8.82609 17.9668C11.1253 17.9668 12.991 16.1079 12.991 13.8156C12.991 11.5249 11.1253 9.66602 8.82609 9.66602ZM8.88605 17.0194C7.06485 17.0194 5.58801 15.5477 5.58801 13.7333C5.58801 11.919 7.06485 10.4473 8.88605 10.4473C10.7073 10.4473 12.1841 11.919 12.1841 13.7333C12.1841 15.5477 10.7073 17.0194 8.88605 17.0194Z" fill="#D92E10"/>
<path d="M8.88615 10.7451C7.23114 10.7451 5.88965 12.0832 5.88965 13.7331C5.88965 15.3846 7.23114 16.721 8.88615 16.721C10.5412 16.721 11.8844 15.3846 11.8844 13.7331C11.8844 12.0832 10.5412 10.7451 8.88615 10.7451ZM9.85758 11.3893L8.88615 13.0426L8.08092 11.3893C8.80049 10.7828 9.85758 11.3893 9.85758 11.3893ZM9.23223 13.7331C9.23223 13.9524 9.05063 14.1305 8.8279 14.1305C8.60518 14.1305 8.42357 13.9524 8.42357 13.7331C8.42357 13.5138 8.60518 13.3356 8.8279 13.3356C9.05063 13.3356 9.23223 13.5138 9.23223 13.7331ZM7.11121 11.8587L8.13746 13.4795L6.29912 13.4401C6.08667 12.5201 7.11121 11.8587 7.11121 11.8587ZM6.4259 14.2727L8.34133 14.2265L7.36135 15.7821C6.46531 15.4909 6.4259 14.2727 6.4259 14.2727ZM7.99697 16.207L8.93241 14.5349L9.77363 16.1676C9.06776 16.7912 7.99697 16.207 7.99697 16.207ZM10.4744 15.8164L9.45324 14.1939L11.2916 14.2385C11.4989 15.1568 10.4744 15.8164 10.4744 15.8164ZM9.53548 13.4315L10.7211 12.0266C11.5691 12.4378 11.4406 13.6508 11.4406 13.6508L9.53548 13.4315Z" fill="#D92E10"/>
<path d="M8.88615 10.7451C7.23114 10.7451 5.88965 12.0832 5.88965 13.7331C5.88965 15.3846 7.23114 16.721 8.88615 16.721C10.5412 16.721 11.8844 15.3846 11.8844 13.7331C11.8844 12.0832 10.5412 10.7451 8.88615 10.7451ZM9.85758 11.3893L8.88615 13.0426L8.08092 11.3893C8.80049 10.7828 9.85758 11.3893 9.85758 11.3893ZM9.23223 13.7331C9.23223 13.9524 9.05063 14.1305 8.8279 14.1305C8.60518 14.1305 8.42357 13.9524 8.42357 13.7331C8.42357 13.5138 8.60518 13.3356 8.8279 13.3356C9.05063 13.3356 9.23223 13.5138 9.23223 13.7331ZM7.11121 11.8587L8.13746 13.4795L6.29912 13.4401C6.08667 12.5201 7.11121 11.8587 7.11121 11.8587ZM6.4259 14.2727L8.34133 14.2265L7.36135 15.7821C6.46531 15.4909 6.4259 14.2727 6.4259 14.2727ZM7.99697 16.207L8.93241 14.5349L9.77363 16.1676C9.06776 16.7912 7.99697 16.207 7.99697 16.207ZM10.4744 15.8164L9.45324 14.1939L11.2916 14.2385C11.4989 15.1568 10.4744 15.8164 10.4744 15.8164ZM9.53548 13.4315L10.7211 12.0266C11.5691 12.4378 11.4406 13.6508 11.4406 13.6508L9.53548 13.4315Z" fill="#D92E10"/>
</svg>
