<svg width="100" height="71" viewBox="0 0 100 71" fill="none" xmlns="http://www.w3.org/2000/svg">
<path d="M11.269 22.9468C9.25377 22.047 7.37062 21.2528 5.5334 20.3672C4.18706 19.7187 3.49523 16.5735 4.49135 15.468C4.78702 15.1366 5.56497 14.9852 6.03576 15.0995C8.22033 15.628 10.5771 15.7565 11.9895 18.0162C12.6698 19.1046 13.5052 18.9532 14.2344 17.8533C16.1261 14.9909 18.1844 12.2142 19.8264 9.21468C22.7085 3.95836 27.3245 1.91582 32.9912 1.4159C44.3648 0.413199 55.7326 0.370349 67.1004 1.44447C68.6161 1.5873 70.1232 1.91011 71.6102 2.25577C74.6157 2.95566 77.0558 4.52398 78.7667 7.12929C81.0718 10.6345 83.3684 14.1425 85.6821 17.6391C86.6065 19.036 87.3327 19.1274 88.2915 17.7676C89.8704 15.5308 92.3334 15.4966 94.6357 15.0423C94.9084 14.9881 95.3304 15.1509 95.5342 15.3594C96.4557 16.2936 95.9447 19.6302 94.7448 20.2301C92.8731 21.1642 90.944 21.987 88.8599 22.9382C89.325 23.3553 89.8073 23.7553 90.2522 24.1923C92.5975 26.4834 95.0433 28.6859 97.2308 31.1198C98.6317 32.6796 98.8613 34.6536 98.7206 36.8589C98.534 39.7756 98.9905 42.738 99.2661 45.6718C99.3751 46.8402 99.8 47.98 99.9522 49.1484C100.053 49.9226 99.978 50.7339 99.8833 51.5166C99.7512 52.6336 99.3866 53.7363 99.3723 54.8475C99.312 59.3211 99.3522 63.7976 99.3464 68.274C99.3436 70.068 99.091 70.3223 97.2595 70.328C93.4788 70.3394 89.6982 70.2994 85.9204 70.348C84.5453 70.3651 84.0143 69.7995 84.0659 68.4683C84.1205 67.1113 84.0774 65.7487 84.0774 64.3832C61.293 66.9514 38.7325 66.9399 15.9855 64.386C15.9855 65.7687 15.9424 67.1342 15.9969 68.4968C16.0515 69.8509 15.4716 70.3594 14.1167 70.3423C10.2901 70.2908 6.46062 70.3365 2.63403 70.3251C1.00924 70.3194 0.722175 70.0252 0.719305 68.3883C0.710693 64.2461 0.773847 60.1039 0.687728 55.9616C0.65615 54.3762 0.274353 52.7964 0.0963723 51.211C0.0246059 50.5653 -0.0701257 49.874 0.0791484 49.257C1.13268 44.8348 1.37956 40.3641 1.33363 35.8305C1.31927 34.3193 1.79867 32.4825 2.73163 31.3512C4.83583 28.8002 7.35913 26.5891 9.72742 24.2552C10.1896 23.8095 10.7149 23.4182 11.269 22.9468ZM49.8592 23.7667C49.8621 23.6581 49.8649 23.5496 49.8678 23.441C52.7356 23.441 55.6063 23.5182 58.474 23.4267C66.3109 23.1782 74.145 22.8811 81.979 22.5554C85.174 22.4212 85.4984 21.8241 83.8191 19.0817C81.8527 15.8765 79.6681 12.7998 77.762 9.5632C75.7525 6.14373 72.767 4.25545 68.9405 3.98121C61.8442 3.47558 54.7278 2.95566 47.6201 2.97566C41.6663 2.9928 35.7069 3.65555 29.7703 4.26117C26.7877 4.56683 24.451 6.23515 22.8234 8.82331C20.6445 12.2885 18.3509 15.6851 16.2122 19.176C14.5731 21.847 14.9003 22.424 18.0437 22.5526C28.6479 22.984 39.255 23.3639 49.8592 23.7667ZM49.4372 55.5074C55.3651 54.8018 61.204 54.1762 67.0142 53.3592C68.3146 53.1764 69.7902 52.5879 70.7002 51.6937C72.2848 50.1426 73.545 48.2486 74.831 46.4231C75.5085 45.4633 75.0693 44.2292 74.0445 43.9892C73.4646 43.855 72.8158 43.9835 72.2015 44.0349C65.9636 44.5549 59.7343 45.3005 53.4877 45.5576C44.3935 45.9318 35.3279 45.3205 26.3083 44.0207C25.5849 43.915 24.4252 44.1949 24.0979 44.6977C23.7764 45.1948 24.0577 46.3174 24.4252 46.9688C25.0998 48.1629 26.0557 49.1941 26.8509 50.3225C28.0709 52.0537 29.6986 53.1307 31.8114 53.3906C37.6876 54.1105 43.5639 54.8018 49.4372 55.5074ZM49.2966 63.3119C52.2074 63.3119 55.1211 63.3319 58.032 63.3062C62.1801 63.2719 61.4136 63.7461 61.5514 59.8439C61.5944 58.5727 61.1237 58.2184 59.8893 58.227C53.4446 58.2756 47 58.2299 40.5554 58.2556C36.769 58.2727 37.257 57.6442 37.1652 61.6979C37.1364 62.972 37.6187 63.3462 38.8387 63.3262C42.3266 63.2748 45.8116 63.3119 49.2966 63.3119ZM83.865 49.5369C83.8822 49.6341 83.8994 49.7312 83.9167 49.8312C86.7672 49.3113 89.6408 48.8913 92.4597 48.2343C94.0558 47.8629 95.3849 46.8374 95.5256 45.0491C95.6318 43.695 95.4854 42.2981 95.2845 40.9469C95.1352 39.9556 94.5926 39.4814 93.4559 40.0813C90.5594 41.6125 87.4332 42.3723 84.1894 42.8408C83.1244 42.9951 81.9962 43.7407 81.2125 44.5263C80.4346 45.3033 80.0097 46.4489 79.5073 47.4715C78.9418 48.6285 79.3954 49.4141 80.7216 49.5227C81.7608 49.6055 82.8143 49.5369 83.865 49.5369ZM14.8056 49.7341C14.8171 49.6598 14.8257 49.5884 14.8372 49.5141C15.9826 49.5141 17.1337 49.5855 18.2734 49.4941C19.5106 49.397 19.9269 48.6142 19.3872 47.5087C18.9279 46.5717 18.549 45.5176 17.8399 44.7977C17.0218 43.9664 15.9481 43.0294 14.8774 42.8694C11.49 42.3638 8.23181 41.5725 5.19753 39.9784C4.44829 39.5842 4.06362 39.827 3.73349 40.4955C1.98239 44.0492 3.50097 47.6144 7.33904 48.5257C9.78484 49.1084 12.3139 49.3427 14.8056 49.7341ZM9.46332 56.3873C9.47481 58.1699 10.8872 59.5611 12.6555 59.5297C14.4267 59.4982 15.8563 58.067 15.8391 56.3416C15.8218 54.6104 14.3549 53.1735 12.6153 53.1792C10.8699 53.1878 9.45184 54.6304 9.46332 56.3873ZM89.4341 56.3902C89.4398 54.6276 88.0447 53.2135 86.2735 53.1849C84.5511 53.1564 83.0842 54.599 83.0612 56.3444C83.0382 58.0899 84.4736 59.5297 86.2304 59.5268C88.0217 59.5211 89.4283 58.1442 89.4341 56.3902Z" fill="#D92E10"/>
<path d="M49.3919 6.8091C47.9164 6.80625 46.4352 6.86052 44.9625 6.77768C44.4601 6.74911 43.5444 6.34346 43.5588 6.16635C43.6277 5.24363 43.4411 3.82386 44.7271 3.7553C47.8561 3.58961 51.0052 3.59818 54.1343 3.74387C55.4749 3.80386 55.2108 5.22649 55.3399 6.13207C55.3629 6.28919 54.4558 6.74911 53.962 6.77768C52.4434 6.86624 50.9163 6.81196 49.3919 6.8091Z" fill="#D92E10"/>
</svg>
