<svg width="66" height="92" viewBox="0 0 66 92" fill="none" xmlns="http://www.w3.org/2000/svg">
<path d="M0.505003 45.9169C0.505003 35.4184 0.50809 24.9198 0.503458 14.4212C0.501914 10.4615 2.09683 7.37519 5.55069 5.31409C6.90629 4.50498 8.39468 4.0284 9.97879 4.0238C20.5565 3.99775 31.1342 3.98396 41.712 4.03146C42.3141 4.03453 43.0351 4.49885 43.4968 4.95244C49.6418 10.9794 55.7497 17.0417 61.8669 23.0962C62.8026 24.0233 63.8061 24.8937 64.6476 25.9005C65.0799 26.417 65.4567 27.174 65.4582 27.8222C65.5014 44.5332 65.5153 61.2426 65.4798 77.9536C65.4675 83.7829 61.0224 87.9863 54.9839 87.9924C41.468 88.0062 27.9521 87.997 14.4347 87.997C13.2891 87.997 12.1434 88.0016 10.9963 87.9955C4.81113 87.9633 0.518898 83.7292 0.509634 77.5873C0.491107 67.0305 0.505003 56.4737 0.505003 45.9169ZM39.7913 7.79967C39.501 7.77821 39.3296 7.75369 39.1567 7.75369C29.6953 7.75216 20.2323 7.72764 10.7708 7.76442C6.87387 7.77975 4.3464 10.4262 4.34485 14.3538C4.34176 35.4107 4.34176 56.4676 4.34485 77.5245C4.34485 81.5563 6.94953 84.1323 11.0256 84.1338C25.6887 84.1384 40.3517 84.1384 55.0148 84.1338C59.0492 84.1323 61.6292 81.567 61.6292 77.5689C61.6322 61.8494 61.6307 46.1299 61.6307 30.4089C61.6307 30.1009 61.6307 29.7913 61.6307 29.4174C61.1907 29.4174 60.8726 29.4174 60.5546 29.4174C56.8815 29.4144 53.2084 29.4557 49.5353 29.3975C45.0207 29.3255 41.1469 26.2101 40.1201 21.8534C39.8947 20.8987 39.8129 19.8935 39.8036 18.9097C39.7697 15.2365 39.7913 11.5648 39.7913 7.79967ZM43.6481 10.581C43.6481 13.4849 43.645 16.277 43.6496 19.069C43.6558 23.0196 46.2142 25.5772 50.1976 25.6002C52.7822 25.6155 55.3684 25.6048 57.953 25.6002C58.2031 25.6002 58.4517 25.5665 58.6477 25.5527C53.6762 20.5923 48.7185 15.6426 43.6481 10.581Z" fill="#D92E10"/>
<path d="M32.9648 71.5775C26.826 71.5775 20.6872 71.5805 14.5484 71.5744C13.2916 71.5729 12.4825 70.9109 12.3945 69.855C12.3081 68.8115 12.9457 67.9778 14.0018 67.7939C14.3168 67.7388 14.6456 67.751 14.9683 67.751C26.9819 67.7495 38.994 67.7495 51.0076 67.7495C52.6967 67.7495 53.6262 68.4284 53.6324 69.662C53.6401 70.9063 52.7276 71.5775 51.0277 71.5775C45.0062 71.5775 38.9863 71.5775 32.9648 71.5775Z" fill="#D92E10"/>
<path d="M29.0188 24.3037C29.025 28.1791 25.8814 31.3145 21.9876 31.3191C18.1091 31.3236 14.9177 28.1684 14.9131 24.3251C14.9085 20.4696 18.0767 17.3205 21.9628 17.3174C25.8706 17.3128 29.0126 20.4251 29.0188 24.3037ZM21.9659 27.5003C23.7554 27.5049 25.1542 26.1349 25.1681 24.365C25.182 22.5935 23.7971 21.1791 22.0308 21.1591C20.2197 21.1377 18.7699 22.5582 18.7746 24.345C18.7792 26.1042 20.1873 27.4957 21.9659 27.5003Z" fill="#D92E10"/>
<path d="M12.3761 42.1312C12.4348 37.5463 15.4363 33.7903 20.0327 32.7973C24.3481 31.8641 28.8364 34.1274 30.7231 38.1837C31.5476 39.9552 31.7005 41.834 31.5816 43.7403C31.5121 44.8651 30.6675 45.5868 29.6068 45.5577C28.5446 45.5271 27.8081 44.7517 27.7572 43.6192C27.7186 42.7764 27.7602 41.9198 27.6151 41.0969C27.1241 38.2956 24.6198 36.3188 21.7789 36.4169C18.9334 36.5149 16.5804 38.6603 16.2716 41.4784C16.1928 42.2002 16.2283 42.9342 16.1851 43.6606C16.1172 44.8068 15.3668 45.5516 14.2999 45.5608C13.1991 45.57 12.4333 44.7992 12.3792 43.6085C12.3607 43.1978 12.3761 42.7886 12.3761 42.1312Z" fill="#D92E10"/>
<path d="M26.2575 53.3318C30.1653 53.3318 34.0731 53.3395 37.9809 53.3272C38.8439 53.3241 39.5418 53.5724 39.9525 54.3723C40.53 55.5002 39.8645 56.841 38.6124 57.0694C38.3823 57.1107 38.1445 57.1245 37.9114 57.1245C30.1545 57.1276 22.3976 57.1307 14.6423 57.123C13.4287 57.1215 12.6876 56.6372 12.4483 55.7515C12.1055 54.4827 12.967 53.3548 14.3613 53.341C17.0941 53.3134 19.8254 53.3318 22.5582 53.3303C23.7903 53.3318 25.0239 53.3318 26.2575 53.3318Z" fill="#D92E10"/>
</svg>
