<svg width="51" height="93" viewBox="0 0 51 93" fill="none" xmlns="http://www.w3.org/2000/svg">
<path d="M46.4596 0C47.3334 0.511621 48.324 0.898457 49.0581 1.56398C50.5158 2.88463 50.6159 4.6857 50.4303 6.58453C33.8365 6.58453 17.2531 6.58453 0.671795 6.58453C-0.0101422 3.73733 1.38084 1.15635 4.08566 0.224614C4.2504 0.168461 4.40264 0.0769512 4.56113 0C18.5273 0 32.4935 0 46.4596 0Z" fill="#D92E10"/>
<path d="M0.600586 10.0034C17.2278 10.0034 33.7924 10.0034 50.4196 10.0034C50.4196 34.32 50.4196 58.6075 50.4196 82.9594C33.8362 82.9594 17.2507 82.9594 0.600586 82.9594C0.600586 58.674 0.600586 34.3865 0.600586 10.0034ZM25.5257 68.0912C37.4523 68.0537 47.2184 58.2872 47.1663 46.4512C47.1142 34.5508 37.298 24.8155 25.4444 24.9049C13.5115 24.9964 3.86221 34.6465 3.85595 46.4928C3.8497 58.362 13.6492 68.1286 25.5257 68.0912Z" fill="#D92E10"/>
<path d="M50.4156 86.4097C50.7263 89.3879 49.8713 91.4115 47.7525 92.4035C46.9829 92.7633 46.0674 92.9692 45.2166 92.9713C32.0742 93.0067 18.9338 93.0046 5.7914 92.99C2.18151 92.9859 0.158636 90.409 0.60909 86.4097C17.1862 86.4097 33.7717 86.4097 50.4156 86.4097ZM28.7833 88.0818C26.5498 88.0818 24.4185 88.0818 22.2538 88.0818C22.2538 89.1799 22.2538 90.2156 22.2538 91.2721C24.4644 91.2721 26.6187 91.2721 28.7833 91.2721C28.7833 90.1824 28.7833 89.1674 28.7833 88.0818Z" fill="#D92E10"/>
<path d="M43.8265 46.4827C43.8786 56.4906 35.6933 64.6786 25.5518 64.7597C15.5292 64.8408 7.32928 56.711 7.19582 46.5618C7.06652 36.5789 15.427 28.212 25.5122 28.2349C35.6015 28.2578 43.7744 36.4001 43.8265 46.4827ZM17.2101 48.1486C18.7908 48.1486 20.2736 48.1549 21.7563 48.1466C23.2412 48.1382 23.8418 47.5393 23.8522 46.0439C23.8647 44.1389 23.8626 42.2317 23.8522 40.3266C23.8439 38.8105 23.2203 38.1887 21.6854 38.1803C19.3185 38.1679 16.9536 38.1762 14.5866 38.1803C14.3551 38.1803 14.1236 38.224 13.9172 38.2469C13.9172 39.3616 13.9172 40.4036 13.9172 41.535C16.1236 41.535 18.2674 41.535 20.4654 41.535C20.4654 42.6664 20.4654 43.7083 20.4654 44.848C18.9639 44.848 17.5166 44.8439 16.0693 44.848C14.4281 44.8522 13.8609 45.4033 13.8546 47.0089C13.8484 48.8849 13.8484 50.7608 13.8546 52.6347C13.8588 54.2111 14.4615 54.808 16.0714 54.8143C18.3779 54.8226 20.6823 54.8184 22.9888 54.8143C23.2516 54.8143 23.5144 54.7789 23.798 54.7581C23.798 53.6517 23.798 52.6118 23.798 51.4492C21.5791 51.4492 19.4144 51.4492 17.2101 51.4492C17.2101 50.3116 17.2101 49.2967 17.2101 48.1486ZM33.8477 38.2302C33.8477 40.441 33.8477 42.6019 33.8477 44.794C32.6924 44.794 31.6496 44.794 30.4839 44.794C30.4839 42.5853 30.4839 40.4244 30.4839 38.2469C29.3181 38.2469 28.2775 38.2469 27.168 38.2469C27.168 40.8507 27.1639 43.3881 27.1701 45.9254C27.1743 47.5871 27.7436 48.1445 29.4203 48.1486C30.8676 48.1528 32.3128 48.1486 33.8706 48.1486C33.8706 50.4156 33.8706 52.5744 33.8706 54.7519C35.028 54.7519 36.0687 54.7519 37.0947 54.7519C37.0947 49.201 37.0947 43.7146 37.0947 38.2302C35.9978 38.2302 34.978 38.2302 33.8477 38.2302Z" fill="#D92E10"/>
</svg>
