<svg width="31" height="31" viewBox="0 0 31 31" fill="none" xmlns="http://www.w3.org/2000/svg">
<path fill-rule="evenodd" clip-rule="evenodd" d="M15.5 0.5C15.9973 0.5 16.4742 0.697544 16.8258 1.04918C17.1775 1.40081 17.375 1.87772 17.375 2.375V13.625H28.625C29.1223 13.625 29.5992 13.8225 29.9508 14.1742C30.3025 14.5258 30.5 15.0027 30.5 15.5C30.5 15.9973 30.3025 16.4742 29.9508 16.8258C29.5992 17.1775 29.1223 17.375 28.625 17.375H17.375V28.625C17.375 29.1223 17.1775 29.5992 16.8258 29.9508C16.4742 30.3025 15.9973 30.5 15.5 30.5C15.0027 30.5 14.5258 30.3025 14.1742 29.9508C13.8225 29.5992 13.625 29.1223 13.625 28.625V17.375H2.375C1.87772 17.375 1.40081 17.1775 1.04918 16.8258C0.697544 16.4742 0.5 15.9973 0.5 15.5C0.5 15.0027 0.697544 14.5258 1.04918 14.1742C1.40081 13.8225 1.87772 13.625 2.375 13.625H13.625V2.375C13.625 1.87772 13.8225 1.40081 14.1742 1.04918C14.5258 0.697544 15.0027 0.5 15.5 0.5Z" fill="black"/>
</svg>
