<svg width="354" height="354" viewBox="0 0 354 354" fill="none" xmlns="http://www.w3.org/2000/svg">
<path d="M265.142 265.142C313.953 216.331 313.953 137.192 265.142 88.381C216.331 39.5697 137.192 39.5697 88.3807 88.381C39.5694 137.192 39.5694 216.331 88.3807 265.142C137.192 313.954 216.331 313.954 265.142 265.142Z" fill="#B9C4E1"/>
<path d="M176.766 219.158C203.617 219.158 225.384 191.014 225.384 156.296C225.384 121.579 203.617 93.4346 176.766 93.4346C149.915 93.4346 128.147 121.579 128.147 156.296C128.147 191.014 149.915 219.158 176.766 219.158Z" fill="white"/>
<path d="M176.766 223.81C136.099 223.81 100.297 236.239 79.375 255.076C102.285 283.525 137.392 301.745 176.766 301.745C216.139 301.745 251.246 283.525 274.156 255.076C253.254 236.239 217.451 223.81 176.766 223.81Z" fill="white"/>
<path d="M182.209 256.138H171.343C161.133 256.138 152.775 247.781 152.775 237.552V195.341C152.775 185.131 161.133 176.755 171.343 176.755H182.209C192.419 176.755 200.776 185.112 200.776 195.341V237.571C200.776 247.781 192.419 256.138 182.209 256.138Z" fill="white"/>
<path d="M134.864 159.211C137.701 167.356 136.563 175.153 132.355 176.62C128.148 178.087 122.435 172.663 119.598 164.519C116.76 156.374 117.899 148.576 122.107 147.109C126.314 145.623 132.027 151.047 134.864 159.211Z" fill="white"/>
<path d="M233.952 164.504C236.784 156.347 235.659 148.547 231.44 147.082C227.221 145.618 221.505 151.042 218.673 159.199C215.841 167.356 216.965 175.155 221.185 176.62C225.404 178.085 231.12 172.661 233.952 164.504Z" fill="white"/>
<path d="M134.208 158.94C127.897 147.456 121.393 135.258 121.721 122.134C122.049 109.029 132.027 95.1904 145.132 95.6536C147.41 95.7308 149.707 96.2327 151.984 95.9238C156.52 95.2869 159.878 91.5812 163.545 88.8405C171.844 82.6837 183.386 81.2361 192.959 85.1155C198.865 87.5281 203.864 91.7356 209.635 94.4763C220.366 99.5717 233.606 99.0505 243.893 93.0867C241.751 97.1205 238.122 100.344 233.857 102.004C237.794 103.258 242.137 103.142 245.997 101.675C243.681 105.883 239.821 109.241 235.343 110.959C238.663 111.191 242.002 111.422 245.322 111.654C242.484 115.668 238.431 118.814 233.818 120.571C236.424 120.648 239.03 120.744 241.635 120.822C239.686 126.573 234.648 131.186 228.742 132.595C230.422 132.614 232.101 132.633 233.78 132.672C228.279 140.624 222.759 148.576 217.259 156.528C215.676 158.805 214.055 161.121 211.719 162.627C209.789 163.862 207.512 164.441 205.273 164.943C188.945 168.61 172.057 169.71 155.4 168.185C149.707 167.664 143.743 166.738 139.207 163.225C134.672 159.731 132.259 152.88 135.366 148.093" fill="white"/>
<path d="M145.422 235.699C145.789 229.098 146.599 222.536 147.873 216.051C151.135 219.776 156.674 220.239 161.615 220.451C169.104 220.76 176.592 221.069 184.1 221.358C184.969 226.473 185.586 232.476 181.881 236.123C180.163 237.802 177.808 238.652 175.492 239.289C170.435 240.698 165.205 241.431 159.974 241.45C153.76 241.489 146.348 239.617 144.36 233.73C145.036 233.17 145.711 232.63 146.387 232.07" fill="white"/>
<path d="M208.11 235.699C207.743 229.098 206.933 222.536 205.659 216.051C202.397 219.776 196.858 220.239 191.917 220.451C184.428 220.76 176.94 221.069 169.432 221.358C168.563 226.473 167.946 232.476 171.651 236.123C173.369 237.802 175.724 238.652 178.04 239.289C183.097 240.698 188.327 241.431 193.557 241.45C199.772 241.489 207.184 239.617 209.172 233.73C208.496 233.17 207.821 232.63 207.145 232.07" fill="white"/>
</svg>
