<svg width="11" height="26" viewBox="0 0 11 26" fill="none" xmlns="http://www.w3.org/2000/svg">
<path d="M7.93889 0.707576C8.5286 2.72708 9.13601 4.70552 9.27152 6.81447C9.40479 8.90194 9.21696 10.9911 8.63732 13.0019C7.57 16.7107 5.23413 19.9889 2.11733 22.3038C2.26115 21.0757 2.40903 19.8474 2.55876 18.6222C2.67911 17.631 1.07822 17.6224 0.967586 18.6123C0.759378 20.4936 0.546443 22.3775 0.32195 24.2598C0.261518 24.7638 0.863787 25.1183 1.30667 25.0063C1.87509 24.8646 2.44166 24.7198 3.01007 24.5781C4.27196 24.5158 5.4991 24.1896 6.65608 23.6319C7.46622 23.2416 6.90046 21.9992 6.05487 22.2129C5.40294 22.3771 4.75287 22.5443 4.10186 22.71C6.93702 20.2896 9.06546 17.1123 10.094 13.533C11.289 9.37316 11.1742 4.14993 8.76207 0.378205C8.49754 -0.0350247 7.79577 0.215266 7.93889 0.707576Z" fill="#D92E10"/>
</svg>
