<svg width="89" height="51" viewBox="0 0 89 51" fill="none" xmlns="http://www.w3.org/2000/svg">
<path d="M85.3372 49.8069C81.318 43.6381 77.457 37.5175 72.0219 32.3249C66.64 27.1874 60.426 22.8813 53.417 19.7742C40.4941 14.0387 25.4831 12.5914 11.1017 15.3863C14.8406 17.8307 18.5906 20.2649 22.3368 22.6873C25.3657 24.6492 21.2636 28.8333 18.2635 26.8493C12.5671 23.0733 6.8511 19.3034 1.11009 15.5676C-0.428111 14.568 0.151665 12.1877 1.6003 11.2928C3.45379 10.1393 5.31102 8.99783 7.16451 7.84442C10.5875 4.70499 14.6448 2.26156 19.1559 0.531772C22.3142 -0.679881 24.2638 3.64318 21.4984 5.35227C19.3681 6.67142 17.2342 7.97867 15.1021 9.29187C29.047 7.47171 43.2468 9.22712 55.7144 14.7661C70.2035 21.2045 84.2335 33.4907 88.362 48.4215C88.8136 50.058 86.3186 51.309 85.3372 49.8069Z" fill="#D92E10"/>
</svg>
