<svg width="48" height="81" viewBox="0 0 48 81" fill="none" xmlns="http://www.w3.org/2000/svg">
<path d="M41.8414 2.02291C42.4553 9.3128 43.1557 16.4739 42.1942 23.7725C41.2396 30.9961 39.2125 38.0155 35.9307 44.5107C29.8836 56.4919 19.8926 66.171 7.94183 72.0459C9.24484 67.9416 10.5616 63.8392 11.8824 59.7485C12.9484 56.4385 7.61285 55.3617 6.5802 58.6735C4.62447 64.9689 2.65117 71.2704 0.64048 77.5584C0.100984 79.242 1.8728 80.848 3.42557 80.7547C5.41704 80.6422 7.40445 80.5178 9.39592 80.4053C13.6479 81.0177 17.961 80.7052 22.195 79.5556C25.1596 78.7513 24.1048 74.1337 21.1402 74.3112C18.8551 74.4459 16.574 74.5923 14.2909 74.7328C25.3727 68.3129 34.604 58.8429 40.4349 47.2794C47.2105 33.8397 50.3285 15.9078 44.8087 1.43539C44.2031 -0.150381 41.6939 0.246209 41.8414 2.02291Z" fill="#D92E10"/>
</svg>
