<svg width="88" height="40" viewBox="0 0 88 40" fill="none" xmlns="http://www.w3.org/2000/svg">
<path d="M3.18128 39.285C8.13448 33.9012 12.9343 28.5408 18.9596 24.3113C24.9251 20.1274 31.4657 16.8715 38.4693 14.8942C51.3835 11.2421 65.2705 12.0517 77.6819 16.8781C73.7778 18.6951 69.8659 20.5008 65.9598 22.2955C62.8011 23.7497 65.6177 28.4074 68.7552 26.9275C74.7144 24.1088 80.6899 21.299 86.6808 18.5258C88.2857 17.7841 88.2697 15.3928 87.1506 14.3124C85.7204 12.9219 84.2844 11.5425 82.8542 10.152C80.4287 6.60644 77.2807 3.64162 73.5697 1.30125C70.9718 -0.337848 68.2849 3.56282 70.4212 5.62592C72.0663 7.21768 73.7173 8.79848 75.3653 10.3848C63.1405 6.56691 49.9215 6.17529 37.461 9.70416C22.9799 13.8065 7.66491 23.6415 0.74119 37.4972C-0.0169028 39.016 1.97265 40.5956 3.18128 39.285Z" fill="#D92E10"/>
</svg>
