<svg width="10" height="28" viewBox="0 0 10 28" fill="none" xmlns="http://www.w3.org/2000/svg">
<path d="M5.24693 27.1736C6.15409 25.2646 7.07389 23.4019 7.51823 21.2888C7.95713 19.1971 8.06001 17.0238 7.74135 14.8328C7.15546 10.792 5.17937 6.87405 2.24731 3.74237C2.22182 5.0282 2.20055 6.31528 2.18166 7.59967C2.16555 8.63861 0.487815 8.24914 0.513904 7.21401C0.565638 5.24722 0.612808 3.27653 0.647624 1.30473C0.656617 0.776628 1.33817 0.565585 1.78591 0.789794C2.36085 1.07542 2.93342 1.36375 3.50836 1.64938C4.8209 2.02674 6.05922 2.66408 7.19088 3.51953C7.98331 4.11834 7.21267 5.24227 6.35779 4.81436C5.69861 4.48512 5.04181 4.15318 4.38382 3.8226C7.00579 6.99161 8.77914 10.7553 9.34299 14.6545C9.99794 19.1862 9.12867 24.4744 6.06176 27.7137C5.72547 28.0685 5.02646 27.6391 5.24693 27.1736Z" fill="#D92E10"/>
</svg>
