<svg width="30" height="30" viewBox="0 0 30 30" fill="none" xmlns="http://www.w3.org/2000/svg">
<g clip-path="url(#clip0_806_357)">
<path d="M16.2469 28.1736C17.1541 26.2646 18.0739 24.4019 18.5182 22.2888C18.9571 20.1971 19.06 18.0238 18.7413 15.8328C18.1555 11.792 16.1794 7.87405 13.2473 4.74237C13.2218 6.0282 13.2006 7.31528 13.1817 8.59967C13.1656 9.63861 11.4878 9.24914 11.5139 8.21401C11.5656 6.24722 11.6128 4.27653 11.6476 2.30473C11.6566 1.77663 12.3382 1.56558 12.7859 1.78979C13.3608 2.07542 13.9334 2.36375 14.5084 2.64938C15.8209 3.02674 17.0592 3.66408 18.1909 4.51953C18.9833 5.11834 18.2127 6.24227 17.3578 5.81436C16.6986 5.48512 16.0418 5.15318 15.3838 4.8226C18.0058 7.99161 19.7791 11.7553 20.343 15.6545C20.9979 20.1862 20.1287 25.4744 17.0618 28.7137C16.7255 29.0685 16.0265 28.6391 16.2469 28.1736Z" fill="#D92E10"/>
</g>
<defs>
<clipPath id="clip0_806_357">
<rect width="19.5701" height="21.6548" fill="white" transform="matrix(-0.66069 0.750659 0.760453 0.649393 13.2437 0.29248)"/>
</clipPath>
</defs>
</svg>
