<svg width="1129" height="659" viewBox="0 0 1129 659" fill="none" xmlns="http://www.w3.org/2000/svg">
<path d="M855.729 560.676H719.688V176.291L720.281 176.374L855.729 195.145V560.676ZM720.729 559.635H854.687V196.051L720.729 177.489V559.635Z" fill="#93B4F6"/>
<path d="M842.553 230.666H731.918V214.177H842.553V230.666ZM732.96 229.625H841.512V215.218H732.96V229.625Z" fill="#93B4F6"/>
<path d="M842.553 265.677H731.918V249.188H842.553V265.677ZM732.96 264.635H841.512V250.229H732.96V264.635Z" fill="#93B4F6"/>
<path d="M842.553 300.698H731.918V284.208H842.553V300.698ZM732.96 299.656H841.512V285.25H732.96V299.656Z" fill="#93B4F6"/>
<path d="M842.553 335.718H731.918V319.229H842.553V335.718ZM732.96 334.676H841.512V320.27H732.96V334.676Z" fill="#93B4F6"/>
<path d="M842.553 370.74H731.918V354.25H842.553V370.74ZM732.96 369.698H841.512V355.292H732.96V369.698Z" fill="#93B4F6"/>
<path d="M842.553 405.76H731.918V389.271H842.553V405.76ZM732.96 404.718H841.512V390.312H732.96V404.718Z" fill="#93B4F6"/>
<path d="M842.553 440.77H731.918V424.281H842.553V440.77ZM732.96 439.729H841.512V425.322H732.96V439.729Z" fill="#93B4F6"/>
<path d="M842.553 475.791H731.918V459.302H842.553V475.791ZM732.96 474.75H841.512V460.343H732.96V474.75Z" fill="#93B4F6"/>
<path d="M842.553 510.813H731.918V494.323H842.553V510.813ZM732.96 509.771H841.512V495.365H732.96V509.771Z" fill="#93B4F6"/>
<path d="M720.731 560.676H680.387V249.197H720.731V560.676ZM681.428 559.635H719.689V250.239H681.428V559.635Z" fill="#93B4F6"/>
<path d="M681.115 560.676H640.771V249.197H681.115V560.676ZM641.813 559.635H680.074V250.239H641.813V559.635Z" fill="#93B4F6"/>
<path d="M641.731 560.676H601.387V249.197H641.731V560.676ZM602.428 559.635H640.689V250.239H602.428V559.635Z" fill="#93B4F6"/>
<path d="M602.344 560.676H562V249.197H602.344V560.676ZM563.042 559.635H601.302V250.239H563.042V559.635Z" fill="#93B4F6"/>
<path d="M699.396 250.197H585.125V229.468H699.385V250.197H699.396ZM586.167 249.155H698.344V230.509H586.167V249.155Z" fill="#93B4F6"/>
<path d="M653.448 230.5H629.438V91.625H653.448V230.5ZM630.479 229.458H652.406V92.6667H630.479V229.458Z" fill="#93B4F6"/>
<path d="M563.198 560.333H417.75V0.645508H563.187V560.333H563.198ZM418.792 559.291H562.146V1.68717H418.792V559.291Z" fill="#93B4F6"/>
<path d="M563.199 125.479H526.053V99.8223H563.199V125.479ZM527.094 124.437H562.157V100.864H527.094V124.437Z" fill="#93B4F6"/>
<path d="M527.095 125.479H489.949V99.8223H527.095V125.479ZM491.001 124.437H526.064V100.864H491.001V124.437Z" fill="#93B4F6"/>
<path d="M491.001 125.479H453.855V99.8223H491.001V125.479ZM454.897 124.437H489.96V100.864H454.897V124.437Z" fill="#93B4F6"/>
<path d="M454.896 125.479H417.75V99.8223H454.896V125.479ZM418.792 124.437H453.854V100.864H418.792V124.437Z" fill="#93B4F6"/>
<path d="M563.199 175.156H526.053V149.5H563.199V175.156ZM527.094 174.115H562.157V150.542H527.094V174.115Z" fill="#93B4F6"/>
<path d="M527.095 175.156H489.949V149.5H527.095V175.156ZM491.001 174.115H526.064V150.542H491.001V174.115Z" fill="#93B4F6"/>
<path d="M491.001 175.156H453.855V149.5H491.001V175.156ZM454.897 174.115H489.96V150.542H454.897V174.115Z" fill="#93B4F6"/>
<path d="M454.896 175.156H417.75V149.5H454.896V175.156ZM418.792 174.115H453.854V150.542H418.792V174.115Z" fill="#93B4F6"/>
<path d="M563.199 224.833H526.053V199.177H563.199V224.833ZM527.094 223.791H562.157V200.218H527.094V223.791Z" fill="#93B4F6"/>
<path d="M527.095 224.833H489.949V199.177H527.095V224.833ZM491.001 223.791H526.064V200.218H491.001V223.791Z" fill="#93B4F6"/>
<path d="M491.001 224.833H453.855V199.177H491.001V224.833ZM454.897 223.791H489.96V200.218H454.897V223.791Z" fill="#93B4F6"/>
<path d="M454.896 224.833H417.75V199.177H454.896V224.833ZM418.792 223.791H453.854V200.218H418.792V223.791Z" fill="#93B4F6"/>
<path d="M563.199 274.51H526.053V248.854H563.199V274.51ZM527.094 273.468H562.157V249.895H527.094V273.468Z" fill="#93B4F6"/>
<path d="M527.095 274.51H489.949V248.854H527.095V274.51ZM491.001 273.468H526.064V249.895H491.001V273.468Z" fill="#93B4F6"/>
<path d="M491.001 274.51H453.855V248.854H491.001V274.51ZM454.897 273.468H489.96V249.895H454.897V273.468Z" fill="#93B4F6"/>
<path d="M454.896 274.51H417.75V248.854H454.896V274.51ZM418.792 273.468H453.854V249.895H418.792V273.468Z" fill="#93B4F6"/>
<path d="M563.199 373.864H526.053V348.208H563.199V373.864ZM527.094 372.823H562.157V349.25H527.094V372.823Z" fill="#93B4F6"/>
<path d="M527.095 373.864H489.949V348.208H527.095V373.864ZM491.001 372.823H526.064V349.25H491.001V372.823Z" fill="#93B4F6"/>
<path d="M491.001 373.864H453.855V348.208H491.001V373.864ZM454.897 372.823H489.96V349.25H454.897V372.823Z" fill="#93B4F6"/>
<path d="M454.896 373.864H417.75V348.208H454.896V373.864ZM418.792 372.823H453.854V349.25H418.792V372.823Z" fill="#93B4F6"/>
<path d="M563.199 423.542H526.053V397.885H563.199V423.542ZM527.094 422.5H562.157V398.927H527.094V422.5Z" fill="#93B4F6"/>
<path d="M527.095 423.542H489.949V397.885H527.095V423.542ZM491.001 422.5H526.064V398.927H491.001V422.5Z" fill="#93B4F6"/>
<path d="M491.001 423.542H453.855V397.885H491.001V423.542ZM454.897 422.5H489.96V398.927H454.897V422.5Z" fill="#93B4F6"/>
<path d="M454.896 423.542H417.75V397.885H454.896V423.542ZM418.792 422.5H453.854V398.927H418.792V422.5Z" fill="#93B4F6"/>
<path d="M546.646 61.6038H532.521V0.645508H546.646V61.6038ZM533.563 60.5622H545.605V1.68717H533.563V60.5622Z" fill="#93B4F6"/>
<path d="M513.479 61.6038H499.344V0.645508H513.479V61.6038ZM500.385 60.5622H512.438V1.68717H500.385V60.5622Z" fill="#93B4F6"/>
<path d="M480.312 61.6038H466.188V0.645508H480.312V61.6038ZM467.219 60.5622H479.26V1.68717H467.219V60.5622Z" fill="#93B4F6"/>
<path d="M447.137 61.6038H433.012V0.645508H447.137V61.6038ZM434.053 60.5622H446.095V1.68717H434.053V60.5622Z" fill="#93B4F6"/>
<path d="M1128.96 560.677H854.709V436.937L855.021 436.802L991.844 375.521L992.053 375.614L1128.97 436.937V560.677H1128.96ZM855.751 559.635H1127.92V437.604L991.834 376.646L855.751 437.604V559.635Z" fill="#93B4F6"/>
<path d="M1112.9 449.187L991.834 394.958L874.136 447.676L873.709 446.728L991.834 393.822L992.042 393.916L1113.32 448.239L1112.9 449.187Z" fill="#93B4F6"/>
<path d="M1056.2 548.979H927.459V536.239H1056.2V548.979ZM928.501 547.937H1055.16V537.281H928.501V547.937Z" fill="#93B4F6"/>
<path d="M1074.67 560.677H909V547.937H1074.67V560.677ZM910.042 559.635H1073.62V548.979H910.042V559.635Z" fill="#93B4F6"/>
<path d="M1108.23 524.625H1082.73V499.125H1108.23V524.625ZM1083.76 523.583H1107.18V500.167H1083.76V523.583Z" fill="#93B4F6"/>
<path d="M1067.51 524.625H1042.01V499.125H1067.51V524.625ZM1043.05 523.583H1066.47V500.167H1043.05V523.583Z" fill="#93B4F6"/>
<path d="M945.355 524.625H919.855V499.125H945.355V524.625ZM920.897 523.583H944.314V500.167H920.897V523.583Z" fill="#93B4F6"/>
<path d="M904.637 524.625H879.137V499.125H904.637V524.625ZM880.178 523.583H903.595V500.167H880.178V523.583Z" fill="#93B4F6"/>
<path d="M1108.23 483.677H1082.73V458.177H1108.23V483.677ZM1083.76 482.636H1107.18V459.219H1083.76V482.636Z" fill="#93B4F6"/>
<path d="M1067.51 483.677H1042.01V458.177H1067.51V483.677ZM1043.05 482.636H1066.47V459.219H1043.05V482.636Z" fill="#93B4F6"/>
<path d="M1026.79 483.677H1001.29V458.177H1026.79V483.677ZM1002.33 482.636H1025.75V459.219H1002.33V482.636Z" fill="#93B4F6"/>
<path d="M986.074 483.677H960.574V458.177H986.074V483.677ZM961.616 482.636H985.033V459.219H961.616V482.636Z" fill="#93B4F6"/>
<path d="M945.355 483.677H919.855V458.177H945.355V483.677ZM920.897 482.636H944.314V459.219H920.897V482.636Z" fill="#93B4F6"/>
<path d="M904.637 483.677H879.137V458.177H904.637V483.677ZM880.178 482.636H903.595V459.219H880.178V482.636Z" fill="#93B4F6"/>
<path d="M1030.36 537.271H958.512V499.125H1030.36V537.271ZM959.553 536.229H1029.31V500.167H959.553V536.229Z" fill="#93B4F6"/>
<path d="M994.948 499.646H993.906V536.75H994.948V499.646Z" fill="#93B4F6"/>
<path d="M418.793 560.677H270.012V334.677H418.793V560.677ZM271.053 559.635H417.751V335.718H271.053V559.635Z" fill="#93B4F6"/>
<path d="M405.314 360.511H282.168V361.552H405.314V360.511Z" fill="#93B4F6"/>
<path d="M405.314 385.292H282.168V386.334H405.314V385.292Z" fill="#93B4F6"/>
<path d="M405.314 410.072H282.168V411.114H405.314V410.072Z" fill="#93B4F6"/>
<path d="M405.314 434.854H282.168V435.896H405.314V434.854Z" fill="#93B4F6"/>
<path d="M405.314 459.635H282.168V460.677H405.314V459.635Z" fill="#93B4F6"/>
<path d="M405.314 484.417H282.168V485.458H405.314V484.417Z" fill="#93B4F6"/>
<path d="M405.314 509.188H282.168V510.229H405.314V509.188Z" fill="#93B4F6"/>
<path d="M271.053 560.677H137.48V313.02H204.741V241.364H315.105V335.729H271.053V560.677ZM138.522 559.635H270.012V334.677H314.064V242.395H205.783V314.052H138.522V559.635Z" fill="#93B4F6"/>
<path d="M256.146 297.469H232.781V263.5H256.146V297.469ZM233.823 296.427H255.104V264.542H233.823V296.427Z" fill="#93B4F6"/>
<path d="M298.802 297.469H275.438V263.5H298.802V297.469ZM276.479 296.427H297.76V264.542H276.479V296.427Z" fill="#93B4F6"/>
<path d="M256.146 378.02H232.781V344.041H256.146V378.02ZM233.823 376.979H255.104V345.083H233.823V376.979Z" fill="#93B4F6"/>
<path d="M256.146 458.572H232.781V424.593H256.146V458.572ZM233.823 457.53H255.104V425.634H233.823V457.53Z" fill="#93B4F6"/>
<path d="M215.949 378.02H192.584V344.041H215.949V378.02ZM193.626 376.979H214.907V345.083H193.626V376.979Z" fill="#93B4F6"/>
<path d="M215.949 458.572H192.584V424.593H215.949V458.572ZM193.626 457.53H214.907V425.634H193.626V457.53Z" fill="#93B4F6"/>
<path d="M174.939 378.02H151.574V344.041H174.939V378.02ZM152.616 376.979H173.897V345.083H152.616V376.979Z" fill="#93B4F6"/>
<path d="M174.939 458.572H151.574V424.593H174.939V458.572ZM152.616 457.53H173.897V425.634H152.616V457.53Z" fill="#93B4F6"/>
<path d="M138.521 560.677H0.802734V397.885H138.521V560.677ZM1.8444 559.635H137.48V398.927H1.8444V559.635Z" fill="#93B4F6"/>
<path d="M98.6361 441.124H0.802734V423.614H98.6361V441.124ZM1.8444 440.083H97.5944V424.655H1.8444V440.083Z" fill="#93B4F6"/>
<path d="M98.6361 484.469H0.802734V466.958H98.6361V484.469ZM1.8444 483.427H97.5944V468H1.8444V483.427Z" fill="#93B4F6"/>
<path d="M98.6361 527.813H0.802734V510.302H98.6361V527.813ZM1.8444 526.771H97.5944V511.344H1.8444V526.771Z" fill="#93B4F6"/>
<path d="M854.709 438.073V221.896H1026.79V392.312L991.834 376.656L854.709 438.073ZM855.751 222.937V436.468L991.834 375.51L992.042 375.604L1025.75 390.698V222.937H855.751Z" fill="#93B4F6"/>
<path d="M1026.27 251.822H951.418V252.864H1026.27V251.822Z" fill="#93B4F6"/>
<path d="M1026.27 276.031H951.418V277.073H1026.27V276.031Z" fill="#93B4F6"/>
<path d="M1026.27 300.239H951.418V301.281H1026.27V300.239Z" fill="#93B4F6"/>
<path d="M1026.27 324.447H951.418V325.489H1026.27V324.447Z" fill="#93B4F6"/>
<path d="M1026.27 348.656H951.418V349.698H1026.27V348.656Z" fill="#93B4F6"/>
<path d="M904.115 251.822H854.459V252.864H904.115V251.822Z" fill="#93B4F6"/>
<path d="M904.115 276.031H854.459V277.073H904.115V276.031Z" fill="#93B4F6"/>
<path d="M904.115 300.239H854.459V301.281H904.115V300.239Z" fill="#93B4F6"/>
<path d="M904.115 324.447H854.459V325.489H904.115V324.447Z" fill="#93B4F6"/>
<path d="M904.115 348.656H854.459V349.698H904.115V348.656Z" fill="#93B4F6"/>
<path d="M966.366 631.125H161.918V632.167H966.366V631.125Z" fill="#93B4F6"/>
<path d="M953.491 657.948H149.043V658.99H953.491V657.948Z" fill="#93B4F6"/>
</svg>
