<svg width="809" height="570" viewBox="0 0 809 570" fill="none" xmlns="http://www.w3.org/2000/svg">
<path d="M369.686 76.2611C358.811 67.7715 350.894 57.5945 346.196 50.5945C343.425 46.4591 341.196 41.9903 339.446 37.334C334.571 24.2924 322.269 -9.54095 290.832 3.44864C257.852 17.0736 275.978 54.7403 284.207 76.0007C288.769 87.8028 298.28 90.0841 311.269 85.2716C315.571 83.6778 320.332 86.1153 321.405 90.5736C324.811 104.803 322.675 119.303 322.165 136.376C343.207 128.751 364.092 110.032 369.686 76.2611Z" fill="#EC8C92"/>
<path d="M333.072 561.501H327.989C326.687 561.501 326.062 559.907 327.02 559.022C335.395 551.324 340.499 540.136 340.051 527.772C339.281 506.824 322.239 489.74 301.291 488.928C278.249 488.032 259.291 506.449 259.291 529.292C259.291 541.053 264.322 551.636 272.343 559.022C273.301 559.907 272.687 561.501 271.385 561.501H266.301C264.166 561.501 262.249 563.053 262.041 565.178C261.791 567.615 263.718 569.688 266.114 569.688H333.27C335.656 569.688 337.583 567.615 337.343 565.178C337.124 563.053 335.208 561.501 333.072 561.501Z" fill="black"/>
<path d="M300.092 550.116C311.593 550.116 320.915 540.793 320.915 529.293C320.915 517.793 311.593 508.47 300.092 508.47C288.592 508.47 279.27 517.793 279.27 529.293C279.27 540.793 288.592 550.116 300.092 550.116Z" fill="#274D76"/>
<path d="M627.863 561.501H622.78C621.478 561.501 620.853 559.907 621.811 559.022C630.186 551.324 635.29 540.136 634.842 527.772C634.072 506.824 617.03 489.74 596.082 488.928C573.04 488.032 554.082 506.449 554.082 529.292C554.082 541.053 559.113 551.636 567.134 559.022C568.092 559.907 567.478 561.501 566.176 561.501H561.092C558.957 561.501 557.04 563.053 556.832 565.178C556.582 567.615 558.509 569.688 560.905 569.688H628.061C630.447 569.688 632.374 567.615 632.134 565.178C631.915 563.053 629.999 561.501 627.863 561.501Z" fill="black"/>
<path d="M439.301 120.667C424.488 100.292 403.145 94.1878 385.04 85.7712C379.405 83.1462 374.28 79.8545 369.686 76.2607C364.092 110.032 343.197 128.75 322.165 136.365C321.624 154.698 322.957 175.99 335.04 203.063L339.78 214.5L392.228 266.625L466.28 258.709C466.28 258.719 456.165 143.865 439.301 120.667Z" fill="#FFF3A1"/>
<path d="M594.895 550.116C606.395 550.116 615.718 540.793 615.718 529.293C615.718 517.793 606.395 508.47 594.895 508.47C583.395 508.47 574.072 517.793 574.072 529.293C574.072 540.793 583.395 550.116 594.895 550.116Z" fill="#274D76"/>
<path d="M256.28 318.229L75.1138 463.437C59.0721 475.885 40.9679 473.51 23.0408 458.771C20.0513 456.312 11.4054 448.583 11.4054 448.583C9.0721 446.177 5.23878 446.115 2.82211 448.438L1.13462 450.073C-0.115383 451.281 -0.157057 453.281 1.06169 454.531L70.5617 526.552C72.0512 528.094 74.4992 528.135 76.0408 526.646C77.6346 525.104 80.1867 524.896 81.8742 526.333C83.8117 527.99 83.8638 530.906 82.0826 532.625L81.9367 532.76C80.4055 534.25 80.3533 536.698 81.8429 538.229L102.864 560.042C110.458 567.906 122.78 568.719 131.333 561.917L411.905 335.479L395.218 318.219H256.28V318.229Z" fill="#274D76"/>
<path d="M663.76 502.771H655.27V474.99C655.27 469.355 650.656 464.73 645.01 464.73H641.666C630.228 450.74 614.145 441.771 594.77 441.771H561.333C558.656 441.771 556.072 440.751 554.124 438.917L496.645 382.521C484.708 371.313 468.947 365.063 452.572 365.063H364.676C338.499 365.063 318.531 372.563 301.833 392.719L238.385 465.24V550.094C238.385 550.094 241.041 550.094 245.562 550.094C248.385 550.094 250.916 548.386 252.01 545.771C258.551 530.125 273.374 511.063 299.697 511.948C326.447 512.844 338.104 526.771 343.124 537.542C346.354 544.469 347.333 553.532 348.176 554.948C349.833 557.719 352.864 559.584 356.322 559.584H538.656C543.635 559.584 547.676 555.542 547.676 550.563V544.021C547.676 532.584 551.499 521.386 558.895 512.667C565.895 504.417 576.989 497.084 594.322 497.084C629.322 497.084 639.051 529.042 641.01 535.407C644.114 545.448 648.083 550.303 653.729 550.303H659.291C664.937 550.303 669.541 545.74 669.551 540.105C669.572 512.417 663.76 502.771 663.76 502.771Z" fill="#FFF3A1"/>
<path d="M500.853 537.136H398.228C388.061 537.136 379.801 528.866 379.801 518.709V397.907C379.801 383.438 391.572 371.657 406.04 371.657H455.02C465.051 371.657 474.301 376.688 479.759 385.105L509.738 431.407C512.842 436.199 514.478 441.741 514.478 447.449H512.395C512.395 442.147 510.874 436.991 507.988 432.543L478.009 386.241C472.936 378.407 464.353 373.741 455.02 373.741H406.04C392.717 373.741 381.884 384.584 381.884 397.907V518.709C381.884 527.72 389.217 535.053 398.228 535.053H500.853C507.217 535.053 512.384 529.876 512.384 523.522H514.467C514.478 531.032 508.363 537.136 500.853 537.136Z" fill="black"/>
<path d="M480.447 441.886H411.27C400.853 441.886 392.416 433.553 392.416 423.272V399.511C392.416 390.511 399.812 383.209 408.926 383.209H451.458C458.77 383.209 465.572 386.928 469.458 393.042L489.833 425.126C494.468 432.417 489.156 441.886 480.447 441.886Z" fill="#93B4F6"/>
<path d="M309.509 441.886H351.478C361.957 441.886 370.447 433.501 370.447 423.157V398.824C370.447 390.199 363.363 383.209 354.634 383.209H346.686C338.207 383.209 326.832 390.126 321.415 396.553C316.551 402.324 302.822 420.334 302.822 420.334C295.28 428.667 298.197 441.886 309.509 441.886Z" fill="#93B4F6"/>
<path d="M649.29 516.084H642.425C640.946 516.084 639.748 514.875 639.748 513.407C639.748 511.927 640.956 510.729 642.425 510.729H649.29C650.769 510.729 651.967 511.938 651.967 513.407C651.977 514.886 650.769 516.084 649.29 516.084Z" fill="white"/>
<path d="M649.29 517.125H642.426C640.374 517.125 638.707 515.459 638.707 513.407C638.707 511.355 640.374 509.688 642.426 509.688H649.29C651.342 509.688 653.009 511.355 653.009 513.407C653.009 515.459 651.342 517.125 649.29 517.125ZM642.426 511.771C641.519 511.771 640.79 512.511 640.79 513.407C640.79 514.313 641.53 515.042 642.426 515.042H649.29C650.197 515.042 650.926 514.303 650.926 513.407C650.926 512.5 650.186 511.771 649.29 511.771H642.426Z" fill="black"/>
<path d="M658.123 506.157C652.883 506.157 648.592 501.866 648.592 496.626V473.491C648.592 471.345 650.342 469.595 652.488 469.595C660.831 469.595 667.654 476.418 667.654 484.761V496.616C667.654 501.866 663.373 506.157 658.123 506.157Z" fill="white"/>
<path d="M658.124 507.199C652.29 507.199 647.551 502.459 647.551 496.626V473.49C647.551 470.771 649.759 468.553 652.488 468.553C661.426 468.553 668.697 475.824 668.697 484.761V496.615C668.697 502.449 663.957 507.199 658.124 507.199ZM652.488 470.636C650.915 470.636 649.634 471.917 649.634 473.49V496.626C649.634 501.313 653.447 505.115 658.124 505.115C662.801 505.115 666.613 501.303 666.613 496.626V484.771C666.613 476.98 660.28 470.636 652.488 470.636Z" fill="black"/>
<path d="M585.375 451.354H283.531V453.438H585.375V451.354Z" fill="black"/>
<path d="M626.406 464.345H273.844V466.428H626.406V464.345Z" fill="black"/>
<path d="M367.656 513.771H365.573C365.573 494.824 350.156 479.417 331.219 479.417H262.75V477.334H331.219C351.313 477.334 367.656 493.678 367.656 513.771Z" fill="black"/>
<path d="M520.77 396.751C514.082 390.345 505.707 382.418 492.436 383.209C491.051 383.209 490.259 384.803 491.113 385.907L526.218 431.47C529.666 435.949 534.988 438.563 540.645 438.563H553.353C556.363 438.563 530.978 406.532 520.77 396.751Z" fill="#93B4F6"/>
<path d="M773.301 253.334C808.458 223.542 787.895 136.563 715.072 129.355C717.093 110.99 692.479 80.1569 656.062 70.5944C604.854 57.1465 504.458 78.7715 504.479 167.99C504.489 216.126 556.562 251.407 615.406 234.428C624.187 276.355 648.843 293.98 684.374 293.157C672.666 304.219 673.843 329.324 683.385 339.969C684.26 340.949 683.697 342.501 682.395 342.657C650.228 346.594 643.489 379.657 643.562 397.49C643.562 398.501 642.301 398.917 641.666 398.126C637.218 392.667 628.729 391.938 620.76 398.23C609.291 407.261 607.458 422.928 613.874 429.428C625.437 441.136 651.531 432.542 654.208 417.303C654.333 416.594 654.979 416.157 655.52 416.646C666.749 426.928 706.051 447.23 741.447 422.407C763.041 407.261 764.197 377.115 758.416 361.24C757.791 359.521 758.937 357.771 760.729 357.438C832.135 344.126 812.301 249.646 773.301 253.334ZM655.926 324.876C654.239 318.615 642.114 319.386 643.218 328.647C644.312 337.897 657.499 330.678 655.926 324.876ZM628.208 318.324C637.072 313.688 640.843 306.105 638.718 300.699C637.114 296.626 629.708 295.792 620.176 298.136C614.249 299.594 611.135 306.115 610.968 310.532C610.822 314.396 612.76 318.146 616.229 319.865C620.249 321.865 624.249 320.386 628.208 318.324ZM549.562 257.271C534.656 258.48 526.301 264.271 523.114 270.771C512.906 291.626 538.041 323.199 577.77 316.803C617.906 310.344 606.51 252.646 549.562 257.271ZM768.208 107.553C780.051 102.199 790.833 77.636 767.093 68.5735C754.583 63.7923 745.041 66.1882 737.656 69.1569C728.926 72.6673 723.426 77.7715 722.479 84.0944C718.895 108.094 756.656 112.771 768.208 107.553ZM714.499 58.3548C720.322 55.0423 721.406 49.959 720.197 45.5319C718.989 41.1048 715.51 37.334 706.041 36.6465C694.333 35.7923 685.791 43.0006 685.479 48.9798C684.895 60.6256 702.854 64.9798 714.499 58.3548Z" fill="#93B4F6"/>
<path d="M613.454 370.499L611.408 370.892L626.75 450.772L628.795 450.379L613.454 370.499Z" fill="black"/>
<path d="M199.375 295.49C174.75 295.49 157.604 319.063 155.708 343.625L136.187 522.698C133.99 542.886 119.698 554.25 96.6354 556.896C92.7917 557.334 81.2188 558.177 81.2188 558.177C77.8646 558.177 75.1562 560.896 75.1562 564.24V566.594C75.1562 568.334 76.5625 569.75 78.3021 569.75L178.396 569.844C180.531 569.844 182.271 568.115 182.271 565.969C182.271 563.75 183.896 561.771 186.104 561.552C188.635 561.313 190.771 563.302 190.771 565.782V565.979C190.771 568.115 192.5 569.844 194.635 569.855L224.927 569.907C235.854 569.917 245.01 561.615 246.062 550.74L261.438 392.604C262.969 376.792 276.25 364.729 292.135 364.729H439.052C462.937 364.729 482.312 344.427 482.312 320.532V295.479H199.375V295.49Z" fill="#74BAAB"/>
<path d="M210.404 295.49L162.915 201.688C160.019 195.969 154.144 192.354 147.738 192.354H126.602C122.852 192.354 120.457 196.344 122.207 199.646L172.957 295.479C172.957 295.479 177.675 311.032 186.259 311.032H197.04H218.269H297.613C302.373 311.032 306.238 307.167 306.238 302.407V295.479H210.404V295.49Z" fill="#274D76"/>
<path d="M203.03 311.042H181.8C172.05 311.042 163.092 305.657 158.53 297.032L106.957 199.657C105.207 196.344 107.602 192.365 111.352 192.365H132.488C138.905 192.365 144.769 195.969 147.665 201.699L203.03 311.042Z" fill="#93B4F6"/>
<path d="M515.365 549.803C519.969 549.803 523.833 553.043 524.792 557.366H370.865C371.823 553.043 375.677 549.803 380.292 549.803H515.365ZM515.365 547.72H380.292C373.813 547.72 368.562 552.97 368.562 559.449H527.104C527.094 552.97 521.844 547.72 515.365 547.72Z" fill="black"/>
<path d="M201.271 203.469L206.896 203.448C214.938 203.417 222.656 200.23 228.385 194.594L237.865 185.271C238.24 184.907 238.865 185.219 238.792 185.74L233.198 226.23C233.198 226.23 199.729 234.896 196.677 208.719C196.365 205.938 198.479 203.49 201.271 203.469Z" fill="#EC8C92"/>
<path d="M484.728 240.584L449.978 123.907C442.708 100.98 418.228 88.2817 395.291 95.5525C366.885 104.563 353.468 134.886 362.478 163.292L381.208 221.188L278.364 178.521C260.426 170.855 237.395 175.646 233.791 194.823C231.239 208.407 209.051 295.313 223.52 295.386H238.718C248.791 293.657 249.499 285.938 251.853 271.678C255.978 272.365 264.791 274.178 272.01 270.834C274.718 273.959 285.489 274.813 293.02 271.678C298.76 273.521 306.239 273.053 310.343 270.709C347.02 291.032 383.301 310.125 403.885 319.917C421.406 328.261 437.916 328 454.739 323.98C491.562 312.959 494.124 270.209 484.728 240.584Z" fill="#EC8C92"/>
<path d="M472.957 201.084L449.978 123.907C442.707 100.98 418.228 88.2817 395.29 95.5525C366.884 104.563 353.467 134.886 362.478 163.292L380.634 219.396C388.092 216.98 440.801 200.313 472.957 201.084Z" fill="#FFF3A1"/>
<path d="M673.27 540.095H654.208C653.406 540.095 652.697 539.595 652.416 538.855L647.479 525.678C647.01 524.428 647.937 523.095 649.27 523.095H673.27C677.135 523.095 680.26 526.22 680.26 530.084V533.105C680.26 536.97 677.135 540.095 673.27 540.095Z" fill="#93B4F6"/>
<path d="M427.072 241.125C426.822 241.031 401.458 231.156 380.791 222.146L381.624 220.239C402.249 229.239 427.572 239.093 427.822 239.187L427.072 241.125Z" fill="black"/>
<path d="M257.377 233.669L252.729 267.108L254.792 267.395L259.441 233.956L257.377 233.669Z" fill="black"/>
<path d="M275.364 269.116L273.51 268.168C274.801 265.636 275.593 262.918 275.874 260.095L277.958 239.438L280.031 239.647L277.947 260.303C277.635 263.386 276.76 266.355 275.364 269.116Z" fill="black"/>
<path d="M296.572 269.958L294.697 269.052C295.864 266.635 296.593 264.052 296.864 261.375L298.76 242.5L300.833 242.708L298.937 261.583C298.645 264.5 297.843 267.312 296.572 269.958Z" fill="black"/>
<path d="M313.676 269.636L311.854 268.626C313.364 265.897 314.291 262.938 314.604 259.834L316.041 245.532L318.114 245.741L316.676 260.043C316.343 263.428 315.333 266.657 313.676 269.636Z" fill="black"/>
<path d="M85.1885 466.53L83.666 467.952L129.749 517.288L131.271 515.866L85.1885 466.53Z" fill="white"/>
<path d="M249.467 518.949H152.145V521.032H249.467V518.949Z" fill="black"/>
<path d="M289.655 64.3229C288.957 64.3229 288.249 64.1667 287.603 63.8646C286.353 63.2708 285.415 62.1667 285.04 60.8229C284.426 58.7396 279.238 40.3021 286.363 37.75L287.061 39.7083C283.072 41.1354 284.936 53.0625 287.04 60.2396C287.259 61.0104 287.78 61.6354 288.499 61.9688C289.207 62.3021 290.03 62.3125 290.749 62L295.405 60.0208L296.217 61.9375L291.572 63.9063C290.957 64.1875 290.311 64.3229 289.655 64.3229Z" fill="black"/>
<path d="M293.188 41.1253L292.375 39.2087C296.5 37.4691 299.51 36.4066 303.677 37.3441L303.219 39.3753C299.771 38.5941 297.406 39.3545 293.188 41.1253Z" fill="black"/>
<path d="M277.135 49.4173L275.604 48.0006C277.437 46.011 281.364 43.9486 283.958 43.1777L284.551 45.1777C282.218 45.8756 278.676 47.7506 277.135 49.4173Z" fill="black"/>
<path d="M329.26 45.1042L328.301 43.25C330.458 42.125 331.801 39.9271 331.801 37.5C331.801 33.9271 328.895 31.0208 325.322 31.0208C322.666 31.0208 320.312 32.6146 319.312 35.0729L317.385 34.2917C318.697 31.0417 321.822 28.9375 325.322 28.9375C330.041 28.9375 333.885 32.7813 333.885 37.5C333.874 40.7083 332.104 43.625 329.26 45.1042Z" fill="black"/>
<path d="M332.166 20.7505C331.666 19.7713 330.989 18.7609 330.979 18.6984C323.489 6.21925 311.166 -4.95786 290.833 3.43797C279.448 8.13589 274.156 15.7088 272.448 24.4692C271.833 27.6151 276.021 29.3234 277.844 26.688L277.885 26.6255C281.135 21.938 302.125 15.6567 311.177 16.4901C319.562 17.2713 329.031 20.0005 332.166 20.7505Z" fill="#FFF3A1"/>
<path d="M273.125 43.5316C271.99 28.4691 299.667 17.1775 329.688 20.1254C317.521 17.0733 293.844 9.41703 282.292 5.65661C277.979 4.25036 273.323 4.41705 269.125 6.10455C252.625 12.7191 253.052 36.2399 269.792 42.2504C270.406 42.4691 272.646 43.3545 273.125 43.5316Z" fill="#274D76"/>
<path d="M320.124 559.438H280.363V561.522H320.124V559.438Z" fill="white"/>
<path d="M614.323 559.438H574.562V561.522H614.323V559.438Z" fill="white"/>
<path d="M626.708 352.042C621.5 353.261 613.541 360.209 608.177 367.084C594.406 384.729 554.114 438.438 554.114 438.438C553.375 439.407 553.427 440.761 554.229 441.677L555.479 443.302C556.083 444.094 557.021 444.552 558.021 444.552H565.927L626.5 357.667L628.541 354.761C629.458 353.438 628.271 351.688 626.708 352.042Z" fill="#FFF3A1"/>
<path d="M374.425 208.824L359.603 162.678C351.717 137.813 361.884 110.511 383.78 97.7715L384.832 99.5735C363.769 111.834 353.998 138.105 361.592 162.053L376.415 208.199L374.425 208.824Z" fill="black"/>
<path d="M230.708 292.792H221.562V290.709H230.708C235.354 290.709 239.124 286.938 239.124 282.292C239.124 277.646 235.354 273.875 230.708 273.875H221.104V271.792H230.708C236.499 271.792 241.208 276.5 241.208 282.292C241.208 288.073 236.489 292.792 230.708 292.792Z" fill="black"/>
<path d="M231.271 196.152L225.387 227.148L227.433 227.537L233.318 196.54L231.271 196.152Z" fill="black"/>
</svg>
