<svg width="100" height="90" viewBox="0 0 100 90" fill="none" xmlns="http://www.w3.org/2000/svg">
<path d="M0 28.6863C1.34048 26.0724 1.34048 23.1233 2.07775 20.3753C3.21716 16.4209 5.69705 14.2761 9.7185 13.807C10.4558 13.7399 11.193 13.6059 11.8633 13.4048C13.941 12.9356 15.7507 12.0643 16.756 10.0536C16.8901 9.85254 17.0241 9.71849 17.2252 9.4504C17.0912 10.7909 16.0858 12.3995 14.6783 13.0027C12.9357 13.7399 11.059 14.3432 9.18231 14.7453C6.83646 15.2145 5.16086 16.555 4.1555 18.6327C2.88204 21.0456 2.47989 23.6595 2.14477 26.2734C2.07775 27.0777 2.47989 27.748 3.35121 27.882C4.22252 27.949 5.16086 27.815 6.03217 27.882C7.30563 27.882 8.51207 28.1501 9.7185 28.2171C10.8579 28.2842 12.0643 28.5523 13.0697 28.1501C15.1475 27.3458 17.0912 26.9437 19.1689 28.0161C19.2359 28.0161 19.303 28.0161 19.6381 28.0161C19.37 27.6139 19.3029 27.2118 19.0349 27.0777C18.0295 26.6086 18.2976 25.6032 18.0965 24.7989C17.9625 24.3297 18.2306 23.7936 18.2976 23.1903C18.3646 22.319 18.9008 21.7158 19.7051 21.5147C20.5764 21.3137 21.6488 21.3137 22.0509 22.118C22.7212 23.3244 23.4584 24.6649 22.8552 26.1394C22.7882 26.5415 22.5871 26.8096 22.3861 27.0107C21.6488 27.681 21.8499 28.6863 22.7212 29.0885C23.3244 29.3566 23.9276 29.6246 24.3968 30.0268C25.067 30.63 25.3351 31.5013 25.3351 32.5067C25.3351 36.059 25.4692 39.6783 25.6032 43.2305C25.6702 44.7721 25.8713 44.9061 27.1448 45.2413C27.4129 43.6327 27.681 42.0241 27.9491 40.4155C27.9491 40.2815 27.815 39.9464 27.6139 39.8793C26.3405 39.2091 26.0724 37.9356 26.0054 36.7292C25.9383 34.9866 26.0054 33.2439 26.0054 31.4343C26.0054 30.8311 26.2735 30.4289 26.8767 30.2279C27.681 29.9598 28.4182 29.6917 29.1555 29.2895C29.6917 29.0214 29.9598 28.6193 29.2225 28.1501C28.6863 27.748 28.4182 27.1448 28.6863 26.3405C28.8874 25.8713 28.8874 25.2681 28.9544 24.7989C29.0215 23.6595 29.4236 23.1903 30.496 22.9893C31.3673 22.7212 32.2386 23.4584 32.5067 24.1957C32.8418 25.134 33.1769 26.0724 33.378 27.0777C33.378 27.3458 33.1099 27.949 32.8418 28.0161C32.1716 28.2842 32.1716 28.7533 32.3056 29.2225C32.3727 29.4906 32.7078 29.8257 33.0429 29.9598C34.7185 30.496 35.3887 31.7694 35.9249 33.2439C35.992 33.512 36.126 33.7131 36.193 33.9812C36.9973 32.8418 37.2654 31.7694 36.7292 30.496C36.6622 30.2949 36.5952 30.0268 36.5952 29.8257C36.7292 28.2842 36.9303 26.8096 36.9303 25.3351C36.9973 18.9008 36.9973 12.5335 36.9973 6.09919C36.9973 5.563 37.1314 5.02681 36.4611 4.75871C36.3941 4.75871 36.2601 4.42359 36.3271 4.22252C36.6622 2.81501 36.9973 1.40751 37.6005 0C37.9357 1.40751 38.3378 2.88204 38.6729 4.28954C38.74 4.42359 38.6729 4.69169 38.6059 4.75871C37.6676 5.09383 38.0027 5.89812 38.0027 6.56836C38.0027 13.6729 38.0027 20.8445 37.9357 27.949C37.9357 28.5523 38.0027 28.9544 38.5389 29.3566C38.874 29.6246 38.941 30.2279 39.1421 30.7641C39.3432 30.7641 39.7453 30.7641 40.0804 30.563C40.3485 30.4289 40.6837 30.1608 40.7507 29.8927C40.8177 29.6246 40.6166 29.2225 40.4156 28.9544C40.0804 28.6863 39.4772 28.4182 40.0804 27.949C40.6166 27.4799 40.5496 27.0107 40.4156 26.4745C40.2145 25.7373 40.0804 24.8659 40.8177 24.5308C41.622 24.1287 42.6273 23.9946 43.5657 23.8606C43.7668 23.8606 44.1019 24.5308 44.303 24.8659C44.5711 25.4021 44.8391 25.8713 45.0402 26.4075C45.1072 26.6756 45.0402 26.9437 45.0402 27.2788C45.0402 27.681 45.1072 28.0831 45.1072 28.4852C45.1072 28.8874 45.2413 29.4236 45.0402 29.7587C44.9062 30.0268 44.303 29.9598 43.7668 29.9598C43.5657 30.3619 43.6327 30.63 44.2359 30.9651C46.0456 31.9705 47.5871 33.311 48.5255 35.2547C48.6595 35.5898 49.1957 35.9919 49.3298 35.9249C49.7989 35.6568 50.2011 35.2547 50.6032 34.8525C50.6702 34.7185 50.6032 34.4504 50.6032 34.2493C50.8043 25.2011 50.9383 16.0858 51.1394 6.97051C51.1394 6.36729 51.2064 5.76407 50.4692 5.563C50.3351 5.49598 50.2011 5.16086 50.2681 4.95978C50.6032 3.48525 51.0054 2.01072 51.4745 0.268096C51.9437 2.14477 52.3458 3.75335 52.748 5.36193C52.6139 5.36193 52.5469 5.36193 52.4129 5.2949C52.2788 5.8311 51.9437 6.36729 51.9437 6.97051C51.7426 16.1528 51.6086 25.2681 51.5416 34.4504C51.5416 35.0536 52.0107 35.7909 52.3458 36.3271C53.0161 37.6005 52.9491 38.0027 51.9437 38.874C51.6756 39.075 51.4075 39.4772 51.4075 39.8123C51.2735 47.9893 51.1394 56.1662 51.0054 64.3431C51.0054 64.4772 51.0724 64.6783 51.0724 64.8123C51.2064 64.8123 51.3405 64.8793 51.4745 64.8793C60.7909 64.7453 70.1072 64.6112 79.3566 63.2707C81.9035 62.9356 84.3164 62.2654 86.5952 60.9919C87.7346 60.3217 88.74 59.5174 89.1421 58.1099C88.2038 58.1099 87.3995 58.1099 86.4611 58.1099C86.4611 57.4396 86.4611 56.8364 86.4611 56.3002C87.2654 56.0321 88.1367 55.8981 88.941 55.4959C90.2815 54.8257 90.2815 53.8203 89.008 53.0161C88.6729 52.815 88.4048 52.6809 88.0697 52.5469C87.6005 52.4128 87.3325 52.1447 87.3995 51.6086C87.3995 51.2734 87.1314 50.7372 86.7963 50.5362C85.3887 49.5308 83.9142 48.6595 82.5067 47.7212C81.1662 46.7828 81.0992 46.7158 81.9705 45.3083C82.8418 43.9008 83.8472 42.4263 84.9866 41.2868C87.2654 39.008 88.6059 36.3271 89.2091 33.1769C89.5443 31.5683 90.2815 30.2279 91.622 29.2225C92.6274 28.4852 92.6274 28.0161 91.9571 26.8767C91.2869 25.8043 90.4826 25.067 89.0751 25.2681C87.6676 25.4692 86.6622 24.6649 85.6568 23.9276C84.7185 23.1903 83.8472 23.0563 82.6408 23.5255C81.0322 24.1287 79.2225 24.3968 77.5469 24.5308C75.4692 24.7319 75 23.9276 75.7373 21.9839C75.5362 21.8499 75.3351 21.7828 75.2011 21.6488C74.5308 21.3137 74.3298 20.8445 74.933 20.3083C75.4692 19.8391 75.4022 19.37 75.1341 18.8338C74.933 18.4986 74.7989 18.2306 74.5979 17.8954C74.0617 16.756 74.2627 16.3539 75.5362 16.2869C78.1501 16.0858 80.563 16.689 83.0429 17.4263C83.8472 17.6273 84.4504 17.6273 85.0536 17.0241C85.3217 16.756 85.992 16.622 86.3271 16.689C87.2654 16.9571 88.1367 17.3592 88.941 17.8284C89.5443 18.1635 90.0134 18.6327 90.5496 19.0348C90.6837 19.0348 90.7507 18.9678 90.8847 18.9678C90.8847 18.3646 91.0188 17.7614 90.8847 17.2922C90.4826 16.0858 90.6837 15.3485 91.555 15.0134C93.0295 14.4772 94.2359 14.9464 94.5711 16.2198C94.7051 16.689 94.9062 17.0911 95.0402 17.4263C94.9732 17.9625 95.1072 18.4986 94.8391 18.8338C94.6381 19.1689 94.1689 19.3029 93.5657 19.7051C93.9008 20.2413 94.1689 20.9785 94.7051 21.4477C95.8445 22.4531 96.3137 23.5925 96.2467 25.067C96.1126 28.8204 96.2467 32.6407 95.9786 36.3941C95.7105 38.1367 94.9062 40.2145 94.437 42.2252C95.2413 42.1582 96.1126 42.0911 97.0509 42.0911C97.3861 42.0911 97.7882 42.2922 98.0563 42.5603C98.1233 42.6273 97.9223 43.0965 97.7212 43.3646C96.8499 44.504 96.6488 45.7775 96.5818 47.1179C96.5148 49.8659 97.319 52.4128 98.2574 55.0268C98.8606 56.7694 99.5308 58.445 99.866 60.2547C100.737 64.8123 98.7936 68.8337 94.7721 71.3807C91.9571 73.1233 88.874 74.0616 85.6568 74.7989C83.8472 75.201 82.0375 75.5361 80.2279 75.8713C78.4182 76.2064 76.5416 76.4075 74.5979 76.6756C77.2118 80.563 77.815 84.8525 77.5469 89.4101C74.1957 89.4101 70.9115 89.4101 67.4933 89.4101C67.4933 87.6005 67.4933 85.7908 67.4933 83.8471C65.5496 83.8471 63.807 83.8471 61.8633 83.8471C61.9973 85.7238 62.1314 87.5335 62.2654 89.3431C59.3834 89.3431 56.6354 89.3431 53.6863 89.3431C53.6863 87.8686 53.6863 86.4611 53.6863 84.8525C51.9437 85.9919 50.2011 85.3217 48.3914 85.4557C48.3914 86.7292 48.3914 87.9356 48.3914 89.2091C46.1796 89.2091 44.1689 89.2091 41.9571 89.2091C41.9571 87.7345 41.9571 86.26 41.9571 84.7855C36.9303 84.6514 34.7185 82.1045 36.3941 77.5469C34.2493 77.4799 32.1046 77.3458 29.9598 77.2788C23.5925 77.0107 17.4263 75.8043 11.5952 73.1903C10.2547 72.5871 9.24933 71.8498 8.98123 70.3753C8.78016 69.3699 8.10992 68.9678 7.17158 68.9008C6.36729 68.8337 5.563 68.5656 4.75871 68.5656C4.02145 68.4986 3.68633 68.2305 3.55228 67.4933C3.08311 65.9517 2.68097 64.4101 2.27882 62.7345C7.37265 63.1367 12.3324 63.5388 17.3593 63.941C17.4933 62.8016 17.2922 61.9973 16.2869 61.5951C15.4156 61.26 14.5442 60.9919 13.6729 60.6568C12.9357 60.4557 12.1314 60.1876 11.3941 59.9195C10.5898 59.5844 10.1877 59.0482 10.4558 58.1099C10.7239 57.3726 10.1877 57.1045 9.65148 56.8364C7.97587 56.0321 6.36729 55.2949 4.55764 54.4236C5.09383 52.882 5.49598 51.4075 6.0992 49.9329C7.10456 47.6541 6.56837 45.4423 6.16622 43.2305C6.16622 43.0965 5.96515 42.8954 5.8311 42.8284C3.28418 41.689 2.07775 39.4772 1.54156 36.9303C1.13941 34.8525 0.938338 32.6407 0.603217 30.563C0.603217 30.2279 0.201072 29.9598 0 29.6246C0 29.3566 0 29.0214 0 28.6863ZM36.4611 64.6112C36.5952 64.6112 36.6622 64.6782 36.7962 64.6782C36.7962 55.8981 36.7962 47.1179 36.7962 38.3378C36.193 38.2037 35.5898 38.0697 34.8526 37.9356C36.193 44.7721 34.7855 51.4745 34.5174 58.2439C34.0483 58.2439 33.7131 58.311 33.378 58.311C33.378 58.512 33.311 58.6461 33.244 58.8472C33.1769 59.7185 33.0429 60.5898 32.9759 61.4611C32.9759 62.7346 33.5791 63.4718 34.8526 63.6059C35.4558 63.6729 35.992 63.7399 36.6622 63.8069C36.5282 64.1421 36.5282 64.4102 36.4611 64.6112ZM2.07775 29.7587C1.34048 34.9196 3.28418 40.6166 5.96515 41.756C5.69705 38.0027 8.17694 35.3887 9.9866 32.3726C7.30563 31.5683 4.82574 30.1608 2.07775 29.7587ZM50.2011 52.4128C50.2011 53.7533 49.2627 54.0884 48.2574 54.2225C48.1904 54.2225 48.1233 54.2225 48.0563 54.2895C47.5201 54.3565 47.319 54.6246 47.252 55.1608C47.0509 56.7694 46.7828 58.311 46.5148 59.9195C46.4477 60.5228 46.5148 61.193 45.5764 61.26C45.4424 61.26 45.3083 61.5281 45.2413 61.6622C44.8391 62.9356 45.3083 63.7399 46.6488 63.874C47.319 63.941 48.1233 63.874 48.1233 64.8793C48.5925 64.8793 48.9946 64.8793 49.3968 64.8793C49.933 64.9464 50.1341 64.6782 50.1341 64.1421C50.1341 60.3217 50.2011 56.5683 50.2681 52.748C50.2681 52.6809 50.2011 52.5469 50.2011 52.4128ZM28.8874 58.1769C28.4182 58.1099 28.0161 57.9758 27.681 57.9758C27.3458 57.9758 26.8767 58.0429 26.7426 58.2439C26.2735 59.2493 25.8043 60.2547 25.4692 61.327C25.2681 61.8632 25.2681 62.4665 25.9383 62.8686C26.1394 63.0026 26.1394 63.4718 26.2735 63.941C27.0107 64.008 27.9491 64.075 28.9544 64.2091C28.8874 62.1313 28.8874 60.2547 28.8874 58.1769Z" fill="#D92E10"/>
</svg>
