<svg width="171" height="32" viewBox="0 0 171 32" fill="none" xmlns="http://www.w3.org/2000/svg">
<path d="M170.6 20.0154C170.509 20.4163 170.427 20.8124 170.328 21.2085C169.298 25.3394 165.581 28.0792 161.479 27.7586C159.414 27.5982 157.549 26.9475 156.179 25.2687C154.237 22.8826 154.264 20.1805 155.326 17.4501C156.665 13.9935 160.15 11.8573 163.725 12.145C165.196 12.2629 166.584 12.626 167.818 13.4937C169.27 14.5122 170.173 15.9175 170.491 17.7189C170.514 17.8462 170.564 17.9688 170.595 18.0962C170.6 18.7328 170.6 19.3741 170.6 20.0154ZM163.054 15.5686C162.786 15.5969 162.509 15.6016 162.246 15.6582C159.877 16.1439 158.226 18.6573 158.589 21.2085C158.82 22.8165 159.764 23.8776 161.275 24.2218C164.057 24.8537 166.62 22.6185 166.693 19.5014C166.743 17.1483 165.309 15.6063 163.054 15.5686Z" fill="black"/>
<path d="M0.600098 31.7857C4.18487 25.3346 7.76965 18.8883 11.3862 12.376C11.5042 12.5552 11.5858 12.6683 11.6494 12.791C12.7248 14.7291 13.7957 16.6767 14.8847 18.6054C15.0572 18.9072 15.0436 19.1194 14.8802 19.4165C12.5796 23.5333 10.2926 27.6595 8.00107 31.781C5.53257 31.7857 3.0686 31.7857 0.600098 31.7857Z" fill="black"/>
<path d="M141.336 12.4465C143.687 12.4465 145.983 12.2673 148.243 12.4842C152.191 12.8662 154.564 16.7613 153.556 20.9489C152.685 24.5705 150.307 26.5275 146.895 27.2348C146.065 27.4093 145.207 27.4659 144.359 27.4801C142.312 27.5131 140.266 27.4895 138.156 27.4895C139.217 22.4437 140.275 17.4545 141.336 12.4465ZM142.621 24.0753C143.637 24.0753 144.617 24.1461 145.584 24.0612C147.902 23.8537 149.518 22.2221 149.876 19.8312C150.208 17.6102 148.837 15.8654 146.686 15.7946C146.051 15.771 145.416 15.8088 144.785 15.7805C144.458 15.7663 144.336 15.9031 144.281 16.2096C144.195 16.6906 144.086 17.1669 143.982 17.6432C143.528 19.7746 143.079 21.9061 142.621 24.0753Z" fill="black"/>
<path d="M121.57 22.1891C122.151 23.9717 122.709 25.6976 123.281 27.4707C121.884 27.4707 120.554 27.4707 119.156 27.4707C118.825 26.2446 118.489 25.0044 118.158 23.7595C117.804 22.4249 117.804 22.4579 116.479 22.4061C115.867 22.3825 115.64 22.5805 115.531 23.203C115.281 24.6272 114.955 26.0371 114.655 27.4754C113.421 27.4754 112.214 27.4754 110.925 27.4754C111.02 26.9944 111.102 26.5464 111.197 26.0984C112.132 21.7082 113.071 17.3179 113.988 12.9181C114.079 12.4843 114.251 12.39 114.637 12.3947C116.629 12.4088 118.626 12.39 120.618 12.4136C121.158 12.4183 121.711 12.4749 122.228 12.621C125.028 13.4274 126.217 16.2757 124.96 19.1475C124.379 20.4726 123.431 21.4158 122.124 21.9628C121.952 22.0241 121.788 22.0948 121.57 22.1891ZM116.447 18.9872C117.65 18.9872 118.784 19.0061 119.923 18.9731C120.196 18.9636 120.486 18.8222 120.731 18.676C121.348 18.3176 121.652 17.5725 121.502 16.8982C121.362 16.2851 120.804 15.8277 120.082 15.7994C119.215 15.7711 118.344 15.7758 117.477 15.7947C117.346 15.7947 117.124 15.9032 117.101 15.9975C116.865 16.983 116.665 17.9686 116.447 18.9872Z" fill="black"/>
<path d="M125.314 27.4702C125.886 24.7634 126.444 22.1179 127.002 19.4724C127.465 17.2843 127.928 15.0963 128.386 12.9082C128.454 12.5923 128.522 12.3848 128.926 12.3848C132.207 12.4036 135.492 12.3942 138.773 12.3989C138.877 12.3989 138.986 12.4178 139.145 12.4366C138.918 13.4882 138.714 14.5162 138.46 15.5254C138.428 15.648 138.133 15.7753 137.961 15.7753C136.037 15.7942 134.117 15.7848 132.193 15.7848C131.993 15.7848 131.798 15.7848 131.544 15.7848C131.381 16.5534 131.218 17.2938 131.041 18.1285C133.305 18.1285 135.501 18.1285 137.788 18.1285C137.539 19.3168 137.307 20.4108 137.071 21.5473C135.932 21.5473 134.83 21.5473 133.727 21.5473C132.729 21.5473 131.73 21.5568 130.737 21.5426C130.428 21.5379 130.278 21.6369 130.224 21.967C130.101 22.6508 129.947 23.3251 129.784 24.0891C132.084 24.0891 134.353 24.0891 136.685 24.0891C136.436 25.2727 136.204 26.3667 135.968 27.4749C132.415 27.4702 128.903 27.4702 125.314 27.4702Z" fill="black"/>
<path d="M13.4553 0.213867C17.0582 6.70263 20.6022 13.0924 24.1779 19.5387C24.0009 19.5576 23.8965 19.5764 23.7967 19.5764C21.6005 19.5764 19.4088 19.5717 17.2125 19.5859C16.8903 19.5859 16.7315 19.4585 16.5818 19.1803C14.3765 15.1956 12.1621 11.2155 9.95675 7.23079C9.87053 7.07517 9.80246 6.81109 9.87053 6.68377C11.0367 4.557 12.2165 2.43966 13.4553 0.213867Z" fill="black"/>
<path d="M11.8218 27.4517C12.085 26.9802 12.3164 26.5605 12.5478 26.1408C13.4463 24.528 14.3493 22.9153 15.2341 21.2931C15.3975 20.9913 15.5835 20.8828 15.9148 20.8828C20.339 20.8922 24.7587 20.8875 29.183 20.9017C29.3917 20.9017 29.7003 21.029 29.7956 21.1988C30.9436 23.2076 32.0599 25.2307 33.1807 27.2537C33.2034 27.2961 33.2079 27.3574 33.2351 27.447C26.111 27.4517 19.0049 27.4517 11.8218 27.4517Z" fill="black"/>
<path d="M111.787 16.7799C110.548 17.1996 109.4 17.591 108.266 17.973C108.211 17.9353 108.162 17.9258 108.153 17.8975C107.476 15.7755 105.28 15.186 103.497 15.8227C101.378 16.5772 99.9711 19.1661 100.438 21.4485C100.906 23.7308 103.265 24.9852 105.407 24.0232C106.083 23.7167 106.664 23.1791 107.363 22.6934C108.198 23.264 109.146 23.91 110.122 24.5749C109.296 25.7586 108.261 26.5932 107.009 27.1167C104.84 28.0268 102.648 28.0127 100.493 27.1073C97.6342 25.9048 96.1413 23.1367 96.5088 19.8828C97.2394 13.3894 103.451 10.9231 108.016 12.6679C109.877 13.3799 111.093 14.7805 111.787 16.7799Z" fill="black"/>
<path d="M80.1321 20.9915C80.1593 16.5918 82.9182 13.0692 87.0021 12.2723C88.6629 11.9469 90.2965 12.1214 91.8348 12.8806C94.1127 14.0029 95.3016 15.9222 95.3832 18.5205C95.5239 22.8872 92.9329 26.5277 89.0532 27.5275C87.5966 27.9 86.14 27.867 84.7015 27.4331C81.8019 26.5513 80.1094 24.1557 80.1321 20.9915ZM82.773 20.8029C82.7412 24.2642 85.3504 25.6742 87.7871 25.3818C91.3311 24.9574 93.2914 21.0576 92.6016 17.8273C92.0707 15.3422 89.6295 13.9699 87.0793 14.649C84.5518 15.3186 82.7957 17.832 82.773 20.8029Z" fill="black"/>
<path d="M49.5255 27.4749C48.5681 27.4749 47.7014 27.4749 46.7757 27.4749C46.6214 26.5365 46.4626 25.6028 46.3038 24.6455C46.1359 24.6313 45.9952 24.6077 45.8545 24.6077C43.9351 24.603 42.0111 24.6125 40.0917 24.5983C39.7649 24.5936 39.5653 24.6973 39.4019 25.0039C39.0117 25.7254 38.6033 26.4374 38.1631 27.1259C38.0497 27.3051 37.7865 27.4702 37.5823 27.4796C36.7383 27.5173 35.8898 27.4937 34.9731 27.4937C35.0911 27.2627 35.1683 27.1023 35.259 26.9467C38.0225 22.2593 40.7905 17.5767 43.5403 12.8799C43.7626 12.5026 43.9941 12.3706 44.407 12.3894C45.1285 12.4225 45.8591 12.413 46.5806 12.3942C46.9118 12.3847 47.0434 12.479 47.1024 12.8469C47.7286 16.7279 48.382 20.6041 49.0264 24.4804C49.1943 25.4566 49.3531 26.4374 49.5255 27.4749ZM46.0905 22.2499C45.7275 19.8591 45.3781 17.5437 45.0014 15.0585C43.5811 17.5342 42.2425 19.8638 40.8767 22.2499C42.6645 22.2499 44.348 22.2499 46.0905 22.2499Z" fill="black"/>
<path d="M56.8947 12.3949C56.5317 14.1303 56.1869 15.7855 55.8374 17.436C55.5606 18.7422 55.2748 20.0437 55.0116 21.3547C54.5397 23.7031 55.8193 25.3725 58.129 25.4432C60.1029 25.5045 61.4687 24.5897 62.0677 22.5808C62.5351 21.0199 62.821 19.4024 63.1749 17.8085C63.5379 16.158 63.9009 14.5028 64.2322 12.8429C64.3048 12.4892 64.4364 12.3808 64.7676 12.3902C65.4528 12.4091 66.138 12.3949 66.9003 12.3949C66.6326 13.654 66.3785 14.8424 66.1244 16.026C65.7205 17.9217 65.3258 19.8174 64.9128 21.7037C64.7949 22.2365 64.6451 22.76 64.4727 23.274C63.429 26.3439 61.3099 27.8623 58.1744 27.768C57.5255 27.7492 56.8675 27.6831 56.2322 27.5369C53.2646 26.8343 51.7989 24.4765 52.4251 21.3736C53.0014 18.5159 53.6367 15.6723 54.2311 12.824C54.2992 12.5034 54.4126 12.3808 54.7257 12.3902C55.4336 12.4091 56.1369 12.3949 56.8947 12.3949Z" fill="black"/>
<path d="M72.7992 27.4703C71.9506 27.4703 71.1384 27.4703 70.2762 27.4703C71.1747 23.2168 72.0641 18.9963 72.9671 14.7144C71.4878 14.7144 70.0811 14.7144 68.5701 14.7144C68.7334 13.9646 68.865 13.2714 69.0511 12.5971C69.0828 12.4886 69.3687 12.4085 69.5366 12.4037C71.152 12.3896 72.7674 12.3943 74.3783 12.3943C76.1752 12.3943 77.9676 12.3943 79.7645 12.3943C79.9597 12.3943 80.1502 12.3943 80.4089 12.3943C80.2365 13.2101 80.0776 13.9363 79.9143 14.7097C78.6392 14.7097 77.3913 14.7427 76.1435 14.6956C75.6398 14.6767 75.4674 14.8559 75.3675 15.3463C74.5462 19.3216 73.6977 23.2969 72.8582 27.2675C72.8491 27.3194 72.831 27.3713 72.7992 27.4703Z" fill="black"/>
<path d="M163.054 15.5684C165.309 15.6061 166.743 17.1481 166.693 19.4965C166.625 22.6183 164.061 24.8535 161.275 24.2169C159.764 23.8727 158.82 22.8116 158.589 21.2036C158.226 18.6571 159.877 16.1437 162.246 15.6532C162.509 15.6014 162.781 15.5967 163.054 15.5684Z" fill="white"/>
<path d="M142.621 24.0749C143.079 21.9056 143.528 19.7742 143.982 17.6427C144.082 17.1664 144.195 16.6901 144.281 16.2091C144.336 15.9026 144.458 15.7611 144.785 15.78C145.42 15.8083 146.056 15.7753 146.686 15.7941C148.837 15.8649 150.212 17.6097 149.876 19.8307C149.518 22.2216 147.902 23.8485 145.584 24.0607C144.617 24.1503 143.637 24.0749 142.621 24.0749Z" fill="white"/>
<path d="M116.447 18.9866C116.665 17.968 116.865 16.9777 117.096 16.0015C117.119 15.9025 117.341 15.7988 117.473 15.7988C118.339 15.7846 119.211 15.7752 120.077 15.8035C120.794 15.8271 121.357 16.2892 121.498 16.9022C121.652 17.5766 121.348 18.3216 120.726 18.68C120.477 18.8262 120.191 18.9677 119.919 18.9771C118.784 19.0054 117.65 18.9866 116.447 18.9866Z" fill="white"/>
<path d="M82.7732 20.8026C82.7958 17.8318 84.5519 15.3183 87.0794 14.6487C89.6296 13.9696 92.0709 15.3419 92.6018 17.8271C93.2915 21.062 91.3312 24.9572 87.7873 25.3816C85.3506 25.6739 82.7459 24.264 82.7732 20.8026Z" fill="white"/>
<path d="M46.0904 22.25C44.3479 22.25 42.6645 22.25 40.8721 22.25C42.2425 19.8639 43.5765 17.5343 44.9968 15.0586C45.378 17.5438 45.7274 19.8591 46.0904 22.25Z" fill="white"/>
</svg>
