<svg width="80" height="98" viewBox="0 0 80 98" fill="none" xmlns="http://www.w3.org/2000/svg">
<path d="M39.9809 97.6968C39.5708 97.1976 39.2066 96.7977 38.8908 96.3647C36.4125 92.9644 32.9638 91.6018 28.8783 91.5941C23.0227 91.5814 17.1671 91.5737 11.3114 91.5967C7.07313 91.612 3.83584 89.829 1.57152 86.2759C0.578178 84.7197 0.0254704 82.9851 0.0178293 81.1411C-0.00509408 73.5967 0.0152822 66.0524 0.0203763 58.5106C0.0203763 58.0343 0 57.558 0 57.0817C0 41.4556 0 25.8295 0 10.2034C0 6.82352 0 3.45124 0 0C26.6675 0 53.279 0 80 0C80 0.415168 80 0.787036 80 1.1589C79.9847 10.099 79.9643 19.0366 79.9592 27.9767C79.9516 38.0986 79.9541 48.218 79.9592 58.34C79.9643 65.6856 80.0051 73.0338 79.9924 80.3795C79.9847 86.0059 76.3144 90.4225 70.8332 91.4362C70.0895 91.5737 69.3126 91.5788 68.5511 91.5788C62.8941 91.589 57.2346 91.6323 51.5776 91.5687C46.9853 91.5177 43.2538 93.0969 40.6024 96.948C40.4445 97.1849 40.2381 97.3886 39.9809 97.6968ZM2.25413 2.193C2.25413 2.66166 2.25413 3.03607 2.25413 3.41049C2.25413 10.7281 2.25158 18.0432 2.25158 25.3609C2.25158 31.2445 2.25158 37.1282 2.25413 43.0119C2.25413 55.3574 2.25158 67.7054 2.25922 80.0509C2.25922 80.7794 2.26177 81.5257 2.40186 82.2363C3.25002 86.5204 6.69362 89.3273 11.1688 89.3502C16.8971 89.3807 22.6228 89.312 28.3511 89.3884C30.0831 89.4113 31.8431 89.6304 33.5318 90.0124C36.1119 90.5957 38.2133 92.0832 39.986 94.1361C41.7842 92.0628 43.9161 90.5702 46.5268 89.9844C48.1875 89.6125 49.9144 89.4088 51.6158 89.3884C57.3619 89.3171 63.108 89.3909 68.8541 89.3502C74.0145 89.3145 77.728 85.5322 77.7459 80.3795C77.7561 77.3281 77.7637 74.2768 77.7637 71.2254C77.7586 56.715 77.751 42.2045 77.7459 27.694C77.7433 19.5842 77.7459 11.477 77.7459 3.36719C77.7459 2.99787 77.7459 2.62855 77.7459 2.193C52.5531 2.193 27.4877 2.193 2.25413 2.193Z" fill="#D92E10"/>
<path d="M52.6805 66.8928C53.5363 67.2265 54.3921 67.5601 55.281 67.9065C55.1358 68.5382 54.1756 69.1979 53.2103 68.882C52.2195 68.5586 51.2057 68.0466 50.4365 67.3589C48.5925 65.7084 47.9099 63.4492 47.5839 61.0652C47.4463 60.0616 47.3062 59.0607 47.1534 57.9425C45.6023 58.8875 43.9798 59.2007 42.2529 59.0759C41.9625 59.0556 41.6543 59.2619 41.3563 59.3663C40.363 59.7178 39.3773 60.0591 38.2922 59.7C38.0757 59.6286 37.7726 59.8299 37.5052 59.8884C36.4711 60.1177 35.4345 60.3444 34.3978 60.5634C34.1278 60.622 33.8477 60.6398 33.5751 60.6959C32.5003 60.9124 31.3872 61.0244 30.3633 61.3861C28.802 61.9388 27.2788 62.517 25.6003 62.7029C24.5713 62.815 23.578 63.3219 22.5872 63.6963C22.0625 63.8949 21.576 64.3993 21.0691 64.4043C19.7014 64.4171 19.164 65.52 18.4228 66.2841C17.9643 66.7553 17.8471 67.5576 17.5135 68.3624C19.0264 67.7486 19.5715 69.0782 20.4604 69.7328C20.6463 69.8703 20.7635 70.1428 20.8374 70.3772C21.3009 71.8595 20.3611 74.3404 19.0111 75.1147C17.6612 75.889 16.2832 76.462 14.6735 75.7591C14.052 75.4865 13.3108 75.5018 12.6435 75.3133C11.7877 75.0714 11.4057 74.4244 11.2426 73.5686C11.1459 73.0643 10.9625 72.5472 10.695 72.1142C9.9895 70.9681 9.98186 70.1403 10.6823 69.0043C10.8529 68.7292 10.9497 68.2962 10.8682 67.9931C10.4862 66.5923 10.8198 65.4334 11.8259 64.4094C12.0424 64.1879 12.1927 63.8262 12.2233 63.5129C12.3659 62.0458 13.0791 60.9633 14.2507 60.1024C14.7397 59.7433 15.1065 59.216 15.5471 58.783C17.2944 57.0638 18.8507 55.044 20.8628 53.7271C22.5286 52.637 24.4389 51.8092 26.2294 50.8363C26.9859 50.4236 27.9385 50.3931 28.7561 50.067C29.5406 49.7538 30.2614 49.2851 31.0102 48.8852C29.0974 46.8832 29.0363 46.7253 28.5422 42.3979C27.8086 42.6526 27.1005 42.8971 26.3899 43.1391C24.1281 43.9108 21.8536 44.5985 19.4237 44.6113C17.6612 44.6215 16.3011 43.8319 15.1778 42.5838C14.834 42.2018 14.6761 41.6465 14.4163 41.1346C14.0673 41.0964 13.6343 41.0505 13.3058 41.0149C13.94 39.9247 14.564 38.9441 15.0887 37.9176C15.5471 37.0211 16.1024 36.3461 17.1594 36.1271C17.5135 36.0532 17.8166 35.6737 18.112 35.4012C18.5909 34.958 19.0697 34.7924 19.7752 35.4114C19.3473 36.3334 18.8991 37.2885 18.4635 38.2513C17.6255 40.0928 18.1451 41.0989 20.1726 41.3867C20.8807 41.4861 21.6651 41.481 22.3427 41.2772C24.337 40.6786 26.2957 39.9578 28.3639 39.2498C27.9232 38.7403 27.615 38.3838 27.3068 38.0272C27.452 38.0526 27.6456 38.0297 27.7322 38.1138C28.1627 38.534 28.5676 38.9823 29.0745 39.5197C29.2681 38.7302 29.4285 38.0781 29.5865 37.4286C30.7097 34.9478 31.4636 32.3753 31.3337 29.627C31.2522 27.9332 29.7342 27.1437 28.2645 27.9867C27.4673 28.4452 26.7389 29.0183 25.9493 29.492C25.6997 29.6423 25.3533 29.6347 25.0502 29.6983C24.4873 29.1762 24.6758 28.7101 25.0604 28.1854C25.366 27.7677 25.5494 27.2608 25.8194 26.8125C26.0766 26.3872 26.2931 25.8752 26.6726 25.5976C27.9309 24.6756 29.2553 23.8401 30.6486 22.9105C30.7097 23.2314 30.7861 23.6287 30.8676 24.0541C33.4248 24.808 35.0779 27.3678 34.6678 30.3809C34.3825 32.4823 33.8145 34.5454 33.3663 36.6237C33.2797 37.0211 33.1625 37.4133 33.025 37.9355C36.9347 37.4719 39.5581 38.99 40.7909 42.7341C41.42 42.5635 41.7944 42.3113 41.8989 41.621C42.1052 40.2762 42.6502 39.074 43.6487 38.0934C43.8575 37.8896 43.9187 37.4923 43.962 37.1739C44.1071 36.1067 44.1708 35.0268 44.3567 33.9672C44.4408 33.4807 44.6089 32.8592 44.9629 32.5969C46.7892 31.2317 46.3766 29.0259 47.1738 27.2073C46.3256 27.2685 45.615 27.2914 46.1142 26.1197C46.2339 25.8421 45.9079 25.376 45.7576 24.9023C45.0597 25.4983 44.395 26.0663 43.7047 26.6572C43.4908 25.7224 43.8168 24.9481 44.9095 23.4861C44.9095 22.8162 44.9095 22.3679 44.9095 21.828C44.8662 21.7974 44.693 21.6777 44.4077 21.4765C44.8381 21.0257 45.1922 20.5774 45.6201 20.2233C46.3587 19.6095 47.2476 18.4684 47.6705 17.5693C47.8768 17.1312 48.19 16.7466 48.4091 16.4053C49.1426 16.497 48.618 17.8469 49.7361 17.3223C49.5833 17.0676 49.4457 16.8358 49.2649 16.5327C50.0367 15.8679 50.9128 15.8322 52.1252 16.2168C51.8934 15.4273 51.733 14.8796 51.5649 14.3066C52.4258 13.8532 54.0228 14.22 55.0518 15.1853C55.2657 15.3865 55.5332 15.5317 55.7751 15.7023C55.9509 15.3865 56.2132 15.091 56.2795 14.7548C56.3661 14.304 56.3024 13.8201 56.3024 13.3667C57.4307 13.7335 57.8663 14.2123 58.5463 15.8781C59.2086 15.7889 59.504 15.496 59.4454 14.7472C59.42 14.4084 59.8173 14.034 60.1204 13.5042C60.8743 14.1563 61.6002 14.7854 62.4 15.4782C62.3592 15.4858 62.4484 15.4706 62.535 15.4502C63.0826 15.3152 63.8416 14.8873 64.1294 15.1012C64.7433 15.5546 65.5099 15.8934 65.7697 16.8689C66.055 17.9386 66.8777 18.797 67.9678 19.5153C68.2225 18.797 68.4263 18.2214 68.6301 17.6457C68.7319 17.6203 68.8313 17.5973 68.9332 17.5719C69.2465 18.3589 69.6234 19.1307 69.8526 19.9432C69.9978 20.4551 70.194 20.7404 70.6575 21.0588C71.4547 21.6064 72.0915 22.3832 72.9549 23.2212C72.3386 23.3384 72.0125 23.3995 71.7043 23.4581C71.3146 24.7902 71.9743 25.7784 72.578 26.8507C73.0212 27.6429 73.9101 28.3178 73.6121 29.4589C73.579 29.5863 74.1062 29.8588 74.501 30.1594C74.6793 31.2393 73.7471 32.0085 73.1383 32.9942C73.5382 33.1292 73.8821 33.2464 74.4246 33.4298C73.1332 35.3528 72.4532 37.4566 71.7986 39.5681C70.4436 39.1682 70.0207 39.3236 69.1802 40.508C69.0503 40.6888 68.9179 40.8697 68.7752 41.0378C67.9908 41.9598 67.6367 41.9063 67.2139 40.9232C66.3836 41.5879 65.5074 42.2527 64.6771 42.971C64.4631 43.1569 64.3638 43.4982 64.2695 43.7886C63.4468 46.3102 62.0638 48.2892 59.3334 49.0177C59.0939 49.0813 58.8571 49.3284 58.7144 49.55C57.4231 51.5545 55.8719 53.1566 53.437 53.8163C52.7263 54.0099 52.2093 54.9166 51.57 55.5279C53.1007 55.8463 54.5424 56.0653 55.9331 56.4601C57.609 56.9339 59.1754 57.6802 60.0516 59.3128C60.3751 59.9139 60.5916 60.6042 60.7062 61.2791C60.8845 62.326 60.64 62.5934 59.4429 62.9373C59.3996 61.0626 58.1184 60.1635 56.6437 59.4427C54.9346 58.6098 53.1186 58.2099 51.1268 58.1157C51.1726 58.378 51.2057 58.5767 51.2414 58.7779C50.8186 58.401 50.3983 58.024 49.9755 57.647C49.8915 57.7005 49.8049 57.7515 49.7208 57.805C49.9653 58.4494 50.1309 59.1396 50.4773 59.7229C50.7804 60.2323 51.2898 60.6169 51.7101 61.0575C51.2007 60.7009 50.6912 60.3469 50.1844 59.9929C49.9653 61.4447 50.9077 64.3279 52.1558 66.0395C52.357 66.3146 52.5098 66.6228 52.6856 66.9132C52.0565 66.0115 51.3051 65.171 50.8313 64.1955C50.327 63.1588 50.0876 61.9948 49.731 60.8843C49.9526 62.9704 50.5894 64.9036 51.8934 66.5693C52.0437 66.7553 52.4105 66.7858 52.6805 66.8928ZM56.9672 31.2826V31.3106C56.8041 31.2036 56.6386 31.0941 56.4756 30.9871L56.4323 31.0024C56.4094 30.9413 56.3864 30.8802 56.3635 30.819C56.5902 30.7095 56.8143 30.5974 57.041 30.4879C56.822 30.2001 56.6029 29.9123 56.3813 29.6245C56.338 29.6601 56.2947 29.6983 56.2514 29.734C56.2845 29.8613 56.3177 29.9912 56.4017 30.3122C56.0859 29.976 55.9254 29.7875 55.7446 29.6168C55.5765 29.4589 55.3905 29.3239 55.2122 29.1787C55.062 28.9444 54.9091 28.7126 54.7589 28.4783C55.2606 28.6668 55.7548 28.9826 56.2616 29.003C56.6564 29.0183 57.1276 28.733 57.4409 28.4452C57.5683 28.328 57.3721 27.8543 57.283 27.3041C56.9621 27.7626 56.8347 27.9409 56.6437 28.216C56.6437 27.8492 56.6437 27.6174 56.6437 27.5181C55.8312 27.3729 55.1053 27.243 54.5526 27.1437C54.1781 27.6633 53.8598 28.1013 53.5439 28.542C53.4828 28.5063 53.4191 28.4707 53.358 28.435C53.358 28.8756 53.358 29.3137 53.358 29.7544C52.9199 29.3952 52.6448 29.5837 52.7951 30.0549C52.9581 30.5592 53.3427 30.9948 53.5363 31.3106C53.982 30.8751 54.2775 30.5873 54.5729 30.2994C54.5245 30.9107 54.4736 31.522 54.4023 32.3957C54.8862 32.0569 55.0925 31.9092 55.3065 31.7589C55.3829 32.0442 55.444 32.2709 55.5485 32.6656C55.9483 32.3142 56.2438 32.0544 56.5367 31.7971C56.6768 31.6188 56.822 31.4507 56.9672 31.2826ZM66.6586 35.7527L66.6867 35.7705C66.5721 35.6533 66.4549 35.5362 66.3403 35.419C66.2588 35.6126 66.1747 35.8036 66.0932 35.9972C66.162 36.0507 66.2307 36.1042 66.2995 36.1576L66.2944 36.15C66.2919 36.1933 66.2893 36.2366 66.2893 36.2799C65.3164 36.5117 65.1941 37.2401 65.2323 38.0705C65.2832 39.1759 65.2833 39.1861 65.9073 39.4459C66.0525 38.8677 66.1976 38.2921 66.3428 37.7164C66.3734 38.832 67.1732 38.8142 67.9296 38.9084C68.0595 38.5213 68.1716 38.1953 68.2633 37.9202C68.7141 38.0577 69.1624 38.1953 69.7533 38.3761C69.4833 37.8973 69.3178 37.6044 69.1522 37.3089C69.4706 37.3777 69.7864 37.4464 70.1048 37.5152C70.0411 37.2274 69.98 36.9421 69.9163 36.6543L69.9724 36.5932C70.3901 36.4455 70.8052 36.2952 71.2943 36.122C71.0166 35.6661 70.7823 35.284 70.6295 35.0369C71.3758 34.7517 72.1119 34.469 72.8505 34.1862C72.8174 34.0767 72.7868 33.9672 72.7537 33.8577C72.1654 33.7762 71.577 33.6947 71.009 33.6131C71.1389 33.4985 71.2764 33.3763 71.4165 33.254C71.2 33.0502 70.9835 32.849 70.7696 32.6453C71.4165 32.0773 72.0635 31.5093 72.7104 30.9438C72.6493 30.8827 72.5907 30.8241 72.5296 30.763C71.8317 30.9209 71.1364 31.0788 70.3671 31.252C70.5531 30.7324 70.6804 30.3809 70.7441 30.2077C71.5795 29.8308 72.2953 29.5099 72.9218 29.2271C72.55 28.5216 72.2774 28.0071 71.9718 27.4264C71.6789 27.513 71.0956 26.8457 70.846 27.7167C70.6855 27.0672 70.4894 27.5104 70.3621 27.7193C69.9698 28.3586 69.5292 28.9037 68.5104 28.7228C69.4197 29.3774 70.3366 29.2195 70.4741 28.5343C70.7645 28.8094 71.0548 29.0845 71.3478 29.3621C71.3019 29.4207 71.2561 29.4767 71.2128 29.5353C70.9861 29.4513 70.7594 29.3672 70.5353 29.2832C69.2643 30.6713 69.2337 30.9082 70.3595 31.5984C69.9341 31.7793 69.6005 31.9219 69.2108 32.0849C69.468 32.2428 69.7253 32.4008 69.9851 32.5612C69.4757 32.5256 68.9663 32.4924 68.4569 32.4568C68.4263 32.5077 68.3957 32.5587 68.3652 32.6096C68.6224 32.7752 68.8771 32.9407 69.2566 33.1852C68.9026 33.1547 68.7167 33.1394 68.5129 33.1216C68.5766 33.4883 68.6275 33.7838 68.6785 34.0767C68.5791 34.1073 68.4823 34.1378 68.383 34.1684L68.3448 34.2168C68.3448 34.2168 68.2862 34.2041 68.2837 34.2041L68.304 34.2066C68.1614 35.1235 68.0162 36.0405 67.8965 36.8173C67.5629 36.7154 67.2114 36.6059 66.8599 36.4989C66.8624 36.4149 66.8675 36.3308 66.8701 36.2468C66.8038 36.0838 66.7325 35.9182 66.6586 35.7527ZM44.097 54.3002C44.1657 54.2544 44.2345 54.2085 44.3007 54.1627C44.4484 54.1958 44.6446 54.178 44.7363 54.2671C45.3756 54.881 45.9919 55.5177 46.7663 56.2971C46.8987 54.886 46.5268 53.9793 45.6659 53.2661C45.7398 53.1006 45.9206 52.8561 45.8671 52.7822C45.4724 52.2422 45.0317 51.7354 44.6038 51.2183C44.5427 51.2591 44.4816 51.3024 44.423 51.3431C44.4739 51.6105 44.5223 51.878 44.5732 52.1429C43.5595 51.2259 42.5458 50.3116 41.5321 49.3946C41.4684 49.4226 41.4047 49.4507 41.341 49.4787C41.5652 50.3345 41.7919 51.1877 42.016 52.0435L42.0109 52.1301C42.2121 53.2203 43.0934 54.1372 44.097 54.3002ZM60.3649 17.577C60.235 17.2713 60.1051 16.9657 59.9345 16.5607C59.6033 16.9198 59.3537 17.1898 59.0863 17.4802C59.504 17.9361 59.8708 18.336 60.3496 18.8581C60.3496 18.2952 60.3496 17.9208 60.3496 17.5489C60.5152 17.9335 60.6807 18.3156 60.8463 18.7002C60.9278 18.6595 61.0093 18.6162 61.0908 18.5754C61.0908 18.1984 61.0908 17.8215 61.0908 17.4445C61.0552 17.4445 61.017 17.442 60.9813 17.442C60.9456 17.6661 60.9074 17.8928 60.8718 18.1169C60.8438 18.1118 60.8157 18.1067 60.7877 18.1017C60.7444 17.5515 60.7011 17.0013 60.6476 16.3034C60.4744 16.4945 60.4362 16.5174 60.4337 16.5429C60.4057 16.8867 60.3853 17.2331 60.3649 17.577ZM65.6347 18.662C65.4743 18.7639 65.3138 18.8658 65.1534 18.9676C65.2323 18.2494 65.3113 17.5286 65.3902 16.8103C65.3062 16.7925 65.2221 16.7746 65.1381 16.7568C64.8095 17.1159 64.4835 17.4751 64.1549 17.8368C64.1065 17.2764 64.0607 16.7161 64.0123 16.1583C63.0087 16.3416 62.479 17.824 63.0597 18.9396C62.7082 19.2096 62.3567 19.4771 61.9084 19.8209C62.209 19.798 62.5248 19.7751 62.8406 19.7496C62.8865 20.152 62.0867 20.8601 63.2431 20.8576C63.21 21.0231 63.1743 21.1912 63.1335 21.3848C64.3994 21.1989 65.2909 21.6089 65.8461 22.7296C66.0856 23.211 67.9016 23.453 68.0646 23.0047C68.2073 22.6176 69.1089 22.1616 68.2047 21.6369C68.4059 21.2702 68.6046 20.9034 68.8058 20.5366C68.8644 20.5595 68.9255 20.5825 68.9841 20.6054C68.8364 21.5121 68.6886 22.4163 68.5256 23.4148C68.8797 23.3027 69.1115 23.2289 69.3432 23.155C70.1023 22.9945 70.8613 22.8341 71.6203 22.6736C71.6101 22.5462 71.5999 22.4214 71.5897 22.2941C71.1669 22.2941 70.7365 22.2559 70.3187 22.3043C69.924 22.3501 69.5394 22.4902 69.1497 22.5895C69.5037 21.4052 69.5852 20.2233 69.1726 19.1001C68.5562 20.0221 67.9296 20.934 67.3362 21.8662C67.247 22.0063 67.3183 22.2457 67.3158 22.4418C67.2674 22.6048 67.2216 22.7653 67.1732 22.9283C67.0636 22.8442 66.9567 22.7576 66.8471 22.6736C66.8955 22.373 66.9923 22.0725 66.977 21.7745C66.9643 21.53 66.8166 21.2931 66.7274 21.0537C66.6536 21.0766 66.5797 21.1021 66.5033 21.125C66.4192 21.558 66.3352 21.9935 66.2104 22.6405C66.1187 21.9808 66.0575 21.558 65.9888 21.0613C66.4345 21.0002 66.9134 20.9365 67.4355 20.8652C67.135 20.5952 66.8624 20.3507 66.5924 20.1087C66.9057 19.1128 66.2511 18.5525 65.5354 17.9768C65.5736 18.2086 65.6042 18.4353 65.6347 18.662ZM55.9687 16.8893C55.2683 15.9647 54.7028 14.8695 53.1823 14.7446C53.7757 15.5342 54.2877 16.2143 54.9244 17.0599C54.7563 16.4996 54.6392 16.1048 54.522 15.7074C54.5908 15.6718 54.657 15.6387 54.7258 15.603C55.0187 16.1608 55.3116 16.7186 55.6045 17.2764C55.4797 17.2408 55.3523 17.2076 55.2275 17.172C55.2785 17.4343 55.2504 17.7553 55.3931 17.9488C55.8592 18.583 56.389 19.1689 56.9952 19.8973C57.4154 19.5153 57.9452 19.0364 58.4444 18.5856C58.5845 18.741 58.8061 18.9855 59.1169 19.3344C59.2519 18.0533 58.8443 17.3859 57.8739 17.0676C57.958 16.0385 58.1515 14.9764 57.2219 14.4263C56.7914 15.2719 56.3788 16.0793 55.9687 16.8893ZM53.4955 19.9355C54.0151 20.4347 54.5857 20.776 55.2097 20.152C55.7166 19.6477 55.6631 19.1001 55.0722 18.5576C54.9423 18.7486 54.8378 18.8989 54.741 19.0441C54.6748 18.8199 54.6162 18.6187 54.5526 18.4098C53.6254 18.5958 53.4038 19.1689 53.5236 19.961C53.223 20.0501 52.925 20.1393 52.6117 20.2335C53.386 21.1097 53.8114 21.2549 54.1476 20.855C53.9234 20.5366 53.7095 20.2361 53.4955 19.9355ZM60.9125 32.1893C60.668 31.9932 60.4209 31.7946 60.1764 31.5984C60.1128 31.6061 60.0491 31.6137 59.9854 31.6214C59.4454 31.1807 59.2111 31.5781 59.0175 31.9958C58.8443 32.3676 58.717 32.7573 58.5718 33.1394C58.5081 33.1267 58.4419 33.1139 58.3782 33.1012C58.3324 32.523 58.284 31.9423 58.2381 31.3641C58.0013 31.7971 57.8255 32.2709 57.9147 32.6911C58.0369 33.2744 58.2178 34.0334 58.638 34.3034C58.936 34.4944 59.6772 34.0156 60.2095 33.8016C60.3369 33.7507 60.4108 33.5647 60.5075 33.4399C60.4744 33.7736 60.4388 34.1073 60.4057 34.4409C59.746 34.8026 59.0888 35.1643 58.4292 35.526C58.4495 35.582 58.4725 35.6355 58.4928 35.6915C58.7272 35.6737 58.9615 35.6559 59.1678 35.6406C59.0685 35.9615 58.9742 36.2621 58.8672 36.6085C59.4149 36.4455 59.8631 36.3105 60.37 36.1602C60.3904 36.5805 60.4031 36.8275 60.4184 37.1128C60.803 36.9116 61.1112 36.7511 61.3965 36.6008C61.6996 36.8555 61.9976 37.1051 62.4 37.4439C62.4637 36.9829 62.5044 36.7078 62.5223 36.5754C62.6725 36.7562 62.8636 36.988 63.0546 37.2172C63.0342 36.3996 63.0393 35.5616 61.9874 35.5846C62.2344 34.7746 62.8636 34.0028 62.237 33.1063C62.4025 32.5714 62.5681 32.0365 62.7388 31.4813C62.0663 31.3768 61.5289 31.2928 60.9151 31.1985C60.9125 31.5602 60.9125 31.8735 60.9125 32.1893ZM46.9038 23.6185C47.0133 23.4886 47.1254 23.3587 47.2451 23.2187C46.0454 23.2289 45.126 23.6033 44.8127 24.836C45.5157 24.4234 46.2212 24.0108 46.9267 23.5982C46.8248 23.97 46.7229 24.3419 46.5727 24.8972C46.9318 24.6017 47.1228 24.4438 47.4641 24.1611C47.2425 25.0474 47.0744 25.7326 46.8885 26.4789C47.7621 26.3744 48.6409 26.27 49.5221 26.1656C49.5247 26.0866 49.5272 26.0102 49.5323 25.9313C49.1936 25.8931 48.8548 25.8523 48.3276 25.7937C48.893 25.5619 49.2573 25.4091 49.6215 25.2588C49.6037 25.2028 49.5833 25.1468 49.5655 25.0882C49.3362 25.0704 49.107 25.0525 48.8752 25.0347C48.8752 25.0041 48.8727 24.9761 48.8727 24.9456C49.0739 24.9074 49.2751 24.8691 49.4763 24.8309C49.4967 24.7622 49.5145 24.6959 49.5349 24.6272C48.6562 24.2961 47.7774 23.9599 46.9038 23.6185ZM64.2313 25.0245C64.1931 25.1442 64.1269 25.2614 64.1193 25.3836C64.0861 25.9109 63.918 26.4967 64.0861 26.9526C64.3459 27.6505 64.9572 27.215 65.3673 27.0392C65.678 26.9042 66.0754 26.5859 66.1161 26.3031C66.1747 25.9007 65.9429 25.455 65.8334 25.0296C65.7392 25.0551 65.6475 25.0806 65.5532 25.106C65.5532 25.4473 65.5532 25.7886 65.5532 26.3286C65.3265 25.7122 65.1737 25.297 65.0234 24.8921C64.6796 24.9608 64.4402 25.0092 64.2008 25.0576C64.3128 24.836 64.379 24.5737 64.5421 24.4005C65.2043 23.7102 65.2323 22.9258 64.5854 22.3297C64.1931 21.9681 63.4443 21.7083 62.9451 21.8178C62.1529 21.9935 61.5798 23.1346 61.7097 23.7765C61.8957 24.6934 62.9323 25.2079 64.2313 25.0245ZM34.8359 42.5787C34.0922 41.9318 33.3484 41.2848 32.4493 40.5029C32.4493 41.3358 32.2481 42.0591 32.4977 42.5558C32.8441 43.2461 33.5293 43.7657 34.0692 44.3566C33.5114 43.9618 32.9536 43.5695 32.3525 43.1442C32.4111 44.6953 32.9842 45.9128 34.3418 46.6897C35.0091 47.0717 35.5949 46.8858 35.8853 46.2286C36.1986 46.4426 36.5068 46.6642 36.8302 46.8654C37.1715 47.0794 37.5281 47.2729 37.8771 47.4742C37.9739 47.4105 38.0681 47.3443 38.1649 47.2806C38.0299 46.6591 37.8974 46.0351 37.7625 45.4136C37.8134 45.3856 37.9076 45.3576 37.9076 45.327C37.9586 43.511 35.9668 41.537 34.031 41.6058C34.3316 41.9649 34.5837 42.2705 34.8359 42.5787ZM57.9401 47.1023L57.9223 47.0845C57.9223 47.3341 57.9223 47.5837 57.9223 47.8333C58.042 47.8409 58.1617 47.846 58.2814 47.8537C58.4699 45.839 58.6584 43.8242 58.8036 42.2909C58.8036 43.6765 58.8036 45.5486 58.8036 47.3213C60.072 42.4692 58.8851 38.017 56.091 33.8755C55.7981 34.0207 55.5332 34.1506 55.4262 34.2041C54.9703 33.822 54.6111 33.5597 54.3029 33.2489C54.1043 33.0477 53.898 32.793 53.8368 32.5281C53.6917 31.9092 53.3045 31.7181 52.8078 32.0977C52.6244 32.2377 52.4462 32.3829 52.2118 32.5689C52.138 32.0773 52.0819 31.713 52.0259 31.3539C50.4518 31.4762 50.4518 31.4762 50.2914 30.1033C49.8456 30.4293 49.4992 30.6815 49.135 30.9464C48.1926 29.7085 48.2257 28.4197 48.9389 26.9985C48.4015 27.2812 47.9532 27.5843 47.7774 28.0046C47.021 29.7951 47.2043 31.5577 48.213 33.2082C48.9593 34.4282 49.7641 35.6126 50.5461 36.8097C52.031 39.0791 53.4624 41.402 53.9642 44.0993C54.3615 46.2414 54.4583 48.442 54.6697 50.4542C54.8276 50.0416 55.0645 49.4277 55.2988 48.8164C55.3345 48.8266 55.3702 48.8394 55.4084 48.8496C55.2887 49.3997 55.1689 49.9499 55.0518 50.5C55.0925 50.5102 55.1333 50.5204 55.1715 50.5306C55.4033 50.0492 55.6351 49.5678 55.8668 49.0864C55.9076 49.1017 55.9458 49.1195 55.9865 49.1348C55.9305 49.4787 55.8745 49.8225 55.8159 50.1638C55.8617 50.1766 55.9101 50.1893 55.956 50.202C56.3151 49.3972 56.6717 48.5949 57.0308 47.79C57.0665 47.7976 57.0996 47.8078 57.1353 47.8155C57.0079 48.3911 56.8806 48.9642 56.7532 49.5398C56.7965 49.55 56.8424 49.5602 56.8857 49.5704C57.2346 48.7477 57.5861 47.925 57.9401 47.1023ZM51.9877 52.2397C52.0666 52.255 52.1482 52.2677 52.2271 52.283C52.5226 50.8108 52.818 49.3386 53.1517 47.6881C53.0294 49.0457 52.9225 50.2301 52.8155 51.417C52.9097 51.4246 53.004 51.4297 53.0982 51.4374C53.2383 49.5755 53.3784 47.7161 53.5185 45.8542C53.5261 45.8517 53.5363 45.8491 53.5439 45.8491C53.5439 47.6346 53.5439 49.4226 53.5439 51.2081C53.8241 50.3243 54.0253 49.4252 54.0508 48.521C54.1425 45.0214 53.1313 41.7942 51.3509 38.8295C49.9399 36.476 48.3709 34.2193 46.8681 31.9117C45.2533 32.8923 44.451 34.7568 44.7694 36.8988C45.1565 39.5045 46.4046 41.7509 47.6552 44.0025C48.0856 44.7794 48.5008 45.5715 48.837 46.3917C49.1605 47.1812 49.4203 48.0039 49.6215 48.8343C49.8278 49.6952 50.0163 50.5765 50.0468 51.4552C50.0774 52.2932 49.8915 53.1388 49.7819 54.1805C50.0163 53.6482 50.1691 53.2967 50.3245 52.9427C50.355 52.9528 50.383 52.9605 50.4136 52.9707C50.3729 53.2814 50.3296 53.5947 50.2888 53.9054C50.3219 53.9131 50.355 53.9182 50.3881 53.9258C50.5588 53.5769 50.7294 53.2254 50.9205 52.8331C51.002 53.0293 51.0555 53.1566 51.1624 53.4139C51.4987 52.5581 51.7865 51.8245 52.0743 51.091C52.0998 51.0935 52.1227 51.0961 52.1482 51.1011C52.0896 51.4781 52.0386 51.8576 51.9877 52.2397ZM44.237 38.4602C43.7251 39.372 43.1367 40.1387 42.8387 41.0021C42.0848 43.1951 42.6706 45.3346 43.3583 47.4359C43.422 47.6321 43.7735 47.7467 44.0053 47.874C44.9706 48.4064 46.0429 48.8037 46.8834 49.4889C47.701 50.1536 48.2817 51.1088 48.944 51.9111C48.944 51.4042 48.944 50.798 48.944 50.1918C48.972 50.1918 48.9975 50.1893 49.0255 50.1893C49.1095 50.7344 49.1936 51.2794 49.2776 51.8245C49.4789 49.983 49.1834 48.1899 48.325 46.4401C47.0541 43.8497 45.7016 41.3078 44.237 38.4602ZM31.7387 49.8251C28.2926 50.6274 27.1515 52.2244 27.4622 55.5381C27.6023 57.0434 27.9411 58.5436 27.3705 60.054C27.1489 60.6424 27.5463 60.9124 28.1627 60.6449C28.5422 60.4819 28.8707 60.1915 29.2553 60.054C30.9695 59.4503 31.7947 58.2278 31.321 56.6028C30.6562 54.3257 30.6613 52.12 31.7387 49.8251ZM23.4735 61.7223C23.9931 61.4319 24.4287 61.055 24.9279 60.9378C26.5555 60.5558 26.9554 60.2603 27.1897 58.8645C27.2737 58.3704 27.317 57.8406 27.2381 57.3516C26.9197 55.37 26.6497 53.4011 27.694 51.4195C27.3756 51.4526 27.2177 51.4501 27.0725 51.4883C24.4924 52.1785 23.0456 54.0099 23.0889 56.7174C23.1144 58.3042 23.3258 59.8859 23.4735 61.7223ZM32.4009 49.769C31.3847 51.4832 31.0892 53.2483 31.4764 55.1917C31.6929 56.2818 31.6903 57.4356 31.6292 58.5538C31.5884 59.3103 31.9017 59.4453 32.4391 59.2237C32.9893 58.9944 33.4707 58.6047 33.9826 58.2864C34.8588 57.7464 35.4778 56.995 35.516 55.9507C35.5745 54.3665 35.5593 52.7796 35.5109 51.1954C35.5032 50.9611 35.1823 50.6198 34.9327 50.5281C34.1355 50.2301 33.3051 50.0288 32.4009 49.769ZM23.2061 53.7144C20.9698 54.1474 19.6122 55.2859 19.1207 57.321C18.6011 59.4682 19.0519 61.4421 20.1038 63.2072C20.7024 62.9169 21.1328 62.7284 21.5378 62.4966C21.6881 62.41 21.767 62.1095 21.8995 62.0967C22.7222 62.0101 22.8877 61.8166 22.8673 61.055C22.8037 58.6531 22.3376 56.2385 23.2061 53.7144ZM59.774 45.1156C59.881 44.8507 59.9879 44.5884 60.0975 44.3235C60.1204 44.3311 60.1433 44.3387 60.1662 44.3438C60.1077 44.7565 60.0491 45.1665 59.9905 45.5792C60.0389 45.5919 60.0873 45.6021 60.1357 45.6148C60.3089 45.2124 60.4821 44.8074 60.6527 44.405C60.6884 44.4177 60.724 44.433 60.7622 44.4457C60.6425 44.922 60.5228 45.3983 60.4031 45.8746C60.4388 45.8873 60.4744 45.9026 60.5126 45.9154C60.8106 45.2811 61.1086 44.6444 61.4041 44.0102C61.4449 44.028 61.4882 44.0458 61.5289 44.0662C61.3353 44.8227 61.1418 45.5792 60.9507 46.3331C61.022 46.356 61.0934 46.3789 61.1647 46.4018C61.6461 45.1079 62.1275 43.8115 62.6063 42.5176C62.6267 42.5202 62.6496 42.5202 62.67 42.5227C62.5401 43.218 62.4127 43.9108 62.2828 44.6062C62.3465 44.6189 62.4076 44.6317 62.4713 44.6418C62.7515 43.7758 63.0342 42.9099 63.3908 41.8095C63.4188 42.3138 63.4341 42.5813 63.4494 42.8462C63.5283 42.8538 63.6098 42.8615 63.6888 42.8691C63.8824 41.5803 64.076 40.2915 64.2899 38.883C63.0902 38.883 62.1122 38.883 61.0704 38.883C61.1061 38.5162 61.1519 38.0756 61.2182 37.4082C60.4413 37.9049 59.8682 38.2717 59.1653 38.72C59.2187 38.2055 59.2569 37.8336 59.2952 37.4617C59.015 37.7317 58.8036 38.0832 58.8876 38.3354C59.6339 40.5335 59.7969 42.7927 59.774 45.1156ZM37.4135 57.6903C37.4008 57.8559 37.388 58.0164 37.36 58.3602C37.6759 57.8788 37.8822 57.563 38.1165 57.2039C38.1827 57.3592 38.2362 57.4891 38.3126 57.6674C38.575 57.2803 38.8195 56.9186 39.092 56.5187C39.1404 56.7021 39.171 56.8116 39.199 56.9237C39.2907 56.9364 39.3824 56.9466 39.4741 56.9593C39.581 56.1621 39.8918 55.3241 39.7441 54.5804C39.5199 53.4521 38.9901 52.3823 38.5546 51.3049C38.4654 51.0833 38.2311 50.7828 38.0375 50.7624C37.3906 50.6936 36.7309 50.7369 36.0101 50.7369C35.8827 53.5489 36.3871 56.3379 35.0651 59.1651C35.977 58.592 36.68 58.1514 37.4135 57.6903ZM18.3132 57.2242C17.111 58.1666 15.7356 59.0912 15.6388 60.976C15.5395 62.922 16.8614 64.0758 17.9847 65.413C18.326 64.5954 18.6036 63.9331 18.8405 63.3652C18.8609 63.4568 18.9118 63.6759 18.9627 63.8975C19.0213 63.8873 19.0824 63.8771 19.141 63.8669C18.8685 61.6688 18.5934 59.4733 18.3132 57.2242ZM15.0581 60.6118C13.6776 61.3683 13.1173 62.4533 13.0256 63.7803C12.939 65.0386 13.5146 65.9784 14.6404 66.5617C15.1192 66.8088 15.5955 67.066 16.0948 67.2621C16.2858 67.3385 16.6271 67.3513 16.7494 67.2367C17.3836 66.6305 17.4065 65.5989 16.8232 64.8934C15.8324 63.6912 15.1371 62.3693 15.0581 60.6118ZM12.5493 64.8806C11.6043 65.6957 11.3471 66.3197 11.5381 67.1832C11.8539 68.6044 12.5773 69.72 14.0317 70.1301C14.5462 70.2753 15.1575 70.1887 15.7025 70.0868C16.1126 70.0104 15.9521 69.5494 16.054 69.2616C16.3367 68.4592 16.2374 67.9651 15.5268 67.6034C14.3093 66.9794 13.102 66.3299 12.5493 64.8806ZM18.8659 35.4368C17.9337 35.9946 16.6729 36.4455 15.8528 37.3165C14.9919 38.2309 14.5538 39.5427 13.9323 40.6812C15.3638 39.912 15.0428 37.8005 16.701 37.1281C16.9302 37.9049 16.8054 38.4602 16.1228 38.8753C15.2568 39.4 14.8544 40.2558 14.941 41.2135C14.9792 41.6491 15.3816 42.2145 15.7738 42.4081C16.189 42.6118 16.8589 42.9608 17.2766 42.2349C17.6077 41.6618 17.7809 41.1473 17.3555 40.4774C17.1059 40.0852 16.9786 39.4051 17.1441 38.9925C17.6383 37.7521 18.3005 36.5754 18.8659 35.4368ZM24.8235 29.2501C25.9467 28.5343 26.772 27.9587 27.6456 27.4671C28.4836 26.9934 29.3572 26.8329 30.2538 27.4264C30.4473 27.5537 30.8727 27.5817 31.0332 27.4544C31.3974 27.164 31.9374 26.7361 31.9195 26.3897C31.8635 25.2818 31.3847 24.8437 30.511 24.8972C29.5508 24.9557 28.7077 25.3123 28.2493 26.2293C27.8876 26.9526 27.3527 27.1335 26.4765 26.866C26.721 26.5476 26.8738 26.2063 27.1336 26.0408C27.8213 25.5976 28.5676 25.2461 29.2681 24.8233C29.561 24.6476 29.7979 24.3801 30.0602 24.156C30.0067 24.0948 29.9558 24.0337 29.9023 23.9751C28.9344 24.5635 27.7933 24.9863 27.0394 25.781C26.1632 26.703 25.6258 27.9485 24.8235 29.2501ZM37.9051 48.1771C37.6173 48.1389 37.332 48.0778 37.0442 48.0676C33.4147 47.9275 31.4636 45.9739 31.7387 42.3444C31.8992 40.2176 32.5206 38.1214 32.9766 36.0176C33.4605 33.7863 34.0641 31.5755 33.9801 29.7264C33.2822 32.5205 32.4239 35.7272 31.6954 38.9619C31.3719 40.4036 31.1045 41.9114 31.1707 43.3734C31.3235 46.71 34.7722 49.2163 37.9051 48.1771ZM11.7597 69.1087C11.016 69.6767 10.8937 70.2829 11.1408 70.9757C11.5101 72.0098 12.3837 72.6924 13.3516 72.6975C14.5895 72.7052 15.6872 72.3995 16.566 71.0547C14.7474 70.7236 12.8855 70.8203 11.7597 69.1087ZM63.6684 27.3856C63.4748 26.3261 63.7652 25.1671 62.2828 25.0449C62.1835 25.0373 62.0765 24.9023 62.0052 24.8029C61.4245 24.0133 60.8896 24.2018 60.4311 24.7902C60.4668 25.4906 60.5177 26.1121 60.5279 26.7361C60.5508 28.0275 61.0781 28.3841 62.3414 27.9358C62.3312 27.7116 62.321 27.4799 62.3032 27.136C62.7617 27.2175 63.1412 27.2888 63.6684 27.3856ZM67.7539 27.0418C67.9602 26.973 68.1665 26.8482 68.3728 26.8457C69.1369 26.8355 69.3305 26.6495 69.086 25.9364C68.9484 25.5339 68.653 25.1799 68.4008 24.8258C68.22 24.5711 67.9322 24.3801 67.7921 24.1101C67.5552 23.6466 67.41 23.2772 66.7503 23.6517C66.1365 24.0006 65.8869 24.3903 66.2588 24.9965C66.6357 25.6103 66.7402 26.1962 66.4625 26.8839C66.3912 27.0622 66.5262 27.4442 66.6892 27.569C66.9083 27.7346 67.2547 27.7932 67.5374 27.7753C67.6189 27.7702 67.6724 27.3372 67.7539 27.0418ZM57.2575 22.2788C57.2652 21.5453 56.5826 20.7251 55.9662 20.7226C54.764 20.72 53.9082 21.367 53.8852 22.2915C53.8649 23.1168 54.5806 23.9497 55.2988 23.9318C56.3686 23.9089 57.2499 23.1626 57.2575 22.2788ZM66.8166 31.7283C68.1843 30.7324 68.5154 29.9887 67.9678 29.1049C67.2954 28.0198 66.5364 28.514 65.729 28.9419C64.9572 29.3494 64.8146 29.79 65.1661 30.8827C65.7621 31.1858 66.2511 31.438 66.8166 31.7283ZM52.1787 19.3981C52.9836 19.4159 53.4955 18.8352 53.4981 17.8979C53.5006 16.8791 53.0447 16.576 51.3458 16.4792C50.7957 16.4486 50.355 17.144 50.355 18.0431C50.355 18.5143 51.5241 19.3828 52.1787 19.3981ZM12.0017 73.1534C12.1596 73.4413 12.2589 73.7851 12.4831 74.0067C13.5987 75.1121 16.2654 74.6307 16.9251 73.212C17.0321 72.9828 17.0092 72.695 17.0474 72.4326C16.757 72.4148 16.4055 72.2849 16.1865 72.3995C14.8926 73.0796 13.5808 73.5329 12.0017 73.1534ZM43.0883 56.7607C40.3935 55.1968 39.2041 52.772 39.0742 49.7359C39.0207 48.4726 39.0487 47.2042 38.9341 45.9485C38.7736 44.1987 37.7548 42.5685 36.4635 41.9343C38.0503 43.3607 38.4094 45.1283 38.552 47.0462C38.6947 48.9922 38.8679 50.9687 39.3645 52.8459C39.8536 54.7128 41.2239 56.0271 43.0883 56.7607ZM57.2066 26.2267C57.3186 26.3999 57.4791 26.9501 57.7898 27.0571C58.3247 27.2379 59.0073 27.299 59.5269 27.1207C60.0898 26.9246 60.1866 25.7759 59.7409 25.3658C59.5575 25.1977 59.1678 25.2818 58.9258 25.1519C57.9809 24.645 57.2728 24.9685 57.2066 26.2267ZM41.476 48.3682C41.6416 48.4293 41.8021 48.521 41.9727 48.5465C45.9308 49.1221 48.1162 51.5571 48.5568 55.8769C48.6893 57.1682 48.6842 58.4748 48.8752 59.756C49.0841 61.1492 49.4457 62.517 49.7437 63.8949C49.8202 63.8771 49.8966 63.8593 49.973 63.8389C49.7386 62.7615 49.4381 61.6917 49.2853 60.6042C48.9898 58.5003 48.8727 56.3684 48.5161 54.2748C47.9022 50.6911 44.8203 48.0905 41.476 48.3682ZM59.9421 28.8094C59.8988 28.8222 59.858 28.8349 59.8147 28.8476C59.6696 28.5471 59.5244 28.2465 59.3792 27.946C58.6609 27.8339 58.1999 28.0835 58.0777 28.8273C57.958 29.5557 58.2305 30.088 58.9488 30.2867C59.6237 30.4726 60.1611 30.1746 60.4184 29.5506C60.6807 28.9113 60.6578 28.2847 59.8759 27.8365C59.9039 28.2236 59.9217 28.5165 59.9421 28.8094ZM49.731 22.238C49.4279 21.53 49.2394 21.0868 49.028 20.5901C48.1264 21.0791 47.7545 21.7312 48.0372 22.5386C48.1569 22.8825 48.7071 23.2951 49.0586 23.29C49.7667 23.2823 50.1462 22.7042 50.2481 22.0139C50.3321 21.4408 50.2149 20.9467 49.5425 20.6385C49.6037 21.1683 49.6521 21.5656 49.731 22.238ZM42.9202 47.6193C42.5636 46.1191 42.2249 44.6979 41.8301 43.0321C41.5372 43.4473 41.1628 43.7325 41.178 43.9974C41.2392 45.1563 41.4124 46.3102 41.5525 47.5225C41.9956 47.5531 42.4286 47.5837 42.9202 47.6193ZM18.3846 72.1677C17.5542 73.1305 16.7315 74.0857 15.8426 75.1172C16.8691 75.0434 17.8879 74.9975 18.4992 74.1315C18.8863 73.5813 19.0926 72.8503 18.3846 72.1677ZM58.3629 21.6369C58.7959 21.2956 59.2162 21.0919 59.4225 20.7557C59.5575 20.5366 59.4556 19.8846 59.3334 19.8464C58.8189 19.691 58.2279 19.5738 57.7236 19.6936C57.5097 19.7445 57.2626 20.4628 57.3569 20.7811C57.4562 21.1072 57.9529 21.3109 58.3629 21.6369ZM59.0328 22.1846C59.2926 22.7959 59.5499 23.1473 59.5804 23.5192C59.6339 24.1891 60.0618 24.2044 60.4209 23.9853C60.747 23.7841 61.1367 23.3409 61.1239 23.02C61.1086 22.6379 60.7622 22.0649 60.4311 21.9502C60.0389 21.8152 59.5117 22.0852 59.0328 22.1846ZM61.0068 16.1277C61.1163 16.0971 61.2258 16.0666 61.3328 16.0385C61.3328 16.8791 61.3328 17.7221 61.3328 18.5627C61.4016 18.5627 61.4729 18.5627 61.5416 18.5601C61.6231 17.9514 61.7047 17.3426 61.7862 16.7313C61.8295 16.7339 61.8753 16.7339 61.9186 16.7364C61.9848 17.3834 62.0511 18.0303 62.1122 18.6238C62.3083 18.6238 62.4586 18.6238 62.6572 18.6238C62.3134 17.2713 62.344 15.7686 60.966 14.7396C61.0093 15.091 61.0373 15.3356 61.0679 15.603C60.7826 15.3534 60.5407 15.1445 60.3012 14.9357C60.2121 15.035 60.1229 15.1369 60.0312 15.2362C60.3573 15.5342 60.6833 15.8297 61.0068 16.1277ZM55.3956 24.9659C55.2836 24.9074 55.1715 24.8488 55.0594 24.7927C54.7945 25.1595 54.4125 25.4957 54.3106 25.9032C54.2596 26.1045 54.6977 26.6241 54.9601 26.6597C55.332 26.7107 55.8719 26.5527 56.1012 26.2828C56.2922 26.0561 56.1394 25.539 56.1394 25.1493C56.0604 25.1391 55.9814 25.1264 55.9025 25.1162C55.7751 25.2563 55.6503 25.3964 55.5153 25.5467C55.4695 25.32 55.4313 25.1442 55.3956 24.9659ZM69.9291 25.8166C71.0065 25.2054 71.3197 24.5635 70.9937 23.509C70.357 23.9166 69.7406 24.3139 69.1904 24.6679C69.4782 25.1137 69.6845 25.4346 69.9291 25.8166ZM58.2993 22.4418C57.935 22.9258 57.5148 23.2492 57.5555 23.4937C57.6039 23.779 58.0726 24.212 58.3247 24.1891C58.6457 24.1611 58.9335 23.7408 59.234 23.4886C58.9793 23.1983 58.7195 22.9105 58.2993 22.4418ZM39.5377 58.1845C39.5887 58.2099 39.6396 58.2354 39.6906 58.2634C40.2382 57.6267 40.7858 56.9899 41.3589 56.32C40.9717 55.966 40.6839 55.7062 40.3171 55.3725C40.037 56.3964 39.7874 57.2905 39.5377 58.1845ZM29.9812 47.4792C30.3582 47.7314 30.6995 48.1389 30.9644 48.0931C31.3465 48.0269 31.7412 47.683 31.9909 47.3544C32.1131 47.1914 31.9221 46.7915 31.8661 46.4553C31.1784 46.8272 30.6638 47.1074 29.9812 47.4792ZM61.8396 29.0565C61.4601 29.5404 61.0373 29.8512 61.0704 30.1033C61.1086 30.3886 61.5518 30.8139 61.8244 30.819C62.0994 30.8241 62.5681 30.4141 62.6063 30.1364C62.642 29.8817 62.2217 29.5633 61.8396 29.0565ZM36.5908 41.4504C37.0289 41.4224 37.4619 41.5217 37.6147 41.3587C37.8949 41.0607 38.1216 40.615 38.1445 40.2176C38.1572 39.9935 37.7166 39.7439 37.467 39.4917C37.1664 40.1616 36.9372 40.6761 36.5908 41.4504ZM45.671 21.0715C46.2543 21.0155 47.0184 21.7592 47.2171 20.5595C47.6705 20.5162 48.1569 20.4679 48.6434 20.4195C47.3419 19.8107 46.5014 20.0298 45.671 21.0715ZM29.3368 46.137C29.5482 46.3866 29.7928 46.8043 29.8946 46.7712C30.3531 46.6234 30.8065 46.3942 31.186 46.0962C31.3006 46.0071 31.1682 45.6021 31.1427 45.3015C30.483 45.6072 29.9736 45.8415 29.3368 46.137ZM27.3374 41.6032C28.4199 41.2696 28.4479 40.5233 28.3664 39.6114C27.9793 39.7643 27.6634 39.8865 27.3374 40.0139C27.3374 40.5207 27.3374 40.9945 27.3374 41.6032ZM20.0427 71.1387C20.0223 70.2549 19.3142 70.0359 18.6775 69.8881C18.4712 69.8397 18.1477 70.2931 17.8777 70.5147C18.1197 70.6039 18.3565 70.7083 18.6061 70.7771C19.0672 70.9044 19.5358 71.0139 20.0427 71.1387ZM66.6103 32.1919C66.0626 31.8659 65.757 31.5399 65.4896 31.5679C65.2221 31.5933 64.9903 31.9754 64.7433 32.2021C64.9929 32.4339 65.2272 32.8236 65.4972 32.8516C65.7621 32.877 66.0652 32.5357 66.6103 32.1919ZM35.4268 40.6583C36.2826 40.8671 36.5857 40.6175 36.7818 39.6751C36.9245 38.9849 36.5271 38.9874 36.0967 38.9365C35.8547 39.5605 35.6408 40.1081 35.4268 40.6583ZM45.5182 22.0114C46.728 23.0149 47.2553 22.8723 47.5864 21.4306C46.8605 21.6344 46.267 21.8 45.5182 22.0114ZM34.1635 40.5003C35.3555 40.3424 35.3682 39.5427 35.4676 38.6894C35.1492 38.6665 34.8894 38.6461 34.6525 38.6308C34.4895 39.2574 34.3469 39.8025 34.1635 40.5003ZM32.9638 40.4469C33.9292 40.0368 34.0285 39.3797 33.9801 38.5773C33.6872 38.5773 33.4223 38.5773 33.1039 38.5773C33.0581 39.1835 33.0173 39.7337 32.9638 40.4469ZM29.2324 45.4747C30.6766 45.164 30.8549 44.9806 30.6231 44.1095C30.0959 44.2903 29.5737 44.4737 29.0108 44.6673C29.0872 44.9398 29.1509 45.1742 29.2324 45.4747ZM19.9102 42.1305C18.5832 41.8121 19.0977 43.2231 18.354 43.5619C19.49 43.7402 19.7803 43.4422 19.9102 42.1305ZM38.7838 40.7601C38.4145 41.2313 38.0808 41.6567 37.5663 42.3113C38.0299 42.3775 38.496 42.5736 38.6234 42.4412C39.0716 41.9776 39.4537 41.4045 38.7838 40.7601ZM51.2312 25.292C51.5037 24.8717 51.817 24.6043 51.7941 24.3648C51.7712 24.1076 51.4375 23.8783 51.2363 23.6389C50.9791 23.858 50.5282 24.0668 50.5155 24.2961C50.5053 24.5584 50.8848 24.8411 51.2312 25.292ZM31.591 29.0794C31.6496 29.2908 31.7209 29.5455 31.7922 29.8028C33.1574 29.3239 33.3917 28.9954 33.0097 28.2185C32.5563 28.4936 32.1029 28.7712 31.591 29.0794ZM32.8772 47.3392C32.2405 47.9046 31.8278 48.2714 31.3592 48.6865C32.0826 49.2775 32.6174 48.8368 33.0479 48.3758C33.1752 48.2434 32.9638 47.7951 32.8772 47.3392ZM28.9803 43.9694C30.2487 43.949 30.5569 43.7045 30.4524 42.7494C30.0296 43.2715 28.7281 42.5787 28.9803 43.9694ZM34.2373 49.9703C34.9862 50.3217 35.4803 50.0569 35.8904 49.5525C35.9948 49.4226 36.0228 49.2291 36.1043 49.0151C35.7732 48.9311 35.5058 48.8623 35.2995 48.8088C34.9352 49.2061 34.6194 49.5525 34.2373 49.9703ZM27.4138 42.4896C27.3858 42.4081 27.3578 42.324 27.3298 42.2425C25.5647 42.7901 23.7996 43.3378 22.037 43.8828C22.0574 43.9516 22.0778 44.0204 22.0981 44.0891C23.8683 43.5568 25.6411 43.0219 27.4138 42.4896ZM31.5655 37.2401C29.6807 37.2325 29.9991 37.207 29.9023 38.2131C30.6715 38.315 31.3133 38.236 31.5655 37.2401ZM34.6576 48.7324C33.486 47.734 33.3815 49.2953 32.7168 49.4048C33.5955 49.8531 34.1125 49.3641 34.6576 48.7324ZM60.8234 19.7598C60.5177 20.1851 60.1433 20.5061 60.2019 20.6665C60.3012 20.9365 60.6629 21.2345 60.9405 21.2676C61.1239 21.288 61.5162 20.8652 61.5238 20.6309C61.534 20.4042 61.1698 20.1648 60.8234 19.7598ZM40.6024 42.8029C40.5387 42.8131 40.4751 42.8207 40.4114 42.8309C40.6304 44.5425 40.852 46.2541 41.0711 47.9657C41.1526 47.953 41.2315 47.9428 41.313 47.9301C41.0762 46.221 40.8393 44.5119 40.6024 42.8029ZM28.9497 42.5049C30.2512 42.5405 30.5238 42.3521 30.4703 41.2874C30.0347 41.8834 28.8351 41.1982 28.9497 42.5049ZM31.0739 38.7429C30.5314 39.0383 29.3801 38.3965 29.4693 39.7541C30.2945 39.7897 30.8931 39.5936 31.0739 38.7429ZM52.8893 22.8774C52.6244 23.2951 52.3163 23.5727 52.3672 23.751C52.4411 24.0159 52.7696 24.2095 52.9887 24.4311C53.1975 24.2044 53.5618 23.9802 53.5669 23.7459C53.5719 23.5167 53.2179 23.2747 52.8893 22.8774ZM21.4665 41.9827C20.114 41.9292 20.6005 43.0499 20.0478 43.595C21.2856 43.6001 21.2271 42.7545 21.4665 41.9827ZM30.781 40.075C30.3404 40.5742 29.1713 39.805 29.0821 41.1626C29.8997 41.0734 30.6588 41.1295 30.781 40.075ZM51.1624 30.5924C51.2516 30.6688 51.3407 30.7452 51.4299 30.8216C51.84 30.5491 52.25 30.2791 52.8155 29.9047C52.2398 29.6601 51.9342 29.5302 51.5037 29.3468C51.3789 29.7977 51.2694 30.195 51.1624 30.5924ZM52.0794 22.6252C51.6871 22.2839 51.4757 21.9732 51.2057 21.9146C51.0555 21.8815 50.6225 22.3017 50.653 22.4469C50.7116 22.7194 50.974 23.0276 51.2312 23.1423C51.3688 23.2008 51.6719 22.885 52.0794 22.6252ZM64.8655 29.0004C64.4886 28.7407 64.239 28.4376 64.0326 28.4656C63.8085 28.4961 63.6277 28.8323 63.4265 29.0361C63.6506 29.2475 63.8467 29.571 64.104 29.6296C64.2644 29.6678 64.5166 29.3035 64.8655 29.0004ZM22.9616 41.8961C22.8444 41.8172 22.7273 41.7408 22.6101 41.6618C21.5989 41.7866 22.0217 42.7545 21.6855 43.2766C21.7925 43.3403 21.902 43.4065 22.009 43.4702C22.3274 42.9455 22.6432 42.4208 22.9616 41.8961ZM52.9326 22.8544C53.2052 22.4113 53.5032 22.1413 53.4573 21.9502C53.3962 21.6853 53.0778 21.479 52.869 21.2472C52.6881 21.451 52.3519 21.6624 52.3596 21.8585C52.3723 22.1285 52.6448 22.3858 52.9326 22.8544ZM38.5419 43.3225C38.7023 43.5695 38.8475 43.7886 38.9901 44.0076C39.0997 44.0153 39.2066 44.0229 39.3162 44.0306C39.4792 43.4498 39.6447 42.8666 39.8077 42.2858C39.716 42.2604 39.6269 42.2349 39.5352 42.2094C39.2296 42.5507 38.9239 42.892 38.5419 43.3225ZM40.0472 43.6179C39.8816 44.2649 38.6514 44.4279 39.4562 45.3728C40.4216 44.9653 40.5209 44.6979 40.0472 43.6179ZM35.9693 50.2606C37.1257 50.5204 37.3829 49.9091 37.602 49.196C36.4533 48.6458 36.5934 49.7894 35.9693 50.2606ZM41.1729 50.5C40.9335 52.3365 41.853 53.992 43.5086 54.6976C42.0746 53.5896 41.3003 52.3339 41.1729 50.5ZM33.16 29.8868C32.7753 30.3962 31.4254 29.9378 31.7845 31.2495C32.5283 31.0457 33.2083 30.8521 33.16 29.8868ZM26.0079 41.998C26.9171 41.756 26.8229 41.076 26.6981 40.3272C25.5392 40.5003 26.1785 41.4173 26.0079 41.998ZM39.9274 52.4154C40.2 52.8128 40.3986 53.1362 40.6432 53.4215C40.6712 53.4546 41.0762 53.284 41.0838 53.1897C41.1093 52.8459 41.043 52.4969 41.0023 52.0588C40.5999 52.1913 40.3503 52.2728 39.9274 52.4154ZM66.1671 34.2372C65.8283 33.9417 65.5965 33.5928 65.4182 33.6182C65.2043 33.6488 64.891 33.9927 64.8859 34.2092C64.8808 34.418 65.1865 34.7644 65.403 34.8077C65.5762 34.8408 65.8232 34.5097 66.1671 34.2372ZM30.4168 36.6339C31.4891 36.7384 31.7183 36.6085 31.8559 35.8112C30.5365 35.8189 30.5365 35.8189 30.4168 36.6339ZM31.5451 32.6529C32.3041 32.5179 32.9052 32.2887 32.9842 31.4634C32.5487 31.8837 31.3414 31.4201 31.5451 32.6529ZM31.1172 28.0606C31.1376 28.1676 31.158 28.2745 31.1784 28.3815C31.5604 28.2669 32.0087 28.2363 32.3041 28.0071C32.5385 27.8263 32.5894 27.4035 32.7219 27.0876C32.6454 27.0571 32.569 27.0265 32.4952 26.9959C32.0342 27.3525 31.5757 27.7066 31.1172 28.0606ZM50.5308 26.568C50.7498 26.2012 51.0376 25.9007 50.9765 25.7784C50.8441 25.5212 50.5308 25.3582 50.2914 25.1544C50.1462 25.3633 49.8558 25.6027 49.8915 25.7733C49.9424 26.023 50.2302 26.2216 50.5308 26.568ZM25.422 40.8085C24.1791 40.9945 24.854 41.9725 24.4236 42.6017C25.5112 42.3215 25.3966 41.593 25.422 40.8085ZM24.0899 41.2619C22.9463 41.4708 23.4761 42.4132 23.0227 43.0601C24.0543 42.7112 24.0696 42.0515 24.0899 41.2619ZM40.6279 47.2322C39.8179 47.3443 39.3671 47.6397 39.6218 48.5133C40.3248 48.3936 40.824 48.1517 40.6279 47.2322ZM51.1191 27.4264C50.676 27.1284 50.4391 26.8839 50.1589 26.8202C50.0494 26.7947 49.6775 27.2404 49.7208 27.3576C49.8151 27.6047 50.0774 27.8594 50.327 27.946C50.4646 27.9918 50.7167 27.7015 51.1191 27.4264ZM39.66 50.1664C40.3401 49.9753 40.8673 49.7767 40.6457 48.9209C40.2586 48.9947 39.902 49.0635 39.4995 49.1399C39.5556 49.5092 39.604 49.8072 39.66 50.1664ZM30.781 35.3248C32.0061 35.2433 32.1742 35.1235 32.2583 34.2601C31.7565 34.6192 30.8167 34.2117 30.781 35.3248ZM18.5705 41.7509C18.4584 41.7204 18.3463 41.6898 18.2343 41.6593C17.9006 42.1636 17.567 42.6704 17.2333 43.1747C17.567 43.2741 17.949 43.2461 18.0687 43.055C18.3107 42.6679 18.4126 42.1916 18.5705 41.7509ZM19.3524 73.6705C20.0299 72.6415 19.9612 71.9487 19.085 71.3298C19.1767 72.1244 19.2582 72.8452 19.3524 73.6705ZM53.1058 28.7916C52.7263 28.4961 52.52 28.2338 52.2653 28.1778C52.1405 28.1497 51.7814 28.5267 51.7992 28.6872C51.8247 28.8986 52.0921 29.194 52.3035 29.2399C52.4818 29.2806 52.7289 29.0183 53.1058 28.7916ZM39.6371 50.714C39.7033 51.0808 39.7619 51.4017 39.8205 51.7303C40.768 51.5112 40.768 51.5112 40.605 50.523C40.3044 50.5815 40.0064 50.6427 39.6371 50.714ZM67.5781 33.3814C67.247 33.119 67.0051 32.8006 66.8548 32.8388C66.6255 32.9 66.4625 33.2056 66.2715 33.4068C66.46 33.5775 66.6383 33.8678 66.8369 33.8806C67.0331 33.8933 67.2445 33.6233 67.5781 33.3814ZM50.1869 29.8792C50.3499 29.7773 50.513 29.6729 50.676 29.571C50.8237 29.4105 50.9689 29.2501 51.1166 29.087C50.9026 28.8986 50.7091 28.6158 50.4646 28.5598C50.3117 28.5242 49.9271 28.8222 49.9144 28.9877C49.8966 29.2781 50.085 29.5812 50.1869 29.8792ZM52.492 20.8117C52.1507 20.5978 51.9164 20.3329 51.7177 20.3583C51.5216 20.3813 51.2312 20.6945 51.2236 20.8881C51.2159 21.0791 51.5751 21.4714 51.6693 21.4408C51.9291 21.3568 52.1354 21.1021 52.492 20.8117ZM32.8186 33.2464C32.7499 33.1445 32.6811 33.0426 32.6123 32.9382C31.3261 33.31 31.3261 33.31 31.1936 34.1429C31.8278 33.794 32.322 33.5189 32.8186 33.2464ZM65.4564 28.8145C65.6959 28.4605 65.9582 28.2414 65.9404 28.0479C65.9226 27.8466 65.6347 27.6683 65.4641 27.4799C65.2756 27.6785 64.9852 27.8568 64.9343 28.0861C64.8986 28.244 65.1992 28.4758 65.4564 28.8145ZM43.4016 49.1068C43.1775 49.657 43.0756 49.9015 42.8591 50.4313C43.4475 50.2912 43.8142 50.202 44.181 50.1129C43.9696 49.8404 43.7582 49.5678 43.4016 49.1068ZM63.0979 34.2295C62.8279 34.581 62.5273 34.8001 62.5528 34.9784C62.5783 35.1694 62.8916 35.4114 63.1106 35.4521C63.2482 35.4776 63.5844 35.1668 63.5818 35.0115C63.5793 34.8001 63.3373 34.5912 63.0979 34.2295ZM41.9422 55.1662C41.9574 55.2681 41.9727 55.37 41.9905 55.4693C42.3293 55.5075 42.6706 55.5737 43.0068 55.5585C43.0578 55.5559 43.1927 55.1331 43.1163 55.0109C43.0017 54.8275 42.7343 54.7358 42.5534 54.6212C42.314 54.8377 42.1281 55.0032 41.9422 55.1662ZM71.3885 26.0433C71.1644 26.1987 70.9275 26.3643 70.5174 26.6521C71.1109 26.8711 71.6177 27.0596 72.3131 27.3169C71.9157 26.7692 71.6585 26.4152 71.3885 26.0433ZM40.6865 45.7727C40.5209 45.6708 40.3528 45.5715 40.1872 45.4696C39.9707 45.8466 39.7542 46.221 39.5377 46.598C39.7109 46.6718 40.014 46.8425 40.0395 46.8068C40.284 46.4808 40.4776 46.1217 40.6865 45.7727ZM45.6583 55.7138C45.3093 55.9405 44.9604 56.1647 44.423 56.5136C45.4443 56.9288 45.7856 56.6919 45.6583 55.7138ZM61.478 28.947C62.0944 29.0361 62.5324 29.0998 63.0087 29.1686C63.1234 28.8858 63.2507 28.5751 63.3475 28.3433C62.7795 28.5267 62.2115 28.7101 61.478 28.947ZM63.4901 30.3886C63.508 30.4726 63.5232 30.5567 63.5411 30.6407C63.8747 30.8649 64.2084 31.0865 64.5421 31.3106C64.6134 31.2699 64.6872 31.2291 64.7586 31.1909C64.6261 30.9005 64.565 30.5108 64.3408 30.3478C64.16 30.2179 63.7805 30.3657 63.4901 30.3886Z" fill="#D92E10"/>
<path d="M19.8032 30.8702C19.0315 31.5681 18.2597 32.2634 17.4905 32.9638C16.3673 33.9877 15.3459 35.1339 13.805 35.5924C13.2242 35.7656 12.5798 36.0126 12.1698 36.4278C11.0287 37.5791 9.49792 37.1868 8.17091 37.5409C6.95087 37.8669 5.73339 37.5154 4.65599 36.5195C6.69872 35.9872 7.62839 34.3953 8.65739 32.8772C9.8112 31.1758 11.0389 29.5228 12.2538 27.8621C12.455 27.587 12.7479 27.368 13.0256 27.1566C13.8202 26.5529 14.2532 26.6574 14.8416 27.4622C15.0021 27.6813 15.3434 27.7679 15.6032 27.9156C15.6643 27.61 15.7229 27.3043 15.784 26.9987C17.1238 28.29 18.4635 29.5814 19.8032 30.8702ZM16.6602 28.397C16.622 28.2416 16.5812 28.0837 16.543 27.9283C15.5573 28.7638 14.7754 28.802 14.2278 27.5641C14.1794 27.4546 13.5579 27.4368 13.3643 27.587C12.8167 28.0098 12.2665 28.4836 11.8718 29.0439C10.1347 31.5018 8.45363 33.9954 6.62231 36.6647C7.40679 36.1757 8.22185 35.9159 8.63447 35.3555C9.38839 34.3291 10.0353 33.1803 10.4913 31.9909C11.3725 29.6934 12.2385 29.0312 14.699 28.9446C15.3561 28.9217 16.0056 28.588 16.6602 28.397ZM11.1866 32.2736C12.9772 31.0714 15.4886 31.1045 16.8589 28.9955C15.9801 29.2069 15.2339 29.5228 14.4799 29.5432C12.4805 29.6017 11.6425 30.1901 11.1866 32.2736ZM10.588 36.5068C11.7037 36.3845 12.236 35.5363 11.8769 34.1508C11.4591 34.9123 11.0414 35.6764 10.588 36.5068ZM8.6905 36.8761C9.99713 36.8099 10.2111 35.8878 10.6339 35.0601C9.29415 34.9913 9.41641 36.2444 8.6905 36.8761ZM14.0444 34.9251C15.1651 34.5481 15.1625 33.8095 15.0403 32.9689C13.9476 33.2007 14.2252 34.0743 14.0444 34.9251ZM11.8336 32.9944C10.5728 32.8212 10.5728 33.6999 10.2697 34.3316C10.3614 34.408 10.4505 34.4819 10.5422 34.5583C10.9701 34.0361 11.4006 33.5165 11.8336 32.9944ZM12.5111 35.4956C12.5977 35.5313 12.6843 35.5695 12.7734 35.6051C13.4789 35.1721 13.642 34.5023 13.5426 33.7178C13.4509 33.6796 13.3592 33.6413 13.265 33.6006C13.0154 34.2348 12.7632 34.8665 12.5111 35.4956ZM17.7274 31.7896C18.5552 30.9466 18.6138 30.3378 17.9643 29.7138C17.8751 30.4907 17.8013 31.1402 17.7274 31.7896Z" fill="#D92E10"/>
<path d="M17.758 25.822C18.3132 25.3075 18.3514 24.9178 17.572 24.5484C16.6755 24.1256 16.5099 23.55 17.19 22.819C18.2012 21.7314 19.3066 20.7177 20.4426 19.7575C21.362 18.9806 22.3961 18.3362 23.3666 17.6179C24.607 16.701 25.8041 15.7408 25.8932 13.9757C25.9976 13.9553 26.1021 13.9349 26.2065 13.9146C26.5071 14.4876 26.9553 15.0327 27.0801 15.6414C27.4647 17.5543 27.3832 19.4365 26.4434 21.2322C26.0435 21.9938 25.9365 22.9132 25.5188 23.6621C24.9075 24.7548 24.1943 25.8016 23.4175 26.7847C22.768 27.6049 21.9606 28.3002 21.2347 29.0618C21.1888 29.1102 21.2321 29.2477 21.2347 29.342C20.2974 28.3996 19.3626 27.4572 18.4228 26.5122C18.652 25.7175 19.0824 24.9203 19.0697 24.1333C19.0468 22.7961 19.2938 21.6499 20.2821 20.7126C21.3187 20.2541 22.3732 19.8313 23.3869 19.3296C24.7674 18.6444 25.7277 17.6027 26.0027 16.1101C24.7547 17.1111 23.5117 18.1223 22.256 19.1131C21.5913 19.6378 20.8985 20.1293 20.2184 20.6387C19.3295 21.4793 18.4253 22.3045 17.572 23.1807C17.437 23.3208 17.4549 23.8811 17.5186 23.904C18.815 24.3447 18.8761 25.1903 18.3667 26.2652C18.3362 26.3288 18.4151 26.4434 18.4431 26.5326C18.2113 26.2957 17.9847 26.0588 17.758 25.822ZM22.307 20.5063C20.4222 21.0819 19.5307 22.0702 19.518 23.3182C19.5078 24.3931 19.4212 25.4679 19.3728 26.4358C21.1812 25.0477 21.1175 22.5592 22.307 20.5063ZM24.0823 21.6193C25.9212 21.1711 26.4205 20.7432 26.344 19.6861C25.7073 20.4426 24.5611 20.4401 24.0823 21.6193ZM26.5249 18.028C26.1021 18.7412 24.6095 18.4967 24.9101 19.9256C25.6436 19.4365 26.6242 19.2531 26.5249 18.028ZM23.0711 24.4364C24.3319 24.5434 24.6859 24.3345 24.9304 23.2163C24.2937 23.7334 23.2341 23.2749 23.0711 24.4364ZM23.5194 22.6738C23.5627 22.7553 23.6034 22.8368 23.6467 22.9158C24.7445 22.9795 25.3889 22.5949 25.4831 21.7009C24.7878 22.0473 24.1536 22.3605 23.5194 22.6738ZM24.3497 19.8619C24.2529 19.76 24.1561 19.6581 24.0619 19.5562C23.6875 20.086 22.5006 19.8772 22.8444 21.2908C23.4226 20.7457 23.8861 20.3051 24.3497 19.8619ZM20.0147 27.5692C20.0401 27.7093 20.0656 27.8469 20.0885 27.987C20.7355 27.8876 21.385 27.7857 22.0319 27.6864C22.0115 27.5565 21.9912 27.4266 21.9708 27.2993C21.3213 27.3858 20.6667 27.4775 20.0147 27.5692Z" fill="#D92E10"/>
<path d="M12.1265 25.8525C13.2319 24.6453 14.3322 23.4354 15.4504 22.2408C15.565 22.1186 15.7764 22.088 15.9419 22.0142C16.1151 22.7375 16.2858 23.4609 16.459 24.1868C15.7458 24.9331 15.0326 25.6819 14.3169 26.4282L14.3322 26.4078C14.131 26.3467 13.9298 26.283 13.7286 26.2219C14.5614 25.4323 15.3943 24.6453 16.2272 23.8557C16.1457 23.7793 16.0667 23.7028 15.9852 23.6264C15.1294 24.3956 14.2431 25.1368 13.7566 26.2499C13.4815 26.2066 13.2064 26.1633 12.9339 26.12C13.9705 25.0706 15.0123 24.0263 16.0336 22.9617C16.0591 22.9362 15.863 22.6993 15.6847 22.4344C14.699 23.5016 13.7769 24.4848 12.8855 25.4934C12.7887 25.6029 12.8651 25.8653 12.86 26.0589C12.6129 25.9875 12.371 25.9188 12.1265 25.8525Z" fill="#D92E10"/>
<path d="M17.7911 25.8602C17.7605 25.8576 17.7198 25.8653 17.6994 25.85C16.3444 24.8897 16.3444 24.8872 15.2874 26.3976C15.4478 26.5937 15.6134 26.7975 15.7789 26.9987C15.2975 26.8026 14.8162 26.6039 14.3322 26.4078L14.3169 26.4282C15.0709 25.7175 15.8248 25.0095 16.5787 24.2988C16.9837 24.8159 17.3861 25.338 17.7911 25.8602Z" fill="#D92E10"/>
<path d="M63.4315 70.5608C62.1274 69.3433 60.8259 68.1232 59.5218 66.9058C60.1382 67.4279 60.7775 67.9271 61.3658 68.4798C62.0765 69.1472 62.7438 69.8629 63.4315 70.5608Z" fill="#D92E10"/>
<path d="M20.817 31.9272C21.5582 32.5767 22.2968 33.2262 23.038 33.8732C22.2968 33.2237 21.5556 32.5767 20.817 31.9272Z" fill="#D92E10"/>
<path d="M68.8084 36.7486C68.6861 36.8607 68.5664 36.9753 68.4008 37.1281C68.518 36.6212 68.1436 36.0583 68.4798 35.7374C68.4187 35.1924 68.3652 34.7008 68.3092 34.2067L68.2888 34.2041C68.7396 34.8052 69.193 35.4038 69.6362 36.01C69.7686 36.1908 69.8654 36.3971 69.98 36.5932L69.924 36.6544C69.6387 36.5601 69.356 36.443 69.0631 36.392C68.9969 36.3818 68.8924 36.6212 68.8084 36.7486Z" fill="#D92E10"/>
<path d="M44.0969 54.3005C43.4041 53.5772 42.7088 52.8563 42.016 52.133L42.0211 52.0464C43.0093 52.5049 43.7785 53.2002 44.3032 54.163C44.2319 54.2088 44.1631 54.2547 44.0969 54.3005Z" fill="#D92E10"/>
<path d="M68.6809 34.0745C68.9305 34.2936 69.5571 33.7231 69.5495 34.4872C69.4068 34.4159 69.2642 34.3445 69.1241 34.2732C69.0936 34.3216 69.063 34.3675 69.0324 34.4159C69.1853 34.5407 69.3406 34.6655 69.4934 34.7903C69.1241 34.5814 68.7574 34.3751 68.388 34.1662C68.4848 34.1357 68.5816 34.1051 68.6809 34.0745Z" fill="#D92E10"/>
<path d="M66.2944 36.1477C66.4243 36.0229 66.5567 35.8956 66.6866 35.7708L66.6586 35.7529C66.7299 35.9185 66.8012 36.0815 66.8751 36.2471C66.8725 36.3311 66.8674 36.4152 66.8649 36.4992C66.6739 36.4254 66.4828 36.3515 66.2918 36.2776C66.2918 36.2343 66.2944 36.191 66.2944 36.1477Z" fill="#D92E10"/>
<path d="M56.9671 31.2827C56.8856 31.3209 56.8067 31.3566 56.7252 31.3948C56.8041 31.3668 56.8856 31.3387 56.9671 31.3107C56.9646 31.3082 56.9671 31.2827 56.9671 31.2827Z" fill="#D92E10"/>
<path d="M56.4731 30.9849C56.4349 31.0562 56.3941 31.1275 56.3559 31.1963C56.3814 31.13 56.4043 31.0638 56.4298 30.9976C56.4298 31.0001 56.4731 30.9849 56.4731 30.9849Z" fill="#D92E10"/>
<path d="M66.0932 35.9976C66.1619 36.051 66.2307 36.1045 66.2995 36.158C66.2332 36.102 66.1645 36.051 66.0932 35.9976Z" fill="#D92E10"/>
<path d="M57.94 47.1023C57.996 46.2872 58.0979 45.4747 58.0928 44.6596C58.0877 43.5619 57.9986 42.4641 57.9884 41.3638C58.401 43.2715 58.4418 45.1767 57.9196 47.0819C57.9196 47.0844 57.94 47.1023 57.94 47.1023Z" fill="#D92E10"/>
<path d="M56.6818 17.2458C56.8474 16.7339 57.0129 16.2219 57.1785 15.71C57.2651 15.7201 57.3517 15.7329 57.4383 15.7431C57.4663 16.2448 57.4943 16.7492 57.5249 17.312C57.6828 17.1974 57.7898 17.1159 57.8993 17.037C57.828 17.4674 57.7541 17.8979 57.6777 18.3512C57.3186 17.9539 57.0002 17.5999 56.6818 17.2458Z" fill="#D92E10"/>
<path d="M56.7531 31.3667C56.6818 31.438 56.6105 31.5093 56.5392 31.5806C56.6105 31.5093 56.6818 31.438 56.7531 31.3667Z" fill="#D92E10"/>
</svg>
